<svg version="1.2" xmlns="http://www.w3.org/2000/svg" viewBox="0 0 800 400" width="800" height="400">
	<title>1881(2)</title>
	<defs>
		<clipPath clipPathUnits="userSpaceOnUse" id="cp1">
			<path d="m800 400h-800v-400h800z"/>
		</clipPath>
		<linearGradient id="g1" x2="1" gradientUnits="userSpaceOnUse" gradientTransform="matrix(0,-430.396,818.861,0,325.73,428.431)">
			<stop offset="0" stop-color="#36d0c4"/>
			<stop offset=".472" stop-color="#272eaf"/>
			<stop offset=".994" stop-color="#19002a"/>
		</linearGradient>
	</defs>
	<style>
		.s0 { fill: url(#g1) } 
	</style>
	<g id="_Artboards_">
	</g>
	<g id="space">
		<g id="&lt;Clip Group&gt;" clip-path="url(#cp1)">
			<path id="-e-background" fill-rule="evenodd" class="s0" d="m805.8 0c0 0 0 5.1 0.1 13.3 0.2 7.5 0.5 17.2 0.9 27.4 0.3 4.8 0.5 9.6 0.8 14.5q0.5 7.1 1 14.7 0.5 7.6 1 16 0.6 9 1 19.4 0.5 11.3 0.9 24.7c0.2 9.7 0.4 20.3 0.5 31.5q0.1 9.3 0.2 19.1 0 9.9 0 20.2 0 11.3-0.1 23-0.1 11.8-0.3 23.9c-0.1 8.9-0.3 17.8-0.5 26.7-0.2 8.9-0.4 17.8-0.7 26.5-0.2 8.8-0.5 17.4-0.7 25.6-0.3 8.4-0.6 16.4-0.9 24-0.6 16.5-1.2 30.2-1.6 39.7-0.5 9.8-0.7 15.2-0.7 15.2 0 0-12.7 2.7-34.9 6.9q-8.4 1.3-18.5 2.8-10 1.5-21.7 3.1-11.7 1.4-24.8 2.8-13.2 1.3-27.6 2.5-14.4 1.1-30 2.1-15.6 0.9-32.2 1.6-16.6 0.5-34 0.9-17.5 0.3-35.7 0.3-18.1-0.1-36.9-0.4-18.7-0.5-37.8-1.2-19.1-0.9-38.5-2-19.3-1.3-38.7-2.7-19.4-1.5-38.7-3.2-19.3-1.8-38.3-3.6-19-1.8-37.6-3.6-18.5-1.7-36.4-3.3-17.9-1.6-35.1-3-17.1-1.2-33.3-2.2-16.2-0.9-31.3-1.5-15.1-0.4-29.1-0.6-13.9-0.1-26.4 0.1-12.6 0.3-23.8 0.7c-14.7 0.8-27.6 1.6-38.1 2.5-20.9 2.1-32.8 3.5-32.8 3.5 0 0-0.1-6.9-0.3-19.4-0.2-12.1-0.4-29-0.6-49.1 0-9-0.1-18.5-0.2-28.3 0-9.4 0-19.1 0-29 0-9.4 0-19 0-28.5 0.1-9.2 0.2-18.4 0.2-27.3q0.2-12 0.4-23.3 0.2-11 0.4-21.4 0.3-9.4 0.5-18.1 0.2-8.7 0.5-16.7 0.5-14.4 1-26.8 0.4-11.3 0.7-21 0.4-8.9 0.6-16.7 0.3-7.5 0.5-14.4 0.2-6.9 0.3-13.5c0.1-4.6 0.2-9.2 0.3-13.7 0.1-10 0.2-19.5 0.2-27.1 0-8.4 0-13.6 0-13.6 0 0 12.6 0 34.6-0.1 10.9 0 24.2 0 39.5-0.1q11.4 0 24.2-0.1 12.8 0 26.8-0.1 14-0.1 29.1-0.1 15.1-0.1 31.1-0.2 16-0.1 32.8-0.1 16.8-0.1 34.3-0.2 17.4-0.1 35.4-0.2 18-0.1 36.3-0.2 18.3-0.1 36.9-0.2 18.6 0 37.3-0.1 18.7-0.1 37.4-0.1 18.7-0.1 37.2-0.1 18.5 0 36.7-0.1 18.3 0 36 0 17.8 0.1 35 0.1 17.2 0 33.6 0.1 16.5 0.1 32.1 0.1 15.5 0.1 30 0.2 14.6 0.1 27.8 0.3 13.3 0.1 25.2 0.2 12 0.1 22.3 0.3 10.4 0.1 19 0.2c23 0.3 36.2 0.5 36.2 0.5z"/>
		</g>
	</g>
</svg>