<svg version="1.2" xmlns="http://www.w3.org/2000/svg" viewBox="0 0 800 400" width="800" height="400">
	<title>1881(2)</title>
	<defs>
		<clipPath clipPathUnits="userSpaceOnUse" id="cp1">
			<path d="m800 400h-800v-400h800z"/>
		</clipPath>
		<radialGradient id="g1" cx="0" cy="0" r="1" gradientUnits="userSpaceOnUse" gradientTransform="matrix(106.291,0,0,106.291,487.773,126.247)">
			<stop offset=".593" stop-color="#1622a0"/>
			<stop offset="1" stop-color="#5757e8"/>
		</radialGradient>
		<radialGradient id="g2" cx="0" cy="0" r="1" gradientUnits="userSpaceOnUse" gradientTransform="matrix(49.479,-25.089,25.089,49.479,742.285,167.778)">
			<stop offset=".593" stop-color="#0434c2"/>
			<stop offset="1" stop-color="#31c0f1"/>
		</radialGradient>
	</defs>
	<style>
		.s0 { fill: url(#g1) } 
		.s1 { opacity: .3;mix-blend-mode: multiply;fill: #974d8b } 
		.s2 { opacity: .51;mix-blend-mode: soft-light;fill: #5fcccc } 
		.s3 { opacity: .1;mix-blend-mode: multiply;fill: #190024 } 
		.s4 { fill: #e9e9a8 } 
		.s5 { fill: #5fcccc } 
		.s6 { fill: url(#g2) } 
	</style>
	<g id="_Artboards_">
	</g>
	<g id="space">
		<g id="&lt;Clip Group&gt;" clip-path="url(#cp1)">
			<g id="-e-planets">
				<g id="&lt;Group&gt;" style="opacity: .71">
					<path id="&lt;Path&gt;" class="s0" d="m551.8 77.2c-0.2 5.9-1.3 11.9-3.5 17.7q-1.3 3.3-2.9 6.4-0.3 0.5-0.5 0.9c-3.5 6.3-8.1 11.6-13.5 15.9q-2.4 2-5.1 3.7c-3.8 2.3-7.9 4.3-12.2 5.6q-0.4 0.2-0.9 0.3c-11.1 3.4-23.3 3.3-35-1.1-10.2-3.9-18.6-10.5-24.6-18.6-3.3-4.6-5.9-9.6-7.7-14.9-1.4-4.1-2.4-8.5-2.7-12.9q-0.1-0.5-0.1-1c-0.5-7.5 0.6-15.2 3.4-22.7q0.4-1.1 0.8-2.1c1.5-3.5 3.4-6.8 5.5-9.9q1.5-2.2 3.3-4.2 0.3-0.3 0.6-0.7c3.3-3.8 7.2-7.1 11.5-9.8q0.5-0.3 0.9-0.6 1.3-0.7 2.5-1.4 0.4-0.2 0.9-0.4c13.2-6.9 29.1-8.2 44.1-2.6 8.9 3.4 16.4 8.8 22.2 15.6q0.4 0.5 0.9 1.1 2.2 2.7 4 5.7 0.3 0.5 0.7 1.1c2.3 3.9 4 8.1 5.3 12.4q0.1 0.5 0.2 0.9c1 3.8 1.6 7.6 1.8 11.5q0.1 2 0.1 4.1z"/>
					<path id="&lt;Compound Path&gt;" fill-rule="evenodd" class="s1" d="m541.9 106.9c0 0-5 1.6-23.4-3.8-18.3-5.4-46.3-9.7-58.7-10.7-12.4-0.9-16.8-16.6-16.8-16.6 0 0 0.3-9.3 1.9-14.3 0 0 18.8 10.3 28.7 13 9.9 2.6 20.2-3.9 28.3-4.9 8.2-1 13.4 1.3 18.5 10.4 5.2 9.1 30.2 7.2 30.2 7.2 0 0-1.6 9.9-8.7 19.7zm-72.2-20.5c-1.6-2.3-9.8-1.9-8.5 1.3 2.7 6.8 10.2 1 8.5-1.3zm46.5-5.8c1.3-5.1-12.3-10.7-20.1-7.6-5.9 2.4 18.8 12.7 20.1 7.6zm2.1 19.2c-1.3-2.4-6.8-5.3-6.6-0.8 0.2 3.6 7.9 3.1 6.6 0.8zm21-0.8c0-2.7-3.4-2.6-3.6-0.1 0 1.2 3.5 2.7 3.6 0.1z"/>
					<path id="&lt;Path&gt;" class="s2" d="m551.8 77.2c0 0-17.9-11.3-32.1-14.1-14.2-2.9-29.9 6-48 2.9-9.4-1.6-18.1-6.9-24.4-11.6q2.3-5.3 5.5-9.9c3.3 3.4 12.5 12 21 15.1 10.7 3.9 20.5-0.4 38.5 0.7 15.4 0.9 34.3 10.2 39.4 12.8q0.1 2 0.1 4.1z"/>
					<path id="&lt;Compound Path&gt;" fill-rule="evenodd" class="s2" d="m531.4 118.1q-0.8 0.7-1.7 1.4c0.4-2-7.8-5.2-9.3-3.5-1.3 1.4 6.1 4.4 8.5 4q-1.3 0.9-2.6 1.8c-6.7-4-18-9.8-32.1-14.2-23.4-7.2-31.9 0.5-40.6 0.4-3.3-4.6-5.9-9.6-7.7-14.9 4.7 1.9 16.1 5.7 36.6 9.8 21.1 4.1 40.3 11.6 48.9 15.2zm-57.5-16.2c0.3-0.7-4.3-1.6-5.1-0.4-0.7 1 4.8 1.1 5.1 0.4zm55 18.1q0.4-0.3 0.8-0.5 0 0 0 0c-0.1 0.3-0.4 0.4-0.8 0.5zm-70.7-16.7c-0.5 1 4.6 2.5 6.7 1.1 2-1.4-5.9-3-6.7-1.1z"/>
					<path id="&lt;Path&gt;" class="s3" d="m472.1 49c-0.4 1.9 7.5 5.6 9 3.4 1.5-2.3-8.2-7.6-9-3.4z"/>
					<path id="&lt;Path&gt;" class="s3" d="m474.8 55.4c0.3 1.6 2.1 1.6 2.3 0.9 0.3-0.7-2.7-2.4-2.3-0.9z"/>
					<path id="&lt;Path&gt;" class="s3" d="m520.4 75.2c2.2-2.3 3.2-1 3.7 0.2 0.5 1.1-4.4 0.5-3.7-0.2z"/>
					<path id="&lt;Path&gt;" class="s3" d="m521.2 56.9c2.2-2.3 3.2-1 3.8 0.2 0.5 1.1-4.5 0.5-3.8-0.2z"/>
					<path id="&lt;Path&gt;" class="s3" d="m491.2 115.7c2.2-2.2 3.2-1 3.7 0.2 0.5 1.2-4.4 0.5-3.7-0.2z"/>
					<path id="&lt;Path&gt;" class="s3" d="m530.9 82.5c0.2 1.1 2.2 1.4 2.1 0.1-0.2-1.3-2.6-2-2.1-0.1z"/>
					<path id="&lt;Path&gt;" class="s3" d="m490 35.9c0.2 1.2 2.2 1.4 2.1 0.1-0.1-1.3-2.6-2-2.1-0.1z"/>
					<path id="&lt;Path&gt;" class="s2" d="m528 109.8c0.8 0.2 3.9 2.3 3.8 4.1-0.2 1.8-7.8 0.3-7.5-1.4 0.3-1.6 2.5-3 3.7-2.7z"/>
					<path id="&lt;Path&gt;" class="s2" d="m529.9 56.8c0.9 0.2 3.9 2.3 3.8 4.1-0.2 1.8-7.8 0.2-7.5-1.4 0.3-1.7 2.5-3 3.7-2.7z"/>
					<path id="&lt;Path&gt;" class="s2" d="m508.7 34.8c0.2 0.9-0.1 4.6-1.7 5.3-1.7 0.8-4-6.6-2.4-7.2 1.6-0.5 3.8 0.7 4.1 1.9z"/>
					<g id="&lt;Group&gt;" style="mix-blend-mode: soft-light">
						<path id="&lt;Path&gt;" class="s4" d="m520.6 48.2c0.3-0.8 0.3-1.7 0.1-2.5q0-0.3-0.1-0.4c-0.2-0.3-0.5-0.3-0.7-0.3-0.7 0-1.3 0.6-1.5 1.2-0.2 0.6 0 1.4 0.5 1.9 0.2 0.2 0.5 0.5 0.9 0.5 0.4 0 0.8-0.2 0.8-0.6 0-0.1-0.2 0-0.3 0.1z"/>
						<path id="&lt;Path&gt;" class="s4" d="m533.4 53.2c0.1-0.5-0.1-1-0.4-1.3-0.5 0.1-1 0.5-1.1 1-0.1 0.5 0.2 1 0.7 1.1 0.5 0.1 1-0.5 0.7-0.9z"/>
						<path id="&lt;Path&gt;" class="s4" d="m531.9 48.7q0-0.2-0.2-0.4 0-0.1 0-0.1-0.1 0-0.1 0c-0.1 0.1-0.2 0.4-0.3 0.4q-0.1 0-0.1 0c-0.1 0.1 0 0.1 0 0.2 0.2 0.2 0.6 0.1 0.7-0.1q0 0 0 0z"/>
						<path id="&lt;Path&gt;" class="s4" d="m528.4 44.5q-0.1-0.5-0.4-0.9 0 0-0.1-0.1-0.1 0-0.1 0.1c-0.3 0.1-0.3 0.6-0.7 0.7 0 0-0.1 0-0.1 0-0.1 0-0.1 0.2 0 0.2 0.4 0.4 1.1 0.3 1.3-0.1q0 0.1 0.1 0.1z"/>
						<path id="&lt;Path&gt;" class="s4" d="m537 42.4q-0.1-0.5-0.4-0.9 0 0-0.1-0.1 0 0-0.1 0.1c-0.3 0.1-0.3 0.6-0.6 0.7-0.1 0-0.2-0.1-0.2 0-0.1 0 0 0.2 0 0.2 0.4 0.4 1.1 0.3 1.4-0.1q0 0 0 0.1z"/>
						<path id="&lt;Path&gt;" class="s4" d="m532.9 45.9c0-0.3 0-0.5-0.2-0.7q-0.1 0.1-0.2 0.3c-0.1 0.1-0.1 0.2 0 0.3 0.1 0.1 0.3 0 0.4 0q0 0.1-0.1 0.1z"/>
						<path id="&lt;Path&gt;" class="s4" d="m531.4 45.2q-0.1-0.1-0.1-0.2-0.1 0-0.2 0-0.3 0-0.5 0 0.2 0.3 0.5 0.6 0 0 0 0.1c0.1 0.1 0 0.1 0 0.2-0.1 0.1 0 0.2 0.1 0.3 0.8 0.4 0.3-0.6 0.2-1z"/>
						<path id="&lt;Path&gt;" class="s4" d="m523.2 42.1q-0.1-0.1-0.1-0.1-0.1-0.1-0.2-0.1-0.3 0-0.5 0 0.2 0.3 0.5 0.7 0 0 0.1 0c0 0.1-0.1 0.2-0.1 0.2-0.1 0.1 0 0.2 0.1 0.3 0.8 0.4 0.3-0.6 0.2-1z"/>
						<path id="&lt;Path&gt;" class="s4" d="m533.7 40.2q-0.1-0.1-0.1-0.2c-0.2 0.1-0.2 0.3-0.2 0.4 0.1 0.2 0.4 0.2 0.4 0.1 0.1-0.1 0.1-0.3 0.2-0.2z"/>
						<path id="&lt;Path&gt;" class="s4" d="m521.1 40c0 0.2-0.3 0.4-0.5 0.3-0.2-0.2-0.2-0.5 0-0.6 0.2-0.1 0.5 0 0.5 0.3z"/>
						<path id="&lt;Path&gt;" class="s4" d="m524.1 42.5c0.2 0.1 0.3 0.3 0.2 0.4 0 0.2-0.3 0.2-0.5 0.1 0 0-0.1-0.1-0.1-0.1-0.1-0.2 0.3-0.2 0.3-0.4 0.1-0.1 0.1 0 0.1 0.1z"/>
						<path id="&lt;Path&gt;" class="s4" d="m536.1 55.7c0-0.3-0.2-0.5-0.4-0.7-0.3-0.1-0.7 0.1-0.7 0.4q0 0.1 0.1 0.2 0.1 0 0.1 0.1c0.2 0.1 0.3 0.2 0.5 0.2 0.2-0.1 0.4-0.2 0.4-0.4z"/>
						<path id="&lt;Path&gt;" class="s4" d="m541.9 58.8q-0.1 0.1-0.2 0.1c-0.1 0.1-0.1 0.2-0.1 0.3-0.1 0.1-0.3 0.2-0.4 0.4-0.3 0.2-0.2 0.6 0 0.9 0 0.1 0 0.2 0.1 0.2q0.1 0 0.2-0.1c0.3-0.1 0.6 0.3 0.9 0.2 0.3 0 0.7-0.3 0.7-0.6 0.3-0.8-0.5-1.5-1.2-1.4z"/>
						<path id="&lt;Path&gt;" class="s4" d="m533.1 48.7q0 0.1 0.1 0.2c-0.2 0-0.4-0.2-0.5-0.3 0-0.1-0.1-0.2-0.1-0.3 0.1 0 0.2-0.1 0.2-0.1 0.1-0.1 0.2-0.3 0.3-0.3 0.1 0 0.1 0.1 0.2 0.2q-0.1 0.1-0.1 0.2-0.1 0.3-0.2 0.5z"/>
						<path id="&lt;Path&gt;" class="s4" d="m531.1 50.6c0-0.1-0.2-0.1-0.3 0-0.1 0.1-0.1 0.3 0 0.4 0.2 0 0.3-0.1 0.4-0.3z"/>
						<path id="&lt;Path&gt;" class="s4" d="m530.7 48.5q0-0.1-0.1-0.2-0.1-0.1-0.2-0.1c-0.1 0.1-0.1 0.2-0.2 0.3-0.1 0.1-0.2 0.1-0.3 0.2 0 0.1 0.1 0.2 0.2 0.3 0.1 0 0.2-0.1 0.3-0.1q0.2-0.1 0.2-0.2c0.1-0.1 0.1-0.2 0-0.3z"/>
						<path id="&lt;Path&gt;" class="s4" d="m530.4 47.6c0 0.1-0.1 0.1-0.2 0.1q-0.1 0-0.2-0.1 0-0.1 0-0.1c0-0.1 0.1-0.2 0.2-0.2 0.1 0 0.2 0.1 0.2 0.2-0.1 0.1-0.1 0.2-0.2 0.2z"/>
						<path id="&lt;Path&gt;" class="s4" d="m520.7 49.5c0 0.1-0.1 0.1-0.2 0.1q-0.1 0-0.1-0.1-0.1-0.1-0.1-0.1c0-0.1 0.1-0.2 0.2-0.2 0.1 0 0.2 0.1 0.2 0.2 0 0.1-0.1 0.2-0.2 0.2z"/>
						<path id="&lt;Path&gt;" class="s4" d="m531.2 47.3c0.2 0 0.2-0.3 0.1-0.4q-0.1 0.1-0.2 0.1c0 0.1 0 0.2 0 0.2 0 0.1 0.2 0.1 0.2 0z"/>
						<path id="&lt;Path&gt;" class="s4" d="m521.4 36.6c0.1 0 0.2-0.2 0.1-0.3q-0.1 0-0.2 0.1c-0.1 0.1-0.1 0.2 0 0.2 0 0.1 0.1 0.1 0.2 0z"/>
						<path id="&lt;Path&gt;" class="s4" d="m518.3 43.5c0.1-0.2 0.1-0.4 0-0.5q-0.2 0.1-0.3 0.2-0.1 0-0.2 0.1c-0.1 0.1 0 0.3 0.1 0.3 0.2 0.1 0.3 0 0.4-0.1z"/>
						<path id="&lt;Path&gt;" class="s4" d="m522.3 44.9q0.2 0.4 0.4 0.7c0 0.1-0.2 0-0.3-0.1-0.1-0.1-0.2-0.2-0.2-0.3-0.1-0.1 0-0.3 0.1-0.3z"/>
						<path id="&lt;Path&gt;" class="s4" d="m540.4 51.3c0.2-0.2 0.1-0.4-0.1-0.5-0.2 0-0.4 0.1-0.5 0.3q0 0.1 0 0.2c0.1 0.1 0.2 0.2 0.4 0.2q0.1-0.1 0.3-0.2z"/>
						<path id="&lt;Path&gt;" class="s4" d="m523.3 41.7c0.2-0.1 0.2-0.4 0.1-0.5q-0.2 0-0.3 0.1c-0.1 0.2-0.2 0.4-0.1 0.5 0.1 0.1 0.4 0.1 0.4-0.1z"/>
						<path id="&lt;Path&gt;" class="s4" d="m522.8 43.4c0 0.1 0 0.3-0.2 0.3q-0.1-0.2-0.2-0.4c0.1-0.1 0.4-0.1 0.5 0z"/>
						<path id="&lt;Path&gt;" class="s4" d="m537.3 53.2q-0.2 0.2-0.4 0.5 0 0-0.1 0.1 0 0.1 0.1 0.2c0.1 0.2 0.2 0.5 0.4 0.4 0.3 0 0.4-0.3 0.5-0.5 0.2-0.4 1.2-1 0.8-1.6-0.4-0.5-1.1 0.6-1.3 0.9z"/>
						<path id="&lt;Path&gt;" class="s4" d="m539.3 50.3q0.1 0.1 0.2 0.2-0.2 0-0.4 0.1c-0.1 0-0.2-0.1-0.3-0.2 0-0.1 0.1-0.3 0.2-0.2q0.2 0 0.3 0.2z"/>
						<path id="&lt;Path&gt;" class="s4" d="m529.7 49.5c0 0.1-0.1 0.2-0.2 0.3-0.1 0-0.2-0.1-0.3-0.1 0-0.1 0-0.2 0-0.2q0.1 0 0.1 0 0.2 0 0.4 0 0 0 0 0.1z"/>
						<path id="&lt;Path&gt;" class="s4" d="m527.8 50.1c-0.2 0-0.3 0.1-0.4 0.2 0 0.1-0.1 0.2-0.3 0.2q0 0-0.1-0.1c0-0.1 0.1-0.1 0.2-0.2q0-0.1 0-0.2c0.1-0.2 0.3-0.3 0.4-0.3q0.2 0.1 0.2 0.3-0.1 0.1-0.2 0.2z"/>
						<path id="&lt;Path&gt;" class="s4" d="m527.4 48.9q0-0.1 0-0.1c-0.1 0-0.2 0-0.2 0.1 0 0.1 0 0.2 0.1 0.2 0.1 0 0.2-0.1 0.1-0.2z"/>
						<path id="&lt;Path&gt;" class="s4" d="m524 48.6q0 0 0-0.1c-0.1 0-0.2 0-0.2 0.1 0 0.1 0 0.2 0.1 0.2 0.1 0 0.2-0.1 0.1-0.2z"/>
						<path id="&lt;Path&gt;" class="s4" d="m532.2 46.8c0 0.1 0.1 0.2 0.2 0.1 0.1 0 0.1-0.1 0.2-0.1q0.2-0.1 0.3 0 0.1 0 0.1 0.1 0 0.1 0 0.1c-0.1 0.2-0.2 0.3-0.4 0.4-0.2 0.1-0.4 0.1-0.5 0-0.1-0.1-0.2-0.2-0.2-0.3 0.1-0.2 0.2-0.3 0.3-0.3z"/>
						<path id="&lt;Path&gt;" class="s4" d="m519.4 31.4c0 0.1 0.2 0.1 0.3 0.1 0 0 0.1-0.1 0.2-0.1q0.1-0.1 0.3 0 0.1 0 0.1 0.1 0 0.1-0.1 0.1c0 0.2-0.2 0.3-0.3 0.4-0.2 0.1-0.4 0.1-0.6 0-0.1-0.1-0.1-0.2-0.1-0.4 0-0.1 0.1-0.2 0.3-0.2z"/>
						<path id="&lt;Path&gt;" class="s4" d="m533.1 44.5c0.1-0.2 0-0.3-0.1-0.3-0.1-0.1-0.2 0-0.3 0-0.1 0.1-0.1 0.1-0.1 0.2q0.1 0 0.1 0 0.2 0.1 0.5 0.1z"/>
						<path id="&lt;Path&gt;" class="s4" d="m519.4 36.2c0.2-0.1 0.5-0.3 0.7-0.5q0-0.1 0-0.2c0-0.1-0.2-0.1-0.3-0.1-0.2 0-0.4-0.1-0.6-0.1-0.1-0.1-0.3 0.1-0.4 0.2-0.2 0.1-0.4 0.3-0.3 0.5 0.1 0.1 0.2 0.2 0.3 0.2q0.4 0 0.8-0.1z"/>
						<path id="&lt;Path&gt;" class="s4" d="m528 39.6c0.1 0 0.2-0.2 0.2-0.4 0-0.1 0-0.3-0.1-0.3-0.1-0.1-0.3 0-0.4 0q-0.2 0.2-0.3 0.3-0.1 0-0.1 0.1 0 0.1 0 0.1 0.3 0.4 0.7 0.5z"/>
						<path id="&lt;Path&gt;" class="s4" d="m525.9 45.3c1.6 0.4 2-1.5 0.7-2.2-1.3-0.7-2 1.8-0.7 2.2z"/>
						<path id="&lt;Path&gt;" class="s4" d="m533.1 51c-0.1 0.2-0.4 0.2-0.6 0 0.1-0.1 0.3-0.3 0.5-0.3 0.1-0.1 0.4 0 0.4 0.2q-0.1 0.1-0.2 0.3z"/>
						<path id="&lt;Path&gt;" class="s4" d="m528.7 54q-0.1-0.1-0.2-0.2-0.3 0.3-0.8 0.5c-0.1 0-0.3 0.1-0.4 0.1-0.2 0.1-0.3 0.2-0.3 0.4 0 0.3 0.4 0.4 0.7 0.4 0.4 0 0.7-0.2 1-0.5 0.2-0.3 0.2-0.7 0-1q-0.2 0.1-0.3 0.2z"/>
						<path id="&lt;Path&gt;" class="s4" d="m527 52c0-0.1-0.1-0.1-0.2-0.1q-0.2 0.1-0.3 0.2-0.4 0.3-0.8 0.6c-0.2 0.1-0.4 0.2-0.4 0.3 0 0.1 0.1 0.2 0.2 0.1q0.2 0 0.4-0.2c0.5-0.2 1-0.6 1.1-0.9q-0.1 0-0.3 0z"/>
						<path id="&lt;Path&gt;" class="s4" d="m526.1 50.5c0 0-0.1 0.1-0.1 0q-0.1 0-0.2 0 0-0.1 0-0.1c-0.1-0.1 0-0.2 0.1-0.3q0.1 0 0.2 0.1 0.1 0 0.1 0.1 0 0-0.1 0.1z"/>
						<path id="&lt;Path&gt;" class="s4" d="m529.2 42.5q0.3-0.2 0.5-0.5-0.1-0.1-0.2-0.1c-0.3 0-0.7 0.3-0.7 0.6q0 0.1 0.1 0.2 0.1 0.1 0.2 0 0.1-0.1 0.1-0.1z"/>
						<path id="&lt;Path&gt;" class="s4" d="m530.2 46.4q0-0.1 0-0.2-0.1 0.1-0.2 0.1c0 0.1 0 0.2 0.1 0.2q0 0 0.1 0 0.1-0.1 0.2-0.2z"/>
						<path id="&lt;Path&gt;" class="s4" d="m518.9 40.7q0-0.2 0-0.4c-0.1-0.1-0.2-0.2-0.3-0.2q-0.1 0-0.2 0.1c-0.1 0.1-0.1 0.4 0 0.5 0.2 0.1 0.4 0.1 0.5-0.1z"/>
						<path id="&lt;Path&gt;" class="s4" d="m523.2 35.9c0.2 0.2 0.1 0.4-0.1 0.4q-0.1 0-0.2-0.2 0.1-0.1 0.3-0.1z"/>
						<path id="&lt;Path&gt;" class="s4" d="m524.8 38.7c0-0.1-0.2-0.2-0.2-0.1-0.1 0.1 0 0.2 0 0.3 0.1 0 0.2-0.2 0.2-0.3z"/>
						<path id="&lt;Path&gt;" class="s4" d="m534 54.3q-0.1-0.1-0.2-0.2-0.1 0.1-0.2 0.2c0.1 0.1 0.2 0.2 0.3 0.1z"/>
						<path id="&lt;Path&gt;" class="s4" d="m555.5 52.6q-0.1-0.1-0.2-0.2-0.1 0.1-0.1 0.2c0 0.1 0.1 0.2 0.3 0.1z"/>
						<path id="&lt;Path&gt;" class="s4" d="m544.5 50.9c0.2 0.2 0.4 0.5 0.3 0.8q0 0.1 0 0.1-0.1 0-0.2 0c-0.3 0-0.7-0.2-0.8-0.5 0-0.3 0.3-0.5 0.6-0.4q0 0.1 0.1 0.2z"/>
						<path id="&lt;Path&gt;" class="s4" d="m539.6 77.4c0-0.5-0.1-1-0.5-1.3-0.5 0.1-0.9 0.5-1 1-0.2 0.4 0.1 1 0.6 1.1 0.5 0.1 1-0.5 0.7-0.9z"/>
						<path id="&lt;Path&gt;" class="s4" d="m538.1 72.9q-0.1-0.2-0.2-0.4-0.1-0.1-0.1-0.1 0 0 0 0c-0.2 0.1-0.2 0.4-0.4 0.4q0 0-0.1 0c0 0 0 0.1 0 0.1 0.2 0.2 0.6 0.2 0.7 0q0 0 0.1 0z"/>
						<path id="&lt;Path&gt;" class="s4" d="m543.1 66.6q-0.1-0.5-0.3-0.9-0.1-0.1-0.1-0.1-0.1 0-0.1 0c-0.3 0.2-0.4 0.7-0.7 0.7-0.1 0-0.1 0-0.2 0.1-0.1 0 0 0.1 0.1 0.2 0.3 0.4 1 0.3 1.3-0.1q0 0 0 0.1z"/>
						<path id="&lt;Path&gt;" class="s4" d="m539 70.1c0.1-0.3 0-0.5-0.2-0.7q-0.1 0.1-0.2 0.2c0 0.1 0 0.3 0 0.3 0.1 0.1 0.3 0.1 0.4 0.1q0 0 0 0.1z"/>
						<path id="&lt;Path&gt;" class="s4" d="m537.5 69.4q0-0.1-0.1-0.2-0.1 0-0.2 0-0.2 0-0.5-0.1 0.3 0.4 0.5 0.7 0.1 0 0.1 0.1c0 0-0.1 0.1-0.1 0.2 0 0.1 0.1 0.2 0.2 0.2 0.7 0.4 0.2-0.6 0.1-0.9z"/>
						<path id="&lt;Path&gt;" class="s4" d="m539.9 64.4q-0.1-0.1-0.2-0.2c-0.1 0.1-0.2 0.2-0.1 0.4 0 0.2 0.3 0.2 0.4 0.1 0-0.1 0.1-0.3 0.2-0.2z"/>
						<path id="&lt;Path&gt;" class="s4" d="m542.2 79.9c0-0.3-0.1-0.6-0.4-0.7-0.2-0.1-0.6 0.1-0.6 0.3q0 0.2 0 0.3 0.1 0 0.2 0.1c0.1 0.1 0.3 0.2 0.5 0.1 0.2 0 0.3-0.1 0.3-0.3z"/>
						<path id="&lt;Path&gt;" class="s4" d="m539.2 72.9q0.1 0.1 0.1 0.2c-0.2 0-0.3-0.2-0.4-0.3-0.1-0.1-0.2-0.2-0.1-0.3 0-0.1 0.1-0.1 0.2-0.1 0.1-0.1 0.1-0.3 0.3-0.3 0 0 0.1 0.1 0.1 0.2q0 0.1-0.1 0.2-0.1 0.2-0.2 0.5z"/>
						<path id="&lt;Path&gt;" class="s4" d="m537.4 71.5c0.1-0.1 0.2-0.3 0.1-0.4q-0.2 0-0.2 0.1c-0.1 0.1-0.1 0.2-0.1 0.2 0.1 0.1 0.2 0.1 0.2 0z"/>
						<path id="&lt;Path&gt;" class="s4" d="m546.6 75.5c0.1-0.2 0-0.4-0.2-0.5-0.2 0-0.4 0.1-0.4 0.3q-0.1 0.1 0 0.2c0 0.1 0.2 0.2 0.3 0.1q0.2 0 0.3-0.1z"/>
						<path id="&lt;Path&gt;" class="s4" d="m543.4 77.4q-0.2 0.2-0.3 0.5-0.1 0-0.1 0.1 0 0.1 0 0.2c0.1 0.2 0.2 0.4 0.5 0.4 0.2 0 0.3-0.3 0.4-0.5 0.2-0.4 1.2-1.1 0.8-1.6-0.4-0.5-1 0.6-1.3 0.9z"/>
						<path id="&lt;Path&gt;" class="s4" d="m545.5 74.5q0 0.1 0.1 0.1-0.2 0.1-0.4 0.1c-0.1 0-0.2 0-0.2-0.2-0.1-0.1 0.1-0.2 0.2-0.2q0.1 0.1 0.3 0.2z"/>
						<path id="&lt;Path&gt;" class="s4" d="m538.3 71c0 0.1 0.1 0.1 0.2 0.1 0.1 0 0.2-0.1 0.3-0.1q0.1-0.1 0.2 0 0.1 0 0.1 0.1 0 0.1 0 0.1c-0.1 0.2-0.2 0.3-0.4 0.4-0.1 0.1-0.4 0.1-0.5 0-0.1-0.1-0.1-0.2-0.1-0.4 0-0.1 0.1-0.2 0.2-0.2z"/>
						<path id="&lt;Path&gt;" class="s4" d="m539.3 68.6c0-0.1 0-0.2-0.2-0.3-0.1 0-0.2 0-0.3 0.1 0 0.1-0.1 0.1 0 0.2q0 0 0.1 0 0.2 0 0.4 0.1z"/>
						<path id="&lt;Path&gt;" class="s4" d="m539.3 75.2c-0.1 0.2-0.5 0.2-0.6 0 0.1-0.1 0.2-0.3 0.4-0.3 0.2-0.1 0.4 0 0.4 0.2q-0.1 0.1-0.2 0.3z"/>
						<path id="&lt;Path&gt;" class="s4" d="m540.1 78.5q-0.1-0.1-0.2-0.2-0.1 0.1-0.1 0.1c0 0.2 0.2 0.2 0.3 0.2z"/>
						<path id="&lt;Path&gt;" class="s4" d="m550.6 75.1c0.3 0.2 0.4 0.5 0.3 0.8q0 0 0 0.1-0.1 0-0.2 0c-0.3-0.1-0.7-0.2-0.7-0.5-0.1-0.3 0.3-0.6 0.5-0.5q0.1 0.2 0.1 0.3z"/>
						<path id="&lt;Path&gt;" class="s4" d="m533.7 66.6c0.2 0.2 0.3 0.5 0.3 0.8q0 0.1-0.1 0.1 0 0-0.1 0c-0.4 0-0.7-0.2-0.8-0.5 0-0.3 0.3-0.5 0.5-0.4q0.1 0.1 0.1 0.2z"/>
					</g>
					<g id="&lt;Group&gt;" style="opacity: .51;mix-blend-mode: soft-light">
						<path id="&lt;Path&gt;" class="s5" d="m470.2 30.7q-1-0.5-2-0.9 0.5-0.3 0.9-0.6 0.7 0.4 1.5 0.7l1 0.5c15.2 6.6 31.3 11 47.8 13q2.7 0.3 5.4 0.5c4.4 0.5 8.9 1 13.3 1.9q3 0.6 5.6 1.4 0.3 0.5 0.7 1.1-3-1-6.5-1.7c-4.3-0.9-8.8-1.3-13.2-1.8q-2.7-0.3-5.4-0.6c-16.6-2-32.7-6.4-48-13z"/>
						<path id="&lt;Path&gt;" class="s5" d="m549.9 61.6c-4.3-0.3-8.4-1.8-12.5-3.2q-1.2-0.5-2.4-0.9c-10.9-3.8-21.4-5.5-31.4-5.2-2.2 0.1-4.4 0.3-6.5 0.5-3.3 0.2-6.7 0.5-10.1 0.4-10-0.3-19.9-3.9-27.8-10.1q-1.8-1.4-3.1-2.8 0.3-0.3 0.6-0.7 1.2 1.4 3 2.8c7.8 6.1 17.5 9.6 27.3 9.9 3.4 0.1 6.7-0.1 10-0.4 2.2-0.2 4.4-0.4 6.6-0.4 10-0.4 20.7 1.4 31.7 5.2q1.2 0.4 2.4 0.9c3.9 1.4 7.9 2.8 12 3.1q0.1 0.5 0.2 0.9z"/>
					</g>
					<g id="&lt;Group&gt;" style="opacity: .51;mix-blend-mode: soft-light">
						<path id="&lt;Path&gt;" class="s5" d="m545.4 101.3q-0.3 0.5-0.5 0.9-0.9 0.1-1.8 0.1c-4.2 0.2-9.9-0.4-12.8-4.5-0.6-0.9-1.1-1.8-1.6-2.8-0.8-1.6-1.5-3.2-3-4-1.1-0.7-2.5-0.7-3.5-0.6-2.4 0.3-4.5 1.4-6.7 2.6-1.8 0.9-3.6 1.9-5.6 2.4-3 0.8-6.2 0.4-9.1 0h-0.3q-9.7-1.2-19.3-2.4c-1.2-0.2-2.5-0.4-3.6-1-1-0.7-2-2-1.6-3.5 0.2-0.8 0.7-1.3 1.2-1.9 0.3-0.3 0.7-0.6 0.9-1 0.8-1.3 0.2-3.1-0.8-4.1q-1.4-1.5-4.2-1.9c-4-0.7-8.2 0.2-12.2 1.1-3.5 0.7-7.1 1.6-10.7 1.3-2.4-0.1-4.8-0.8-7-1.8q-0.1-0.5-0.1-1c2.2 1.1 4.7 1.8 7.1 2 3.5 0.2 7.1-0.6 10.5-1.4 4.1-0.9 8.4-1.8 12.5-1.1q3.2 0.5 4.8 2.2c1.2 1.3 1.8 3.4 0.8 5.1-0.2 0.5-0.6 0.9-0.9 1.2-0.5 0.5-0.9 1-1.1 1.5-0.2 1 0.5 2 1.3 2.5 0.9 0.6 2.1 0.8 3.2 0.9q9.6 1.2 19.3 2.4l0.3 0.1c2.9 0.3 5.9 0.7 8.8 0 1.9-0.5 3.7-1.5 5.4-2.4 2.2-1.2 4.5-2.4 7-2.6 1.6-0.2 3 0 4.1 0.6 1.7 1 2.5 2.8 3.3 4.5 0.5 0.8 0.9 1.8 1.5 2.6 2.7 3.7 8.1 4.3 12.1 4.1q1.1 0 2.3-0.1z"/>
					</g>
					<g id="&lt;Group&gt;" style="opacity: .51;mix-blend-mode: soft-light">
						<path id="&lt;Path&gt;" class="s5" d="m514.1 127.4q-0.4 0.2-0.9 0.3c-0.8-1.1-1.5-2.3-2.2-3.4q-0.2-0.5-0.5-0.9c-3.3-5.9-7.6-10.1-12.4-12.4-5.5-2.6-11.8-2.8-17.8-2.6-7.1 0.3-15.2 1.1-21.2 5.7l-0.5-0.7c6.2-4.7 14.4-5.6 21.6-5.9 6.2-0.2 12.6 0 18.3 2.7 4.9 2.3 9.3 6.8 12.8 12.7q0.2 0.5 0.5 0.9c0.7 1.3 1.4 2.5 2.3 3.6z"/>
					</g>
					<g id="&lt;Group&gt;" style="opacity: .51;mix-blend-mode: soft-light">
						<path id="&lt;Path&gt;" class="s5" d="m539.7 41.5q-0.8-0.2-1.5-0.3c-6.3-1.3-12.7-1.9-19-1.8-0.8 0-1.6 0-2.3-0.3-1.6-0.6-2.2-2.2-2.7-3.8-0.3-0.6-0.5-1.3-0.8-1.9-1.4-2.5-4.4-3.3-6.8-3.3-2.3 0.1-4.6 0.8-6.8 1.5l-1.1 0.3c-6.2 1.9-11.2 2.5-15.7 1.8-4.6-0.7-8.7-2.8-11.4-5.9q0.4-0.2 0.9-0.4c2.5 2.8 6.3 4.8 10.7 5.4 4.3 0.7 9.2 0.1 15.2-1.7l1.1-0.3c2.3-0.8 4.7-1.5 7.1-1.5 2.6-0.1 5.9 0.9 7.5 3.7 0.4 0.6 0.6 1.3 0.9 2 0.5 1.5 1 2.8 2.2 3.3 0.6 0.2 1.3 0.2 1.9 0.2 6.5-0.1 13 0.5 19.3 1.8q0.2 0.1 0.4 0.1 0.4 0.5 0.9 1.1z"/>
					</g>
				</g>
				<g id="&lt;Group&gt;" style="opacity: .2">
					<path id="&lt;Path&gt;" class="s6" d="m760.5 129.8c1.3 2.8 2.2 5.9 2.5 9.1q0.2 1.9 0.2 3.7 0 0.2 0 0.5c-0.2 3.7-1 7.3-2.5 10.6q-0.7 1.5-1.5 2.9c-1.3 2-2.7 3.9-4.4 5.5q-0.1 0.2-0.3 0.4c-4.4 4.2-10.1 7-16.6 7.7-5.7 0.6-11.1-0.5-15.8-2.9-2.6-1.3-5-3-7.1-5.1q-2.5-2.4-4.3-5.3-0.2-0.3-0.3-0.5c-2-3.4-3.3-7.2-3.8-11.4q0-0.5-0.1-1.1-0.2-3 0.2-5.9 0.2-1.4 0.5-2.7 0.1-0.3 0.2-0.5c0.6-2.6 1.7-5 3-7.3q0.2-0.2 0.3-0.5 0.4-0.6 0.8-1.2 0.2-0.2 0.3-0.4c4.6-6.3 11.7-10.7 20-11.6 4.9-0.6 9.7 0.2 14 2q0.3 0.1 0.6 0.3 1.7 0.7 3.3 1.7 0.3 0.1 0.5 0.3c2 1.3 3.8 2.8 5.4 4.6q0.2 0.1 0.4 0.3 2 2.3 3.5 4.9 0.5 1 1 1.9z"/>
					<path id="&lt;Path&gt;" class="s3" d="m716.7 135.5c0.3 1 4.9 0.9 5-0.5 0.2-1.4-5.5-1.6-5 0.5z"/>
					<path id="&lt;Path&gt;" class="s3" d="m719.5 137.9c0.5 0.6 1.4 0.2 1.3-0.2 0-0.3-1.8-0.5-1.3 0.2z"/>
					<path id="&lt;Path&gt;" class="s3" d="m745.4 136.3c0.5-1.6 1.3-1.2 1.8-0.8 0.5 0.4-2 1.3-1.8 0.8z"/>
					<path id="&lt;Path&gt;" class="s3" d="m741.5 127.6c0.5-1.6 1.3-1.2 1.8-0.8 0.5 0.4-2 1.3-1.8 0.8z"/>
					<path id="&lt;Path&gt;" class="s3" d="m741.4 162.1c0.5-1.6 1.2-1.2 1.8-0.8 0.5 0.4-2 1.3-1.8 0.8z"/>
					<path id="&lt;Path&gt;" class="s3" d="m752 137.3c0.4 0.4 1.4 0 1-0.5-0.3-0.6-1.6-0.3-1 0.5z"/>
					<path id="&lt;Path&gt;" class="s3" d="m722 125.2c0.4 0.5 1.4 0.1 1-0.4-0.4-0.6-1.7-0.4-1 0.4z"/>
					<path id="&lt;Path&gt;" class="s2" d="m757.1 150.6c0.5-0.1 2.4 0.2 2.8 1.1 0.3 0.8-3.6 1.9-3.9 1.1-0.2-0.9 0.5-2 1.1-2.2z"/>
					<path id="&lt;Path&gt;" class="s2" d="m745.5 125.5c0.5-0.1 2.4 0.2 2.7 1 0.4 0.9-3.5 2-3.8 1.1-0.2-0.8 0.5-2 1.1-2.1z"/>
					<path id="&lt;Path&gt;" class="s2" d="m730.5 120.3c0.3 0.3 1 2.1 0.4 2.9-0.6 0.7-3.4-2.2-2.8-2.8 0.6-0.7 1.9-0.6 2.4-0.1z"/>
					<g id="&lt;Group&gt;" style="mix-blend-mode: soft-light">
						<path id="&lt;Path&gt;" class="s4" d="m739.2 123.7q-0.2-0.7-0.6-1.2-0.1-0.1-0.2-0.2c-0.1 0-0.2 0-0.4 0.1-0.3 0.2-0.4 0.5-0.3 0.9 0 0.3 0.3 0.6 0.6 0.7 0.2 0.1 0.4 0.1 0.6 0.1 0.1-0.1 0.3-0.3 0.2-0.5 0 0-0.1 0-0.1 0.1z"/>
						<path id="&lt;Path&gt;" class="s4" d="m746.3 123c-0.1-0.2-0.3-0.4-0.5-0.5-0.2 0.2-0.3 0.4-0.3 0.7 0.1 0.3 0.3 0.5 0.6 0.4 0.2-0.1 0.3-0.5 0.1-0.6z"/>
						<path id="&lt;Path&gt;" class="s4" d="m744.5 121.3q0-0.1-0.2-0.2 0 0 0 0 0 0 0 0c-0.1 0.1 0 0.2-0.1 0.3q0 0 0 0 0 0 0 0.1c0.1 0 0.3-0.1 0.3-0.2q0 0 0 0z"/>
						<path id="&lt;Path&gt;" class="s4" d="m741.9 120.1q-0.2-0.1-0.4-0.3 0 0-0.1 0 0 0 0 0c-0.1 0.2 0 0.4-0.1 0.5q-0.1 0-0.1 0.1c0 0 0 0.1 0.1 0.1 0.2 0.1 0.5-0.1 0.5-0.4q0.1 0 0.1 0.1z"/>
						<path id="&lt;Path&gt;" class="s4" d="m745.4 117.1q-0.2-0.2-0.4-0.3 0 0 0 0-0.1 0-0.1 0c-0.1 0.2 0 0.4-0.1 0.5q-0.1 0-0.1 0.1c0 0 0 0.1 0.1 0.1 0.2 0.1 0.5-0.1 0.6-0.4q0 0 0 0z"/>
						<path id="&lt;Path&gt;" class="s4" d="m744.3 119.7q0-0.2-0.2-0.2-0.1 0-0.1 0.1 0 0.1 0.1 0.2c0.1 0 0.1-0.1 0.2-0.1q0 0 0 0z"/>
						<path id="&lt;Path&gt;" class="s4" d="m743.4 119.8q0-0.1 0-0.1-0.1 0-0.1 0-0.2 0.1-0.3 0.1 0.2 0.1 0.4 0.2 0 0 0.1 0c0 0.1 0 0.1 0 0.2 0 0 0.1 0 0.1 0 0.4 0.1 0-0.3-0.2-0.4z"/>
						<path id="&lt;Path&gt;" class="s4" d="m738.9 120.3q0-0.1-0.1-0.1 0 0-0.1 0-0.1 0.1-0.2 0.1 0.2 0.1 0.4 0.2 0 0 0 0c0.1 0.1 0 0.1 0 0.2 0 0 0.1 0 0.2 0 0.4 0.1-0.1-0.3-0.2-0.4z"/>
						<path id="&lt;Path&gt;" class="s4" d="m743.4 116.9q-0.1-0.1-0.2-0.1c0 0.1 0 0.2 0.1 0.2 0 0.1 0.2 0.1 0.2 0 0-0.1 0-0.2 0-0.2z"/>
						<path id="&lt;Path&gt;" class="s4" d="m737.4 119.8c0.1 0.1 0 0.2-0.1 0.2-0.2 0-0.2-0.2-0.2-0.3 0.1-0.1 0.3-0.1 0.3 0z"/>
						<path id="&lt;Path&gt;" class="s4" d="m739.4 120.2c0.1 0 0.2 0.1 0.2 0.2 0 0.1-0.1 0.1-0.2 0.1q0 0-0.1 0c0-0.1 0.1-0.2 0.1-0.3 0 0 0 0 0 0z"/>
						<path id="&lt;Path&gt;" class="s4" d="m748.1 123.5c-0.1-0.1-0.2-0.2-0.3-0.2-0.2 0-0.3 0.2-0.2 0.3q0 0.1 0 0.1 0.1 0 0.1 0 0.2 0.1 0.3 0c0.1-0.1 0.1-0.2 0.1-0.3z"/>
						<path id="&lt;Path&gt;" class="s4" d="m751.6 123.6q-0.1 0.1-0.1 0.1 0 0.1 0 0.2c0 0.1-0.1 0.1-0.1 0.2 0 0.2 0.1 0.4 0.2 0.5q0.1 0 0.1 0 0.1 0 0.1 0c0.1-0.2 0.3-0.1 0.5-0.2 0.1-0.1 0.2-0.3 0.2-0.4-0.1-0.5-0.6-0.6-0.9-0.4z"/>
						<path id="&lt;Path&gt;" class="s4" d="m745.1 121q0 0 0 0.1c0 0-0.1 0-0.2-0.1-0.1 0-0.1 0-0.1-0.1q0 0 0-0.1c0.1-0.1 0-0.2 0.1-0.2q0.1 0 0.1 0.1 0 0 0 0.1 0 0.1 0 0.3z"/>
						<path id="&lt;Path&gt;" class="s4" d="m744.6 122.4c0-0.1-0.1-0.1-0.1 0-0.1 0.1 0 0.2 0 0.2 0.1 0 0.2-0.2 0.2-0.3z"/>
						<path id="&lt;Path&gt;" class="s4" d="m743.9 121.5q0-0.1-0.1-0.1 0 0-0.1 0c0 0 0 0.1 0 0.2 0 0-0.1 0.1-0.1 0.1 0 0.1 0.1 0.1 0.1 0.1q0.1 0 0.2-0.1 0-0.1 0-0.1 0-0.1-0.1-0.2z"/>
						<path id="&lt;Path&gt;" class="s4" d="m743.5 121.1q0.1 0.1 0 0.1-0.1 0-0.1 0 0 0 0-0.1c-0.1 0 0-0.1 0-0.1q0.1 0 0.1 0.1 0 0.1 0 0.1z"/>
						<path id="&lt;Path&gt;" class="s4" d="m739.5 124.3q0 0-0.1 0.1 0 0-0.1 0 0-0.1 0-0.1c0 0 0-0.1 0-0.1q0.1 0 0.2 0 0 0.1-0.1 0.2z"/>
						<path id="&lt;Path&gt;" class="s4" d="m743.9 120.8c0-0.1 0-0.2-0.1-0.2q0 0 0 0.1 0 0 0 0.1c0 0 0.1 0 0.1-0.1z"/>
						<path id="&lt;Path&gt;" class="s4" d="m736.8 118.1c0 0 0-0.1-0.1-0.1q0 0 0 0 0 0.1 0 0.2c0.1 0 0.1-0.1 0.1-0.1z"/>
						<path id="&lt;Path&gt;" class="s4" d="m737 122q0-0.1-0.1-0.2-0.1 0.1-0.2 0.2 0 0 0 0.1c0 0 0.1 0.1 0.1 0.1q0.1 0 0.2-0.2z"/>
						<path id="&lt;Path&gt;" class="s4" d="m739.2 121.8q0.1 0.1 0.3 0.2c0 0-0.1 0-0.1 0q-0.2 0-0.2-0.1c-0.1 0-0.1-0.1 0-0.1z"/>
						<path id="&lt;Path&gt;" class="s4" d="m749.1 120.5c0-0.1-0.1-0.2-0.2-0.2-0.1 0-0.1 0.1-0.1 0.2q0 0.1 0 0.1 0.1 0.1 0.2 0 0.1-0.1 0.1-0.2z"/>
						<path id="&lt;Path&gt;" class="s4" d="m738.9 120c0-0.1 0-0.2-0.1-0.2q-0.1 0-0.1 0.1c0 0.1 0 0.2 0.1 0.2 0 0.1 0.2 0 0.1-0.1z"/>
						<path id="&lt;Path&gt;" class="s4" d="m739.1 120.9q0 0.1-0.1 0.2-0.1 0-0.2-0.1c0.1-0.1 0.2-0.2 0.3-0.1z"/>
						<path id="&lt;Path&gt;" class="s4" d="m748.1 122.1q0 0.1-0.1 0.3 0 0 0 0.1 0.1 0 0.1 0.1c0.1 0 0.2 0.1 0.3 0.1 0.1-0.1 0.1-0.3 0.1-0.4 0-0.2 0.3-0.8 0-0.9-0.3-0.2-0.4 0.5-0.4 0.7z"/>
						<path id="&lt;Path&gt;" class="s4" d="m748.4 120.3q0 0 0.1 0-0.1 0.1-0.2 0.1-0.1 0.1-0.2 0c0 0 0-0.1 0.1-0.1q0.1-0.1 0.2 0z"/>
						<path id="&lt;Path&gt;" class="s4" d="m743.7 122.2q0 0.1-0.1 0.1 0 0.1-0.1 0-0.1 0 0 0 0-0.1 0-0.1 0.1 0 0.2 0 0 0 0 0z"/>
						<path id="&lt;Path&gt;" class="s4" d="m742.9 122.9c0 0-0.1 0.1-0.1 0.1 0 0.1 0 0.2-0.1 0.2q0 0 0 0c-0.1 0 0-0.1 0-0.1q0-0.1 0-0.1c0-0.1 0-0.2 0.1-0.2q0.1 0 0.1 0 0 0.1 0 0.2z"/>
						<path id="&lt;Path&gt;" class="s4" d="m742.5 122.4q0 0-0.1 0 0 0 0 0.1 0 0 0.1 0c0 0 0-0.1 0-0.1z"/>
						<path id="&lt;Path&gt;" class="s4" d="m740.8 123.1q0 0 0-0.1-0.1 0.1-0.1 0.1 0.1 0.1 0.1 0.1c0.1 0 0.1-0.1 0-0.1z"/>
						<path id="&lt;Path&gt;" class="s4" d="m744.2 120.3c0 0.1 0.1 0.1 0.1 0q0.1 0 0.1-0.1 0.1-0.1 0.1-0.1 0.1 0 0.1 0.1 0 0 0 0 0 0.2-0.1 0.3c0 0.1-0.1 0.1-0.2 0.1q-0.1 0-0.1-0.1-0.1-0.1 0-0.2z"/>
						<path id="&lt;Path&gt;" class="s4" d="m734.6 116.1c0.1 0.1 0.1 0.1 0.2 0q0 0 0-0.1 0.1 0 0.2 0 0 0 0.1 0 0 0 0 0.1 0 0.1-0.1 0.2c-0.1 0.1-0.2 0.2-0.3 0.1q-0.1 0-0.1-0.1 0-0.1 0-0.2z"/>
						<path id="&lt;Path&gt;" class="s4" d="m744.1 119c0-0.1-0.1-0.1-0.1-0.1q-0.1 0-0.2 0.1 0 0.1 0 0.1 0.1 0 0.1 0 0.1-0.1 0.2-0.1z"/>
						<path id="&lt;Path&gt;" class="s4" d="m735.7 118.4q0.2-0.2 0.2-0.4 0-0.1 0-0.1c0 0-0.1 0-0.1 0-0.1 0.1-0.3 0.1-0.4 0.1q-0.1 0.1-0.1 0.2c-0.1 0.1-0.1 0.3 0 0.3q0.1 0.1 0.2 0 0.2-0.1 0.3-0.2z"/>
						<path id="&lt;Path&gt;" class="s4" d="m740.5 118c0.1-0.1 0.1-0.2 0.1-0.3q-0.1-0.1-0.1-0.1c-0.1 0-0.2 0-0.2 0.1q-0.1 0.1-0.1 0.2-0.1 0-0.1 0.1 0.1 0 0.1 0 0.2 0.1 0.4 0.1z"/>
						<path id="&lt;Path&gt;" class="s4" d="m740.9 121.1c0.9-0.2 0.6-1.2-0.2-1.2-0.7 0-0.5 1.3 0.2 1.2z"/>
						<path id="&lt;Path&gt;" class="s4" d="m745.6 122c0 0.2-0.1 0.3-0.2 0.2q0-0.2 0.1-0.3c0 0 0.2 0 0.2 0q0 0.1 0 0.2z"/>
						<path id="&lt;Path&gt;" class="s4" d="m744.3 124.5q-0.1 0-0.1-0.1-0.1 0.3-0.3 0.4-0.1 0.1-0.2 0.2-0.1 0.1 0 0.3c0.1 0.1 0.3 0.1 0.4 0 0.2-0.1 0.3-0.3 0.3-0.5 0.1-0.1 0-0.4-0.2-0.4q-0.1 0-0.1 0.1z"/>
						<path id="&lt;Path&gt;" class="s4" d="m743 124c0-0.1 0-0.1-0.1 0q-0.1 0-0.1 0.1-0.1 0.3-0.2 0.5c-0.1 0.1-0.1 0.2-0.1 0.2q0 0.1 0.1 0 0.1 0 0.1-0.2c0.2-0.2 0.3-0.5 0.3-0.7q0 0.1-0.1 0.1z"/>
						<path id="&lt;Path&gt;" class="s4" d="m742.2 123.5q0.1 0 0 0 0 0-0.1 0 0 0 0 0-0.1-0.1 0-0.1 0-0.1 0.1-0.1 0 0 0 0 0.1 0.1 0 0.1z"/>
						<path id="&lt;Path&gt;" class="s4" d="m741.8 119q0.1-0.2 0.1-0.3 0-0.1-0.1 0c-0.2 0-0.3 0.3-0.2 0.4q0.1 0.1 0.1 0.1 0.1 0 0.1-0.1 0 0 0-0.1z"/>
						<path id="&lt;Path&gt;" class="s4" d="m743.2 120.6q0-0.1-0.1-0.1 0 0.1 0 0.1c0 0.1 0 0.1 0.1 0.1q0 0 0-0.1 0 0 0-0.1z"/>
						<path id="&lt;Path&gt;" class="s4" d="m736.6 120.6q-0.1-0.1-0.1-0.2-0.1 0-0.2 0-0.1 0-0.1 0.1c0 0.1 0.1 0.2 0.2 0.2 0 0 0.2 0 0.2-0.1z"/>
						<path id="&lt;Path&gt;" class="s4" d="m737.5 117.4c0.1 0 0.1 0.1 0 0.2q-0.1 0-0.1-0.1 0 0 0-0.1z"/>
						<path id="&lt;Path&gt;" class="s4" d="m738.8 118.3c0-0.1-0.1-0.1-0.1 0 0 0.1 0.1 0.1 0.1 0.1q0.1-0.1 0-0.1z"/>
						<path id="&lt;Path&gt;" class="s4" d="m746.8 123.4q0 0-0.1-0.1 0 0.1-0.1 0.1c0.1 0.1 0.2 0.1 0.2 0z"/>
						<path id="&lt;Path&gt;" class="s4" d="m756.4 117.5q0 0-0.1 0 0 0 0 0.1c0 0 0.1 0 0.1 0z"/>
						<path id="&lt;Path&gt;" class="s4" d="m750.9 119.3c0.2 0 0.3 0.2 0.3 0.3q0 0 0 0.1 0 0 0 0c-0.2 0.1-0.4 0.1-0.5 0-0.1-0.2 0-0.4 0.1-0.4q0.1 0.1 0.1 0.1z"/>
						<path id="&lt;Path&gt;" class="s4" d="m754.9 132.8c-0.1-0.2-0.3-0.4-0.6-0.5-0.2 0.2-0.3 0.5-0.2 0.7 0 0.3 0.3 0.5 0.6 0.4 0.2-0.1 0.3-0.5 0.1-0.6z"/>
						<path id="&lt;Path&gt;" class="s4" d="m753.1 131.1q-0.1-0.1-0.2-0.2 0 0 0 0 0 0-0.1 0c0 0.1 0.1 0.2 0 0.3q-0.1 0-0.1 0 0 0 0.1 0.1c0.1 0 0.3-0.1 0.3-0.2q0 0 0 0z"/>
						<path id="&lt;Path&gt;" class="s4" d="m754 126.9q-0.2-0.2-0.4-0.3 0 0-0.1 0 0 0 0 0c-0.1 0.2 0 0.4-0.2 0.5q0 0 0 0.1c-0.1 0 0 0.1 0 0.1 0.3 0.1 0.6-0.1 0.6-0.4q0 0 0.1 0z"/>
						<path id="&lt;Path&gt;" class="s4" d="m752.9 129.5q-0.1-0.2-0.3-0.2 0 0 0 0.1 0 0.1 0.1 0.2c0 0 0.1-0.1 0.2-0.1q0 0 0 0z"/>
						<path id="&lt;Path&gt;" class="s4" d="m752 129.6q0-0.1-0.1-0.1 0 0-0.1 0-0.1 0.1-0.2 0.1 0.2 0.1 0.4 0.2 0 0 0 0c0.1 0.1 0 0.1 0 0.2 0 0 0.1 0 0.2 0 0.4 0.1-0.1-0.3-0.2-0.4z"/>
						<path id="&lt;Path&gt;" class="s4" d="m751.9 126.7q0-0.1-0.1-0.1c0 0.1 0 0.2 0 0.3 0.1 0 0.2 0 0.2-0.1 0-0.1 0-0.2 0.1-0.2z"/>
						<path id="&lt;Path&gt;" class="s4" d="m756.7 133.3c-0.1-0.1-0.2-0.2-0.4-0.2-0.1 0-0.2 0.2-0.2 0.3q0 0.1 0.1 0.1 0 0 0.1 0 0.1 0.1 0.3 0c0-0.1 0.1-0.2 0-0.3z"/>
						<path id="&lt;Path&gt;" class="s4" d="m753.6 130.8q0.1 0 0.1 0.1c-0.1 0-0.2 0-0.3-0.1 0 0-0.1 0-0.1-0.1q0.1 0 0.1-0.1c0 0 0-0.1 0.1-0.2q0 0 0.1 0.1 0 0 0 0.1 0 0.1 0 0.3z"/>
						<path id="&lt;Path&gt;" class="s4" d="m752.4 130.6c0.1-0.1 0.1-0.2 0-0.2q0 0-0.1 0.1 0 0 0.1 0.1c0 0 0.1 0 0.1-0.1z"/>
						<path id="&lt;Path&gt;" class="s4" d="m757.7 130.3c0-0.1-0.1-0.2-0.2-0.2-0.1 0-0.2 0.1-0.2 0.2q0 0.1 0.1 0.1 0.1 0.1 0.2 0 0.1-0.1 0.1-0.2z"/>
						<path id="&lt;Path&gt;" class="s4" d="m756.7 131.9q-0.1 0.1-0.1 0.3 0 0 0 0.1 0 0 0.1 0.1c0 0 0.2 0.1 0.3 0.1 0.1-0.1 0-0.3 0-0.4 0-0.2 0.4-0.8 0.1-0.9-0.4-0.2-0.4 0.5-0.4 0.7z"/>
						<path id="&lt;Path&gt;" class="s4" d="m756.9 130.1q0.1 0 0.1 0 0 0.1-0.1 0.1-0.1 0.1-0.2 0c0 0 0-0.1 0-0.1q0.1-0.1 0.2 0z"/>
						<path id="&lt;Path&gt;" class="s4" d="m752.8 130.1c0 0.1 0.1 0.1 0.1 0q0 0 0.1-0.1 0-0.1 0.1-0.1 0.1 0 0.1 0.1 0 0 0 0 0 0.2-0.1 0.3c0 0.1-0.1 0.2-0.2 0.1q-0.1 0-0.2-0.1 0-0.1 0.1-0.2z"/>
						<path id="&lt;Path&gt;" class="s4" d="m752.7 128.8c0-0.1-0.1-0.1-0.2-0.1q-0.1 0-0.1 0.1 0 0.1 0 0.1 0 0 0.1 0 0.1 0 0.2-0.1z"/>
						<path id="&lt;Path&gt;" class="s4" d="m754.2 131.8c0 0.2-0.2 0.3-0.3 0.2q0.1-0.1 0.1-0.3c0.1 0 0.2 0 0.3 0q0 0.1 0 0.2z"/>
						<path id="&lt;Path&gt;" class="s4" d="m755.4 133.2q-0.1 0-0.1 0-0.1 0-0.1 0c0.1 0.1 0.1 0.1 0.2 0z"/>
						<path id="&lt;Path&gt;" class="s4" d="m759.5 129.1c0.1 0.1 0.3 0.2 0.3 0.3q0 0 0 0.1 0 0-0.1 0c-0.1 0.1-0.3 0.1-0.4 0-0.1-0.2 0-0.4 0.1-0.4q0.1 0.1 0.1 0.1z"/>
						<path id="&lt;Path&gt;" class="s4" d="m749.6 129.2c0.1 0 0.3 0.1 0.3 0.3q0 0 0 0 0 0.1-0.1 0.1c-0.1 0-0.3 0.1-0.4-0.1-0.1-0.1 0-0.3 0.1-0.3q0.1 0 0.1 0.1z"/>
					</g>
				</g>
			</g>
		</g>
	</g>
</svg>