<svg version="1.2" xmlns="http://www.w3.org/2000/svg" viewBox="0 0 800 400" width="800" height="400">
	<title>1881(2)</title>
	<defs>
		<clipPath clipPathUnits="userSpaceOnUse" id="cp1">
			<path d="m800 400h-800v-400h800z"/>
		</clipPath>
	</defs>
	<style>
		.s0 { fill: #43c5f7 } 
		.s1 { fill: #43bde6 } 
	</style>
	<g id="_Artboards_">
	</g>
	<g id="space">
		<g id="&lt;Clip Group&gt;" clip-path="url(#cp1)">
			<g id="-e-stars1">
				<g id="&lt;Group&gt;" style="mix-blend-mode: hard-light">
					<path id="&lt;Path&gt;" class="s0" d="m624.1 88.5c-0.8-0.8-1.8-1.4-2.9-1.7-0.2-0.1-0.4-0.1-0.6-0.1-0.4 0.1-0.6 0.4-0.8 0.7-0.3 0.8-0.1 1.8 0.5 2.4 0.7 0.6 1.6 0.9 2.5 0.7 0.5-0.1 1-0.4 1.2-0.8 0.3-0.4 0.2-1-0.1-1.3-0.2 0-0.2 0.3-0.1 0.4z"/>
					<path id="&lt;Path&gt;" class="s0" d="m546.2 64.2c-1.1 0-2.3 0.2-3.3 0.8-0.2 0-0.4 0.1-0.5 0.3-0.2 0.3-0.2 0.7-0.1 1 0.3 0.8 1.2 1.4 2.1 1.4 0.9 0 1.7-0.5 2.2-1.2 0.3-0.4 0.5-0.9 0.4-1.4-0.1-0.5-0.6-0.9-1-0.8-0.1 0.1 0 0.3 0.1 0.3z"/>
					<path id="&lt;Path&gt;" class="s0" d="m624.5 93.6c-0.5-0.4-1.2-0.5-1.9-0.3-0.1 0.7 0.1 1.4 0.5 1.9 0.5 0.4 1.4 0.5 1.8-0.1 0.4-0.5 0-1.4-0.7-1.4z"/>
					<path id="&lt;Path&gt;" class="s0" d="m625.4 84.5q-0.4-0.1-0.7-0.1 0 0-0.1 0 0 0.1 0 0.1c0 0.3 0.3 0.4 0.2 0.7q0 0 0 0.1c0 0 0.1 0.1 0.1 0 0.4-0.1 0.6-0.5 0.4-0.8q0 0 0.1 0z"/>
					<path id="&lt;Path&gt;" class="s0" d="m624.6 77.1q-0.6-0.1-1.3 0-0.1 0-0.1 0-0.1 0.1-0.1 0.2c0 0.4 0.6 0.8 0.4 1.2 0 0-0.1 0.1-0.1 0.2 0.1 0.1 0.2 0.1 0.4 0.1 0.6-0.2 1-1.1 0.6-1.7q0.1 0.1 0.2 0.1z"/>
					<path id="&lt;Path&gt;" class="s0" d="m635.3 72q-0.6-0.1-1.2-0.1-0.1 0-0.2 0.1 0 0 0 0.1c0 0.4 0.6 0.8 0.4 1.2-0.1 0.1-0.1 0.1-0.1 0.2 0 0.2 0.2 0.2 0.3 0.1 0.7-0.1 1-1 0.7-1.6q0 0 0.1 0z"/>
					<path id="&lt;Path&gt;" class="s0" d="m615.6 89.7c-0.2-0.2-0.6-0.3-0.9-0.2q0.1 0.2 0.2 0.4c0 0.1 0.2 0.2 0.3 0.1 0.2 0 0.3-0.2 0.3-0.4q0.1 0.1 0.1 0.1z"/>
					<path id="&lt;Path&gt;" class="s0" d="m553.3 80.1q-0.1 0-0.2 0.1-0.1 0.1-0.1 0.2-0.1 0.3-0.2 0.7 0.5-0.3 1-0.6 0 0 0.1 0c0.1 0 0.1 0.1 0.2 0.2 0.1 0.1 0.3-0.1 0.4-0.2 0.7-0.8-0.7-0.4-1.2-0.4z"/>
					<path id="&lt;Path&gt;" class="s0" d="m609.5 73q-0.2 0-0.3 0-0.1 0.1-0.1 0.2-0.2 0.3-0.4 0.6 0.5-0.1 1.1-0.2 0 0 0.1 0c0.1 0 0.1 0.1 0.2 0.2 0.1 0.1 0.3 0.1 0.4 0 0.9-0.6-0.6-0.7-1-0.8z"/>
					<path id="&lt;Path&gt;" class="s0" d="m562.5 57.4q-0.2 0-0.4 0c0.1 0.2 0.2 0.4 0.5 0.5 0.2 0 0.4-0.3 0.3-0.5-0.1-0.1-0.3-0.2-0.1-0.3z"/>
					<path id="&lt;Path&gt;" class="s0" d="m616.4 68c0.2 0.1 0.2 0.6 0 0.8-0.3 0.1-0.7-0.1-0.7-0.4 0-0.3 0.3-0.6 0.6-0.4z"/>
					<path id="&lt;Path&gt;" class="s0" d="m619.6 80.9c0.2-0.1 0.5-0.2 0.6 0 0.2 0.2 0 0.4-0.2 0.6-0.1 0.1-0.2 0.2-0.3 0.1-0.2 0 0-0.5-0.2-0.6 0-0.1 0.1-0.1 0.1 0z"/>
					<path id="&lt;Path&gt;" class="s0" d="m619 91.2q0.1 0 0.3 0c-0.1 0.2-0.4 0.3-0.6 0.4-0.2 0-0.3 0-0.4-0.1-0.1-0.1 0-0.2 0-0.3-0.1-0.2-0.3-0.4-0.2-0.5 0.1-0.1 0.2-0.1 0.3-0.1q0.2 0.1 0.2 0.2 0.2 0.3 0.5 0.6z"/>
					<path id="&lt;Path&gt;" class="s0" d="m620 94.7c-0.1-0.1-0.3 0.2-0.2 0.4 0.1 0.1 0.3 0.2 0.5 0.3 0.1-0.3 0-0.6-0.2-0.8z"/>
					<path id="&lt;Path&gt;" class="s0" d="m639.5 99.2q-0.1 0-0.3 0c-0.1 0-0.2 0.1-0.2 0.2 0 0.1 0.2 0.2 0.2 0.4 0 0.1 0 0.3 0.1 0.5 0 0.1 0.3 0 0.4-0.1 0.1-0.1 0.1-0.3 0.1-0.4q0-0.2-0.1-0.4c-0.1-0.1-0.3-0.2-0.4-0.1z"/>
					<path id="&lt;Path&gt;" class="s0" d="m587.7 98.2c0.1 0.1 0.1 0.2 0 0.3q-0.1 0.1-0.2 0.1-0.1 0-0.2-0.1c-0.1 0-0.1-0.2-0.1-0.3 0.1-0.1 0.3-0.1 0.4 0 0.1 0 0.1 0.2 0.1 0.3z"/>
					<path id="&lt;Path&gt;" class="s0" d="m612.2 106.2c0.1 0 0.1 0.2 0 0.2q-0.1 0.1-0.2 0.1-0.1 0-0.2 0c-0.1 0-0.1-0.2-0.1-0.3 0.1-0.1 0.3-0.1 0.4-0.1 0.1 0.1 0.1 0.2 0.1 0.4z"/>
					<path id="&lt;Path&gt;" class="s0" d="m616.2 92.5c0-0.2-0.2-0.4-0.3-0.3q-0.1 0.1-0.1 0.3c0.1 0 0.2 0.1 0.3 0.1 0.1 0 0.1-0.1 0.1-0.2z"/>
					<path id="&lt;Path&gt;" class="s0" d="m611.1 80.4c0-0.2-0.2-0.4-0.4-0.3q0 0.1 0 0.3c0.1 0.1 0.2 0.2 0.3 0.1 0.1 0 0.1-0.1 0.1-0.2z"/>
					<path id="&lt;Path&gt;" class="s0" d="m617.1 88.2c-0.1-0.1-0.3-0.3-0.6-0.3q0 0.3 0 0.6 0 0.1 0.1 0.2c0.1 0.2 0.3 0.2 0.5 0.1 0.1-0.2 0.1-0.4 0-0.5z"/>
					<path id="&lt;Path&gt;" class="s0" d="m644.7 63.3q0.5 0 1-0.1c0.1 0.1-0.1 0.3-0.3 0.4-0.2 0-0.3 0.1-0.5 0-0.2 0-0.3-0.2-0.3-0.4z"/>
					<path id="&lt;Path&gt;" class="s0" d="m638.9 66.7c-0.1-0.2-0.5-0.3-0.6-0.1-0.2 0.2-0.2 0.5 0 0.7q0.1 0.1 0.3 0.2c0.1 0 0.3-0.2 0.3-0.3 0.1-0.2 0-0.4 0-0.5z"/>
					<path id="&lt;Path&gt;" class="s0" d="m618.1 81.3c0-0.3-0.2-0.4-0.5-0.5q-0.1 0.3 0 0.5c0.1 0.3 0.3 0.4 0.5 0.4 0.2 0 0.3-0.4 0.1-0.5z"/>
					<path id="&lt;Path&gt;" class="s0" d="m619.9 82.9c0.1 0.1 0.2 0.3 0.1 0.4q-0.2 0.1-0.5 0.1c-0.1-0.2 0-0.5 0.3-0.6z"/>
					<path id="&lt;Path&gt;" class="s0" d="m624.8 84.9q0.1 0 0.2 0c0 0.1 0 0.3-0.1 0.4 0 0.2-0.2 0.3-0.4 0.2-0.1 0-0.2-0.2-0.1-0.3q0.2-0.2 0.4-0.2z"/>
					<path id="&lt;Path&gt;" class="s0" d="m617.9 95.7c0.1 0.1 0.1 0.2 0.1 0.4 0 0.1-0.2 0.2-0.3 0.2-0.1 0-0.2 0-0.2-0.1q0-0.1 0-0.1 0.2-0.2 0.3-0.4 0.1 0 0.1 0z"/>
					<path id="&lt;Path&gt;" class="s0" d="m615.1 97.2c0 0.2 0.2 0.2 0.3 0.3 0.2 0 0.4 0.1 0.4 0.2q0.1 0.1 0 0.2c0 0.1-0.2 0-0.3 0-0.1-0.1-0.2 0-0.3 0-0.2 0-0.4-0.1-0.5-0.3 0-0.2 0.1-0.3 0.2-0.3 0.1-0.1 0.2 0 0.3 0.1z"/>
					<path id="&lt;Path&gt;" class="s0" d="m613.8 98.4q0 0-0.1 0.1c0.1 0.1 0.2 0.2 0.3 0.1 0.1 0 0.2-0.1 0.1-0.2 0-0.1-0.2-0.1-0.2-0.1z"/>
					<path id="&lt;Path&gt;" class="s0" d="m615.6 102.5q0 0.1-0.1 0.1c0.1 0.1 0.2 0.2 0.3 0.2 0.1-0.1 0.1-0.2 0.1-0.3 0-0.1-0.2-0.1-0.3 0z"/>
					<path id="&lt;Path&gt;" class="s0" d="m616.2 91.1c0.1 0.1 0.3-0.1 0.3-0.2 0-0.1 0-0.2 0-0.4q0-0.2 0.2-0.3 0.1-0.1 0.2 0 0.1 0 0.1 0.1c0.1 0.2 0.2 0.4 0.2 0.7 0 0.2-0.1 0.5-0.3 0.6-0.2 0-0.4 0-0.5-0.1-0.2-0.1-0.2-0.3-0.2-0.5z"/>
					<path id="&lt;Path&gt;" class="s0" d="m541.9 38.9c0.1 0.1 0.3 0 0.3-0.2 0-0.1 0-0.2 0-0.3q0-0.3 0.2-0.4 0.1-0.1 0.2 0 0 0 0.1 0.1c0.1 0.2 0.2 0.4 0.2 0.7 0 0.2-0.1 0.5-0.4 0.6-0.1 0.1-0.3 0-0.4-0.1-0.2-0.1-0.2-0.3-0.2-0.5z"/>
					<path id="&lt;Path&gt;" class="s0" d="m537.5 91.2c0.1 0 0.3-0.1 0.3-0.2 0-0.1 0-0.3 0-0.4q0-0.2 0.2-0.3 0.1-0.1 0.2 0 0 0 0.1 0.1c0.1 0.2 0.2 0.4 0.2 0.7 0 0.2-0.1 0.5-0.3 0.6-0.2 0-0.4 0-0.5-0.1-0.2-0.1-0.2-0.3-0.2-0.5z"/>
					<path id="&lt;Path&gt;" class="s0" d="m603.7 79.4c0.1 0.1 0.3-0.1 0.3-0.2 0-0.1 0-0.2 0-0.4q0-0.2 0.2-0.3 0.1-0.1 0.2 0 0 0 0.1 0.1c0.1 0.2 0.2 0.4 0.2 0.7 0 0.2-0.1 0.5-0.4 0.6-0.1 0-0.3 0-0.4-0.1-0.2-0.1-0.2-0.3-0.2-0.5z"/>
					<path id="&lt;Path&gt;" class="s0" d="m586.7 71.4c0.1 0.1 0.3 0 0.3-0.1 0-0.1 0-0.3 0-0.4q0-0.2 0.2-0.3 0.1-0.1 0.2-0.1 0.1 0.1 0.1 0.2c0.1 0.2 0.2 0.4 0.2 0.6 0 0.3-0.1 0.6-0.3 0.6-0.2 0.1-0.4 0.1-0.5 0-0.2-0.1-0.2-0.3-0.2-0.5z"/>
					<path id="&lt;Path&gt;" class="s0" d="m614.1 88.5c-0.1-0.1-0.3-0.1-0.4 0-0.1 0.1-0.2 0.2-0.1 0.4 0 0.1 0 0.1 0.1 0.1q0.1 0 0.1 0 0.2-0.3 0.4-0.5z"/>
					<path id="&lt;Path&gt;" class="s0" d="m673.6 76.4c0.1-0.4 0-0.9-0.2-1.2q0-0.1-0.1-0.1c-0.2-0.1-0.2 0.1-0.3 0.3-0.2 0.2-0.5 0.3-0.6 0.5-0.1 0.2-0.1 0.4 0 0.6 0 0.4 0.2 0.7 0.5 0.7 0.2 0 0.3-0.1 0.4-0.3q0.3-0.4 0.4-0.9z"/>
					<path id="&lt;Path&gt;" class="s0" d="m597 56.4c0.1-0.4 0-0.8-0.2-1.2q0-0.1-0.1-0.1c-0.2 0-0.2 0.2-0.3 0.3-0.2 0.2-0.5 0.3-0.6 0.6-0.1 0.1-0.1 0.4 0 0.6 0 0.3 0.2 0.7 0.5 0.7 0.2-0.1 0.3-0.2 0.4-0.3q0.3-0.4 0.4-0.9z"/>
					<path id="&lt;Path&gt;" class="s0" d="m618.6 74.6c0.2-0.2-0.1-0.5-0.3-0.6-0.1-0.1-0.3-0.1-0.4-0.1-0.2 0.1-0.2 0.4-0.2 0.6q0 0.2 0 0.5c0.1 0.1 0.1 0.2 0.1 0.2q0.1 0.1 0.2 0 0.6-0.1 1-0.4z"/>
					<path id="&lt;Path&gt;" class="s0" d="m624 80.5c1.5-1.6-0.6-3.2-2.1-2.2-1.7 1.1 0.8 3.6 2.1 2.2z"/>
					<path id="&lt;Path&gt;" class="s0" d="m623.7 69.4c1.4-1.6-0.6-3.2-2.1-2.2-1.7 1.1 0.8 3.6 2.1 2.2z"/>
					<path id="&lt;Path&gt;" class="s0" d="m621.7 92.6c0.2 0.2 0 0.7-0.3 0.7-0.1-0.2-0.2-0.5-0.2-0.7 0.1-0.3 0.3-0.5 0.6-0.4q0.1 0.2 0.2 0.4z"/>
					<path id="&lt;Path&gt;" class="s0" d="m616.9 40.3c-0.1-0.1-0.2 0-0.2 0.1-0.1 0.2-0.1 0.4 0 0.6q0.1 0.6 0.1 1.3c0.1 0.2 0.1 0.5 0.2 0.6 0.1 0.1 0.2 0 0.3-0.2 0-0.2 0-0.4 0-0.6-0.1-0.7-0.2-1.6-0.5-1.9q0 0.2-0.1 0.4z"/>
					<path id="&lt;Path&gt;" class="s0" d="m616.5 98.9c0 0 0.1 0 0.2 0.1q0 0.1 0 0.2-0.1 0.1-0.1 0.2c-0.1 0-0.3 0.1-0.4 0 0-0.1-0.1-0.2-0.1-0.3q0-0.1 0.1-0.2c0 0 0.1 0 0.2 0z"/>
					<path id="&lt;Path&gt;" class="s0" d="m614.5 93q-0.1 0-0.2 0c0 0.1 0 0.3 0 0.3 0.1 0.1 0.2 0.1 0.3 0q0 0 0-0.1-0.1-0.2-0.1-0.3z"/>
					<path id="&lt;Path&gt;" class="s0" d="m603.3 89c-0.1-0.1-0.3-0.1-0.4-0.1-0.2 0-0.4 0-0.5 0.2q0 0.1 0 0.2c0.1 0.3 0.4 0.4 0.6 0.3 0.3-0.1 0.4-0.4 0.3-0.6z"/>
					<path id="&lt;Path&gt;" class="s0" d="m576.1 76.7c-0.1 0-0.3-0.1-0.4-0.1-0.2 0-0.4 0.1-0.4 0.2q-0.1 0.1 0 0.2c0 0.3 0.3 0.4 0.6 0.3 0.2 0 0.3-0.3 0.2-0.6z"/>
					<path id="&lt;Path&gt;" class="s0" d="m611.4 77.8c0.2-0.1 0.5 0.2 0.4 0.4q-0.2 0.1-0.4 0.2-0.1-0.2 0-0.5z"/>
					<path id="&lt;Path&gt;" class="s0" d="m398.6 25.4c0.3-0.1 0.5 0.2 0.4 0.4q-0.2 0.1-0.4 0.1 0-0.2 0-0.4z"/>
					<path id="&lt;Path&gt;" class="s0" d="m626.1 93.7q-0.1 0-0.3 0.1 0 0.1 0 0.2c0.2 0.1 0.4-0.1 0.4-0.2z"/>
					<path id="&lt;Path&gt;" class="s0" d="m540.2 71c-0.8-0.8-1.9-1.4-3-1.7-0.2 0-0.3-0.1-0.5-0.1-0.4 0.1-0.7 0.4-0.8 0.7-0.4 0.8-0.1 1.8 0.5 2.4 0.7 0.7 1.6 0.9 2.5 0.7 0.5-0.1 0.9-0.4 1.2-0.8 0.2-0.4 0.2-1-0.2-1.3-0.1 0-0.2 0.3-0.1 0.4z"/>
					<path id="&lt;Path&gt;" class="s0" d="m476.4 52.8c-0.9-0.8-1.9-1.4-3-1.7-0.2-0.1-0.4-0.1-0.5-0.1-0.4 0-0.7 0.4-0.8 0.7-0.4 0.8-0.1 1.8 0.5 2.4 0.6 0.6 1.6 0.8 2.5 0.7 0.4-0.1 0.9-0.4 1.2-0.8 0.2-0.4 0.2-1-0.2-1.3-0.1 0-0.2 0.2-0.1 0.3z"/>
					<path id="&lt;Path&gt;" class="s0" d="m518.3 98.1c-0.5-0.4-1.2-0.6-1.8-0.3-0.2 0.6 0 1.3 0.5 1.8 0.5 0.4 1.3 0.5 1.7 0 0.4-0.6 0-1.5-0.6-1.4z"/>
					<path id="&lt;Path&gt;" class="s0" d="m509.4 94.1c-0.2-0.2-0.6-0.3-0.9-0.2q0.1 0.2 0.2 0.4c0.1 0.1 0.2 0.2 0.3 0.2 0.2-0.1 0.3-0.3 0.3-0.5q0.1 0.1 0.1 0.2z"/>
					<path id="&lt;Path&gt;" class="s0" d="m507.7 95.5q-0.2-0.1-0.3 0-0.1 0-0.1 0.2-0.2 0.3-0.4 0.5 0.6-0.1 1.1-0.2 0.1 0 0.1 0c0.1 0 0.1 0.2 0.2 0.3 0.1 0.1 0.3 0 0.4-0.1 0.9-0.6-0.6-0.6-1-0.7z"/>
					<path id="&lt;Path&gt;" class="s0" d="m512.8 95.7q0.1-0.1 0.3 0c-0.1 0.2-0.4 0.3-0.6 0.3-0.2 0-0.3 0-0.4-0.1 0-0.1 0-0.2 0-0.3-0.1-0.1-0.3-0.3-0.1-0.5 0-0.1 0.1-0.1 0.2 0q0.2 0 0.3 0.2 0.2 0.3 0.4 0.5z"/>
					<path id="&lt;Path&gt;" class="s0" d="m513.9 99.1c-0.2 0-0.4 0.2-0.3 0.4 0.1 0.2 0.3 0.2 0.5 0.3 0.1-0.3 0-0.6-0.2-0.7z"/>
					<path id="&lt;Path&gt;" class="s0" d="m533.3 103.7q-0.1-0.1-0.3-0.1c-0.1 0.1-0.1 0.1-0.2 0.2 0 0.2 0.2 0.3 0.2 0.4 0.1 0.2 0 0.4 0.1 0.5 0.1 0.1 0.3 0.1 0.4 0 0.1-0.2 0.1-0.3 0.1-0.5q0-0.2-0.1-0.4c-0.1-0.1-0.2-0.2-0.4-0.1z"/>
					<path id="&lt;Path&gt;" class="s0" d="m509.9 98.1c0 0.1 0 0.2 0 0.3q-0.1 0.1-0.3 0.1 0 0-0.1 0c-0.1-0.1-0.2-0.2-0.1-0.4 0.1-0.1 0.2-0.1 0.3 0 0.1 0 0.2 0.2 0.1 0.3z"/>
					<path id="&lt;Path&gt;" class="s0" d="m506 110.6c0.1 0.1 0.1 0.2 0 0.3q0 0.1-0.2 0.1-0.1 0-0.2-0.1c-0.1 0-0.1-0.2 0-0.3 0-0.1 0.2-0.1 0.3 0 0.1 0 0.1 0.2 0.1 0.3z"/>
					<path id="&lt;Path&gt;" class="s0" d="m510 96.9c0.1-0.2-0.1-0.4-0.3-0.3q-0.1 0.1 0 0.3c0 0.1 0.1 0.2 0.2 0.1 0.1 0 0.2-0.1 0.1-0.2z"/>
					<path id="&lt;Path&gt;" class="s0" d="m510.9 92.7c-0.1-0.2-0.3-0.3-0.6-0.4q0.1 0.3 0.1 0.6 0 0.2 0 0.3c0.1 0.1 0.3 0.1 0.5 0 0.1-0.1 0.1-0.3 0-0.5z"/>
					<path id="&lt;Path&gt;" class="s0" d="m511.7 100.1c0.1 0.1 0.1 0.3 0.1 0.4 0 0.1-0.1 0.2-0.3 0.3-0.1 0-0.2-0.1-0.2-0.2q0 0 0.1-0.1 0.1-0.2 0.2-0.4 0.1 0 0.1 0.1z"/>
					<path id="&lt;Path&gt;" class="s0" d="m508.9 101.6c0 0.2 0.2 0.3 0.4 0.3 0.1 0.1 0.3 0.1 0.4 0.3q0 0 0 0.1c-0.1 0.1-0.3 0-0.4 0-0.1 0-0.2 0-0.3 0-0.2 0-0.4-0.1-0.5-0.3 0-0.1 0.1-0.2 0.2-0.3 0.1 0 0.3 0 0.3 0.1z"/>
					<path id="&lt;Path&gt;" class="s0" d="m507.7 102.8q-0.1 0.1-0.2 0.1c0.1 0.1 0.2 0.2 0.3 0.2 0.1-0.1 0.2-0.2 0.1-0.3 0-0.1-0.2-0.1-0.2 0z"/>
					<path id="&lt;Path&gt;" class="s0" d="m509.5 106.9q-0.1 0.1-0.2 0.2c0.1 0.1 0.2 0.1 0.3 0.1 0.1 0 0.2-0.1 0.1-0.2 0-0.1-0.2-0.2-0.2-0.1z"/>
					<path id="&lt;Path&gt;" class="s0" d="m510 95.5c0.1 0.1 0.3 0 0.3-0.1 0-0.2 0-0.3 0-0.4q0-0.2 0.2-0.3 0.1-0.1 0.2-0.1 0.1 0.1 0.1 0.1c0.1 0.2 0.2 0.5 0.2 0.7 0 0.3-0.1 0.5-0.3 0.6-0.2 0.1-0.4 0-0.5-0.1-0.1-0.1-0.2-0.3-0.2-0.4z"/>
					<path id="&lt;Path&gt;" class="s0" d="m507.9 92.9c-0.1-0.1-0.3-0.1-0.4 0-0.1 0.1-0.2 0.3-0.1 0.4 0 0.1 0 0.2 0.1 0.2q0.1 0 0.1-0.1 0.2-0.2 0.4-0.5z"/>
					<path id="&lt;Path&gt;" class="s0" d="m515.5 97c0.2 0.3 0 0.7-0.3 0.7-0.1-0.2-0.2-0.4-0.1-0.7 0-0.2 0.3-0.4 0.5-0.4q0.1 0.2 0.2 0.4z"/>
					<path id="&lt;Path&gt;" class="s0" d="m510.3 103.4c0.1-0.1 0.2 0 0.2 0q0 0.1 0 0.2-0.1 0.1-0.1 0.2c-0.1 0.1-0.2 0.1-0.3 0-0.1 0-0.2-0.2-0.2-0.3q0.1-0.1 0.1-0.1c0.1-0.1 0.1-0.1 0.2 0z"/>
					<path id="&lt;Path&gt;" class="s0" d="m508.3 97.5q-0.1 0-0.2 0c0 0.1 0 0.2 0.1 0.3 0 0.1 0.2 0.1 0.2 0q0-0.1 0-0.1 0-0.2-0.1-0.4z"/>
					<path id="&lt;Path&gt;" class="s0" d="m536 62.7c-0.5-0.5-1.3-0.6-1.9-0.4-0.1 0.7 0 1.4 0.5 1.9 0.5 0.4 1.4 0.5 1.8-0.1 0.4-0.5 0-1.4-0.7-1.4z"/>
					<path id="&lt;Path&gt;" class="s0" d="m523.8 82.2q-0.1 0-0.2 0-0.1 0.1-0.2 0.2-0.2 0.3-0.4 0.6 0.6-0.2 1.1-0.3 0.1 0 0.1 0c0.1 0.1 0.2 0.2 0.2 0.3 0.1 0.1 0.3 0 0.5-0.1 0.9-0.6-0.6-0.6-1.1-0.7z"/>
					<path id="&lt;Path&gt;" class="s0" d="m530 85.9c-0.2-0.1-0.3 0.1-0.3 0.3 0.1 0.2 0.3 0.3 0.5 0.3 0.1-0.2 0.1-0.5-0.1-0.7z"/>
					<path id="&lt;Path&gt;" class="s0" d="m526 84.9c0.1 0 0.1 0.1 0 0.2q-0.1 0.1-0.2 0.1-0.1 0-0.2 0c-0.1-0.1-0.1-0.2-0.1-0.3 0.1-0.1 0.3-0.2 0.4-0.1 0.1 0.1 0.1 0.2 0.1 0.3z"/>
					<path id="&lt;Path&gt;" class="s0" d="m522.2 97.3c0 0.1 0 0.2 0 0.3q-0.1 0.1-0.3 0.1 0 0-0.1 0c-0.1-0.1-0.2-0.2-0.1-0.4 0.1-0.1 0.2-0.1 0.3 0 0.1 0 0.2 0.2 0.1 0.3z"/>
					<path id="&lt;Path&gt;" class="s0" d="m526.1 83.6c0.1-0.1-0.1-0.4-0.3-0.3q0 0.2 0 0.3c0 0.1 0.1 0.2 0.2 0.2 0.1-0.1 0.2-0.2 0.1-0.3z"/>
					<path id="&lt;Path&gt;" class="s0" d="m527.8 86.9c0.1 0 0.2 0.2 0.1 0.3 0 0.1-0.1 0.3-0.2 0.3-0.1 0-0.2-0.1-0.2-0.2q0 0 0-0.1 0.1-0.2 0.3-0.4 0 0 0 0.1z"/>
					<path id="&lt;Path&gt;" class="s0" d="m525 88.4c0 0.1 0.2 0.2 0.4 0.2 0.1 0.1 0.3 0.1 0.4 0.3q0 0 0 0.1c-0.1 0.1-0.2 0-0.3 0-0.1 0-0.2 0-0.3 0-0.2 0.1-0.5-0.1-0.6-0.3 0-0.1 0.1-0.2 0.2-0.3 0.2 0 0.3 0 0.4 0.1z"/>
					<path id="&lt;Path&gt;" class="s0" d="m523.8 89.5q-0.1 0.1-0.1 0.2c0 0 0.1 0.1 0.2 0.1 0.1 0 0.2-0.2 0.2-0.3-0.1-0.1-0.2-0.1-0.3 0z"/>
					<path id="&lt;Path&gt;" class="s0" d="m525.6 93.6q-0.1 0.1-0.1 0.2c0 0.1 0.1 0.2 0.2 0.1 0.1 0 0.2-0.1 0.2-0.2-0.1-0.1-0.2-0.2-0.3-0.1z"/>
					<path id="&lt;Path&gt;" class="s0" d="m526.2 82.2c0.1 0.1 0.2 0 0.2-0.1 0.1-0.2 0-0.3 0-0.4q0.1-0.2 0.2-0.3 0.1-0.1 0.2-0.1 0.1 0.1 0.1 0.1c0.2 0.2 0.3 0.5 0.3 0.7 0 0.3-0.1 0.5-0.4 0.6-0.1 0.1-0.3 0.1-0.5 0-0.1-0.2-0.2-0.3-0.1-0.5z"/>
					<path id="&lt;Path&gt;" class="s0" d="m526.4 90.1c0.1-0.1 0.2 0 0.2 0.1q0 0.1 0 0.2 0 0.1-0.1 0.1c-0.1 0.1-0.2 0.1-0.3 0-0.1 0-0.1-0.2-0.1-0.3q0-0.1 0.1-0.1c0-0.1 0.1 0 0.1 0z"/>
					<path id="&lt;Path&gt;" class="s0" d="m524.5 84.2q-0.1 0-0.2 0c-0.1 0.1-0.1 0.2 0 0.3 0 0.1 0.2 0.1 0.2 0q0-0.1 0-0.1 0-0.2-0.1-0.4z"/>
					<path id="&lt;Path&gt;" class="s0" d="m527.1 47.2c-0.5-0.4-1.2-0.5-1.8-0.3-0.1 0.7 0 1.4 0.5 1.8 0.5 0.5 1.3 0.5 1.8 0 0.4-0.5 0-1.5-0.7-1.4z"/>
					<path id="&lt;Path&gt;" class="s0" d="m488.3 72.8c-0.5-0.5-1.2-0.6-1.8-0.4-0.1 0.7 0 1.4 0.5 1.9 0.5 0.4 1.3 0.5 1.7-0.1 0.5-0.5 0-1.4-0.6-1.4z"/>
					<path id="&lt;Path&gt;" class="s0" d="m516.5 44.6q-0.1 0-0.2 0-0.2 0.1-0.2 0.2-0.2 0.3-0.4 0.6 0.6-0.1 1.1-0.2 0.1-0.1 0.1 0c0.1 0 0.1 0.1 0.2 0.2 0.1 0.1 0.3 0 0.4 0 1-0.6-0.5-0.7-1-0.8z"/>
					<path id="&lt;Path&gt;" class="s0" d="m556.6 41.5c-0.2-0.1-0.3 0.2-0.3 0.4 0.1 0.1 0.3 0.2 0.5 0.2 0.1-0.2 0.1-0.5-0.1-0.7z"/>
					<path id="&lt;Path&gt;" class="s0" d="m518.7 47.3c0.1 0 0.1 0.1 0 0.2q-0.1 0.1-0.2 0.1-0.1 0-0.2 0c-0.1-0.1-0.1-0.2-0.1-0.3 0.1-0.1 0.2-0.1 0.3-0.1 0.2 0.1 0.2 0.2 0.1 0.3z"/>
					<path id="&lt;Path&gt;" class="s0" d="m514.8 59.8c0.1 0 0.1 0.1 0.1 0.2q-0.1 0.1-0.3 0.1-0.1 0-0.1 0c-0.1-0.1-0.2-0.2-0.1-0.3 0-0.1 0.2-0.2 0.3-0.1 0.1 0.1 0.2 0.2 0.1 0.3z"/>
					<path id="&lt;Path&gt;" class="s0" d="m518.8 46.1c0.1-0.2-0.1-0.4-0.3-0.4q-0.1 0.2 0 0.3c0 0.1 0.1 0.2 0.2 0.2 0.1 0 0.2-0.2 0.1-0.2z"/>
					<path id="&lt;Path&gt;" class="s0" d="m520.5 49.3c0.1 0.1 0.2 0.2 0.1 0.3 0 0.2-0.1 0.3-0.2 0.3-0.1 0-0.3 0-0.3-0.1q0.1-0.1 0.1-0.1 0.1-0.2 0.3-0.5 0 0.1 0 0.1z"/>
					<path id="&lt;Path&gt;" class="s0" d="m517.7 50.8c0 0.1 0.2 0.2 0.4 0.3 0.1 0 0.3 0 0.4 0.2q0 0.1 0 0.1c-0.1 0.1-0.2 0-0.3 0-0.1 0-0.2 0-0.3 0.1-0.3 0-0.5-0.2-0.6-0.4 0-0.1 0.1-0.2 0.2-0.2 0.1-0.1 0.3 0 0.4 0z"/>
					<path id="&lt;Path&gt;" class="s0" d="m516.5 51.9q-0.1 0.1-0.1 0.2c0 0.1 0.1 0.1 0.2 0.1 0.1 0 0.2-0.1 0.2-0.2-0.1-0.1-0.2-0.2-0.3-0.1z"/>
					<path id="&lt;Path&gt;" class="s0" d="m518.3 56.1q-0.1 0-0.1 0.1c0 0.1 0.1 0.2 0.2 0.1 0.1 0 0.2-0.1 0.1-0.2 0-0.1-0.1-0.1-0.2-0.1z"/>
					<path id="&lt;Path&gt;" class="s0" d="m557.3 47.8c0.1 0.1 0.2 0 0.2-0.2 0.1-0.1 0-0.2 0-0.3q0.1-0.2 0.2-0.4 0.1 0 0.2 0 0.1 0 0.1 0.1c0.2 0.2 0.3 0.5 0.3 0.7 0 0.2-0.1 0.5-0.4 0.6-0.1 0.1-0.3 0-0.5-0.1-0.1-0.1-0.2-0.3-0.1-0.4z"/>
					<path id="&lt;Path&gt;" class="s0" d="m519.1 52.5c0.1 0 0.2 0 0.2 0.1q0 0.1 0 0.2 0 0.1-0.1 0.1c-0.1 0.1-0.2 0.1-0.3 0.1-0.1-0.1-0.1-0.2-0.1-0.3q0-0.1 0-0.2c0.1 0 0.2 0 0.2 0z"/>
					<path id="&lt;Path&gt;" class="s0" d="m456.3 24.7c0.1 0 0.2 0 0.2 0.1q0 0.1 0 0.2 0 0.1-0.1 0.2c-0.1 0-0.2 0-0.3 0-0.1-0.1-0.1-0.2-0.1-0.3q0-0.1 0-0.2c0.1 0 0.2 0 0.2 0z"/>
					<path id="&lt;Path&gt;" class="s0" d="m517.2 46.6q-0.2 0-0.3 0c0 0.1 0 0.2 0.1 0.3 0 0.1 0.2 0.1 0.2 0q0 0 0-0.1 0-0.2-0.1-0.4z"/>
					<path id="&lt;Path&gt;" class="s0" d="m508 90.2c-0.1-0.1-0.3-0.1-0.4-0.1-0.2 0-0.4 0-0.4 0.2q-0.1 0.1-0.1 0.2c0.1 0.3 0.4 0.4 0.6 0.3 0.3-0.1 0.4-0.4 0.3-0.6z"/>
					<path id="&lt;Path&gt;" class="s0" d="m520 98.1q-0.2 0.1-0.4 0.1 0 0.1 0.1 0.2c0.1 0.1 0.3 0 0.3-0.2z"/>
					<path id="&lt;Path&gt;" class="s0" d="m653.3 131.8c-0.5-0.4-1.2-0.6-1.8-0.3-0.1 0.6 0 1.4 0.5 1.8 0.5 0.5 1.3 0.5 1.8 0 0.4-0.5-0.1-1.5-0.7-1.4z"/>
					<path id="&lt;Path&gt;" class="s0" d="m644.4 127.8c-0.2-0.2-0.5-0.3-0.8-0.2q0 0.2 0.1 0.4c0.1 0.1 0.2 0.2 0.4 0.2 0.1-0.1 0.2-0.3 0.3-0.4q0 0 0 0.1z"/>
					<path id="&lt;Path&gt;" class="s0" d="m605.1 103.5c-0.2-0.1-0.5-0.2-0.8-0.1q0 0.2 0.1 0.4c0.1 0.1 0.2 0.2 0.4 0.1 0.1 0 0.2-0.2 0.3-0.4q0 0.1 0 0.1z"/>
					<path id="&lt;Path&gt;" class="s0" d="m642.7 129.2q-0.1-0.1-0.2 0-0.2 0.1-0.2 0.2-0.2 0.3-0.4 0.5 0.6-0.1 1.1-0.2 0.1 0 0.1 0c0.1 0 0.1 0.2 0.2 0.3 0.1 0.1 0.3 0 0.4-0.1 1-0.6-0.5-0.6-1-0.7z"/>
					<path id="&lt;Path&gt;" class="s0" d="m647.8 129.4q0.2-0.1 0.3 0c-0.1 0.2-0.4 0.3-0.6 0.3-0.1 0-0.3 0-0.4-0.1 0-0.1 0-0.2 0-0.3 0-0.1-0.2-0.3-0.1-0.5 0-0.1 0.2-0.1 0.3 0q0.1 0.1 0.2 0.2 0.2 0.3 0.4 0.5z"/>
					<path id="&lt;Path&gt;" class="s0" d="m648.9 132.9c-0.2-0.1-0.4 0.1-0.3 0.3 0.1 0.2 0.3 0.2 0.5 0.3 0.1-0.2 0.1-0.6-0.1-0.7z"/>
					<path id="&lt;Path&gt;" class="s0" d="m644.9 131.8c0.1 0.1 0.1 0.2 0 0.3q-0.1 0.1-0.2 0.1-0.1 0-0.2 0c-0.1-0.1-0.1-0.2-0.1-0.3 0.1-0.1 0.2-0.2 0.3-0.1 0.2 0.1 0.2 0.2 0.1 0.3z"/>
					<path id="&lt;Path&gt;" class="s0" d="m645 130.6c0.1-0.2-0.1-0.4-0.3-0.3q-0.1 0.2 0 0.3c0 0.1 0.1 0.2 0.2 0.2 0.1-0.1 0.2-0.2 0.1-0.3z"/>
					<path id="&lt;Path&gt;" class="s0" d="m591.3 102.7c0.1-0.2-0.1-0.4-0.3-0.3q0 0.1 0 0.3c0 0.1 0.1 0.2 0.2 0.1 0.1 0 0.2-0.1 0.1-0.2z"/>
					<path id="&lt;Path&gt;" class="s0" d="m645.9 126.4c-0.1-0.2-0.3-0.3-0.5-0.3q0 0.2 0 0.5 0 0.2 0 0.3c0.1 0.1 0.4 0.1 0.5 0 0.1-0.1 0.1-0.3 0-0.5z"/>
					<path id="&lt;Path&gt;" class="s0" d="m646.7 133.9c0.1 0 0.2 0.2 0.1 0.3 0 0.1-0.1 0.2-0.2 0.3-0.1 0-0.3-0.1-0.3-0.2q0.1 0 0.1-0.1 0.1-0.2 0.3-0.4 0 0 0 0.1z"/>
					<path id="&lt;Path&gt;" class="s0" d="m643.9 135.3c0 0.2 0.2 0.3 0.4 0.3 0.1 0.1 0.3 0.1 0.4 0.3q0 0 0 0.1c-0.1 0.1-0.2 0-0.3 0-0.1 0-0.2 0-0.3 0-0.3 0-0.5-0.1-0.6-0.3 0-0.1 0.1-0.2 0.2-0.3 0.1 0 0.3 0 0.4 0.1z"/>
					<path id="&lt;Path&gt;" class="s0" d="m642.7 136.5q-0.1 0.1-0.1 0.1c0 0.1 0.1 0.2 0.2 0.2 0.1-0.1 0.2-0.2 0.2-0.3-0.1-0.1-0.2-0.1-0.3 0z"/>
					<path id="&lt;Path&gt;" class="s0" d="m644.5 140.6q-0.1 0.1-0.1 0.2c0 0.1 0.1 0.1 0.2 0.1 0.1 0 0.2-0.1 0.1-0.2 0-0.1-0.1-0.2-0.2-0.1z"/>
					<path id="&lt;Path&gt;" class="s0" d="m645.1 129.2c0.1 0.1 0.2 0 0.2-0.1 0.1-0.2 0-0.3 0-0.4q0.1-0.2 0.2-0.3 0.1-0.1 0.2-0.1 0.1 0.1 0.1 0.1c0.2 0.2 0.3 0.5 0.3 0.7 0 0.3-0.2 0.5-0.4 0.6-0.2 0.1-0.3 0.1-0.5-0.1-0.1-0.1-0.2-0.2-0.1-0.4z"/>
					<path id="&lt;Path&gt;" class="s0" d="m642.9 126.6c-0.1-0.1-0.3-0.1-0.4 0-0.1 0.1-0.1 0.3-0.1 0.4 0 0.1 0.1 0.2 0.1 0.2q0.1 0 0.1-0.1 0.2-0.2 0.4-0.5z"/>
					<path id="&lt;Path&gt;" class="s0" d="m650.6 130.7c0.1 0.3-0.1 0.7-0.4 0.7-0.1-0.2-0.2-0.4-0.1-0.7 0-0.2 0.3-0.4 0.5-0.3q0.1 0.2 0.2 0.3z"/>
					<path id="&lt;Path&gt;" class="s0" d="m645.3 137.1c0.1-0.1 0.2 0 0.2 0q0 0.1 0 0.3 0 0-0.1 0.1c-0.1 0.1-0.2 0.1-0.3 0-0.1 0-0.1-0.2-0.1-0.3q0-0.1 0-0.1c0.1-0.1 0.2-0.1 0.2 0z"/>
					<path id="&lt;Path&gt;" class="s0" d="m643.3 131.2q-0.1 0-0.2 0c0 0.1 0 0.2 0.1 0.3 0 0.1 0.2 0.1 0.2 0q0-0.1 0-0.1 0-0.2-0.1-0.4z"/>
					<path id="&lt;Path&gt;" class="s0" d="m643 123.9c-0.1 0-0.3-0.1-0.4-0.1-0.2 0-0.4 0.1-0.4 0.2q-0.1 0.1 0 0.2c0 0.3 0.3 0.4 0.6 0.3 0.2 0 0.3-0.3 0.2-0.6z"/>
					<path id="&lt;Path&gt;" class="s0" d="m655 131.9q-0.2 0-0.3 0-0.1 0.1 0 0.3c0.1 0 0.3-0.1 0.3-0.3z"/>
					<path id="&lt;Path&gt;" class="s0" d="m548.8 104.8c-0.8-0.8-1.8-1.4-2.9-1.8-0.2 0-0.4-0.1-0.6 0-0.3 0-0.6 0.3-0.8 0.6-0.3 0.9-0.1 1.9 0.6 2.5 0.6 0.6 1.6 0.8 2.4 0.6 0.5-0.1 1-0.3 1.2-0.7 0.3-0.4 0.3-1-0.1-1.3-0.2 0-0.2 0.2-0.1 0.3z"/>
					<path id="&lt;Path&gt;" class="s0" d="m554.9 70.3c-0.5-0.4-1.2-0.6-1.9-0.3-0.1 0.6 0.1 1.3 0.6 1.8 0.4 0.5 1.3 0.5 1.7 0 0.4-0.6 0-1.5-0.6-1.4z"/>
					<path id="&lt;Path&gt;" class="s0" d="m576.8 45.9c-0.5-0.4-1.2-0.5-1.9-0.3-0.1 0.7 0.1 1.4 0.6 1.8 0.4 0.5 1.3 0.5 1.7 0 0.4-0.5 0-1.5-0.6-1.4z"/>
					<path id="&lt;Path&gt;" class="s0" d="m546 66.3c-0.2-0.2-0.6-0.3-0.9-0.2q0.1 0.2 0.2 0.4c0.1 0.1 0.2 0.2 0.3 0.2 0.2-0.1 0.3-0.3 0.3-0.5q0.1 0.1 0.1 0.2z"/>
					<path id="&lt;Path&gt;" class="s0" d="m544.3 67.7q-0.2-0.1-0.3 0-0.1 0-0.1 0.2-0.2 0.3-0.4 0.5 0.5-0.1 1.1-0.2 0.1 0 0.1 0c0.1 0 0.1 0.2 0.2 0.3 0.1 0.1 0.3 0 0.4-0.1 0.9-0.6-0.6-0.6-1-0.7z"/>
					<path id="&lt;Path&gt;" class="s0" d="m539.9 61.8q-0.2 0-0.4 0c0.1 0.2 0.3 0.5 0.5 0.5 0.2 0 0.4-0.3 0.3-0.5-0.1-0.1-0.2-0.2-0.1-0.3z"/>
					<path id="&lt;Path&gt;" class="s0" d="m549.4 67.9q0.1-0.1 0.3 0c-0.1 0.2-0.4 0.3-0.6 0.3-0.2 0-0.3 0-0.4-0.1 0-0.1 0-0.2 0-0.3-0.1-0.1-0.3-0.3-0.1-0.5 0-0.1 0.1-0.1 0.2 0q0.2 0 0.3 0.2 0.2 0.3 0.4 0.5z"/>
					<path id="&lt;Path&gt;" class="s0" d="m550.5 71.3c-0.2 0-0.4 0.2-0.3 0.4 0.1 0.2 0.3 0.2 0.5 0.3 0.1-0.3 0-0.6-0.2-0.7z"/>
					<path id="&lt;Path&gt;" class="s0" d="m546.5 70.3c0 0.1 0 0.2 0 0.3q-0.1 0.1-0.3 0.1 0 0-0.1 0c-0.1-0.1-0.2-0.2-0.1-0.4 0.1-0.1 0.2-0.1 0.3 0 0.1 0 0.2 0.2 0.1 0.3z"/>
					<path id="&lt;Path&gt;" class="s0" d="m546.6 69.1c0.1-0.2-0.1-0.4-0.3-0.3q-0.1 0.1 0 0.3c0 0.1 0.1 0.2 0.2 0.1 0.1 0 0.2-0.1 0.1-0.2z"/>
					<path id="&lt;Path&gt;" class="s0" d="m541.5 57.1c0-0.2-0.2-0.4-0.4-0.4q0 0.2 0 0.3c0.1 0.1 0.2 0.2 0.3 0.2 0.1 0 0.1-0.2 0.1-0.2z"/>
					<path id="&lt;Path&gt;" class="s0" d="m547.5 64.9c-0.1-0.2-0.3-0.3-0.6-0.4q0.1 0.3 0.1 0.6 0 0.2 0 0.3c0.1 0.1 0.3 0.1 0.5 0 0.1-0.1 0.1-0.3 0-0.5z"/>
					<path id="&lt;Path&gt;" class="s0" d="m548.3 72.3c0.1 0.1 0.1 0.3 0.1 0.4 0 0.1-0.1 0.2-0.3 0.3-0.1 0-0.2-0.1-0.2-0.2q0 0 0.1-0.1 0.1-0.2 0.2-0.4 0.1 0 0.1 0.1z"/>
					<path id="&lt;Path&gt;" class="s0" d="m547.8 74.9c-0.2 0.1-0.1 0.3-0.1 0.5 0.1 0.2 0.2 0.3 0.1 0.5q-0.1 0-0.2 0c-0.1 0-0.1-0.1-0.1-0.2-0.1-0.1-0.2-0.2-0.2-0.2-0.2-0.2-0.2-0.5 0-0.7 0.1 0 0.2 0 0.3 0 0.1 0.1 0.1 0.2 0.1 0.4z"/>
					<path id="&lt;Path&gt;" class="s0" d="m577.6 72.3c-0.1 0.2 0 0.4 0 0.5 0.1 0.2 0.2 0.4 0.1 0.5q-0.1 0-0.2 0.1c-0.1 0-0.1-0.2-0.1-0.3-0.1-0.1-0.2-0.2-0.2-0.2-0.2-0.2-0.2-0.5-0.1-0.7 0.1 0 0.3 0 0.4 0.1 0.1 0 0.1 0.2 0.1 0.3z"/>
					<path id="&lt;Path&gt;" class="s0" d="m546.1 74.6q-0.1 0-0.2 0c0 0 0 0.2 0.1 0.2 0.1 0.1 0.2 0.1 0.3 0 0-0.1 0-0.2-0.2-0.2z"/>
					<path id="&lt;Path&gt;" class="s0" d="m543.7 78.4q-0.1 0-0.2-0.1c-0.1 0.1-0.1 0.3 0 0.3 0.1 0.1 0.2 0.1 0.3 0 0.1-0.1 0-0.2-0.1-0.2z"/>
					<path id="&lt;Path&gt;" class="s0" d="m546.6 67.7c0.1 0.1 0.3 0 0.3-0.1 0-0.2 0-0.3 0-0.4q0-0.2 0.2-0.3 0.1-0.1 0.2-0.1 0.1 0.1 0.1 0.1c0.1 0.2 0.2 0.5 0.2 0.7 0 0.3-0.1 0.5-0.3 0.6-0.2 0.1-0.4 0-0.5-0.1-0.1-0.1-0.2-0.3-0.2-0.4z"/>
					<path id="&lt;Path&gt;" class="s0" d="m544.5 65.1c-0.1-0.1-0.3-0.1-0.4 0-0.1 0.1-0.2 0.3-0.1 0.4 0 0.1 0 0.2 0.1 0.2q0.1 0 0.1-0.1 0.2-0.2 0.4-0.5z"/>
					<path id="&lt;Path&gt;" class="s0" d="m552.1 69.2c0.2 0.3 0 0.7-0.3 0.7-0.1-0.2-0.2-0.4-0.1-0.7 0-0.2 0.3-0.4 0.5-0.3q0.1 0.1 0.2 0.3z"/>
					<path id="&lt;Path&gt;" class="s0" d="m547.1 77.1c0.1 0 0.1 0.1 0.1 0.2q-0.1 0.1-0.2 0.1-0.1 0-0.2 0c-0.1 0-0.2-0.1-0.2-0.3 0-0.1 0.1-0.2 0.2-0.2q0.1-0.1 0.2-0.1c0 0.1 0 0.1 0 0.2z"/>
					<path id="&lt;Path&gt;" class="s0" d="m544.9 69.7q-0.1 0-0.2 0c0 0.1 0 0.2 0.1 0.3 0 0.1 0.2 0.1 0.2 0q0-0.1 0-0.1 0-0.2-0.1-0.4z"/>
					<path id="&lt;Path&gt;" class="s0" d="m544.6 62.4c-0.1-0.1-0.3-0.1-0.4-0.1-0.2 0-0.4 0-0.5 0.2q0 0.1 0 0.2c0.1 0.3 0.4 0.4 0.6 0.3 0.3-0.1 0.4-0.4 0.3-0.6z"/>
					<path id="&lt;Path&gt;" class="s0" d="m556.6 70.3q-0.2 0.1-0.4 0.1 0 0.1 0.1 0.3c0.1 0 0.3-0.1 0.3-0.3z"/>
					<path id="&lt;Path&gt;" class="s0" d="m548.3 80.4c-0.5-0.4-1.3-0.5-1.9-0.3-0.1 0.7 0 1.4 0.5 1.8 0.5 0.5 1.4 0.5 1.8 0 0.4-0.5 0-1.5-0.7-1.4z"/>
					<path id="&lt;Path&gt;" class="s0" d="m506 56.7q0.2 0 0.3 0c-0.1 0.2-0.4 0.3-0.6 0.4-0.1 0-0.3 0-0.4-0.1 0-0.1 0-0.2 0-0.3 0-0.2-0.2-0.4-0.1-0.5 0-0.1 0.2-0.1 0.3-0.1q0.1 0.1 0.2 0.3 0.2 0.2 0.4 0.5z"/>
					<path id="&lt;Path&gt;" class="s0" d="m445.1 25.2q-0.2 0-0.3 0-0.1 0.1-0.1 0.2-0.2 0.3-0.4 0.6 0.5-0.1 1.1-0.2 0 0 0.1 0c0.1 0 0.1 0.1 0.2 0.2 0.1 0.1 0.3 0.1 0.4 0 0.9-0.6-0.6-0.7-1-0.8z"/>
					<path id="&lt;Path&gt;" class="s0" d="m447.2 27.9c0.1 0 0.1 0.2 0.1 0.2q-0.1 0.1-0.3 0.1-0.1 0.1-0.1 0c-0.1 0-0.2-0.2-0.1-0.3 0-0.1 0.2-0.1 0.3-0.1 0.1 0.1 0.2 0.3 0.1 0.4z"/>
					<path id="&lt;Path&gt;" class="s0" d="m443.4 40.4c0.1 0 0.1 0.2 0 0.2q-0.1 0.1-0.2 0.1-0.1 0-0.2 0c-0.1 0-0.1-0.2-0.1-0.3 0.1-0.1 0.3-0.1 0.4-0.1 0.1 0.1 0.1 0.2 0.1 0.4z"/>
					<path id="&lt;Path&gt;" class="s0" d="m447.4 26.7c0.1-0.2-0.2-0.4-0.3-0.3q-0.1 0.1-0.1 0.3c0.1 0 0.2 0.1 0.3 0.1 0.1 0 0.2-0.1 0.1-0.2z"/>
					<path id="&lt;Path&gt;" class="s0" d="m446.3 31.4c0 0.2 0.2 0.2 0.3 0.3 0.2 0 0.4 0.1 0.4 0.2q0.1 0.1 0 0.2c0 0-0.2 0-0.3 0-0.1-0.1-0.2 0-0.3 0-0.2 0-0.4-0.1-0.5-0.3 0-0.2 0.1-0.3 0.2-0.3 0.1-0.1 0.2 0 0.3 0.1z"/>
					<path id="&lt;Path&gt;" class="s0" d="m445 32.5q0 0.1-0.1 0.2c0.1 0.1 0.2 0.2 0.3 0.1 0.1 0 0.2-0.1 0.1-0.2 0-0.1-0.2-0.2-0.2-0.1z"/>
					<path id="&lt;Path&gt;" class="s0" d="m446.8 36.7q0 0.1-0.1 0.1c0.1 0.1 0.2 0.2 0.3 0.2 0.1-0.1 0.1-0.2 0.1-0.3 0-0.1-0.2-0.1-0.3 0z"/>
					<path id="&lt;Path&gt;" class="s0" d="m447.7 33.1c0.1 0 0.1 0 0.2 0.1q0 0.1 0 0.2-0.1 0.1-0.1 0.2c-0.1 0-0.3 0-0.3 0-0.1-0.1-0.2-0.2-0.2-0.3q0-0.1 0.1-0.2c0 0 0.1 0 0.2 0z"/>
					<path id="&lt;Path&gt;" class="s0" d="m445.7 27.2q-0.1 0-0.2 0c0 0.1 0 0.3 0 0.3 0.1 0.1 0.3 0.1 0.3 0q0 0 0-0.1-0.1-0.2-0.1-0.3z"/>
					<path id="&lt;Path&gt;" class="s0" d="m434.6 37.4q0.1-0.1 0.3 0c-0.1 0.2-0.4 0.2-0.6 0.3-0.2 0-0.3 0-0.4-0.1 0-0.1 0-0.2 0-0.3-0.1-0.2-0.3-0.3-0.2-0.5 0.1-0.1 0.2-0.1 0.3 0q0.2 0 0.3 0.2 0.2 0.3 0.4 0.5z"/>
					<path id="&lt;Path&gt;" class="s0" d="m530.7 67.4c-0.2-0.1-0.4 0.2-0.3 0.4 0.1 0.1 0.3 0.2 0.5 0.3 0.1-0.3 0-0.6-0.2-0.8z"/>
					<path id="&lt;Path&gt;" class="s0" d="m539.8 80.5c0.1 0 0.1 0.2 0 0.2q-0.1 0.1-0.2 0.1-0.1 0-0.2 0c-0.1 0-0.1-0.2 0-0.3 0-0.1 0.2-0.1 0.3-0.1 0.1 0.1 0.1 0.2 0.1 0.4z"/>
					<path id="&lt;Path&gt;" class="s0" d="m541.6 82.5c0.1 0.1 0.2 0.2 0.2 0.3-0.1 0.2-0.2 0.3-0.3 0.3-0.1 0-0.2 0-0.2-0.1q0-0.1 0-0.1 0.2-0.2 0.3-0.5 0 0.1 0.1 0.1z"/>
					<path id="&lt;Path&gt;" class="s0" d="m575.4 75.8c-0.2 0.1-0.1 0.3-0.1 0.5 0.1 0.1 0.2 0.3 0.1 0.4q-0.1 0.1-0.1 0.1c-0.2 0-0.2-0.2-0.2-0.3-0.1 0-0.1-0.1-0.2-0.2-0.1-0.2-0.2-0.4 0-0.6 0.1-0.1 0.2-0.1 0.3 0 0.1 0.1 0.2 0.2 0.1 0.3z"/>
					<path id="&lt;Path&gt;" class="s0" d="m539.5 84.7q-0.1 0-0.2 0c-0.1 0.1-0.1 0.2 0 0.3 0.1 0.1 0.2 0 0.3 0 0.1-0.1 0-0.3-0.1-0.3z"/>
					<path id="&lt;Path&gt;" class="s0" d="m537 88.5q-0.1 0-0.2 0c0 0.1 0 0.2 0.1 0.3 0.1 0.1 0.2 0 0.3-0.1 0 0 0-0.2-0.1-0.2z"/>
					<path id="&lt;Path&gt;" class="s0" d="m545.5 79.4c0.2 0.2 0 0.6-0.3 0.7-0.1-0.2-0.2-0.5-0.2-0.7 0.1-0.3 0.3-0.5 0.5-0.4q0.1 0.2 0.2 0.4z"/>
					<path id="&lt;Path&gt;" class="s0" d="m540.5 87.2c0 0.1 0.1 0.2 0 0.2q-0.1 0.1-0.2 0.1-0.1 0.1-0.1 0c-0.2 0-0.2-0.1-0.2-0.2 0-0.1 0-0.2 0.2-0.3q0 0 0.1 0c0.1 0 0.1 0.1 0.1 0.1z"/>
					<path id="&lt;Path&gt;" class="s0" d="m549.9 80.5q-0.1 0-0.3 0 0 0.2 0 0.3c0.2 0 0.4-0.1 0.4-0.2z"/>
					<path id="&lt;Path&gt;" class="s0" d="m534.8 81q-0.1 0-0.3 0 0 0.2 0 0.3c0.2 0 0.4-0.1 0.4-0.3z"/>
					<path id="&lt;Path&gt;" class="s0" d="m576.2 228.2c1.1 0.4 2.2 0.4 3.4 0.2 0.2 0 0.4 0 0.5-0.1 0.3-0.2 0.4-0.6 0.4-1 0-0.9-0.7-1.7-1.5-1.9-0.9-0.3-1.8-0.1-2.5 0.5-0.4 0.3-0.7 0.7-0.8 1.2 0 0.5 0.3 1 0.7 1.1 0.2-0.1 0.1-0.3 0-0.4z"/>
					<path id="&lt;Path&gt;" class="s0" d="m574.1 210.9q0.1 0 0.2 0 0.1-0.1 0.2-0.2 0.1-0.3 0.4-0.6-0.6 0.1-1.2 0.2 0 0.1 0 0c-0.1 0-0.2-0.1-0.2-0.2-0.1-0.1-0.3 0-0.5 0-0.9 0.6 0.6 0.7 1.1 0.8z"/>
					<path id="&lt;Path&gt;" class="s0" d="m546.5 183.5c0-0.1 0-0.2 0.1-0.3q0.1 0 0.2 0 0.1 0 0.2 0.1c0.1 0 0 0.2 0 0.3-0.1 0.1-0.3 0.1-0.4 0-0.1-0.1-0.1-0.3 0-0.4z"/>
					<path id="&lt;Path&gt;" class="s0" d="m592.4 205c-0.1-0.1-0.2-0.1-0.3 0-0.1 0.2-0.1 0.3-0.1 0.4q-0.1 0.2-0.3 0.3-0.1 0-0.2-0.1 0 0-0.1-0.1c0-0.2-0.1-0.5 0-0.7 0.1-0.3 0.3-0.5 0.5-0.5 0.2 0 0.4 0.1 0.5 0.2 0.1 0.2 0.1 0.4 0 0.5z"/>
					<path id="&lt;Path&gt;" class="s0" d="m539.6 209.3c-0.1-0.1-0.3 0-0.3 0.1-0.1 0.1-0.1 0.3-0.1 0.4q-0.1 0.2-0.3 0.2-0.1 0.1-0.2 0-0.1-0.1-0.1-0.1c0-0.3-0.1-0.5 0-0.8 0.1-0.2 0.3-0.4 0.5-0.4 0.2 0 0.4 0 0.5 0.2 0.1 0.1 0.1 0.3 0 0.5z"/>
					<path id="&lt;Path&gt;" class="s0" d="m551.3 207.4c0.1 0.1 0.2 0.2 0.4 0.3 0.1 0 0.3 0 0.4-0.1q0.1-0.1 0.1-0.2c0-0.3-0.2-0.5-0.5-0.5-0.2 0-0.4 0.3-0.4 0.5z"/>
					<path id="&lt;Path&gt;" class="s0" d="m583.9 223.4c0.6 1 1.4 1.9 2.4 2.5 0.1 0.1 0.3 0.2 0.5 0.3 0.3 0 0.7-0.2 0.9-0.4 0.6-0.7 0.6-1.7 0.2-2.5-0.4-0.8-1.3-1.3-2.1-1.4-0.5 0-1 0.1-1.4 0.4-0.4 0.3-0.5 0.9-0.3 1.3 0.2 0 0.3-0.2 0.2-0.3z"/>
					<path id="&lt;Path&gt;" class="s0" d="m258.9 41.9c0.6 1.1 1.4 1.9 2.4 2.6 0.1 0.1 0.3 0.2 0.5 0.2 0.3 0.1 0.7-0.1 0.9-0.4 0.6-0.7 0.6-1.7 0.2-2.5-0.4-0.8-1.3-1.3-2.1-1.3-0.5-0.1-1 0-1.4 0.3-0.4 0.3-0.5 0.9-0.3 1.3 0.2 0 0.3-0.1 0.2-0.3z"/>
					<path id="&lt;Path&gt;" class="s0" d="m600.1 194.2q0.1 0.1 0.3 0.2c0.1 0 0.2-0.1 0.2-0.1 0.1-0.2-0.1-0.3-0.1-0.5 0-0.2 0.2-0.3 0.1-0.5 0-0.1-0.2-0.1-0.4 0-0.1 0-0.1 0.2-0.2 0.3 0 0.2-0.1 0.3 0 0.5 0 0.1 0.1 0.2 0.3 0.2z"/>
					<path id="&lt;Path&gt;" class="s0" d="m585.5 232.7c0.4 0.5 1 0.9 1.7 0.8 0.3-0.6 0.4-1.3 0.1-1.9-0.4-0.6-1.2-0.8-1.7-0.5-0.6 0.4-0.5 1.4 0.2 1.6z"/>
					<path id="&lt;Path&gt;" class="s0" d="m544.4 178.1c-0.1 0.2 0 0.4 0.2 0.4q0.1-0.1 0.1-0.3c0-0.1-0.1-0.2-0.2-0.2-0.1 0-0.2 0.1-0.2 0.2z"/>
					<path id="&lt;Path&gt;" class="s0" d="m585.6 188.6c0.6 1 1.4 1.9 2.3 2.6 0.2 0.1 0.3 0.2 0.5 0.2 0.4 0 0.7-0.2 1-0.4 0.5-0.7 0.6-1.7 0.2-2.5-0.4-0.8-1.3-1.3-2.2-1.3-0.5-0.1-1 0-1.3 0.3-0.4 0.3-0.6 0.9-0.3 1.3 0.1 0 0.3-0.2 0.2-0.3z"/>
					<path id="&lt;Path&gt;" class="s0" d="m643.7 37.1c0.6 1 1.4 1.8 2.3 2.5 0.2 0.1 0.4 0.2 0.5 0.2 0.4 0.1 0.7-0.1 1-0.4 0.6-0.7 0.6-1.7 0.2-2.5-0.4-0.7-1.3-1.2-2.2-1.3-0.4-0.1-1 0-1.3 0.3-0.4 0.4-0.6 0.9-0.3 1.3 0.2 0.1 0.3-0.1 0.2-0.3z"/>
					<path id="&lt;Path&gt;" class="s0" d="m569.6 219.8c0.4 0.6 1.1 0.9 1.7 0.9 0.3-0.6 0.4-1.4 0.1-1.9-0.4-0.6-1.2-0.9-1.7-0.5-0.6 0.3-0.4 1.4 0.2 1.5z"/>
					<path id="&lt;Path&gt;" class="s0" d="m577 226.2c0.1 0.3 0.4 0.4 0.8 0.5q0-0.3-0.1-0.5c0-0.1-0.1-0.2-0.2-0.2-0.2 0-0.4 0.1-0.5 0.3q0-0.1 0-0.1z"/>
					<path id="&lt;Path&gt;" class="s0" d="m579 225.4q0.2 0.1 0.3 0.1 0.1 0 0.2-0.1 0.2-0.3 0.5-0.5-0.5 0-1.1-0.1-0.1 0-0.1 0c-0.1-0.1-0.1-0.2-0.1-0.3-0.1-0.1-0.3-0.1-0.4-0.1-1.1 0.3 0.3 0.8 0.7 1z"/>
					<path id="&lt;Path&gt;" class="s0" d="m574.2 223.7q-0.1 0-0.3 0c0.2-0.2 0.5-0.2 0.7-0.2 0.1 0 0.3 0.1 0.3 0.2 0.1 0.1 0 0.2 0 0.3 0 0.2 0.1 0.4 0 0.5-0.1 0.1-0.3 0-0.3 0q-0.1-0.1-0.2-0.3-0.1-0.3-0.2-0.6z"/>
					<path id="&lt;Path&gt;" class="s0" d="m574.2 220.1c0.1 0.1 0.4-0.1 0.4-0.3-0.1-0.2-0.3-0.3-0.4-0.4-0.2 0.2-0.2 0.5-0.1 0.8z"/>
					<path id="&lt;Path&gt;" class="s0" d="m577.7 222.2c0 0 0-0.1 0.1-0.2q0.1-0.1 0.2 0 0.1 0 0.2 0c0.1 0.1 0.1 0.3 0 0.4-0.1 0-0.3 0-0.4-0.1 0-0.1 0-0.2 0.1-0.3z"/>
					<path id="&lt;Path&gt;" class="s0" d="m577.2 223.4c-0.1 0.1 0.1 0.4 0.3 0.4q0.1-0.2 0.1-0.3c0-0.1-0.1-0.2-0.2-0.2-0.1 0-0.2 0.1-0.2 0.2z"/>
					<path id="&lt;Path&gt;" class="s0" d="m575.1 227.1c0.1 0.3 0.3 0.5 0.5 0.5q0-0.2 0.1-0.5 0.1-0.2 0.1-0.3c-0.1-0.2-0.3-0.2-0.5-0.1-0.1 0-0.2 0.2-0.2 0.4z"/>
					<path id="&lt;Path&gt;" class="s0" d="m576.6 219.8c-0.1-0.1-0.1-0.3 0-0.4 0-0.1 0.2-0.2 0.3-0.2 0.1 0.1 0.2 0.1 0.2 0.2q0 0.1-0.1 0.1-0.2 0.2-0.4 0.3 0 0 0 0z"/>
					<path id="&lt;Path&gt;" class="s0" d="m577.8 217.5c0.2-0.1 0.2-0.3 0.2-0.5 0-0.1 0-0.3 0.1-0.4q0.1-0.1 0.2-0.1c0.1 0.1 0 0.2 0 0.3 0.1 0.1 0.1 0.2 0.2 0.3 0 0.2 0 0.5-0.2 0.6-0.1 0-0.2 0-0.3-0.1-0.1-0.1-0.1-0.2 0-0.3z"/>
					<path id="&lt;Path&gt;" class="s0" d="m548.5 211.2c0.2-0.1 0.2-0.3 0.2-0.5 0-0.2 0-0.4 0.1-0.5q0.1 0 0.1 0c0.1 0.1 0.1 0.2 0.1 0.3 0 0.1 0.1 0.2 0.1 0.3 0.1 0.2 0 0.5-0.1 0.6-0.1 0-0.3 0-0.4-0.1 0-0.1 0-0.2 0-0.4z"/>
					<path id="&lt;Path&gt;" class="s0" d="m579.3 218.3q0.1 0 0.2 0.1c0.1-0.1 0.1-0.2 0-0.3 0-0.1-0.2-0.1-0.2-0.1-0.1 0.1-0.1 0.2 0 0.3z"/>
					<path id="&lt;Path&gt;" class="s0" d="m582.8 215.4q0 0 0.1 0.1c0.1-0.1 0.1-0.2 0.1-0.3-0.1-0.1-0.2-0.1-0.3-0.1-0.1 0.1-0.1 0.2 0 0.3z"/>
					<path id="&lt;Path&gt;" class="s0" d="m576.8 224.7c-0.1-0.1-0.3 0-0.3 0.1-0.1 0.1-0.1 0.2-0.1 0.3q-0.1 0.2-0.3 0.3-0.1 0-0.2 0-0.1-0.1-0.1-0.2c0-0.2-0.1-0.5 0-0.7 0.1-0.2 0.3-0.5 0.5-0.5 0.2 0 0.4 0.1 0.5 0.2 0.1 0.2 0.1 0.4 0 0.5z"/>
					<path id="&lt;Path&gt;" class="s0" d="m578.1 227.8c0 0.1 0.2 0.2 0.4 0.1 0.1 0 0.2-0.2 0.2-0.3 0-0.1 0-0.2-0.1-0.2q0 0-0.1 0-0.2 0.2-0.5 0.4z"/>
					<path id="&lt;Path&gt;" class="s0" d="m572 221.7c-0.1-0.4 0.2-0.7 0.5-0.6 0 0.2 0.1 0.5-0.1 0.7-0.1 0.2-0.4 0.3-0.6 0.2q0-0.2-0.1-0.4z"/>
					<path id="&lt;Path&gt;" class="s0" d="m579.1 215.6c-0.1-0.1 0-0.1 0-0.2q0.1-0.1 0.2 0 0.1 0 0.2 0c0.1 0 0.1 0.2 0.1 0.3 0 0.1-0.1 0.2-0.3 0.2q0 0-0.1 0c-0.1-0.1-0.1-0.1-0.1-0.2z"/>
					<path id="&lt;Path&gt;" class="s0" d="m579 223.3q0.1 0 0.2 0.1c0-0.1 0.1-0.2 0.1-0.3-0.1-0.1-0.2-0.2-0.3-0.1q0 0.1 0 0.1 0 0.2 0 0.4z"/>
					<path id="&lt;Path&gt;" class="s0" d="m568.1 219.3q0.2 0 0.3 0 0.1-0.1 0.1-0.2c-0.2-0.1-0.4-0.1-0.5 0.1z"/>
					<path id="&lt;Path&gt;" class="s0" d="m579 212.1c0.3 0.5 1 0.8 1.7 0.8 0.3-0.6 0.3-1.3 0-1.9-0.3-0.6-1.1-0.9-1.7-0.5-0.5 0.4-0.4 1.4 0.2 1.6z"/>
					<path id="&lt;Path&gt;" class="s0" d="m587.1 214.5c-0.1-0.1-0.1-0.2 0-0.2q0.1-0.1 0.3-0.1 0.1 0 0.1 0.1c0.1 0.1 0.1 0.2 0 0.3-0.1 0.1-0.2 0.1-0.3 0-0.1-0.1-0.1-0.3 0-0.3z"/>
					<path id="&lt;Path&gt;" class="s0" d="m585.9 212c-0.1-0.1-0.1-0.2 0-0.3 0.1-0.2 0.2-0.2 0.3-0.2 0.1 0 0.2 0.1 0.2 0.2q0 0-0.1 0.1-0.2 0.1-0.4 0.3 0 0 0-0.1z"/>
					<path id="&lt;Path&gt;" class="s0" d="m551.7 208.5c0.2 0 0.2-0.3 0.2-0.4 0-0.2 0-0.4 0.1-0.5q0 0 0.1 0c0.1 0 0.1 0.2 0.1 0.3 0 0.1 0.1 0.2 0.1 0.3 0.1 0.2 0 0.4-0.1 0.6-0.2 0-0.3 0-0.4-0.1 0-0.1 0-0.3 0-0.4z"/>
					<path id="&lt;Path&gt;" class="s0" d="m588.6 210.5q0.1 0.1 0.2 0.1c0.1-0.1 0.1-0.2 0.1-0.3-0.1-0.1-0.2-0.1-0.3 0-0.1 0-0.1 0.2 0 0.2z"/>
					<path id="&lt;Path&gt;" class="s0" d="m592.1 207.6q0.1 0.1 0.2 0.1c0-0.1 0.1-0.2 0-0.3 0-0.1-0.2-0.1-0.3 0 0 0 0 0.2 0.1 0.2z"/>
					<path id="&lt;Path&gt;" class="s0" d="m581.3 213.9c-0.1-0.3 0.2-0.6 0.5-0.6 0.1 0.3 0.1 0.5 0 0.7-0.1 0.3-0.4 0.4-0.6 0.2q-0.1-0.2-0.1-0.4z"/>
					<path id="&lt;Path&gt;" class="s0" d="m588.4 207.9c0-0.1 0-0.2 0-0.2q0.1-0.1 0.2-0.1 0.1 0 0.2 0c0.1 0.1 0.2 0.2 0.1 0.3 0 0.2-0.1 0.2-0.2 0.3q-0.1 0-0.2-0.1c0 0-0.1-0.1 0-0.1z"/>
					<path id="&lt;Path&gt;" class="s0" d="m577.4 211.5q0.2 0 0.4 0.1 0-0.2 0-0.3c-0.1-0.1-0.4 0-0.4 0.1z"/>
					<path id="&lt;Path&gt;" class="s0" d="m592 215.5q0.1 0 0.3 0 0.1-0.1 0-0.2c-0.1-0.1-0.3 0-0.4 0.1z"/>
					<path id="&lt;Path&gt;" class="s0" d="m648.8 46.9c0.3-0.2 0.8-0.1 1.1 0.1q0.1 0.1 0.1 0.1c0 0.1-0.1 0.2-0.1 0.2-0.3 0.4-0.7 0.8-1.1 0.6-0.3-0.1-0.4-0.7-0.1-0.9q0.1 0 0.3 0.1z"/>
					<path id="&lt;Path&gt;" class="s0" d="m-25.4 90.2c1.2-0.3 2.2-0.8 3.1-1.6 0.1-0.1 0.3-0.2 0.3-0.4 0.2-0.3 0.1-0.7-0.1-1-0.5-0.8-1.5-1.1-2.4-0.9-0.8 0.2-1.5 0.9-1.8 1.8-0.2 0.4-0.2 0.9 0 1.4 0.2 0.4 0.7 0.7 1.2 0.6 0-0.2-0.1-0.3-0.3-0.3z"/>
					<path id="&lt;Path&gt;" class="s0" d="m36.6 37.1c0.6-1 1-2.1 1.1-3.3 0-0.2 0-0.4 0-0.5-0.2-0.4-0.5-0.6-0.9-0.7-0.8-0.1-1.8 0.3-2.2 1-0.5 0.8-0.5 1.8-0.2 2.6 0.2 0.4 0.5 0.8 1 1 0.4 0.2 1 0 1.3-0.4-0.1-0.1-0.3-0.2-0.4 0z"/>
					<path id="&lt;Path&gt;" class="s0" d="m-29.9 87.8c0.6-0.2 1.1-0.7 1.2-1.4-0.4-0.4-1.1-0.7-1.8-0.5-0.6 0.1-1.1 0.9-0.9 1.5 0.2 0.6 1.3 0.8 1.6 0.2z"/>
					<path id="&lt;Path&gt;" class="s0" d="m-22.6 93.4q0.3-0.2 0.4-0.5 0-0.1 0-0.1 0 0 0-0.1c-0.2-0.1-0.5 0.1-0.7-0.1q0-0.1 0-0.1c-0.1 0-0.2 0-0.2 0.1-0.1 0.3 0.2 0.8 0.6 0.8q-0.1 0-0.1 0z"/>
					<path id="&lt;Path&gt;" class="s0" d="m-16 96.6q0.5-0.4 0.8-1 0 0 0-0.1 0-0.1-0.1-0.1c-0.4-0.3-1 0-1.2-0.3-0.1-0.1-0.1-0.2-0.2-0.2-0.1-0.1-0.2 0.1-0.2 0.2-0.2 0.6 0.3 1.4 1 1.4q0 0.1-0.1 0.1z"/>
					<path id="&lt;Path&gt;" class="s0" d="m-17.3 108.5q0.5-0.5 0.8-1 0-0.1 0-0.2 0-0.1-0.1-0.1c-0.4-0.2-1 0.1-1.2-0.3-0.1-0.1-0.1-0.2-0.2-0.2-0.1 0-0.2 0.1-0.3 0.2-0.2 0.7 0.4 1.4 1.1 1.4q-0.1 0.1-0.1 0.2z"/>
					<path id="&lt;Path&gt;" class="s0" d="m-21.8 82.4c0.3-0.1 0.5-0.4 0.6-0.7q-0.2 0-0.4-0.1c-0.1 0.1-0.3 0.1-0.3 0.3-0.1 0.1 0 0.3 0.2 0.5q-0.1 0-0.2-0.1z"/>
					<path id="&lt;Path&gt;" class="s0" d="m19.3 34.6q0.1-0.1 0.1-0.2-0.1-0.1-0.2-0.2-0.2-0.2-0.4-0.5 0 0.5-0.1 1.1 0 0.1 0 0.1c-0.1 0.1-0.2 0.1-0.3 0.1-0.1 0.1-0.1 0.3-0.1 0.4 0.3 1.1 0.8-0.3 1-0.8z"/>
					<path id="&lt;Path&gt;" class="s0" d="m-4.5 86q0.1-0.1 0.2-0.2 0-0.1-0.1-0.2-0.2-0.3-0.3-0.7-0.2 0.6-0.4 1.1 0 0 0 0.1c-0.1 0.1-0.2 0-0.3 0-0.2 0.1-0.2 0.2-0.2 0.4 0 1.1 0.8-0.1 1.1-0.5z"/>
					<path id="&lt;Path&gt;" class="s0" d="m33.7 54.5q0.1-0.2 0.2-0.4c-0.2 0-0.5 0-0.6 0.2-0.2 0.2-0.1 0.5 0.2 0.5 0.1 0 0.3-0.1 0.3 0.1z"/>
					<path id="&lt;Path&gt;" class="s0" d="m-3.8 94.5c-0.3 0.2-0.7-0.1-0.7-0.4 0-0.3 0.4-0.5 0.7-0.4 0.2 0.2 0.3 0.6 0 0.8z"/>
					<path id="&lt;Path&gt;" class="s0" d="m-16.4 90.4c-0.1 0.3-0.2 0.6-0.4 0.6-0.3 0-0.4-0.3-0.4-0.5-0.1-0.1-0.1-0.3 0-0.3 0.2-0.2 0.5 0.2 0.7 0.1 0.1 0 0 0.1-0.1 0.1z"/>
					<path id="&lt;Path&gt;" class="s0" d="m-24.9 84.4q-0.1 0.2-0.2 0.3c-0.1-0.2 0-0.5 0.1-0.7 0-0.1 0.1-0.3 0.2-0.3 0.1 0 0.2 0.1 0.3 0.1 0.1 0.1 0.4 0 0.5 0.2 0 0.1 0 0.2-0.1 0.3q-0.2 0-0.3 0-0.4 0.1-0.7 0.1z"/>
					<path id="&lt;Path&gt;" class="s0" d="m-24.5 81.4c0.1 0.1 0.4 0.1 0.4-0.1q-0.1-0.1-0.2-0.2c-0.1 0-0.2 0-0.3 0.1 0 0.1 0.1 0.3 0.2 0.2z"/>
					<path id="&lt;Path&gt;" class="s0" d="m-11.6 83.4c0.2 0.2 0.4 0.1 0.5-0.1q-0.1-0.1-0.3-0.1c-0.1 0-0.2 0-0.2 0.1-0.1 0.1 0 0.2 0.1 0.2z"/>
					<path id="&lt;Path&gt;" class="s0" d="m-21.4 84.4c0.2 0 0.4-0.1 0.6-0.3q-0.3-0.1-0.5-0.3-0.1-0.1-0.3-0.1c-0.1 0-0.3 0.2-0.2 0.4 0 0.2 0.2 0.3 0.4 0.3z"/>
					<path id="&lt;Path&gt;" class="s0" d="m-14.9 121q-0.2 0.5-0.4 0.9c-0.2 0-0.2-0.2-0.2-0.4 0.1-0.2 0.1-0.4 0.2-0.5 0.2-0.1 0.4-0.1 0.5 0z"/>
					<path id="&lt;Path&gt;" class="s0" d="m-14.7 114.3c0.2 0.1 0.5-0.2 0.4-0.5-0.1-0.2-0.3-0.4-0.6-0.3q-0.2 0-0.3 0.1c-0.1 0.2 0 0.4 0.1 0.5 0.1 0.1 0.3 0.2 0.4 0.2z"/>
					<path id="&lt;Path&gt;" class="s0" d="m-16 89c0.2 0.1 0.4 0 0.6-0.2q-0.2-0.2-0.4-0.3c-0.2-0.1-0.5 0-0.6 0.2-0.1 0.2 0.2 0.5 0.4 0.4z"/>
					<path id="&lt;Path&gt;" class="s0" d="m-18.4 89.6c-0.1 0.1-0.3 0-0.4-0.1q0.1-0.2 0.2-0.5c0.3 0 0.5 0.3 0.4 0.6z"/>
					<path id="&lt;Path&gt;" class="s0" d="m-22.7 92.7q0 0.1 0 0.2c-0.2-0.1-0.3-0.2-0.4-0.3-0.1-0.1-0.1-0.3 0-0.5 0.2-0.1 0.4 0 0.4 0.1q0.1 0.3 0 0.5z"/>
					<path id="&lt;Path&gt;" class="s0" d="m-23.3 82.2c-0.2 0-0.1 0.2-0.1 0.3 0.1 0.1 0.3 0.1 0.4 0.2q0.1 0.1 0.1 0.3 0.1 0.1 0 0.2-0.1 0-0.2 0c-0.2 0-0.5 0-0.7-0.1-0.2-0.2-0.4-0.4-0.3-0.7 0-0.1 0.2-0.3 0.3-0.3 0.2-0.1 0.4 0 0.5 0.1z"/>
					<path id="&lt;Path&gt;" class="s0" d="m18.3 15.4c-0.1 0-0.1 0.2 0 0.3 0.1 0.1 0.2 0.1 0.3 0.2q0.2 0.1 0.2 0.3 0 0.2-0.1 0.2 0 0.1-0.1 0.1c-0.3 0-0.5-0.1-0.7-0.2-0.2-0.1-0.4-0.4-0.3-0.6 0-0.2 0.1-0.3 0.3-0.4 0.1 0 0.3 0 0.5 0.1z"/>
					<path id="&lt;Path&gt;" class="s0" d="m-6.8 77.8c-0.1 0-0.1 0.2 0 0.3 0.1 0.1 0.2 0.1 0.3 0.2q0.2 0.1 0.2 0.3 0 0.1-0.1 0.2 0 0-0.1 0c-0.3 0-0.5 0-0.7-0.1-0.3-0.2-0.4-0.4-0.4-0.7 0.1-0.1 0.2-0.3 0.4-0.3 0.1-0.1 0.3-0.1 0.4 0.1z"/>
					<path id="&lt;Path&gt;" class="s0" d="m8.9 67.6c-0.1 0-0.1 0.2 0 0.3 0.1 0.1 0.3 0.1 0.4 0.2q0.1 0.1 0.1 0.3 0 0.1 0 0.2-0.1 0-0.2 0c-0.2 0-0.5 0-0.7-0.1-0.2-0.2-0.4-0.4-0.3-0.7 0-0.1 0.1-0.3 0.3-0.3 0.2-0.1 0.4 0 0.5 0.1z"/>
					<path id="&lt;Path&gt;" class="s0" d="m-20 81.7c0.1 0 0.2-0.2 0.2-0.3 0-0.2-0.1-0.3-0.3-0.3 0-0.1-0.1-0.1-0.2 0q0 0.1 0 0.1 0.1 0.3 0.2 0.6z"/>
					<path id="&lt;Path&gt;" class="s0" d="m-41.3 138.6c0.3 0.3 0.7 0.5 1.1 0.5q0.1 0 0.2-0.1c0.1-0.1 0-0.2-0.1-0.4-0.1-0.2-0.1-0.5-0.2-0.7-0.1-0.2-0.3-0.3-0.5-0.4-0.3-0.1-0.7-0.2-0.8 0.1-0.1 0.1-0.1 0.3 0 0.4q0.2 0.5 0.5 0.9z"/>
					<path id="&lt;Path&gt;" class="s0" d="m16.2 84.3c0.3 0.3 0.7 0.4 1.1 0.4q0.1 0 0.2 0c0.1-0.1 0-0.3-0.1-0.4-0.1-0.3 0-0.6-0.1-0.8-0.1-0.2-0.4-0.3-0.6-0.4-0.2-0.1-0.7-0.2-0.8 0.1-0.1 0.1 0 0.3 0 0.5q0.2 0.4 0.6 0.8z"/>
					<path id="&lt;Path&gt;" class="s0" d="m-10.6 92.9c0.1 0.3 0.4 0.2 0.6 0.1 0.2-0.1 0.3-0.2 0.3-0.3 0.1-0.2-0.1-0.4-0.3-0.5q-0.3-0.1-0.5-0.2c-0.1 0-0.2-0.1-0.2-0.1q-0.1 0.1-0.2 0.2-0.1 0.5-0.1 1.1z"/>
					<path id="&lt;Path&gt;" class="s0" d="m-18.5 94.4c0.6 2.1 3 1.2 3-0.7-0.1-1.9-3.5-1.2-3 0.7z"/>
					<path id="&lt;Path&gt;" class="s0" d="m-8.9 100c0.6 2.1 3 1.2 2.9-0.7 0-1.9-3.4-1.2-2.9 0.7z"/>
					<path id="&lt;Path&gt;" class="s0" d="m-27.5 86c-0.3 0-0.6-0.3-0.5-0.6 0.3 0 0.5 0 0.7 0.2 0.2 0.2 0.3 0.5 0.1 0.7q-0.3-0.1-0.5-0.1z"/>
					<path id="&lt;Path&gt;" class="s0" d="m-24.1 79.7q0.1-0.1 0.1-0.2c-0.1-0.1-0.2-0.1-0.3-0.1-0.1 0-0.2 0.1-0.1 0.2q0 0 0.1 0 0.2 0.1 0.4 0.2z"/>
					<path id="&lt;Path&gt;" class="s0" d="m-14.8 72.3c0.2-0.1 0.3-0.2 0.4-0.3 0.1-0.1 0.1-0.3 0-0.5q0-0.1-0.2-0.1c-0.2-0.1-0.5 0.1-0.5 0.4-0.1 0.2 0.1 0.5 0.4 0.5z"/>
					<path id="&lt;Path&gt;" class="s0" d="m10.1 55.8c0.1-0.1 0.3-0.2 0.4-0.3 0-0.2 0.1-0.4 0-0.5q-0.1-0.1-0.2-0.1c-0.3-0.1-0.5 0.1-0.6 0.3 0 0.3 0.1 0.5 0.4 0.6z"/>
					<path id="&lt;Path&gt;" class="s0" d="m-9.5 85.1c-0.1 0.2-0.4 0.3-0.6 0.1q0-0.2 0.1-0.4 0.2 0.1 0.4 0.2z"/>
					<path id="&lt;Path&gt;" class="s0" d="m-30.8 89.2q0-0.2 0.1-0.3-0.1-0.1-0.2-0.1c-0.1 0.1-0.1 0.3 0 0.4z"/>
					<path id="&lt;Path&gt;" class="s0" d="m34 28.3c1.1-0.3 2.1-0.8 3-1.6 0.1-0.1 0.3-0.2 0.4-0.4 0.1-0.3 0-0.7-0.2-1-0.5-0.7-1.5-1.1-2.3-0.9-0.9 0.3-1.6 1-1.9 1.8-0.2 0.4-0.2 1 0 1.4 0.2 0.4 0.7 0.7 1.2 0.6 0.1-0.2-0.1-0.3-0.2-0.3z"/>
					<path id="&lt;Path&gt;" class="s0" d="m43.3 29.2c0.6-0.2 1.1-0.8 1.3-1.4-0.5-0.5-1.2-0.7-1.9-0.6-0.6 0.2-1.1 0.9-0.9 1.5 0.3 0.7 1.3 0.8 1.6 0.2z"/>
					<path id="&lt;Path&gt;" class="s0" d="m44.6 55.1c-0.1 0.1-0.1 0.3 0 0.4 0.1 0 0.2 0.1 0.3 0.1q0.2 0.2 0.2 0.4 0 0.1-0.1 0.2 0 0-0.1 0c-0.3 0-0.5 0-0.7-0.2-0.3-0.1-0.4-0.3-0.4-0.6 0.1-0.2 0.2-0.3 0.4-0.4 0.1 0 0.3 0 0.5 0.2z"/>
					<path id="&lt;Path&gt;" class="s0" d="m26.8 41.2c0.6-0.2 1.1-0.8 1.3-1.4-0.5-0.4-1.2-0.7-1.9-0.5-0.6 0.1-1.1 0.9-0.9 1.5 0.2 0.6 1.3 0.8 1.6 0.2z"/>
					<path id="&lt;Path&gt;" class="s0" d="m35.8 72.7c0.7-0.2 1.2-0.8 1.3-1.4-0.5-0.5-1.2-0.7-1.8-0.6-0.7 0.2-1.2 0.9-0.9 1.6 0.2 0.6 1.2 0.7 1.5 0.1z"/>
					<path id="&lt;Path&gt;" class="s0" d="m34.9 35.8c0.3-0.1 0.5-0.4 0.6-0.7q-0.2-0.1-0.4-0.1c-0.1 0-0.3 0.1-0.3 0.3-0.1 0.1 0 0.3 0.2 0.4q-0.1 0-0.2 0z"/>
					<path id="&lt;Path&gt;" class="s0" d="m34.6 33.6q0.1-0.1 0.2-0.2 0-0.2-0.1-0.3-0.2-0.3-0.3-0.6-0.2 0.5-0.4 1.1 0 0 0 0c-0.1 0.1-0.2 0.1-0.3 0.1-0.2 0-0.2 0.2-0.2 0.4 0 1.1 0.8-0.2 1.1-0.5z"/>
					<path id="&lt;Path&gt;" class="s0" d="m42 33q0-0.2 0.1-0.3c-0.2-0.1-0.5-0.1-0.6 0.1-0.1 0.2 0 0.5 0.2 0.5 0.1 0 0.4-0.1 0.4 0.1z"/>
					<path id="&lt;Path&gt;" class="s0" d="m31.8 37.8q-0.1 0.2-0.2 0.3c-0.1-0.2 0-0.5 0.1-0.7 0-0.2 0.1-0.3 0.2-0.3 0.1 0 0.2 0.1 0.3 0.1 0.1 0.1 0.4 0 0.5 0.2 0 0.1 0 0.2-0.1 0.3q-0.2 0-0.3 0-0.4 0.1-0.7 0.1z"/>
					<path id="&lt;Path&gt;" class="s0" d="m28.2 36.9c0.2-0.1 0.1-0.4-0.1-0.4-0.2 0-0.4 0.1-0.5 0.2 0.1 0.2 0.4 0.4 0.7 0.3z"/>
					<path id="&lt;Path&gt;" class="s0" d="m31.2 34c-0.1 0.1-0.2 0-0.2-0.1q0-0.1 0-0.3 0.1 0 0.2-0.1c0.1 0 0.2 0 0.3 0.1 0 0.1 0 0.3-0.1 0.3-0.2 0.1-0.3 0-0.4-0.1z"/>
					<path id="&lt;Path&gt;" class="s0" d="m32.2 34.8c0.1 0.1 0.4 0.1 0.4-0.1q-0.1-0.1-0.2-0.2c-0.1 0-0.2 0-0.3 0.1 0 0.1 0.1 0.2 0.2 0.2z"/>
					<path id="&lt;Path&gt;" class="s0" d="m45.1 36.8c0.2 0.2 0.5 0.1 0.5-0.1q-0.1-0.1-0.3-0.1c-0.1-0.1-0.2 0-0.2 0.1-0.1 0.1 0 0.2 0.1 0.2z"/>
					<path id="&lt;Path&gt;" class="s0" d="m35.3 37.8c0.2 0 0.5-0.1 0.6-0.3q-0.3-0.1-0.5-0.3-0.1-0.1-0.3-0.1c-0.1 0-0.3 0.2-0.2 0.4 0 0.2 0.2 0.3 0.4 0.3z"/>
					<path id="&lt;Path&gt;" class="s0" d="m28.6 34.5c-0.2 0-0.3 0-0.4-0.1-0.1-0.1-0.1-0.2-0.1-0.4 0.1 0 0.2-0.1 0.2-0.1q0.1 0.1 0.1 0.1 0.1 0.3 0.2 0.5 0 0-0.1 0z"/>
					<path id="&lt;Path&gt;" class="s0" d="m26.6 32.7c0-0.2-0.2-0.3-0.3-0.3-0.2 0-0.4-0.1-0.5-0.2q0-0.1 0-0.2c0.1-0.1 0.3 0 0.4 0 0.1 0 0.2 0 0.3 0 0.2 0 0.4 0.1 0.5 0.3 0 0.1-0.1 0.2-0.2 0.3-0.1 0-0.2 0-0.3-0.1z"/>
					<path id="&lt;Path&gt;" class="s0" d="m13 59.4c0-0.2-0.2-0.2-0.4-0.3-0.2 0-0.3 0-0.4-0.2q0-0.1 0-0.1c0.1-0.1 0.2-0.1 0.3 0 0.1 0 0.2-0.1 0.3-0.1 0.2 0 0.5 0.1 0.6 0.3 0 0.1-0.1 0.3-0.2 0.3-0.1 0-0.3 0-0.4-0.1z"/>
					<path id="&lt;Path&gt;" class="s0" d="m27.8 31.5q0.1-0.1 0.1-0.2c0-0.1-0.1-0.1-0.2-0.1-0.1 0-0.2 0.2-0.2 0.3 0.1 0.1 0.2 0.1 0.3 0z"/>
					<path id="&lt;Path&gt;" class="s0" d="m25.9 27.4q0.1-0.1 0.1-0.1c0-0.1-0.1-0.2-0.2-0.2-0.1 0.1-0.2 0.2-0.2 0.3 0.1 0.1 0.2 0.1 0.3 0z"/>
					<path id="&lt;Path&gt;" class="s0" d="m33.4 35.6c-0.2 0-0.1 0.2 0 0.3 0 0.1 0.2 0.1 0.3 0.2q0.1 0.1 0.2 0.3 0 0.1-0.1 0.2-0.1 0-0.2 0c-0.2 0-0.5 0-0.7-0.1-0.2-0.2-0.4-0.4-0.3-0.7 0-0.1 0.2-0.3 0.3-0.3 0.2-0.1 0.4 0 0.5 0.1z"/>
					<path id="&lt;Path&gt;" class="s0" d="m36.7 35.1c0.1 0 0.2-0.2 0.2-0.3 0-0.2-0.1-0.3-0.3-0.3 0-0.1-0.1-0.1-0.2 0q0 0.1 0 0.1 0.1 0.3 0.2 0.6z"/>
					<path id="&lt;Path&gt;" class="s0" d="m29.2 39.4c-0.3 0-0.6-0.4-0.5-0.6 0.3 0 0.5 0 0.7 0.2 0.2 0.2 0.3 0.5 0.1 0.7q-0.3-0.1-0.5-0.1z"/>
					<path id="&lt;Path&gt;" class="s0" d="m25.2 31c-0.1 0-0.2 0-0.2-0.1q-0.1-0.1 0-0.2 0-0.1 0.1-0.1c0-0.1 0.2-0.1 0.3-0.1 0.1 0.1 0.1 0.2 0.1 0.3q0 0.1-0.1 0.2c0 0-0.1 0-0.1 0z"/>
					<path id="&lt;Path&gt;" class="s0" d="m32.6 33.1q0.1-0.1 0.1-0.2c-0.1-0.1-0.2-0.1-0.3-0.1-0.1 0-0.2 0.1-0.1 0.2q0 0 0.1 0 0.2 0.1 0.4 0.1z"/>
					<path id="&lt;Path&gt;" class="s0" d="m38.9 36.7c0.2-0.1 0.3-0.2 0.4-0.4 0.1-0.1 0.1-0.3 0-0.4q-0.1-0.1-0.2-0.2c-0.2 0-0.5 0.1-0.5 0.4-0.1 0.2 0.1 0.5 0.3 0.5z"/>
					<path id="&lt;Path&gt;" class="s0" d="m25.9 42.6q0-0.2 0.1-0.3-0.1-0.1-0.2-0.1c-0.1 0.1-0.1 0.3 0 0.4z"/>
					<path id="&lt;Path&gt;" class="s0" d="m21.7 30.2c0.6-0.2 1.1-0.8 1.3-1.4-0.5-0.4-1.2-0.7-1.9-0.5-0.6 0.1-1.1 0.8-0.9 1.5 0.3 0.6 1.3 0.7 1.6 0.2z"/>
					<path id="&lt;Path&gt;" class="s0" d="m26.2 23c-0.1 0-0.2 0-0.3-0.1q0-0.1 0.1-0.3 0 0 0.1-0.1c0.1-0.1 0.2 0 0.3 0.1 0 0.1 0 0.3-0.1 0.3-0.1 0.1-0.3 0-0.4-0.1z"/>
					<path id="&lt;Path&gt;" class="s0" d="m23.5 23.5c-0.1 0-0.3 0-0.4-0.1-0.1-0.1-0.1-0.2-0.1-0.4 0.1-0.1 0.2-0.1 0.3-0.1q0 0.1 0 0.1 0.1 0.2 0.2 0.5 0 0 0 0z"/>
					<path id="&lt;Path&gt;" class="s0" d="m11.3 55.6c0-0.1-0.2-0.2-0.4-0.2-0.2-0.1-0.4-0.1-0.4-0.3q-0.1 0 0-0.1c0-0.1 0.2 0 0.3 0 0.1 0 0.2 0 0.3 0 0.2-0.1 0.4 0.1 0.5 0.3 0 0.1 0 0.2-0.2 0.2-0.1 0.1-0.2 0.1-0.3 0z"/>
					<path id="&lt;Path&gt;" class="s0" d="m22.7 20.5q0.1-0.1 0.2-0.2c-0.1-0.1-0.2-0.1-0.3-0.1-0.1 0-0.2 0.2-0.1 0.3 0 0.1 0.2 0.1 0.2 0z"/>
					<path id="&lt;Path&gt;" class="s0" d="m20.8 16.4q0.1-0.1 0.1-0.2c0-0.1-0.1-0.1-0.2-0.1-0.1 0-0.2 0.2-0.1 0.3 0 0.1 0.1 0.1 0.2 0z"/>
					<path id="&lt;Path&gt;" class="s0" d="m24.1 28.4c-0.3 0-0.6-0.4-0.4-0.7 0.2 0.1 0.5 0.1 0.6 0.3 0.2 0.2 0.3 0.5 0.1 0.6q-0.2 0-0.5 0z"/>
					<path id="&lt;Path&gt;" class="s0" d="m20.1 20c-0.1 0-0.2 0-0.2-0.1q0-0.1 0-0.2 0-0.1 0.1-0.1c0.1-0.1 0.2-0.1 0.3-0.1 0.1 0.1 0.1 0.2 0.1 0.3q0 0.1 0 0.2c-0.1 0-0.1 0-0.2 0z"/>
					<path id="&lt;Path&gt;" class="s0" d="m20.8 31.6q0.1-0.2 0.1-0.3-0.1-0.1-0.2-0.2c-0.1 0.2-0.1 0.4 0 0.5z"/>
					<path id="&lt;Path&gt;" class="s0" d="m28.4 18.5q0-0.1 0.1-0.3-0.1-0.1-0.2-0.1c-0.2 0.1-0.1 0.3 0 0.4z"/>
					<path id="&lt;Path&gt;" class="s0" d="m-3.1 133.2c-0.1 0.4-0.4 0.7-0.7 0.9q-0.1 0-0.2 0c-0.1 0-0.1-0.1-0.1-0.2-0.2-0.4-0.3-0.9 0.1-1.2 0.3-0.2 0.8 0 0.8 0.3q-0.1 0.2-0.2 0.3z"/>
				</g>
				<g id="&lt;Group&gt;">
					<path id="&lt;Path&gt;" class="s1" d="m371.7 197.1c0.6-0.9 1-2.1 1.1-3.2 0-0.2 0.1-0.4 0-0.6-0.1-0.3-0.5-0.5-0.8-0.6-0.9-0.2-1.8 0.2-2.3 1-0.5 0.7-0.5 1.7-0.2 2.5 0.2 0.4 0.5 0.9 1 1 0.4 0.2 1 0.1 1.3-0.3-0.1-0.2-0.3-0.2-0.4-0.1z"/>
					<path id="&lt;Path&gt;" class="s1" d="m255.5 36.2c-1.1 0-2.3 0.3-3.3 0.8-0.2 0.1-0.4 0.2-0.5 0.3-0.2 0.3-0.2 0.7-0.1 1 0.3 0.9 1.2 1.4 2.1 1.4 0.9 0.1 1.7-0.4 2.2-1.2 0.3-0.4 0.5-0.9 0.4-1.3-0.1-0.5-0.6-0.9-1-0.9-0.1 0.1 0 0.3 0.1 0.3z"/>
					<path id="&lt;Path&gt;" class="s1" d="m366.7 198.5c0.3-0.6 0.3-1.4 0-1.9-0.7 0-1.4 0.3-1.7 0.8-0.4 0.6-0.2 1.4 0.3 1.7 0.6 0.3 1.5-0.2 1.3-0.9z"/>
					<path id="&lt;Path&gt;" class="s1" d="m375.9 197.6q0-0.4-0.1-0.7 0 0 0-0.1 0 0-0.1 0c-0.2 0.1-0.4 0.4-0.6 0.4q0-0.1-0.1-0.1c-0.1 0.1-0.1 0.2 0 0.2 0.1 0.3 0.6 0.4 0.9 0.2q0 0 0 0.1z"/>
					<path id="&lt;Path&gt;" class="s1" d="m382.9 195.4q0.1-0.6-0.1-1.2 0-0.1-0.1-0.1-0.1-0.1-0.1-0.1c-0.5 0.1-0.7 0.8-1.1 0.7-0.1-0.1-0.2-0.1-0.3-0.1-0.1 0.1-0.1 0.2 0 0.4 0.3 0.6 1.2 0.7 1.7 0.3q0 0.1 0 0.2z"/>
					<path id="&lt;Path&gt;" class="s1" d="m369 189c0.1-0.3 0.1-0.6 0-0.9q-0.2 0-0.4 0.2c-0.1 0.1-0.1 0.2-0.1 0.4 0.1 0.1 0.3 0.2 0.5 0.2q-0.1 0-0.1 0.1z"/>
					<path id="&lt;Path&gt;" class="s1" d="m206.5 61.5q-0.1 0-0.2 0.1-0.1 0.1-0.1 0.2-0.1 0.3-0.2 0.6 0.5-0.2 1-0.5 0 0 0.1 0c0.1 0 0.1 0.1 0.2 0.2 0.2 0 0.3-0.1 0.4-0.2 0.7-0.8-0.7-0.5-1.2-0.4z"/>
					<path id="&lt;Path&gt;" class="s1" d="m384.2 179.8q0-0.1-0.1-0.2-0.1-0.1-0.2-0.1-0.3-0.1-0.6-0.3 0.2 0.5 0.4 1.1 0 0 0 0c0 0.1-0.1 0.2-0.2 0.3-0.1 0.1 0 0.3 0.1 0.4 0.8 0.8 0.6-0.7 0.6-1.2z"/>
					<path id="&lt;Path&gt;" class="s1" d="m215.7 38.8q-0.2 0-0.4 0c0.1 0.2 0.2 0.4 0.5 0.4 0.2 0.1 0.4-0.2 0.3-0.4-0.1-0.1-0.2-0.3-0.1-0.3z"/>
					<path id="&lt;Path&gt;" class="s1" d="m390.4 185.7c-0.1 0.2-0.6 0.3-0.8 0.1-0.2-0.2 0-0.7 0.3-0.7 0.3-0.1 0.6 0.2 0.5 0.5z"/>
					<path id="&lt;Path&gt;" class="s1" d="m378.4 191.2c0.1 0.2 0.2 0.5 0.1 0.7-0.2 0.1-0.5 0-0.7-0.1-0.1-0.1-0.2-0.2-0.2-0.3 0.1-0.2 0.6-0.1 0.6-0.3 0.1-0.1 0.1 0.1 0.1 0.1z"/>
					<path id="&lt;Path&gt;" class="s1" d="m368.1 192.6q0 0.1 0 0.3c-0.2-0.1-0.3-0.3-0.4-0.6-0.1-0.1-0.1-0.3 0-0.3 0.1-0.1 0.2-0.1 0.3-0.1 0.1-0.1 0.3-0.3 0.4-0.3 0.1 0.1 0.2 0.2 0.1 0.3q0 0.2-0.1 0.3-0.3 0.2-0.5 0.5z"/>
					<path id="&lt;Path&gt;" class="s1" d="m364.8 194.3c0.1-0.2-0.2-0.3-0.4-0.2-0.1 0.1-0.1 0.3-0.1 0.5 0.2 0.1 0.5 0 0.6-0.3z"/>
					<path id="&lt;Path&gt;" class="s1" d="m364 214.2q0.1-0.1 0-0.2c0-0.1-0.1-0.2-0.2-0.2-0.1 0-0.2 0.2-0.4 0.3-0.1 0-0.3 0-0.4 0.1-0.1 0.1 0 0.3 0.1 0.4 0.1 0 0.3 0 0.5 0q0.2 0 0.3-0.2c0.1-0.1 0.2-0.2 0.1-0.3z"/>
					<path id="&lt;Path&gt;" class="s1" d="m240.9 79.6c0.1 0 0.1 0.2 0 0.2q-0.1 0.1-0.2 0.1-0.1 0-0.2 0c-0.1 0-0.1-0.2 0-0.3 0-0.1 0.2-0.1 0.3-0.1 0.1 0.1 0.1 0.2 0.1 0.4z"/>
					<path id="&lt;Path&gt;" class="s1" d="m352.1 188.7c0 0.1-0.2 0.1-0.2 0.1q-0.2-0.1-0.2-0.2 0-0.1 0-0.2c0-0.1 0.2-0.2 0.3-0.1 0.1 0 0.2 0.2 0.1 0.3 0 0.1-0.2 0.2-0.3 0.1z"/>
					<path id="&lt;Path&gt;" class="s1" d="m366.3 190.1c0.2 0 0.4-0.3 0.3-0.4q-0.2 0-0.3 0c-0.1 0.1-0.2 0.2-0.1 0.3 0 0.1 0.1 0.1 0.2 0.1z"/>
					<path id="&lt;Path&gt;" class="s1" d="m377.2 182.8c0.2 0 0.4-0.2 0.3-0.4q-0.2 0-0.3 0c-0.1 0.1-0.2 0.2-0.1 0.3 0 0.1 0.1 0.1 0.2 0.1z"/>
					<path id="&lt;Path&gt;" class="s1" d="m370.6 190.2c0.2-0.2 0.3-0.4 0.3-0.7q-0.3 0.1-0.6 0.2-0.1 0-0.2 0.1c-0.2 0.1-0.1 0.3 0 0.4 0.2 0.1 0.4 0.1 0.5 0z"/>
					<path id="&lt;Path&gt;" class="s1" d="m400.3 212.6q0.2 0.5 0.3 0.9c-0.1 0.2-0.3 0-0.4-0.2-0.1-0.1-0.2-0.3-0.2-0.4 0-0.2 0.2-0.4 0.4-0.4z"/>
					<path id="&lt;Path&gt;" class="s1" d="m395.9 207.5c0.2-0.1 0.2-0.5 0-0.6-0.3-0.1-0.6 0-0.7 0.2q-0.1 0.1-0.1 0.3c0 0.1 0.2 0.2 0.3 0.3 0.2 0 0.4-0.1 0.5-0.2z"/>
					<path id="&lt;Path&gt;" class="s1" d="m377.7 189.9c0.2-0.1 0.3-0.4 0.3-0.6q-0.2 0-0.5 0.1c-0.2 0.1-0.3 0.3-0.2 0.5 0 0.2 0.4 0.3 0.5 0.1z"/>
					<path id="&lt;Path&gt;" class="s1" d="m376.4 191.9c-0.1 0.2-0.2 0.3-0.4 0.2q-0.1-0.2-0.1-0.5c0.1-0.1 0.5 0 0.6 0.2z"/>
					<path id="&lt;Path&gt;" class="s1" d="m375.3 197.1q0.1 0.1 0.2 0.2c-0.2 0.1-0.4 0.1-0.5 0-0.2 0-0.3-0.2-0.3-0.3 0-0.2 0.2-0.3 0.3-0.2q0.2 0.1 0.3 0.4z"/>
					<path id="&lt;Path&gt;" class="s1" d="m363.5 192.3c-0.1 0.1-0.2 0.2-0.4 0.2-0.1 0-0.2-0.1-0.3-0.2 0-0.1 0-0.2 0.1-0.2q0.1 0 0.1 0 0.3 0.1 0.5 0.2 0 0-0.1 0z"/>
					<path id="&lt;Path&gt;" class="s1" d="m361.5 189.8c-0.2 0.1-0.2 0.3-0.2 0.5 0 0.1-0.1 0.3-0.2 0.4q-0.1 0.1-0.1 0c-0.1 0-0.1-0.2-0.1-0.3 0-0.1 0-0.2-0.1-0.3 0-0.2 0.1-0.4 0.2-0.5 0.2-0.1 0.3 0 0.3 0.1 0.1 0.1 0.1 0.2 0 0.3z"/>
					<path id="&lt;Path&gt;" class="s1" d="m360.1 188.9q-0.1-0.1-0.2-0.1c-0.1 0-0.1 0.2 0 0.3 0 0.1 0.1 0.1 0.2 0 0.1 0 0.1-0.2 0-0.2z"/>
					<path id="&lt;Path&gt;" class="s1" d="m356.4 191.4q-0.1 0-0.2-0.1c-0.1 0.1-0.1 0.2-0.1 0.3 0.1 0.1 0.2 0.1 0.3 0.1 0.1-0.1 0.1-0.2 0-0.3z"/>
					<path id="&lt;Path&gt;" class="s1" d="m367.7 189.8c-0.1 0.2 0.1 0.3 0.2 0.3 0.1 0 0.2-0.1 0.4-0.1q0.2 0 0.3 0.1 0.1 0.1 0.1 0.2 0 0.1-0.1 0.1c-0.2 0.2-0.4 0.4-0.6 0.4-0.3 0.1-0.5 0-0.7-0.2-0.1-0.2-0.1-0.4 0-0.5 0.1-0.2 0.3-0.3 0.4-0.3z"/>
					<path id="&lt;Path&gt;" class="s1" d="m195.1 20.3c0.1 0 0.3-0.1 0.3-0.2 0-0.1 0-0.2 0-0.4q0-0.2 0.2-0.3 0.1-0.1 0.2 0 0 0 0.1 0.1c0.1 0.2 0.2 0.4 0.2 0.7 0 0.2-0.1 0.5-0.3 0.6-0.2 0-0.4 0-0.5-0.1-0.2-0.1-0.2-0.3-0.2-0.5z"/>
					<path id="&lt;Path&gt;" class="s1" d="m190.7 72.5c0.1 0.1 0.3 0 0.3-0.1 0-0.1 0-0.3 0-0.4q0-0.2 0.2-0.3 0.1-0.1 0.2-0.1 0.1 0.1 0.1 0.1c0.1 0.3 0.2 0.5 0.2 0.7 0 0.3-0.1 0.5-0.3 0.6-0.2 0.1-0.4 0.1-0.5 0-0.2-0.2-0.2-0.3-0.2-0.5z"/>
					<path id="&lt;Path&gt;" class="s1" d="m376.8 175.4c0 0.1 0.1 0.2 0.2 0.2 0.2 0 0.3-0.1 0.4-0.1q0.2 0 0.4 0.1 0.1 0.1 0 0.2 0 0.1 0 0.2c-0.2 0.1-0.4 0.3-0.7 0.3-0.2 0.1-0.5 0-0.6-0.2-0.1-0.2-0.1-0.4-0.1-0.5 0.1-0.2 0.3-0.3 0.5-0.3z"/>
					<path id="&lt;Path&gt;" class="s1" d="m369.8 187.3c0.1-0.1 0.1-0.4 0-0.4-0.1-0.1-0.3-0.2-0.5-0.1 0 0-0.1 0.1-0.1 0.2q0.1 0 0.1 0.1 0.3 0.1 0.5 0.2z"/>
					<path id="&lt;Path&gt;" class="s1" d="m392.9 243.5c0.4 0 0.8-0.2 1.1-0.4q0.1-0.1 0.1-0.2c0-0.2-0.2-0.2-0.3-0.2-0.3-0.1-0.4-0.4-0.7-0.5-0.2-0.1-0.4 0-0.6 0.1-0.3 0.1-0.7 0.3-0.6 0.6 0.1 0.2 0.2 0.3 0.4 0.3q0.4 0.2 1 0.3z"/>
					<path id="&lt;Path&gt;" class="s1" d="m384.3 189.1c0.3 0.1 0.5-0.2 0.5-0.4 0.1-0.2 0.1-0.3 0.1-0.4-0.1-0.2-0.4-0.2-0.6-0.1q-0.3 0.1-0.5 0.1c-0.1 0-0.2 0.1-0.2 0.2q0 0.1 0 0.2 0.2 0.5 0.6 0.8z"/>
					<path id="&lt;Path&gt;" class="s1" d="m379.6 195.5c1.8 1.1 3-1.1 1.7-2.5-1.4-1.4-3.4 1.5-1.7 2.5z"/>
					<path id="&lt;Path&gt;" class="s1" d="m367.3 195.5c-0.3 0.2-0.7 0.1-0.8-0.2 0.2-0.1 0.4-0.3 0.7-0.3 0.2 0 0.5 0.3 0.4 0.5q-0.2 0.1-0.3 0.3z"/>
					<path id="&lt;Path&gt;" class="s1" d="m417.7 181c0.1-0.1 0-0.2-0.2-0.2-0.1 0-0.3 0-0.5 0.1q-0.6 0.2-1.2 0.4c-0.3 0.1-0.5 0.2-0.6 0.3-0.1 0.1 0 0.2 0.2 0.2 0.2 0 0.4-0.1 0.6-0.1 0.7-0.2 1.5-0.4 1.8-0.8q-0.2 0-0.4 0z"/>
					<path id="&lt;Path&gt;" class="s1" d="m360 191.6c0.1 0 0.1 0.1 0 0.2q-0.1 0-0.2 0-0.1 0-0.2-0.1c-0.1 0-0.1-0.2-0.1-0.3 0.1-0.1 0.2-0.1 0.3-0.2q0.1 0 0.2 0.1c0 0 0 0.1 0 0.1z"/>
					<path id="&lt;Path&gt;" class="s1" d="m365.4 188.5q0-0.1 0-0.2c-0.1 0-0.2 0-0.3 0.1-0.1 0.1 0 0.2 0.1 0.3q0 0 0.1-0.1 0.1 0 0.3-0.1z"/>
					<path id="&lt;Path&gt;" class="s1" d="m367.3 176.8c0-0.2 0.1-0.3 0.1-0.5-0.1-0.2-0.2-0.3-0.3-0.4q-0.2 0-0.3 0.1c-0.2 0.1-0.3 0.4-0.2 0.6 0.2 0.2 0.5 0.3 0.7 0.2z"/>
					<path id="&lt;Path&gt;" class="s1" d="m379.8 182.6c0.1 0.2-0.1 0.5-0.3 0.5q-0.2-0.2-0.2-0.4 0.2-0.1 0.4-0.1z"/>
					<path id="&lt;Path&gt;" class="s1" d="m367 200.1q-0.1-0.2-0.1-0.3-0.2 0-0.3 0c0 0.2 0.2 0.4 0.3 0.4z"/>
					<path id="&lt;Path&gt;" class="s1" d="m141.6 60.4c-0.9-0.8-1.9-1.4-3-1.8-0.2 0-0.4-0.1-0.6 0-0.3 0-0.6 0.3-0.7 0.6-0.4 0.8-0.2 1.9 0.5 2.5 0.6 0.6 1.6 0.8 2.4 0.6 0.5-0.1 1-0.3 1.2-0.7 0.3-0.4 0.3-1-0.1-1.4-0.1 0.1-0.2 0.3-0.1 0.4z"/>
					<path id="&lt;Path&gt;" class="s1" d="m171.5 79.5c-0.5-0.5-1.2-0.6-1.8-0.4-0.1 0.7 0 1.4 0.5 1.9 0.5 0.4 1.3 0.5 1.7-0.1 0.4-0.5 0-1.4-0.6-1.4z"/>
					<path id="&lt;Path&gt;" class="s1" d="m162.6 75.5c-0.2-0.2-0.6-0.3-0.8-0.2q0 0.2 0.1 0.4c0.1 0.1 0.2 0.2 0.3 0.2 0.2-0.1 0.3-0.3 0.3-0.5q0.1 0.1 0.1 0.2z"/>
					<path id="&lt;Path&gt;" class="s1" d="m160.9 76.9q-0.1-0.1-0.3 0-0.1 0-0.1 0.1-0.2 0.3-0.4 0.6 0.6-0.1 1.1-0.2 0.1 0 0.1 0c0.1 0 0.1 0.2 0.2 0.2 0.1 0.1 0.3 0.1 0.4 0 0.9-0.6-0.6-0.7-1-0.7z"/>
					<path id="&lt;Path&gt;" class="s1" d="m166 77q0.2 0 0.3 0c-0.1 0.3-0.4 0.3-0.6 0.4-0.1 0-0.3 0-0.4-0.1 0-0.1 0-0.2 0-0.3-0.1-0.2-0.2-0.3-0.1-0.5 0-0.1 0.1-0.1 0.2-0.1q0.2 0.1 0.3 0.3 0.2 0.2 0.4 0.5z"/>
					<path id="&lt;Path&gt;" class="s1" d="m167.1 80.5c-0.2-0.1-0.4 0.2-0.3 0.4 0.1 0.2 0.3 0.2 0.5 0.3 0.1-0.3 0-0.6-0.2-0.8z"/>
					<path id="&lt;Path&gt;" class="s1" d="m186.5 85.1q-0.1-0.1-0.3-0.1c0 0-0.1 0.1-0.2 0.2 0 0.1 0.2 0.3 0.2 0.4 0.1 0.2 0 0.3 0.1 0.5 0.1 0.1 0.3 0.1 0.4-0.1 0.1-0.1 0.1-0.3 0.1-0.4q0-0.2-0.1-0.4c-0.1-0.1-0.2-0.2-0.4-0.1z"/>
					<path id="&lt;Path&gt;" class="s1" d="m163.1 79.5c0 0.1 0 0.2 0 0.3q-0.1 0.1-0.2 0.1-0.1 0-0.2-0.1c-0.1 0-0.2-0.2-0.1-0.3 0.1-0.1 0.2-0.1 0.3 0 0.1 0 0.2 0.2 0.1 0.3z"/>
					<path id="&lt;Path&gt;" class="s1" d="m159.2 92c0.1 0.1 0.1 0.2 0.1 0.2q-0.1 0.1-0.3 0.2-0.1 0-0.1-0.1c-0.2 0-0.2-0.2-0.1-0.3 0-0.1 0.2-0.1 0.3-0.1 0.1 0.1 0.1 0.3 0.1 0.4z"/>
					<path id="&lt;Path&gt;" class="s1" d="m163.2 78.3c0.1-0.2-0.1-0.4-0.3-0.3q-0.1 0.1 0 0.3c0 0.1 0.1 0.1 0.2 0.1 0.1 0 0.2-0.1 0.1-0.2z"/>
					<path id="&lt;Path&gt;" class="s1" d="m164.1 74.1c-0.1-0.2-0.3-0.4-0.6-0.4q0.1 0.3 0.1 0.6 0 0.1 0 0.3c0.1 0.1 0.4 0.1 0.5 0 0.1-0.1 0.1-0.3 0-0.5z"/>
					<path id="&lt;Path&gt;" class="s1" d="m164.9 81.5c0.1 0.1 0.2 0.3 0.1 0.4 0 0.1-0.1 0.2-0.3 0.2-0.1 0.1-0.2 0-0.2-0.1q0 0 0.1-0.1 0.1-0.2 0.2-0.4 0.1 0 0.1 0z"/>
					<path id="&lt;Path&gt;" class="s1" d="m162.1 83c0 0.2 0.2 0.3 0.4 0.3 0.1 0 0.3 0.1 0.4 0.2q0 0.1 0 0.2c-0.1 0.1-0.2 0-0.4 0-0.1 0-0.2 0-0.2 0-0.3 0-0.5-0.1-0.6-0.3 0-0.1 0.1-0.3 0.2-0.3 0.1 0 0.3 0 0.3 0.1z"/>
					<path id="&lt;Path&gt;" class="s1" d="m160.9 84.2q-0.1 0-0.1 0.1c0 0.1 0.1 0.2 0.2 0.1 0.1 0 0.2-0.1 0.1-0.2 0-0.1-0.1-0.1-0.2-0.1z"/>
					<path id="&lt;Path&gt;" class="s1" d="m162.7 88.3q-0.1 0.1-0.2 0.2c0.1 0.1 0.2 0.1 0.3 0.1 0.1 0 0.2-0.2 0.1-0.3 0-0.1-0.2-0.1-0.2 0z"/>
					<path id="&lt;Path&gt;" class="s1" d="m163.3 76.9c0.1 0.1 0.2 0 0.2-0.2 0-0.1 0-0.2 0-0.3q0-0.2 0.2-0.4 0.1 0 0.2 0 0.1 0 0.1 0.1c0.1 0.2 0.3 0.4 0.3 0.7 0 0.2-0.2 0.5-0.4 0.6-0.2 0.1-0.4 0-0.5-0.1-0.1-0.1-0.2-0.3-0.2-0.4z"/>
					<path id="&lt;Path&gt;" class="s1" d="m161.1 74.3c-0.1-0.1-0.3-0.1-0.4 0-0.1 0.1-0.2 0.3-0.1 0.4 0 0.1 0 0.2 0.1 0.1q0.1 0 0.1 0 0.2-0.3 0.4-0.5z"/>
					<path id="&lt;Path&gt;" class="s1" d="m168.8 78.4c0.1 0.3-0.1 0.7-0.4 0.7-0.1-0.2-0.2-0.5-0.1-0.7 0-0.2 0.3-0.5 0.5-0.4q0.1 0.2 0.2 0.4z"/>
					<path id="&lt;Path&gt;" class="s1" d="m163.5 84.7c0.1 0 0.2 0 0.2 0.1q0 0.1 0 0.2 0 0.1-0.1 0.2c-0.1 0.1-0.2 0.1-0.3 0-0.1-0.1-0.2-0.2-0.1-0.3q0-0.1 0-0.2c0.1 0 0.1 0 0.2 0.1z"/>
					<path id="&lt;Path&gt;" class="s1" d="m161.5 78.9q-0.1 0-0.2 0c0 0.1 0 0.2 0.1 0.3 0 0 0.2 0.1 0.2 0q0-0.1 0-0.2 0-0.1-0.1-0.3z"/>
					<path id="&lt;Path&gt;" class="s1" d="m189.2 44c-0.5-0.4-1.3-0.5-1.9-0.3-0.1 0.7 0 1.4 0.5 1.8 0.5 0.5 1.4 0.5 1.8 0 0.4-0.5 0-1.5-0.7-1.4z"/>
					<path id="&lt;Path&gt;" class="s1" d="m177 63.6q-0.1-0.1-0.2 0-0.1 0-0.2 0.2-0.2 0.3-0.4 0.5 0.6-0.1 1.1-0.2 0.1 0 0.1 0c0.1 0 0.2 0.2 0.2 0.2 0.1 0.2 0.3 0.1 0.5 0 0.9-0.6-0.6-0.6-1.1-0.7z"/>
					<path id="&lt;Path&gt;" class="s1" d="m183.2 67.2c-0.2 0-0.3 0.2-0.3 0.4 0.1 0.2 0.3 0.2 0.5 0.3 0.1-0.3 0.1-0.6-0.1-0.8z"/>
					<path id="&lt;Path&gt;" class="s1" d="m179.2 66.2c0.1 0.1 0.1 0.2 0 0.3q-0.1 0.1-0.2 0.1-0.1 0-0.2 0c-0.1-0.1-0.1-0.3-0.1-0.4 0.1-0.1 0.3-0.1 0.4 0 0.1 0 0.1 0.2 0.1 0.3z"/>
					<path id="&lt;Path&gt;" class="s1" d="m175.4 78.7c0 0.1 0 0.2 0 0.3q-0.1 0.1-0.3 0.1 0 0-0.1-0.1c-0.1 0-0.2-0.2-0.1-0.3 0.1-0.1 0.2-0.1 0.3 0 0.1 0 0.2 0.2 0.1 0.3z"/>
					<path id="&lt;Path&gt;" class="s1" d="m179.3 65c0.1-0.2-0.1-0.4-0.3-0.3q0 0.1 0 0.3c0 0.1 0.1 0.2 0.2 0.1 0.1 0 0.2-0.1 0.1-0.2z"/>
					<path id="&lt;Path&gt;" class="s1" d="m181 68.2c0.1 0.1 0.2 0.3 0.2 0.4-0.1 0.1-0.2 0.2-0.3 0.3-0.1 0-0.2-0.1-0.2-0.2q0 0 0-0.1 0.1-0.2 0.3-0.4 0 0 0 0.1z"/>
					<path id="&lt;Path&gt;" class="s1" d="m178.2 69.7c0 0.2 0.2 0.3 0.4 0.3 0.2 0 0.3 0.1 0.4 0.3q0 0 0 0.1c-0.1 0.1-0.2 0-0.3 0-0.1 0-0.2 0-0.3 0-0.2 0-0.5-0.1-0.6-0.3 0.1-0.1 0.1-0.2 0.3-0.3 0.1 0 0.2 0 0.3 0.1z"/>
					<path id="&lt;Path&gt;" class="s1" d="m177 70.9q-0.1 0.1-0.1 0.1c0 0.1 0.1 0.2 0.2 0.2 0.1-0.1 0.2-0.2 0.2-0.3-0.1-0.1-0.2-0.1-0.3 0z"/>
					<path id="&lt;Path&gt;" class="s1" d="m178.8 75q-0.1 0.1-0.1 0.2c0 0.1 0.1 0.1 0.2 0.1 0.1 0 0.2-0.1 0.2-0.2-0.1-0.1-0.2-0.2-0.3-0.1z"/>
					<path id="&lt;Path&gt;" class="s1" d="m179.4 63.6c0.1 0.1 0.2 0 0.3-0.2 0-0.1-0.1-0.2-0.1-0.3q0.1-0.2 0.2-0.4 0.1 0 0.2 0 0.1 0 0.1 0.1c0.2 0.2 0.3 0.5 0.3 0.7 0 0.3-0.1 0.5-0.4 0.6-0.1 0.1-0.3 0-0.5-0.1-0.1-0.1-0.2-0.3-0.1-0.4z"/>
					<path id="&lt;Path&gt;" class="s1" d="m179.6 71.5c0.1-0.1 0.2 0 0.2 0q0.1 0.1 0 0.2 0 0.1-0.1 0.2c-0.1 0.1-0.2 0.1-0.3 0-0.1-0.1-0.1-0.2-0.1-0.3q0-0.1 0.1-0.1c0-0.1 0.1-0.1 0.1 0z"/>
					<path id="&lt;Path&gt;" class="s1" d="m177.7 65.6q-0.1 0-0.2 0c-0.1 0.1-0.1 0.2 0 0.3 0 0.1 0.2 0.1 0.2 0q0.1-0.1 0-0.1 0-0.2 0-0.4z"/>
					<path id="&lt;Path&gt;" class="s1" d="m180.4 28.6c-0.6-0.4-1.3-0.5-1.9-0.3-0.1 0.6 0 1.4 0.5 1.8 0.5 0.5 1.4 0.5 1.8 0 0.4-0.5 0-1.5-0.7-1.4z"/>
					<path id="&lt;Path&gt;" class="s1" d="m169.7 26q-0.1 0-0.2 0-0.1 0.1-0.2 0.2-0.2 0.3-0.4 0.6 0.6-0.2 1.1-0.3 0.1 0 0.1 0c0.1 0.1 0.2 0.2 0.2 0.3 0.1 0.1 0.3 0 0.4-0.1 1-0.6-0.5-0.6-1-0.7z"/>
					<path id="&lt;Path&gt;" class="s1" d="m209.8 22.9c-0.2-0.1-0.3 0.2-0.2 0.3 0 0.2 0.2 0.3 0.4 0.3 0.1-0.2 0.1-0.5-0.1-0.7z"/>
					<path id="&lt;Path&gt;" class="s1" d="m171.9 28.7c0.1 0 0.1 0.1 0 0.2q-0.1 0.1-0.2 0.1-0.1 0-0.2 0c-0.1-0.1-0.1-0.2-0.1-0.3 0.1-0.1 0.3-0.2 0.4-0.1 0.1 0.1 0.1 0.2 0 0.3z"/>
					<path id="&lt;Path&gt;" class="s1" d="m168.1 41.1c0 0.1 0 0.2 0 0.3q-0.1 0.1-0.3 0.1 0 0-0.1 0c-0.1-0.1-0.2-0.2-0.1-0.3 0.1-0.2 0.2-0.2 0.3-0.1 0.1 0 0.2 0.2 0.1 0.3z"/>
					<path id="&lt;Path&gt;" class="s1" d="m172 27.4c0.1-0.1-0.1-0.4-0.3-0.3q0 0.2 0 0.3c0 0.1 0.1 0.2 0.2 0.2 0.1-0.1 0.2-0.2 0.1-0.3z"/>
					<path id="&lt;Path&gt;" class="s1" d="m173.7 30.7c0.1 0 0.2 0.2 0.1 0.3 0 0.2-0.1 0.3-0.2 0.3-0.1 0-0.2-0.1-0.2-0.1q0-0.1 0-0.2 0.1-0.2 0.3-0.4 0 0 0 0.1z"/>
					<path id="&lt;Path&gt;" class="s1" d="m170.9 32.2c0 0.1 0.2 0.2 0.4 0.2 0.1 0.1 0.3 0.1 0.4 0.3q0 0 0 0.1c-0.1 0.1-0.2 0-0.3 0-0.1 0-0.2 0-0.3 0-0.2 0.1-0.5-0.1-0.6-0.3 0-0.1 0.1-0.2 0.2-0.3 0.2 0 0.3 0 0.4 0.1z"/>
					<path id="&lt;Path&gt;" class="s1" d="m169.7 33.3q-0.1 0.1-0.1 0.2c0 0.1 0.1 0.1 0.2 0.1 0.1 0 0.2-0.2 0.2-0.3-0.1-0.1-0.2-0.1-0.3 0z"/>
					<path id="&lt;Path&gt;" class="s1" d="m171.5 37.4q-0.1 0.1-0.1 0.2c0 0.1 0.1 0.2 0.2 0.1 0.1 0 0.2-0.1 0.2-0.2-0.1-0.1-0.2-0.2-0.3-0.1z"/>
					<path id="&lt;Path&gt;" class="s1" d="m210.5 29.2c0.1 0.1 0.2-0.1 0.3-0.2 0-0.1-0.1-0.2-0.1-0.4q0.1-0.2 0.2-0.3 0.1-0.1 0.2 0 0.1 0 0.1 0.1c0.2 0.2 0.3 0.4 0.3 0.7 0 0.2-0.1 0.5-0.4 0.6-0.1 0-0.3 0-0.5-0.1-0.1-0.1-0.2-0.3-0.1-0.5z"/>
					<path id="&lt;Path&gt;" class="s1" d="m172.3 33.9c0.1-0.1 0.2 0 0.2 0.1q0 0.1 0 0.2 0 0.1-0.1 0.1c-0.1 0.1-0.2 0.1-0.3 0-0.1 0-0.1-0.2-0.1-0.3q0-0.1 0-0.1c0.1 0 0.2 0 0.2 0z"/>
					<path id="&lt;Path&gt;" class="s1" d="m170.4 28q-0.1 0-0.2 0c-0.1 0.1-0.1 0.2 0 0.3 0 0.1 0.2 0.1 0.2 0q0-0.1 0-0.1 0-0.2-0.1-0.4z"/>
					<path id="&lt;Path&gt;" class="s1" d="m161.2 71.6c-0.1-0.1-0.3-0.2-0.4-0.2-0.2 0-0.4 0.1-0.4 0.3q-0.1 0.1 0 0.2c0 0.2 0.3 0.4 0.5 0.3 0.3-0.1 0.4-0.4 0.3-0.6z"/>
					<path id="&lt;Path&gt;" class="s1" d="m173.2 79.5q-0.2 0-0.4 0.1 0 0.1 0.1 0.2c0.1 0.1 0.3-0.1 0.3-0.2z"/>
					<path id="&lt;Path&gt;" class="s1" d="m264.7 96.5c-0.8-0.8-1.8-1.4-2.9-1.7-0.2-0.1-0.4-0.1-0.6-0.1-0.3 0.1-0.6 0.4-0.8 0.7-0.3 0.8-0.1 1.8 0.6 2.4 0.6 0.6 1.6 0.9 2.4 0.7 0.5-0.1 1-0.4 1.2-0.8 0.3-0.4 0.3-1-0.1-1.3-0.2 0-0.2 0.3-0.1 0.4z"/>
					<path id="&lt;Path&gt;" class="s1" d="m208.1 51.7c-0.5-0.5-1.2-0.6-1.8-0.4-0.1 0.7 0 1.4 0.5 1.9 0.5 0.4 1.3 0.5 1.7-0.1 0.4-0.5 0-1.4-0.6-1.4z"/>
					<path id="&lt;Path&gt;" class="s1" d="m199.2 47.7c-0.2-0.2-0.6-0.3-0.8-0.2q0 0.2 0.1 0.4c0.1 0.1 0.2 0.2 0.3 0.2 0.2-0.1 0.3-0.3 0.3-0.5q0.1 0.1 0.1 0.2z"/>
					<path id="&lt;Path&gt;" class="s1" d="m197.5 49.1q-0.1-0.1-0.3 0-0.1 0-0.1 0.2-0.2 0.3-0.4 0.5 0.6-0.1 1.1-0.2 0.1 0 0.1 0c0.1 0 0.1 0.2 0.2 0.2 0.1 0.1 0.3 0.1 0.4 0 0.9-0.6-0.6-0.7-1-0.7z"/>
					<path id="&lt;Path&gt;" class="s1" d="m193.1 43.2q-0.2 0-0.3 0c0 0.2 0.2 0.4 0.4 0.4 0.2 0.1 0.4-0.2 0.3-0.4-0.1-0.1-0.2-0.3-0.1-0.3z"/>
					<path id="&lt;Path&gt;" class="s1" d="m202.6 49.3q0.2-0.1 0.3-0.1c-0.1 0.3-0.4 0.3-0.6 0.4-0.1 0-0.3 0-0.4-0.1 0-0.1 0-0.2 0-0.3-0.1-0.2-0.2-0.3-0.1-0.5 0-0.1 0.1-0.1 0.2-0.1q0.2 0.1 0.3 0.3 0.2 0.2 0.4 0.5z"/>
					<path id="&lt;Path&gt;" class="s1" d="m203.7 52.7c-0.2-0.1-0.4 0.2-0.3 0.4 0.1 0.2 0.3 0.2 0.5 0.3 0.1-0.3 0-0.6-0.2-0.8z"/>
					<path id="&lt;Path&gt;" class="s1" d="m199.7 51.7c0 0.1 0 0.2 0 0.3q-0.1 0.1-0.3 0.1 0 0-0.1-0.1c-0.1 0-0.2-0.2-0.1-0.3 0.1-0.1 0.2-0.1 0.3 0 0.1 0 0.2 0.2 0.1 0.3z"/>
					<path id="&lt;Path&gt;" class="s1" d="m199.8 50.5c0.1-0.2-0.1-0.4-0.3-0.3q-0.1 0.1 0 0.3c0 0.1 0.1 0.1 0.2 0.1 0.1 0 0.2-0.1 0.1-0.2z"/>
					<path id="&lt;Path&gt;" class="s1" d="m194.7 38.4c0-0.1-0.2-0.4-0.3-0.3q-0.1 0.2-0.1 0.3c0.1 0.1 0.2 0.2 0.3 0.2 0.1-0.1 0.1-0.2 0.1-0.3z"/>
					<path id="&lt;Path&gt;" class="s1" d="m200.7 46.3c-0.1-0.2-0.3-0.4-0.6-0.4q0.1 0.3 0.1 0.6 0 0.1 0 0.3c0.1 0.1 0.4 0.1 0.5 0 0.1-0.1 0.1-0.3 0-0.5z"/>
					<path id="&lt;Path&gt;" class="s1" d="m201.5 53.7c0.1 0.1 0.1 0.3 0.1 0.4 0 0.1-0.1 0.2-0.3 0.2-0.1 0.1-0.2 0-0.2-0.1q0 0 0.1-0.1 0.1-0.2 0.2-0.4 0.1 0 0.1 0z"/>
					<path id="&lt;Path&gt;" class="s1" d="m201 56.3c-0.2 0.1-0.1 0.3-0.1 0.5 0.1 0.1 0.2 0.3 0.1 0.5q-0.1 0-0.1 0c-0.2 0-0.2-0.1-0.2-0.2-0.1-0.1-0.1-0.2-0.2-0.3-0.1-0.1-0.2-0.4 0-0.6 0.1-0.1 0.2 0 0.3 0 0.1 0.1 0.1 0.2 0.1 0.3z"/>
					<path id="&lt;Path&gt;" class="s1" d="m199.3 56q-0.1-0.1-0.2-0.1c0 0.1 0 0.3 0.1 0.3 0.1 0.1 0.2 0.1 0.3 0 0-0.1 0-0.2-0.1-0.3z"/>
					<path id="&lt;Path&gt;" class="s1" d="m196.9 59.7q-0.1 0-0.2 0c-0.1 0.1 0 0.2 0 0.3 0.1 0.1 0.3 0.1 0.3 0 0.1-0.1 0-0.2-0.1-0.3z"/>
					<path id="&lt;Path&gt;" class="s1" d="m199.8 49.1c0.2 0.1 0.3 0 0.3-0.2 0-0.1 0-0.2 0-0.3q0-0.2 0.2-0.4 0.1 0 0.2 0 0.1 0 0.1 0.1c0.1 0.2 0.3 0.4 0.3 0.7 0 0.2-0.2 0.5-0.4 0.6-0.2 0.1-0.4 0-0.5-0.1-0.1-0.1-0.2-0.3-0.2-0.4z"/>
					<path id="&lt;Path&gt;" class="s1" d="m224.3 39.5c-0.1-0.1-0.3-0.1-0.5 0-0.1 0.1-0.1 0.2-0.1 0.4 0 0.1 0.1 0.1 0.1 0.1q0.1 0 0.2 0 0.1-0.3 0.3-0.5z"/>
					<path id="&lt;Path&gt;" class="s1" d="m205.4 50.6c0.1 0.3-0.1 0.7-0.4 0.7-0.1-0.2-0.2-0.5-0.1-0.7 0-0.2 0.3-0.5 0.5-0.4q0.1 0.2 0.2 0.4z"/>
					<path id="&lt;Path&gt;" class="s1" d="m200.3 58.5c0.1 0 0.1 0.1 0.1 0.2q-0.1 0-0.2 0.1-0.1 0-0.2 0c-0.1 0-0.2-0.2-0.2-0.3 0-0.1 0.1-0.2 0.2-0.3q0.1 0 0.2 0c0 0 0.1 0.1 0 0.2z"/>
					<path id="&lt;Path&gt;" class="s1" d="m198.1 51.1q-0.1 0-0.2 0c0 0.1 0 0.2 0.1 0.3 0 0 0.2 0.1 0.2 0q0-0.1 0-0.2 0-0.1-0.1-0.3z"/>
					<path id="&lt;Path&gt;" class="s1" d="m197.8 43.8c-0.1-0.1-0.3-0.1-0.4-0.2-0.2 0-0.4 0.1-0.4 0.3q-0.1 0.1 0 0.2c0 0.3 0.3 0.4 0.5 0.3 0.3-0.1 0.4-0.4 0.3-0.6z"/>
					<path id="&lt;Path&gt;" class="s1" d="m209.8 51.7q-0.2 0.1-0.4 0.1 0 0.1 0.1 0.2c0.1 0.1 0.3-0.1 0.3-0.2z"/>
					<path id="&lt;Path&gt;" class="s1" d="m201.5 61.8c-0.5-0.4-1.3-0.5-1.9-0.3-0.1 0.6 0 1.4 0.5 1.8 0.5 0.5 1.4 0.5 1.8 0 0.4-0.5 0-1.5-0.7-1.4z"/>
					<path id="&lt;Path&gt;" class="s1" d="m159.2 38.1q0.2 0 0.3 0c-0.1 0.2-0.3 0.3-0.6 0.3-0.1 0.1-0.3 0.1-0.3 0-0.1-0.1-0.1-0.2-0.1-0.3 0-0.2-0.2-0.4-0.1-0.5 0-0.1 0.2-0.1 0.3-0.1q0.1 0.1 0.2 0.2 0.2 0.3 0.4 0.6z"/>
					<path id="&lt;Path&gt;" class="s1" d="m183.9 48.8c-0.2-0.1-0.4 0.2-0.3 0.3 0.1 0.2 0.3 0.3 0.5 0.3 0.1-0.2 0-0.5-0.2-0.7z"/>
					<path id="&lt;Path&gt;" class="s1" d="m193 61.9c0.1 0 0.1 0.1 0 0.2q0 0.1-0.2 0.1-0.1 0-0.1 0c-0.2-0.1-0.2-0.2-0.1-0.3 0-0.1 0.2-0.2 0.3-0.1 0.1 0.1 0.1 0.2 0.1 0.3z"/>
					<path id="&lt;Path&gt;" class="s1" d="m194.8 63.9c0.2 0.1 0.2 0.2 0.2 0.3-0.1 0.2-0.2 0.3-0.3 0.3-0.1 0-0.2 0-0.2-0.1q0-0.1 0-0.1 0.2-0.3 0.3-0.5 0 0.1 0.1 0.1z"/>
					<path id="&lt;Path&gt;" class="s1" d="m228.6 57.2c-0.2 0.1-0.1 0.3 0 0.4 0 0.2 0.1 0.4 0 0.5q-0.1 0.1-0.1 0.1c-0.1 0-0.2-0.2-0.2-0.3-0.1-0.1-0.1-0.1-0.2-0.2-0.1-0.2-0.1-0.4 0-0.6 0.1-0.1 0.2-0.1 0.3 0 0.1 0.1 0.2 0.2 0.1 0.3z"/>
					<path id="&lt;Path&gt;" class="s1" d="m192.7 66.1q-0.1 0-0.2 0c-0.1 0.1 0 0.2 0 0.3 0.1 0 0.3 0 0.3-0.1 0.1-0.1 0-0.2-0.1-0.2z"/>
					<path id="&lt;Path&gt;" class="s1" d="m190.2 69.9q-0.1 0-0.1 0c-0.1 0.1-0.1 0.2 0 0.3 0.1 0 0.2 0 0.3-0.1 0-0.1 0-0.2-0.1-0.2z"/>
					<path id="&lt;Path&gt;" class="s1" d="m198.7 60.7c0.2 0.3 0 0.7-0.3 0.8-0.1-0.3-0.2-0.5-0.2-0.8 0.1-0.2 0.3-0.4 0.5-0.3q0.1 0.2 0.3 0.4z"/>
					<path id="&lt;Path&gt;" class="s1" d="m193.7 68.6c0.1 0 0.1 0.1 0 0.2q0 0.1-0.2 0.1 0 0-0.1 0c-0.1 0-0.2-0.1-0.2-0.2 0-0.1 0.1-0.3 0.2-0.3q0 0 0.1 0c0.1 0 0.1 0.1 0.1 0.1z"/>
					<path id="&lt;Path&gt;" class="s1" d="m203.1 61.9q-0.1 0-0.3 0 0 0.2 0 0.3c0.2 0 0.4-0.1 0.4-0.3z"/>
					<path id="&lt;Path&gt;" class="s1" d="m188.1 62.4q-0.2 0-0.4 0 0 0.1 0.1 0.3c0.1 0 0.3-0.1 0.3-0.3z"/>
					<path id="&lt;Path&gt;" class="s1" d="m417.2 213.5c0.2 0.4 0.3 0.8 0.1 1.2q-0.1 0-0.1 0.1c-0.1 0-0.2 0-0.2-0.1-0.4-0.2-0.9-0.5-0.8-0.9 0.1-0.4 0.6-0.6 0.9-0.4q0 0.2 0 0.4z"/>
					<path id="&lt;Path&gt;" class="s1" d="m200.6 144.4c-0.4-1.1-1-2.1-1.8-2.9-0.1-0.2-0.3-0.3-0.5-0.4-0.3-0.1-0.7 0-1 0.3-0.7 0.5-0.9 1.5-0.6 2.3 0.2 0.9 1 1.5 1.8 1.8 0.5 0.1 1 0.1 1.4-0.1 0.4-0.3 0.7-0.8 0.5-1.2-0.1-0.1-0.3 0.1-0.2 0.2z"/>
					<path id="&lt;Path&gt;" class="s1" d="m198.5 149.1c-0.2-0.6-0.8-1.1-1.5-1.2-0.4 0.5-0.6 1.2-0.4 1.9 0.2 0.6 1 1 1.6 0.8 0.6-0.3 0.7-1.3 0.1-1.6z"/>
					<path id="&lt;Path&gt;" class="s1" d="m203.6 141.4q-0.2-0.2-0.6-0.4 0 0 0 0-0.1 0-0.1 0.1c-0.1 0.2 0.1 0.5-0.1 0.6q-0.1 0.1-0.1 0.1c0 0.1 0 0.1 0.1 0.1 0.4 0.1 0.8-0.2 0.7-0.6q0.1 0.1 0.1 0.1z"/>
					<path id="&lt;Path&gt;" class="s1" d="m206.4 134.6q-0.5-0.4-1.1-0.7-0.1 0-0.1 0-0.1 0-0.2 0.1c-0.2 0.4 0.2 1-0.2 1.2 0 0.1-0.1 0.1-0.1 0.2-0.1 0.1 0.1 0.2 0.2 0.2 0.7 0.2 1.4-0.4 1.3-1.1q0.1 0.1 0.2 0.1z"/>
					<path id="&lt;Path&gt;" class="s1" d="m192.6 141.3c-0.2-0.2-0.4-0.4-0.7-0.5q-0.1 0.2-0.1 0.4c0 0.1 0.1 0.3 0.2 0.3 0.2 0.1 0.4-0.1 0.5-0.2q0 0 0 0.1z"/>
					<path id="&lt;Path&gt;" class="s1" d="m195 123.8q-0.1-0.1-0.2-0.1-0.1 0-0.2 0.1-0.3 0.2-0.6 0.3 0.5 0.2 1 0.3 0.1 0 0.1 0.1c0.1 0 0.1 0.2 0.1 0.3 0 0.1 0.2 0.2 0.4 0.1 1.1-0.1-0.2-0.8-0.6-1.1z"/>
					<path id="&lt;Path&gt;" class="s1" d="m203.5 122.6c0.1 0.3-0.1 0.7-0.4 0.7-0.3 0-0.6-0.4-0.4-0.6 0.1-0.3 0.6-0.4 0.7-0.1z"/>
					<path id="&lt;Path&gt;" class="s1" d="m200.2 135.5c0.2 0 0.6 0.1 0.6 0.3 0 0.3-0.3 0.4-0.5 0.4-0.1 0.1-0.2 0.1-0.3 0-0.2-0.1 0.2-0.5 0.1-0.7 0 0 0.1 0 0.1 0.1z"/>
					<path id="&lt;Path&gt;" class="s1" d="m194.8 144.3q0.1 0.1 0.2 0.2c-0.2 0.1-0.4 0.1-0.7 0-0.1-0.1-0.2-0.1-0.2-0.3 0-0.1 0-0.1 0.1-0.2 0-0.2-0.1-0.5 0.1-0.6 0.1 0 0.2 0.1 0.3 0.1q0.1 0.2 0.1 0.3 0 0.4 0.1 0.7z"/>
					<path id="&lt;Path&gt;" class="s1" d="m194.1 147.9c-0.1-0.2-0.4 0-0.4 0.2 0 0.2 0.1 0.3 0.3 0.5 0.2-0.2 0.3-0.5 0.2-0.7z"/>
					<path id="&lt;Path&gt;" class="s1" d="m209.1 161.1q-0.1-0.1-0.3-0.2c0 0-0.2 0-0.2 0.1-0.1 0.1 0 0.3 0 0.4-0.1 0.2-0.2 0.3-0.2 0.5 0 0.1 0.2 0.2 0.4 0.1 0.1 0 0.2-0.2 0.3-0.3q0.1-0.2 0.1-0.4c0-0.1-0.2-0.3-0.3-0.3z"/>
					<path id="&lt;Path&gt;" class="s1" d="m181.7 154.3c0.1 0.1 0 0.2-0.1 0.2q-0.1 0.1-0.2 0-0.1 0-0.1-0.1c-0.1-0.1-0.1-0.2 0-0.3 0.1-0.1 0.3 0 0.4 0.1 0 0.1 0 0.3-0.1 0.3z"/>
					<path id="&lt;Path&gt;" class="s1" d="m191.7 144.1c0.2-0.1 0.1-0.4-0.1-0.4q-0.1 0.1-0.2 0.2c0 0.1 0.1 0.2 0.2 0.3 0.1 0 0.2-0.1 0.2-0.2z"/>
					<path id="&lt;Path&gt;" class="s1" d="m192.9 131.1c0.2-0.2 0.1-0.5-0.1-0.5q-0.1 0.1-0.2 0.3c0 0.1 0.1 0.2 0.2 0.2 0.1 0.1 0.2 0 0.2-0.1z"/>
					<path id="&lt;Path&gt;" class="s1" d="m194.5 140.8c0-0.2-0.1-0.4-0.3-0.6q-0.1 0.3-0.3 0.6 0 0.1 0 0.2c0 0.2 0.2 0.3 0.3 0.3 0.2-0.1 0.3-0.3 0.3-0.5z"/>
					<path id="&lt;Path&gt;" class="s1" d="m230.6 131.9q0.5 0.2 1 0.3c0 0.2-0.3 0.3-0.5 0.2-0.1 0-0.3 0-0.4-0.1-0.2-0.2-0.2-0.4-0.1-0.5z"/>
					<path id="&lt;Path&gt;" class="s1" d="m223.9 132.1c0.1-0.2-0.3-0.4-0.5-0.3-0.2 0-0.3 0.3-0.3 0.6q0 0.2 0.2 0.2c0.1 0.1 0.3 0.1 0.4-0.1 0.2-0.1 0.2-0.2 0.3-0.4z"/>
					<path id="&lt;Path&gt;" class="s1" d="m198.8 135.2c0-0.3-0.1-0.5-0.3-0.7q-0.2 0.2-0.3 0.5c0 0.2 0.1 0.4 0.3 0.5 0.2 0.1 0.5-0.2 0.4-0.4z"/>
					<path id="&lt;Path&gt;" class="s1" d="m199.5 137.4c0.1 0.2 0.1 0.4-0.1 0.5q-0.2-0.1-0.4-0.2c0-0.3 0.2-0.5 0.5-0.4z"/>
					<path id="&lt;Path&gt;" class="s1" d="m202.9 141.5q0.1 0.1 0.2 0.1c-0.1 0.1-0.1 0.3-0.3 0.3-0.1 0.1-0.3 0.2-0.4 0.1-0.2-0.2-0.1-0.4 0-0.4q0.3-0.1 0.5 0z"/>
					<path id="&lt;Path&gt;" class="s1" d="m191.7 147.8c0 0.1 0 0.2-0.1 0.3-0.1 0.1-0.2 0.2-0.3 0.1-0.1 0-0.2-0.1-0.2-0.2q0.1 0 0.1-0.1 0.2-0.1 0.5-0.2 0 0 0 0.1z"/>
					<path id="&lt;Path&gt;" class="s1" d="m188.5 147.7c-0.1 0.2 0.1 0.4 0.2 0.5 0.1 0.1 0.3 0.2 0.3 0.4q-0.1 0-0.1 0.1c-0.1 0-0.2-0.1-0.3-0.2-0.1 0-0.2 0-0.3-0.1-0.2-0.1-0.3-0.3-0.3-0.5 0.1-0.1 0.2-0.2 0.3-0.2 0.1 0.1 0.2 0.1 0.3 0.3z"/>
					<path id="&lt;Path&gt;" class="s1" d="m186.9 148.2q-0.1 0-0.2 0.1c0 0.1 0.1 0.2 0.2 0.2 0.1 0 0.2-0.1 0.2-0.2 0-0.1-0.1-0.2-0.2-0.1z"/>
					<path id="&lt;Path&gt;" class="s1" d="m186.5 152.7q-0.1 0-0.2 0.1c0 0.1 0.1 0.2 0.2 0.2 0.1 0 0.2-0.1 0.2-0.2 0-0.1-0.1-0.2-0.2-0.1z"/>
					<path id="&lt;Path&gt;" class="s1" d="m192.4 142.9c0.1 0.1 0.3 0.1 0.3 0 0.1-0.1 0.1-0.2 0.2-0.4q0.1-0.1 0.3-0.2 0.2 0 0.2 0.1 0.1 0.1 0.1 0.2c0 0.2 0 0.5-0.1 0.7-0.2 0.2-0.4 0.4-0.6 0.3-0.2 0-0.4-0.1-0.4-0.3-0.1-0.1-0.1-0.3 0-0.4z"/>
					<path id="&lt;Path&gt;" class="s1" d="m186.9 126.7c0.1 0.1 0.3 0.1 0.3 0 0.1-0.1 0.1-0.3 0.2-0.4q0.1-0.1 0.3-0.2 0.2 0 0.2 0.1 0.1 0.1 0.1 0.1c0 0.3 0 0.5-0.1 0.8-0.2 0.2-0.4 0.4-0.6 0.3-0.2 0-0.4-0.1-0.4-0.3-0.1-0.1-0.1-0.3 0-0.5z"/>
					<path id="&lt;Path&gt;" class="s1" d="m191.8 139.6c-0.1-0.1-0.2-0.2-0.4-0.2-0.1 0-0.3 0.2-0.3 0.3 0 0.1 0 0.2 0.1 0.2q0 0 0.1 0 0.3-0.1 0.5-0.3z"/>
					<path id="&lt;Path&gt;" class="s1" d="m250 157c0.2-0.3 0.4-0.7 0.4-1.1q0-0.1-0.1-0.2c-0.1-0.1-0.3 0.1-0.4 0.2-0.3 0.1-0.6 0.1-0.8 0.2-0.2 0.1-0.2 0.3-0.3 0.5-0.1 0.3-0.2 0.7 0.1 0.9 0.2 0 0.3 0 0.5-0.1q0.4-0.2 0.8-0.6z"/>
					<path id="&lt;Path&gt;" class="s1" d="m202.3 129.5c0.2-0.1 0.2-0.4 0-0.7-0.1-0.1-0.2-0.2-0.3-0.2-0.2-0.1-0.3 0.2-0.4 0.3q-0.1 0.3-0.2 0.5c-0.1 0.1-0.1 0.2-0.1 0.3q0.1 0.1 0.2 0.1 0.5 0.1 1.1 0.1z"/>
					<path id="&lt;Path&gt;" class="s1" d="m204.3 137.2c2-0.7 1-3-0.9-2.9-1.9 0.2-0.9 3.5 0.9 2.9z"/>
					<path id="&lt;Path&gt;" class="s1" d="m242.8 120.3c2-0.7 1-3.1-0.9-2.9-1.9 0.2-0.9 3.5 0.9 2.9z"/>
					<path id="&lt;Path&gt;" class="s1" d="m196.6 146.8c0 0.3-0.4 0.6-0.7 0.5 0-0.3 0.1-0.5 0.2-0.7 0.2-0.2 0.5-0.3 0.7-0.1q0 0.2 0 0.4z"/>
					<path id="&lt;Path&gt;" class="s1" d="m217 98.5c0-0.2-0.1-0.2-0.2 0-0.2 0.1-0.2 0.3-0.3 0.5q-0.2 0.6-0.5 1.2c-0.1 0.2-0.1 0.5-0.1 0.6 0.1 0.1 0.2 0.1 0.3-0.1 0.1-0.1 0.2-0.3 0.3-0.5 0.3-0.6 0.6-1.4 0.5-1.8q-0.1 0.1-0.3 0.2z"/>
					<path id="&lt;Path&gt;" class="s1" d="m189 149.9c0 0 0.1 0.1 0.1 0.2q-0.1 0.1-0.1 0.2-0.1 0-0.2 0.1c-0.1 0-0.2-0.1-0.3-0.2 0-0.1 0-0.2 0.1-0.3q0-0.1 0.1-0.1c0.1 0 0.1 0 0.1 0.1z"/>
					<path id="&lt;Path&gt;" class="s1" d="m190 143.8q-0.1 0-0.2-0.1c-0.1 0.1-0.1 0.2-0.1 0.3 0 0.1 0.1 0.2 0.2 0.1q0 0 0.1-0.1 0-0.2 0.1-0.3z"/>
					<path id="&lt;Path&gt;" class="s1" d="m182 135c-0.1-0.2-0.2-0.3-0.3-0.4-0.2-0.1-0.4-0.1-0.5 0q-0.1 0.1-0.1 0.2c0 0.3 0.1 0.6 0.4 0.6 0.2 0 0.5-0.2 0.5-0.4z"/>
					<path id="&lt;Path&gt;" class="s1" d="m194.4 128.9c0.3 0.1 0.4 0.4 0.2 0.6q-0.2 0-0.4-0.1 0-0.2 0.2-0.4z"/>
					<path id="&lt;Path&gt;" class="s1" d="m199.9 149.9q-0.1-0.1-0.3-0.1-0.1 0.1-0.1 0.2c0.1 0.1 0.4 0.1 0.5 0z"/>
					<path id="&lt;Path&gt;" class="s1" d="m204.5 97.6c1.1 0.2 2.3 0.2 3.4 0 0.2-0.1 0.4-0.1 0.5-0.2 0.3-0.2 0.4-0.6 0.4-1-0.1-0.9-0.8-1.6-1.7-1.9-0.8-0.2-1.8 0.1-2.4 0.7-0.4 0.3-0.7 0.8-0.7 1.2 0 0.5 0.3 1 0.8 1.1 0.1-0.1 0-0.3-0.1-0.3z"/>
					<path id="&lt;Path&gt;" class="s1" d="m201.6 93.3c0.7 0.1 1.4-0.2 1.8-0.7-0.2-0.6-0.7-1.2-1.3-1.3-0.7-0.2-1.5 0.2-1.6 0.9-0.1 0.6 0.8 1.3 1.3 0.9z"/>
					<path id="&lt;Path&gt;" class="s1" d="m205.4 101.7q0.3-0.1 0.6-0.3 0 0 0.1-0.1 0 0-0.1 0c-0.1-0.2-0.4-0.3-0.5-0.5q0.1-0.1 0-0.1c0-0.1-0.1 0-0.2 0-0.2 0.3-0.1 0.8 0.2 0.9q-0.1 0.1-0.1 0.1z"/>
					<path id="&lt;Path&gt;" class="s1" d="m209.7 107.7q0.6-0.2 1.1-0.6 0.1 0 0.1-0.1 0-0.1 0-0.1c-0.2-0.4-0.9-0.5-0.9-0.9-0.1-0.1 0-0.2-0.1-0.2-0.1-0.1-0.2-0.1-0.3 0-0.5 0.5-0.4 1.5 0.2 1.8q-0.1 0-0.2 0z"/>
					<path id="&lt;Path&gt;" class="s1" d="m211.3 92.4c0.3 0 0.7-0.1 0.9-0.3q-0.1-0.2-0.3-0.3c-0.1-0.1-0.3-0.1-0.4 0-0.2 0.2-0.1 0.4-0.1 0.6q0-0.1-0.1-0.1z"/>
					<path id="&lt;Path&gt;" class="s1" d="m224.9 103.8q0.1 0 0.2-0.1 0-0.1 0-0.3 0-0.3 0.1-0.6-0.5 0.3-0.9 0.7 0 0-0.1 0c-0.1 0.1-0.2 0-0.3-0.1-0.1 0-0.2 0.1-0.3 0.3-0.5 1 0.8 0.3 1.3 0.1z"/>
					<path id="&lt;Path&gt;" class="s1" d="m221.3 111.6c-0.3 0-0.5-0.4-0.3-0.7 0.1-0.3 0.6-0.3 0.7 0 0.2 0.3 0 0.7-0.3 0.7z"/>
					<path id="&lt;Path&gt;" class="s1" d="m212.2 102c-0.1 0.2-0.4 0.4-0.6 0.3-0.2-0.1-0.2-0.4-0.1-0.7 0-0.1 0.1-0.2 0.2-0.2 0.2-0.1 0.3 0.4 0.5 0.4 0.1 0.1 0 0.2-0.1 0.1z"/>
					<path id="&lt;Path&gt;" class="s1" d="m207.6 92.7q-0.1 0.1-0.2 0.1c0-0.2 0.2-0.4 0.3-0.6 0.1-0.1 0.3-0.2 0.4-0.1 0.1 0 0.1 0.1 0.2 0.2 0.1 0.2 0.3 0.2 0.3 0.4 0 0.1-0.1 0.2-0.2 0.2q-0.2 0-0.3-0.1-0.3-0.1-0.6-0.3z"/>
					<path id="&lt;Path&gt;" class="s1" d="m205 90.1c0.2 0 0.2-0.3 0-0.4-0.1-0.1-0.3 0-0.5 0 0 0.3 0.2 0.5 0.5 0.6z"/>
					<path id="&lt;Path&gt;" class="s1" d="m206.2 76.3c-0.1 0-0.2-0.1-0.2-0.2q0-0.1 0.2-0.2 0-0.1 0.1-0.1c0.1 0 0.3 0.1 0.3 0.3-0.1 0.1-0.2 0.2-0.3 0.2-0.1 0-0.2-0.1-0.2-0.3z"/>
					<path id="&lt;Path&gt;" class="s1" d="m209.4 90.2c0.1 0.2 0.4 0.3 0.5 0.1q0-0.1-0.2-0.3c0 0-0.2 0-0.2 0-0.1 0.1-0.1 0.2 0 0.3z"/>
					<path id="&lt;Path&gt;" class="s1" d="m219.8 98.2c0.1 0.2 0.4 0.2 0.5 0.1q0-0.2-0.1-0.3c-0.1 0-0.2-0.1-0.3 0-0.1 0.1-0.1 0.2 0 0.3z"/>
					<path id="&lt;Path&gt;" class="s1" d="m210.7 94.3c0.2 0.1 0.5 0.1 0.7 0q-0.2-0.2-0.3-0.5-0.1-0.1-0.2-0.2c-0.1 0-0.3 0.1-0.4 0.2 0 0.2 0.1 0.4 0.2 0.5z"/>
					<path id="&lt;Path&gt;" class="s1" d="m213.3 100.9c0.1 0.2 0.4 0.2 0.6 0.1q0-0.2-0.2-0.4c-0.2-0.2-0.4-0.2-0.6-0.1-0.2 0.2-0.1 0.5 0.1 0.5z"/>
					<path id="&lt;Path&gt;" class="s1" d="m210.9 100.3c-0.1 0-0.3-0.1-0.3-0.3q0.2-0.1 0.4-0.3c0.2 0.2 0.2 0.5 0.1 0.7z"/>
					<path id="&lt;Path&gt;" class="s1" d="m205.6 101q0 0.1-0.1 0.2c-0.1-0.2-0.2-0.3-0.2-0.5 0-0.1 0.1-0.3 0.3-0.4 0.1 0 0.3 0.1 0.3 0.3q-0.1 0.2-0.3 0.4z"/>
					<path id="&lt;Path&gt;" class="s1" d="m206.4 88.2c-0.1 0-0.3-0.1-0.3-0.2 0-0.2 0-0.3 0.1-0.4 0.1-0.1 0.2-0.1 0.3 0q0 0.1 0 0.1 0 0.3-0.1 0.5 0 0 0 0z"/>
					<path id="&lt;Path&gt;" class="s1" d="m208.1 85.5c-0.1-0.1-0.3-0.1-0.5 0-0.1 0-0.3 0.1-0.4 0q-0.1-0.1-0.1-0.2c0-0.1 0.2-0.1 0.3-0.1 0.1-0.1 0.1-0.1 0.2-0.2 0.2-0.1 0.5-0.1 0.6 0 0.1 0.1 0.1 0.3 0 0.4-0.1 0.1-0.2 0.1-0.3 0.1z"/>
					<path id="&lt;Path&gt;" class="s1" d="m208.6 83.9q0-0.1 0-0.2c-0.1 0-0.2 0-0.3 0.1-0.1 0 0 0.2 0 0.2 0.1 0.1 0.3 0.1 0.3 0z"/>
					<path id="&lt;Path&gt;" class="s1" d="m205 81.2q0-0.1 0-0.2c-0.1 0-0.2 0-0.3 0 0 0.1 0 0.2 0 0.3 0.1 0.1 0.3 0 0.3-0.1z"/>
					<path id="&lt;Path&gt;" class="s1" d="m210.1 91.4c-0.1 0-0.2 0.2-0.2 0.3 0.1 0.1 0.2 0.2 0.2 0.3q0.1 0.2 0 0.4 0 0.1-0.1 0.1-0.1 0-0.2 0c-0.2-0.1-0.4-0.3-0.5-0.5-0.2-0.2-0.2-0.5 0-0.7 0.1-0.1 0.3-0.2 0.5-0.2 0.1 0.1 0.3 0.2 0.3 0.4z"/>
					<path id="&lt;Path&gt;" class="s1" d="m226.7 95.4c-0.1 0-0.1 0.2-0.1 0.3 0 0.1 0.1 0.2 0.2 0.3q0.1 0.2 0 0.4-0.1 0.1-0.2 0.2-0.1-0.1-0.1-0.1c-0.2-0.1-0.5-0.3-0.6-0.5-0.1-0.2-0.1-0.5 0-0.7 0.2-0.1 0.3-0.2 0.5-0.2 0.2 0.1 0.3 0.2 0.4 0.4z"/>
					<path id="&lt;Path&gt;" class="s1" d="m213.2 92.6c0.2 0.1 0.3 0 0.4-0.2 0.1-0.1 0-0.3-0.1-0.4 0 0-0.1-0.1-0.2 0q0 0 0 0.1-0.1 0.3-0.1 0.6z"/>
					<path id="&lt;Path&gt;" class="s1" d="m199.3 114.9c0.2 0.1 0.4 0 0.4-0.2 0.1-0.1 0-0.3-0.1-0.4 0 0-0.1-0.1-0.2 0q0 0 0 0.1-0.1 0.3-0.1 0.5z"/>
					<path id="&lt;Path&gt;" class="s1" d="m216.1 107c0 0.2 0.3 0.3 0.6 0.3 0.1 0 0.3 0 0.4-0.1 0.1-0.2 0-0.4-0.1-0.6q-0.2-0.2-0.3-0.4c-0.1-0.1-0.1-0.2-0.2-0.2q-0.1 0-0.2 0.1-0.4 0.4-0.6 0.9z"/>
					<path id="&lt;Path&gt;" class="s1" d="m208.6 104.5c-0.5 2.1 2 2.5 2.8 0.8 0.9-1.7-2.4-2.7-2.8-0.8z"/>
					<path id="&lt;Path&gt;" class="s1" d="m236 138.2c-0.5 2.2 2.1 2.5 2.9 0.9 0.9-1.8-2.4-2.7-2.9-0.9z"/>
					<path id="&lt;Path&gt;" class="s1" d="m204.6 92.8c-0.3-0.1-0.3-0.6-0.1-0.8 0.2 0.2 0.4 0.3 0.5 0.6 0.1 0.2 0 0.5-0.3 0.6q-0.2-0.1-0.4-0.3z"/>
					<path id="&lt;Path&gt;" class="s1" d="m206 84.7c0 0.1-0.1 0.1-0.2 0.1q-0.1-0.1-0.1-0.2 0-0.1 0-0.2c0-0.1 0.2-0.2 0.3-0.2 0.1 0 0.2 0.1 0.2 0.2q0.1 0.1 0 0.2c0 0 0 0.1-0.1 0z"/>
					<path id="&lt;Path&gt;" class="s1" d="m210.6 88.9q0.1-0.1 0.2-0.1c0-0.1-0.1-0.2-0.2-0.3-0.1 0-0.2 0-0.2 0.1q0 0.1 0.1 0.1 0.1 0.2 0.2 0.3z"/>
					<path id="&lt;Path&gt;" class="s1" d="m222.3 86.9c0.2 0 0.4-0.1 0.5-0.1 0.2-0.1 0.3-0.3 0.3-0.4q-0.1-0.2-0.2-0.2c-0.1-0.2-0.5-0.2-0.6 0-0.2 0.2-0.1 0.5 0.1 0.7z"/>
					<path id="&lt;Path&gt;" class="s1" d="m220.8 100.6c-0.1 0.2-0.5 0.1-0.5-0.2q0.1-0.2 0.3-0.3 0.1 0.2 0.2 0.4z"/>
					<path id="&lt;Path&gt;" class="s1" d="m200.2 94q0.1-0.1 0.2-0.2 0-0.1-0.1-0.2c-0.2 0.1-0.3 0.2-0.2 0.4z"/>
					<path id="&lt;Path&gt;" class="s1" d="m184.8 78.3c1.2-0.1 2.3-0.5 3.3-1.1 0.2-0.1 0.3-0.2 0.4-0.4 0.2-0.2 0.2-0.7 0-1-0.3-0.8-1.2-1.3-2.1-1.2-0.9 0-1.7 0.6-2.1 1.4-0.3 0.4-0.4 0.9-0.3 1.4 0.1 0.4 0.6 0.8 1.1 0.8 0.1-0.2-0.1-0.4-0.2-0.4z"/>
					<path id="&lt;Path&gt;" class="s1" d="m180.8 75.1c0.6-0.1 1.2-0.6 1.5-1.2-0.5-0.5-1.1-0.9-1.8-0.8-0.6 0-1.2 0.7-1.1 1.3 0.1 0.7 1.1 1 1.5 0.5z"/>
					<path id="&lt;Path&gt;" class="s1" d="m187 81.9q0.3-0.2 0.5-0.5 0 0 0 0 0-0.1 0-0.1c-0.2-0.2-0.5-0.1-0.6-0.3q0 0-0.1-0.1c0 0-0.1 0-0.1 0.1-0.2 0.3 0 0.8 0.4 0.8q-0.1 0.1-0.1 0.1z"/>
					<path id="&lt;Path&gt;" class="s1" d="m193 86.2q0.5-0.4 0.9-0.9 0 0 0-0.1 0-0.1 0-0.1c-0.4-0.3-1-0.1-1.2-0.5 0-0.1 0-0.2-0.1-0.3-0.1 0-0.3 0.1-0.3 0.2-0.3 0.6 0.1 1.5 0.8 1.6q-0.1 0-0.2 0.1z"/>
					<path id="&lt;Path&gt;" class="s1" d="m189.7 71.2c0.3-0.1 0.6-0.3 0.7-0.6q-0.2-0.1-0.4-0.1c-0.1-0.1-0.3 0-0.3 0.1-0.1 0.2 0 0.4 0.1 0.5q-0.1 0-0.2 0z"/>
					<path id="&lt;Path&gt;" class="s1" d="m206.1 77.7q0.2 0 0.2-0.2 0-0.1 0-0.2-0.1-0.3-0.2-0.7-0.3 0.5-0.6 1 0 0.1 0 0.1c-0.1 0.1-0.2 0-0.3 0-0.2 0-0.3 0.2-0.3 0.3-0.2 1.1 0.9 0 1.2-0.3z"/>
					<path id="&lt;Path&gt;" class="s1" d="m205.3 86.2c-0.3 0.1-0.7-0.2-0.6-0.5 0.1-0.3 0.5-0.5 0.7-0.3 0.3 0.2 0.2 0.7-0.1 0.8z"/>
					<path id="&lt;Path&gt;" class="s1" d="m193.6 80c-0.1 0.2-0.3 0.5-0.5 0.5-0.2-0.1-0.3-0.4-0.3-0.6 0-0.1 0-0.2 0.1-0.3 0.2-0.1 0.4 0.3 0.6 0.3 0.1 0 0 0.1 0 0.1z"/>
					<path id="&lt;Path&gt;" class="s1" d="m186.2 72.6q0 0.2-0.1 0.2c-0.1-0.2 0-0.4 0.1-0.6 0.1-0.2 0.2-0.3 0.3-0.3 0.1 0.1 0.2 0.2 0.3 0.2 0.1 0.1 0.4 0.1 0.4 0.3 0.1 0.1 0 0.2-0.1 0.2q-0.2 0.1-0.3 0-0.4 0-0.7 0z"/>
					<path id="&lt;Path&gt;" class="s1" d="m183 71.1c0.1-0.1 0.1-0.4-0.1-0.4-0.2-0.1-0.4 0-0.6 0.1 0.1 0.3 0.4 0.4 0.7 0.4z"/>
					<path id="&lt;Path&gt;" class="s1" d="m166.6 82.5q0.1-0.1 0.2-0.2c0-0.1 0-0.2 0-0.2-0.1-0.2-0.3-0.1-0.4-0.2-0.2-0.1-0.3-0.2-0.4-0.3-0.2 0-0.3 0.2-0.3 0.4 0.1 0.1 0.2 0.2 0.3 0.3q0.2 0.2 0.4 0.2c0.1 0.1 0.2 0 0.3-0.1z"/>
					<path id="&lt;Path&gt;" class="s1" d="m179.7 57.6c-0.1 0-0.2-0.1-0.2-0.2q0-0.1 0.1-0.2 0-0.1 0.1-0.1c0.1-0.1 0.2 0 0.3 0.1 0 0.1-0.1 0.3-0.2 0.3-0.1 0-0.2 0-0.3-0.1z"/>
					<path id="&lt;Path&gt;" class="s1" d="m187.2 69.7c0.1 0.2 0.4 0.2 0.5 0q-0.1-0.2-0.3-0.2c0-0.1-0.2 0-0.2 0-0.1 0.1 0 0.3 0.1 0.3z"/>
					<path id="&lt;Path&gt;" class="s1" d="m199.6 74c0.1 0.1 0.4 0.1 0.5-0.1q-0.1-0.1-0.3-0.2c-0.1 0-0.2 0-0.2 0.1-0.1 0.1 0 0.2 0.1 0.2z"/>
					<path id="&lt;Path&gt;" class="s1" d="m189.7 73.2c0.3 0.1 0.5 0 0.7-0.2q-0.3-0.2-0.5-0.3-0.1-0.1-0.2-0.2c-0.2 0-0.3 0.2-0.3 0.3 0 0.2 0.1 0.4 0.3 0.4z"/>
					<path id="&lt;Path&gt;" class="s1" d="m194.2 78.7c0.2 0.1 0.5 0 0.7-0.1q-0.1-0.3-0.4-0.4c-0.2-0.1-0.5 0-0.6 0.2-0.1 0.1 0.1 0.5 0.3 0.4z"/>
					<path id="&lt;Path&gt;" class="s1" d="m191.8 78.8c-0.1 0.1-0.3 0-0.4-0.1q0.2-0.2 0.3-0.4c0.3 0 0.4 0.3 0.3 0.5z"/>
					<path id="&lt;Path&gt;" class="s1" d="m187 81.2q0 0.1-0.1 0.2c-0.1-0.1-0.2-0.3-0.2-0.4-0.1-0.2-0.1-0.4 0.1-0.4 0.1-0.1 0.3-0.1 0.3 0.1q0 0.3-0.1 0.5z"/>
					<path id="&lt;Path&gt;" class="s1" d="m183.7 68.8c-0.2 0-0.3 0-0.4-0.1-0.1-0.2-0.1-0.3 0-0.4 0.1-0.1 0.2-0.2 0.3-0.1q0 0 0 0.1 0.1 0.3 0.1 0.5 0 0 0 0z"/>
					<path id="&lt;Path&gt;" class="s1" d="m184.4 65.7c-0.1-0.1-0.3 0-0.4 0.1-0.2 0.1-0.3 0.2-0.5 0.2q0-0.1-0.1-0.1c0-0.2 0.2-0.2 0.3-0.3 0 0 0.1-0.1 0.1-0.2 0.2-0.2 0.4-0.3 0.6-0.2 0.1 0.1 0.1 0.2 0.1 0.3-0.1 0.1-0.2 0.2-0.3 0.2z"/>
					<path id="&lt;Path&gt;" class="s1" d="m184.4 64q0-0.1 0-0.1c-0.1-0.1-0.3 0-0.3 0.1 0 0.1 0 0.2 0.1 0.2 0.1 0.1 0.2 0 0.2-0.1z"/>
					<path id="&lt;Path&gt;" class="s1" d="m180.1 62.6q0-0.1 0-0.2c-0.1 0-0.2 0-0.3 0.1 0 0.1 0 0.2 0.1 0.3 0.1 0 0.2-0.1 0.2-0.2z"/>
					<path id="&lt;Path&gt;" class="s1" d="m188.2 70.7c-0.1 0-0.1 0.2 0 0.3 0 0.1 0.2 0.1 0.2 0.2q0.2 0.2 0.2 0.4-0.1 0.1-0.2 0.2 0 0-0.1 0c-0.3-0.1-0.5-0.1-0.7-0.3-0.2-0.2-0.3-0.4-0.2-0.7 0.1-0.1 0.2-0.3 0.4-0.3 0.2 0 0.3 0.1 0.5 0.2z"/>
					<path id="&lt;Path&gt;" class="s1" d="m205.3 69.2c-0.1 0-0.2 0.2-0.1 0.3 0.1 0.1 0.2 0.2 0.3 0.3q0.1 0.1 0.1 0.3 0 0.1-0.1 0.2-0.1 0-0.1 0c-0.3 0-0.5-0.1-0.7-0.3-0.2-0.2-0.3-0.4-0.2-0.7 0-0.1 0.2-0.2 0.4-0.3 0.1 0 0.3 0.1 0.4 0.2z"/>
					<path id="&lt;Path&gt;" class="s1" d="m191.6 70.8c0.1 0 0.3-0.1 0.3-0.3 0-0.1-0.1-0.3-0.3-0.3 0-0.1-0.1-0.1-0.2 0q0 0 0 0.1 0.1 0.3 0.1 0.6z"/>
					<path id="&lt;Path&gt;" class="s1" d="m198.9 83.5c0 0.2 0.4 0.2 0.6 0.1 0.1 0 0.3-0.1 0.4-0.2 0-0.2-0.2-0.4-0.3-0.5q-0.2-0.2-0.5-0.3c0-0.1-0.1-0.1-0.2-0.1q-0.1 0-0.1 0.1-0.3 0.5-0.3 1z"/>
					<path id="&lt;Path&gt;" class="s1" d="m190.9 83.5c0.2 2.2 2.7 1.7 3-0.1 0.3-1.9-3.2-1.8-3 0.1z"/>
					<path id="&lt;Path&gt;" class="s1" d="m183.4 73.8c-0.3-0.1-0.5-0.5-0.3-0.8 0.2 0.1 0.5 0.2 0.6 0.4 0.2 0.2 0.2 0.5 0 0.6q-0.2 0-0.5-0.1z"/>
					<path id="&lt;Path&gt;" class="s1" d="m225.5 105.1c0.1 0.1 0.2-0.1 0.1-0.2-0.1-0.1-0.3-0.2-0.5-0.4q-0.5-0.3-1-0.7c-0.2-0.1-0.5-0.3-0.6-0.3-0.1 0-0.1 0.2 0 0.3 0.1 0.2 0.3 0.3 0.4 0.5 0.6 0.4 1.3 0.9 1.7 0.9q-0.1-0.2-0.2-0.3z"/>
					<path id="&lt;Path&gt;" class="s1" d="m182.2 65.6c0 0.1-0.1 0.1-0.2 0.1q-0.1 0-0.1-0.1-0.1-0.1-0.1-0.2c0-0.1 0.1-0.2 0.2-0.3 0.1 0 0.3 0.1 0.3 0.1q0.1 0.1 0.1 0.2c0 0.1-0.1 0.1-0.1 0.1z"/>
					<path id="&lt;Path&gt;" class="s1" d="m187.9 68.1q0.1-0.1 0.1-0.2c0 0-0.1-0.1-0.2-0.1-0.1-0.1-0.2 0.1-0.2 0.1q0.1 0.1 0.1 0.1 0.2 0.1 0.3 0.2z"/>
					<path id="&lt;Path&gt;" class="s1" d="m198.4 62.5c0.1-0.1 0.3-0.2 0.4-0.3 0.1-0.1 0.2-0.3 0.1-0.4q-0.1-0.1-0.2-0.2c-0.2-0.1-0.5 0-0.6 0.2-0.1 0.3 0.1 0.6 0.3 0.6z"/>
					<path id="&lt;Path&gt;" class="s1" d="m201.3 76c-0.1 0.2-0.5 0.2-0.6 0q0.1-0.2 0.2-0.4 0.2 0.1 0.3 0.3z"/>
					<path id="&lt;Path&gt;" class="s1" d="m193.3 93.6c0.1 0.1 0.1 0.2 0 0.2q0 0.1-0.1 0.1-0.1 0.1-0.2 0c-0.1 0-0.2-0.1-0.2-0.2 0-0.1 0.1-0.2 0.2-0.3q0.1 0 0.1 0c0.1 0 0.1 0.1 0.1 0.1z"/>
					<path id="&lt;Path&gt;" class="s1" d="m205.8 101.3c-0.1 0-0.2-0.1-0.2-0.2q0.1-0.1 0.2-0.2 0.1 0 0.1 0c0.2-0.1 0.3 0.1 0.3 0.2 0 0.1-0.1 0.2-0.3 0.2-0.1 0-0.2-0.1-0.2-0.2z"/>
					<path id="&lt;Path&gt;" class="s1" d="m204.6 106.2q0-0.1 0-0.2c0 0-0.2 0-0.2 0-0.1 0.1-0.1 0.3 0 0.3 0.1 0.1 0.2 0 0.2-0.1z"/>
					<path id="&lt;Path&gt;" class="s1" d="m205.8 102.8q0.1-0.1 0.1-0.2 0.1-0.2 0-0.3-0.1-0.3-0.2-0.6-0.3 0.5-0.6 0.9 0 0.1 0 0.1c-0.1 0.1-0.2 0-0.3 0-0.2 0-0.3 0.2-0.3 0.3-0.1 1.1 0.9 0 1.3-0.2z"/>
					<path id="&lt;Path&gt;" class="s1" d="m193.2 105c-0.1 0.3-0.2 0.5-0.5 0.5-0.2 0-0.3-0.3-0.3-0.6 0-0.1 0-0.2 0.1-0.3 0.2-0.1 0.4 0.4 0.7 0.3 0 0 0 0.1-0.1 0.1z"/>
					<path id="&lt;Path&gt;" class="s1" d="m199.2 99c0.1 0.2 0.4 0.1 0.5 0q-0.1-0.2-0.2-0.2c-0.1-0.1-0.2-0.1-0.3 0-0.1 0.1 0 0.3 0.1 0.3z"/>
					<path id="&lt;Path&gt;" class="s1" d="m193.8 103.7c0.3 0.1 0.5 0.1 0.7-0.1q-0.1-0.2-0.3-0.4c-0.2-0.1-0.5 0-0.6 0.2-0.2 0.2 0 0.5 0.2 0.4z"/>
					<path id="&lt;Path&gt;" class="s1" d="m204.9 94.2c-0.1 0-0.1 0.2-0.1 0.3 0.1 0.1 0.2 0.2 0.3 0.3q0.2 0.1 0.1 0.3 0 0.2-0.1 0.2 0 0-0.1 0c-0.3 0-0.5-0.1-0.7-0.3-0.2-0.1-0.3-0.4-0.2-0.6 0.1-0.2 0.2-0.3 0.4-0.3 0.2-0.1 0.3 0 0.4 0.1z"/>
					<path id="&lt;Path&gt;" class="s1" d="m198.5 108.5c0 0.2 0.4 0.2 0.6 0.2 0.2-0.1 0.3-0.1 0.4-0.3 0.1-0.2-0.1-0.4-0.3-0.5q-0.2-0.1-0.4-0.3c-0.1-0.1-0.2-0.1-0.2-0.1q-0.1 0.1-0.2 0.2-0.3 0.4-0.3 1z"/>
					<path id="&lt;Path&gt;" class="s1" d="m190.5 108.5c0.2 2.2 2.7 1.8 3-0.1 0.3-1.9-3.1-1.7-3 0.1z"/>
					<path id="&lt;Path&gt;" class="s1" d="m200.9 101c-0.1 0.2-0.4 0.2-0.5 0q0-0.2 0.1-0.4 0.2 0.1 0.3 0.3z"/>
					<path id="&lt;Path&gt;" class="s1" d="m256.7 123.1c0 0.1 0 0.2 0 0.2q-0.1 0.1-0.2 0.1-0.1 0.1-0.2 0.1c-0.1-0.1-0.2-0.2-0.2-0.3 0-0.1 0.1-0.2 0.2-0.3q0.1 0 0.2 0c0 0 0.1 0.1 0.1 0.1z"/>
					<path id="&lt;Path&gt;" class="s1" d="m269.1 130.8c-0.1 0-0.1-0.1-0.1-0.2q0-0.1 0.1-0.2 0.1 0 0.2 0c0.1 0 0.2 0.1 0.2 0.2 0 0.1-0.1 0.2-0.2 0.2-0.1 0-0.3-0.1-0.3-0.2z"/>
					<path id="&lt;Path&gt;" class="s1" d="m268 135.7q0-0.1 0-0.1c-0.1-0.1-0.2-0.1-0.3 0-0.1 0-0.1 0.2 0 0.2 0.1 0.1 0.2 0.1 0.3 0z"/>
					<path id="&lt;Path&gt;" class="s1" d="m269.1 132.3q0.1-0.1 0.2-0.2 0-0.1-0.1-0.3-0.1-0.3-0.1-0.6-0.3 0.5-0.6 1 0 0-0.1 0c-0.1 0.1-0.2 0-0.3 0-0.1 0-0.2 0.2-0.2 0.4-0.2 1 0.8 0 1.2-0.3z"/>
					<path id="&lt;Path&gt;" class="s1" d="m256.6 134.5c-0.1 0.3-0.3 0.6-0.5 0.5-0.3 0-0.3-0.3-0.3-0.6 0-0.1 0-0.2 0.1-0.2 0.2-0.2 0.4 0.3 0.6 0.2 0.1 0 0 0.2-0.1 0.1z"/>
					<path id="&lt;Path&gt;" class="s1" d="m262.6 128.5c0.1 0.2 0.4 0.2 0.4 0q0-0.2-0.2-0.2c-0.1-0.1-0.2 0-0.3 0.1 0 0 0 0.2 0.1 0.2z"/>
					<path id="&lt;Path&gt;" class="s1" d="m257.2 133.2c0.2 0.1 0.5 0.1 0.6-0.1q-0.1-0.2-0.3-0.3c-0.2-0.1-0.5-0.1-0.6 0.1-0.1 0.2 0.1 0.5 0.3 0.4z"/>
					<path id="&lt;Path&gt;" class="s1" d="m268.2 123.7c-0.1 0.1-0.1 0.2 0 0.3 0.1 0.1 0.2 0.2 0.3 0.3q0.1 0.1 0.1 0.4 0 0.1-0.1 0.1-0.1 0.1-0.2 0c-0.2 0-0.5-0.1-0.6-0.2-0.2-0.2-0.3-0.5-0.3-0.7 0.1-0.2 0.3-0.3 0.4-0.3 0.2-0.1 0.4 0 0.5 0.2z"/>
					<path id="&lt;Path&gt;" class="s1" d="m261.8 138c0.1 0.3 0.4 0.3 0.7 0.2 0.1-0.1 0.3-0.1 0.3-0.3 0.1-0.2-0.1-0.3-0.3-0.5q-0.2-0.1-0.4-0.3c0 0-0.1-0.1-0.2-0.1q-0.1 0.1-0.1 0.2-0.3 0.4-0.4 1z"/>
					<path id="&lt;Path&gt;" class="s1" d="m253.9 138.1c0.2 2.1 2.7 1.7 3-0.2 0.3-1.9-3.2-1.7-3 0.2z"/>
					<path id="&lt;Path&gt;" class="s1" d="m264.3 130.5c-0.1 0.2-0.5 0.2-0.6 0q0.1-0.2 0.2-0.4 0.2 0.1 0.3 0.3z"/>
					<path id="&lt;Path&gt;" class="s1" d="m179.6 76.3q0.1-0.2 0.2-0.3-0.1-0.1-0.2-0.1c-0.1 0.1-0.2 0.3-0.1 0.4z"/>
					<path id="&lt;Path&gt;" class="s1" d="m242 119.3c0.4 0.1 0.7 0.3 0.9 0.7q0.1 0 0 0.1c0 0.1-0.1 0.1-0.1 0.2-0.4 0.1-0.9 0.3-1.2 0-0.3-0.3-0.1-0.9 0.2-0.9q0.2 0.1 0.3 0.2z"/>
				</g>
			</g>
		</g>
	</g>
</svg>