<svg version="1.2" xmlns="http://www.w3.org/2000/svg" viewBox="0 0 800 400" width="800" height="400">
	<title>1881(2)</title>
	<defs>
		<clipPath clipPathUnits="userSpaceOnUse" id="cp1">
			<path d="m800 400h-800v-400h800z"/>
		</clipPath>
	</defs>
	<style>
		.s0 { fill: #439fc2 } 
	</style>
	<g id="_Artboards_">
	</g>
	<g id="space">
		<g id="&lt;Clip Group&gt;" clip-path="url(#cp1)">
			<g id="-e-stars2">
				<g id="&lt;Group&gt;" style="opacity: .81;mix-blend-mode: screen">
					<path id="&lt;Path&gt;" class="s0" d="m457.5 129.1c0 0.3 0.2 0.5 0.5 0.5 0.2 0 0.4-0.2 0.4-0.5 0-0.3-0.2-0.5-0.4-0.5-0.3 0-0.5 0.2-0.5 0.5z"/>
					<path id="&lt;Path&gt;" class="s0" d="m551.2 89.5c0 0.3 0.2 0.5 0.5 0.5 0.2 0 0.4-0.2 0.4-0.5 0-0.2-0.2-0.4-0.4-0.4-0.3 0-0.5 0.2-0.5 0.4z"/>
					<path id="&lt;Path&gt;" class="s0" d="m603.6 100c0 0.3 0.2 0.5 0.5 0.5 0.2 0 0.4-0.2 0.4-0.5 0-0.2-0.2-0.4-0.4-0.4-0.3 0-0.5 0.2-0.5 0.4z"/>
					<path id="&lt;Path&gt;" class="s0" d="m372.9 209.2c0 0.3 0.2 0.5 0.4 0.5 0.3 0 0.5-0.2 0.5-0.5 0-0.2-0.2-0.4-0.5-0.4-0.2 0-0.4 0.2-0.4 0.4z"/>
					<path id="&lt;Path&gt;" class="s0" d="m269.1 235.5c0 0.3 0.2 0.5 0.5 0.5 0.2 0 0.5-0.2 0.5-0.5 0-0.2-0.3-0.4-0.5-0.4-0.3 0-0.5 0.2-0.5 0.4z"/>
					<path id="&lt;Path&gt;" class="s0" d="m415.3 236c0 0.3 0.2 0.5 0.4 0.5 0.3 0 0.5-0.2 0.5-0.5 0-0.3-0.2-0.5-0.5-0.5-0.2 0-0.4 0.2-0.4 0.5z"/>
					<path id="&lt;Path&gt;" class="s0" d="m216.2 192.4c0 0.2 0.2 0.4 0.5 0.4 0.3 0 0.5-0.2 0.5-0.4 0-0.3-0.2-0.5-0.5-0.5-0.3 0-0.5 0.2-0.5 0.5z"/>
					<path id="&lt;Path&gt;" class="s0" d="m227.6 257.4c0 0.3 0.2 0.5 0.5 0.5 0.2 0 0.4-0.2 0.4-0.5 0-0.2-0.2-0.4-0.4-0.4-0.3 0-0.5 0.2-0.5 0.4z"/>
					<path id="&lt;Path&gt;" class="s0" d="m250 177.5c0 0.2 0.2 0.4 0.5 0.4 0.2 0 0.4-0.2 0.4-0.4 0-0.3-0.2-0.5-0.4-0.5-0.3 0-0.5 0.2-0.5 0.5z"/>
					<path id="&lt;Path&gt;" class="s0" d="m580.1 309.2c0 0.2 0.2 0.4 0.4 0.4 0.3 0 0.5-0.2 0.5-0.4 0-0.3-0.2-0.5-0.5-0.5-0.2 0-0.4 0.2-0.4 0.5z"/>
					<path id="&lt;Path&gt;" class="s0" d="m534.4 267.9c0 0.2 0.2 0.4 0.5 0.4 0.2 0 0.4-0.2 0.4-0.4 0-0.3-0.2-0.5-0.4-0.5-0.3 0-0.5 0.2-0.5 0.5z"/>
					<path id="&lt;Path&gt;" class="s0" d="m538.6 331.1c0 0.2 0.2 0.4 0.4 0.4 0.3 0 0.5-0.2 0.5-0.4 0-0.3-0.2-0.5-0.5-0.5-0.2 0-0.4 0.2-0.4 0.5z"/>
					<path id="&lt;Path&gt;" class="s0" d="m561 251.1c0 0.2 0.2 0.4 0.4 0.4 0.3 0 0.5-0.2 0.5-0.4 0-0.3-0.2-0.5-0.5-0.5-0.2 0-0.4 0.2-0.4 0.5z"/>
					<path id="&lt;Path&gt;" class="s0" d="m565.1 180.5c0 0.3 0.2 0.5 0.5 0.5 0.2 0 0.4-0.2 0.4-0.5 0-0.2-0.2-0.4-0.4-0.4-0.3 0-0.5 0.2-0.5 0.4z"/>
					<path id="&lt;Path&gt;" class="s0" d="m330.6 210.1c0 0.3 0.2 0.5 0.5 0.5 0.2 0 0.4-0.2 0.4-0.5 0-0.2-0.2-0.4-0.4-0.4-0.3 0-0.5 0.2-0.5 0.4z"/>
					<path id="&lt;Path&gt;" class="s0" d="m285.4 234.5c0 0.2 0.2 0.4 0.5 0.4 0.2 0 0.4-0.2 0.4-0.4 0-0.3-0.2-0.5-0.4-0.5-0.3 0-0.5 0.2-0.5 0.5z"/>
					<path id="&lt;Path&gt;" class="s0" d="m159.1 200.2c0 0.2 0.2 0.4 0.4 0.4 0.3 0 0.5-0.2 0.5-0.4 0-0.3-0.2-0.5-0.5-0.5-0.2 0-0.4 0.2-0.4 0.5z"/>
					<path id="&lt;Path&gt;" class="s0" d="m117.6 222.1c0 0.2 0.2 0.4 0.4 0.4 0.3 0 0.5-0.2 0.5-0.4 0-0.3-0.2-0.5-0.5-0.5-0.2 0-0.4 0.2-0.4 0.5z"/>
					<path id="&lt;Path&gt;" class="s0" d="m175.3 199.1c0 0.3 0.2 0.5 0.5 0.5 0.2 0 0.4-0.2 0.4-0.5 0-0.3-0.2-0.5-0.4-0.5-0.3 0-0.5 0.2-0.5 0.5z"/>
					<path id="&lt;Path&gt;" class="s0" d="m316 93.2c0 0.4 0.4 0.8 0.8 0.8 0.4 0 0.7-0.4 0.7-0.8 0-0.4-0.3-0.7-0.7-0.7-0.4 0-0.8 0.3-0.8 0.7z"/>
					<path id="&lt;Path&gt;" class="s0" d="m402.9 75c0 0.4 0.3 0.8 0.7 0.8 0.4 0 0.8-0.4 0.8-0.8 0-0.4-0.4-0.7-0.8-0.7-0.4 0-0.7 0.3-0.7 0.7z"/>
					<path id="&lt;Path&gt;" class="s0" d="m358.4 139.9c0 0.4 0.4 0.7 0.8 0.7 0.4 0 0.7-0.3 0.7-0.7 0-0.4-0.3-0.8-0.7-0.8-0.4 0-0.8 0.4-0.8 0.8z"/>
					<path id="&lt;Path&gt;" class="s0" d="m174.2 163.6c0 0.4 0.3 0.8 0.8 0.8 0.4 0 0.7-0.4 0.7-0.8 0-0.4-0.3-0.7-0.7-0.7-0.5 0-0.8 0.3-0.8 0.7z"/>
					<path id="&lt;Path&gt;" class="s0" d="m466.4 145.2c0 0.4 0.3 0.8 0.7 0.8 0.4 0 0.8-0.4 0.8-0.8 0-0.4-0.4-0.7-0.8-0.7-0.4 0-0.7 0.3-0.7 0.7z"/>
					<path id="&lt;Path&gt;" class="s0" d="m146 130.6c0 0.3 0.2 0.5 0.4 0.5 0.3 0 0.5-0.2 0.5-0.5 0-0.3-0.2-0.5-0.5-0.5-0.2 0-0.4 0.2-0.4 0.5z"/>
					<path id="&lt;Path&gt;" class="s0" d="m4.5 94.7c0 0.4 0.4 0.8 0.8 0.8 0.4 0 0.7-0.4 0.7-0.8 0-0.4-0.3-0.7-0.7-0.7-0.4 0-0.8 0.3-0.8 0.7z"/>
					<path id="&lt;Path&gt;" class="s0" d="m91.4 76.5c0 0.4 0.3 0.8 0.7 0.8 0.4 0 0.8-0.4 0.8-0.8 0-0.4-0.4-0.7-0.8-0.7-0.4 0-0.7 0.3-0.7 0.7z"/>
					<path id="&lt;Path&gt;" class="s0" d="m46.9 141.4c0 0.4 0.3 0.7 0.8 0.7 0.4 0 0.7-0.3 0.7-0.7 0-0.4-0.3-0.8-0.7-0.8-0.5 0-0.8 0.4-0.8 0.8z"/>
					<path id="&lt;Path&gt;" class="s0" d="m154.9 146.7c0 0.4 0.3 0.8 0.7 0.8 0.4 0 0.8-0.4 0.8-0.8 0-0.4-0.4-0.7-0.8-0.7-0.4 0-0.7 0.3-0.7 0.7z"/>
				</g>
				<g id="&lt;Group&gt;">
					<path id="&lt;Path&gt;" class="s0" d="m248.1 76.4c0 0.3-0.2 0.5-0.5 0.5-0.2 0-0.4-0.2-0.4-0.5 0-0.2 0.2-0.4 0.4-0.4 0.3 0 0.5 0.2 0.5 0.4z"/>
					<path id="&lt;Path&gt;" class="s0" d="m154.3 36.8c0 0.3-0.2 0.5-0.4 0.5-0.3 0-0.5-0.2-0.5-0.5 0-0.2 0.2-0.4 0.5-0.4 0.2 0 0.4 0.2 0.4 0.4z"/>
					<path id="&lt;Path&gt;" class="s0" d="m102 47.3c0 0.3-0.2 0.5-0.5 0.5-0.2 0-0.4-0.2-0.4-0.5 0-0.2 0.2-0.4 0.4-0.4 0.3 0 0.5 0.2 0.5 0.4z"/>
					<path id="&lt;Path&gt;" class="s0" d="m332.7 156.5c0 0.3-0.2 0.5-0.4 0.5-0.3 0-0.5-0.2-0.5-0.5 0-0.2 0.2-0.4 0.5-0.4 0.2 0 0.4 0.2 0.4 0.4z"/>
					<path id="&lt;Path&gt;" class="s0" d="m436.4 182.9c0 0.2-0.2 0.4-0.4 0.4-0.3 0-0.5-0.2-0.5-0.4 0-0.3 0.2-0.5 0.5-0.5 0.2 0 0.4 0.2 0.4 0.5z"/>
					<path id="&lt;Path&gt;" class="s0" d="m290.3 183.3c0 0.3-0.2 0.5-0.5 0.5-0.2 0-0.4-0.2-0.4-0.5 0-0.2 0.2-0.4 0.4-0.4 0.3 0 0.5 0.2 0.5 0.4z"/>
					<path id="&lt;Path&gt;" class="s0" d="m489.3 139.7c0 0.2-0.2 0.4-0.4 0.4-0.3 0-0.5-0.2-0.5-0.4 0-0.3 0.2-0.5 0.5-0.5 0.2 0 0.4 0.2 0.4 0.5z"/>
					<path id="&lt;Path&gt;" class="s0" d="m477.9 204.8c0 0.2-0.2 0.4-0.4 0.4-0.3 0-0.5-0.2-0.5-0.4 0-0.3 0.2-0.5 0.5-0.5 0.2 0 0.4 0.2 0.4 0.5z"/>
					<path id="&lt;Path&gt;" class="s0" d="m455.5 124.8c0 0.2-0.2 0.4-0.4 0.4-0.3 0-0.5-0.2-0.5-0.4 0-0.3 0.2-0.5 0.5-0.5 0.2 0 0.4 0.2 0.4 0.5z"/>
					<path id="&lt;Path&gt;" class="s0" d="m125.5 256.5c0 0.2-0.2 0.4-0.5 0.4-0.2 0-0.4-0.2-0.4-0.4 0-0.3 0.2-0.5 0.4-0.5 0.3 0 0.5 0.2 0.5 0.5z"/>
					<path id="&lt;Path&gt;" class="s0" d="m171.2 215.2c0 0.3-0.2 0.5-0.5 0.5-0.3 0-0.5-0.2-0.5-0.5 0-0.3 0.2-0.5 0.5-0.5 0.3 0 0.5 0.2 0.5 0.5z"/>
					<path id="&lt;Path&gt;" class="s0" d="m167 278.4c0 0.2-0.2 0.4-0.5 0.4-0.2 0-0.4-0.2-0.4-0.4 0-0.3 0.2-0.5 0.4-0.5 0.3 0 0.5 0.2 0.5 0.5z"/>
					<path id="&lt;Path&gt;" class="s0" d="m144.6 198.4c0 0.2-0.2 0.4-0.5 0.4-0.2 0-0.4-0.2-0.4-0.4 0-0.3 0.2-0.5 0.4-0.5 0.3 0 0.5 0.2 0.5 0.5z"/>
					<path id="&lt;Path&gt;" class="s0" d="m140.4 127.8c0 0.3-0.2 0.5-0.4 0.5-0.3 0-0.5-0.2-0.5-0.5 0-0.2 0.2-0.4 0.5-0.4 0.2 0 0.4 0.2 0.4 0.4z"/>
					<path id="&lt;Path&gt;" class="s0" d="m375 157.4c0 0.3-0.3 0.5-0.5 0.5-0.3 0-0.5-0.2-0.5-0.5 0-0.2 0.2-0.4 0.5-0.4 0.2 0 0.5 0.2 0.5 0.4z"/>
					<path id="&lt;Path&gt;" class="s0" d="m420.2 181.8c0 0.2-0.2 0.4-0.5 0.4-0.2 0-0.4-0.2-0.4-0.4 0-0.3 0.2-0.5 0.4-0.5 0.3 0 0.5 0.2 0.5 0.5z"/>
					<path id="&lt;Path&gt;" class="s0" d="m546.5 147.5c0 0.3-0.2 0.5-0.4 0.5-0.3 0-0.5-0.2-0.5-0.5 0-0.3 0.2-0.5 0.5-0.5 0.2 0 0.4 0.2 0.4 0.5z"/>
					<path id="&lt;Path&gt;" class="s0" d="m588 169.4c0 0.2-0.2 0.5-0.4 0.5-0.3 0-0.5-0.3-0.5-0.5 0-0.3 0.2-0.5 0.5-0.5 0.2 0 0.4 0.2 0.4 0.5z"/>
					<path id="&lt;Path&gt;" class="s0" d="m530.2 146.4c0 0.3-0.2 0.5-0.4 0.5-0.3 0-0.5-0.2-0.5-0.5 0-0.2 0.2-0.4 0.5-0.4 0.2 0 0.4 0.2 0.4 0.4z"/>
					<path id="&lt;Path&gt;" class="s0" d="m389.5 40.5c0 0.4-0.3 0.8-0.7 0.8-0.4 0-0.8-0.4-0.8-0.8 0-0.4 0.4-0.7 0.8-0.7 0.4 0 0.7 0.3 0.7 0.7z"/>
					<path id="&lt;Path&gt;" class="s0" d="m302.7 22.3c0 0.4-0.3 0.8-0.7 0.8-0.5 0-0.8-0.4-0.8-0.8 0-0.4 0.3-0.7 0.8-0.7 0.4 0 0.7 0.3 0.7 0.7z"/>
					<path id="&lt;Path&gt;" class="s0" d="m347.2 87.2c0 0.4-0.4 0.7-0.8 0.7-0.4 0-0.7-0.3-0.7-0.7 0-0.4 0.3-0.8 0.7-0.8 0.4 0 0.8 0.4 0.8 0.8z"/>
					<path id="&lt;Path&gt;" class="s0" d="m158.7 160.4c0 0.3-0.2 0.5-0.5 0.5-0.2 0-0.4-0.2-0.4-0.5 0-0.2 0.2-0.4 0.4-0.4 0.3 0 0.5 0.2 0.5 0.4z"/>
					<path id="&lt;Path&gt;" class="s0" d="m211.6 117.2c0 0.3-0.2 0.5-0.5 0.5-0.2 0-0.4-0.2-0.4-0.5 0-0.2 0.2-0.4 0.4-0.4 0.3 0 0.5 0.2 0.5 0.4z"/>
					<path id="&lt;Path&gt;" class="s0" d="m200.2 182.3c0 0.3-0.2 0.5-0.5 0.5-0.2 0-0.4-0.2-0.4-0.5 0-0.2 0.2-0.4 0.4-0.4 0.3 0 0.5 0.2 0.5 0.4z"/>
					<path id="&lt;Path&gt;" class="s0" d="m177.8 102.3c0 0.3-0.2 0.5-0.5 0.5-0.2 0-0.4-0.2-0.4-0.5 0-0.2 0.2-0.4 0.4-0.4 0.3 0 0.5 0.2 0.5 0.4z"/>
					<path id="&lt;Path&gt;" class="s0" d="m97.2 135c0 0.3-0.2 0.5-0.5 0.5-0.2 0-0.4-0.2-0.4-0.5 0-0.2 0.2-0.5 0.4-0.5 0.3 0 0.5 0.3 0.5 0.5z"/>
					<path id="&lt;Path&gt;" class="s0" d="m142.4 159.3c0 0.3-0.2 0.5-0.4 0.5-0.3 0-0.5-0.2-0.5-0.5 0-0.2 0.2-0.4 0.5-0.4 0.2 0 0.4 0.2 0.4 0.4z"/>
					<path id="&lt;Path&gt;" class="s0" d="m111.8 18.1c0 0.4-0.3 0.7-0.8 0.7-0.4 0-0.7-0.3-0.7-0.7 0-0.4 0.3-0.8 0.7-0.8 0.5 0 0.8 0.4 0.8 0.8z"/>
					<path id="&lt;Path&gt;" class="s0" d="m69.4 64.7c0 0.5-0.3 0.8-0.7 0.8-0.4 0-0.8-0.3-0.8-0.8 0-0.4 0.4-0.7 0.8-0.7 0.4 0 0.7 0.3 0.7 0.7z"/>
					<path id="&lt;Path&gt;" class="s0" d="m531.4 110.9c0 0.4-0.4 0.8-0.8 0.8-0.4 0-0.7-0.4-0.7-0.8 0-0.4 0.3-0.7 0.7-0.7 0.4 0 0.8 0.3 0.8 0.7z"/>
					<path id="&lt;Path&gt;" class="s0" d="m239.2 92.5c0 0.5-0.3 0.8-0.7 0.8-0.5 0-0.8-0.3-0.8-0.8 0-0.4 0.3-0.7 0.8-0.7 0.4 0 0.7 0.3 0.7 0.7z"/>
					<path id="&lt;Path&gt;" class="s0" d="m190 63c0 0.3-0.2 0.5-0.5 0.5-0.2 0-0.4-0.2-0.4-0.5 0-0.3 0.2-0.5 0.4-0.5 0.3 0 0.5 0.2 0.5 0.5z"/>
					<path id="&lt;Path&gt;" class="s0" d="m96.3 23.4c0 0.3-0.2 0.5-0.5 0.5-0.2 0-0.5-0.2-0.5-0.5 0-0.2 0.3-0.4 0.5-0.4 0.3 0 0.5 0.2 0.5 0.4z"/>
					<path id="&lt;Path&gt;" class="s0" d="m43.9 33.9c0 0.3-0.2 0.5-0.5 0.5-0.2 0-0.4-0.2-0.4-0.5 0-0.2 0.2-0.4 0.4-0.4 0.3 0 0.5 0.2 0.5 0.4z"/>
					<path id="&lt;Path&gt;" class="s0" d="m232.2 169.9c0 0.3-0.2 0.5-0.4 0.5-0.3 0-0.5-0.2-0.5-0.5 0-0.3 0.2-0.5 0.5-0.5 0.2 0 0.4 0.2 0.4 0.5z"/>
					<path id="&lt;Path&gt;" class="s0" d="m113.1 201.8c0 0.2-0.2 0.5-0.5 0.5-0.2 0-0.4-0.3-0.4-0.5 0-0.3 0.2-0.5 0.4-0.5 0.3 0 0.5 0.2 0.5 0.5z"/>
					<path id="&lt;Path&gt;" class="s0" d="m86.5 185c0 0.2-0.2 0.4-0.5 0.4-0.2 0-0.4-0.2-0.4-0.4 0-0.3 0.2-0.5 0.4-0.5 0.3 0 0.5 0.2 0.5 0.5z"/>
					<path id="&lt;Path&gt;" class="s0" d="m82.4 114.4c0 0.3-0.2 0.5-0.5 0.5-0.2 0-0.4-0.2-0.4-0.5 0-0.2 0.2-0.4 0.4-0.4 0.3 0 0.5 0.2 0.5 0.4z"/>
					<path id="&lt;Path&gt;" class="s0" d="m244.6 8.9c0 0.4-0.3 0.8-0.7 0.8-0.4 0-0.8-0.4-0.8-0.8 0-0.4 0.4-0.7 0.8-0.7 0.4 0 0.7 0.3 0.7 0.7z"/>
					<path id="&lt;Path&gt;" class="s0" d="m181.1 79.1c0 0.4-0.3 0.8-0.7 0.8-0.4 0-0.8-0.4-0.8-0.8 0-0.4 0.4-0.7 0.8-0.7 0.4 0 0.7 0.3 0.7 0.7z"/>
					<path id="&lt;Path&gt;" class="s0" d="m559.6 77.9c0 0.3-0.2 0.5-0.5 0.5-0.2 0-0.4-0.2-0.4-0.5 0-0.2 0.2-0.4 0.4-0.4 0.3 0 0.5 0.2 0.5 0.4z"/>
					<path id="&lt;Path&gt;" class="s0" d="m701.1 42c0 0.4-0.4 0.8-0.8 0.8-0.4 0-0.7-0.4-0.7-0.8 0-0.4 0.3-0.7 0.7-0.7 0.4 0 0.8 0.3 0.8 0.7z"/>
					<path id="&lt;Path&gt;" class="s0" d="m614.2 23.8c0 0.4-0.3 0.8-0.7 0.8-0.4 0-0.8-0.4-0.8-0.8 0-0.4 0.4-0.7 0.8-0.7 0.4 0 0.7 0.3 0.7 0.7z"/>
					<path id="&lt;Path&gt;" class="s0" d="m658.7 88.7c0 0.4-0.4 0.7-0.8 0.7-0.4 0-0.7-0.3-0.7-0.7 0-0.4 0.3-0.8 0.7-0.8 0.4 0 0.8 0.4 0.8 0.8z"/>
					<path id="&lt;Path&gt;" class="s0" d="m550.7 94c0 0.5-0.3 0.8-0.7 0.8-0.5 0-0.8-0.3-0.8-0.8 0-0.4 0.3-0.7 0.8-0.7 0.4 0 0.7 0.3 0.7 0.7z"/>
					<path id="&lt;Path&gt;" class="s0" d="m618 275c0 0.3-0.2 0.5-0.5 0.5-0.2 0-0.4-0.2-0.4-0.5 0-0.2 0.2-0.4 0.4-0.4 0.3 0 0.5 0.2 0.5 0.4z"/>
					<path id="&lt;Path&gt;" class="s0" d="m659.5 296.9c0 0.3-0.2 0.5-0.5 0.5-0.2 0-0.4-0.2-0.4-0.5 0-0.2 0.2-0.4 0.4-0.4 0.3 0 0.5 0.2 0.5 0.4z"/>
					<path id="&lt;Path&gt;" class="s0" d="m601.7 273.9c0 0.3-0.2 0.5-0.4 0.5-0.3 0-0.5-0.2-0.5-0.5 0-0.2 0.2-0.4 0.5-0.4 0.2 0 0.4 0.2 0.4 0.4z"/>
					<path id="&lt;Path&gt;" class="s0" d="m602.8 238.4c0 0.4-0.3 0.8-0.7 0.8-0.4 0-0.8-0.4-0.8-0.8 0-0.4 0.4-0.7 0.8-0.7 0.4 0 0.7 0.3 0.7 0.7z"/>
					<path id="&lt;Path&gt;" class="s0" d="m631.1 205.4c0 0.3-0.2 0.5-0.5 0.5-0.3 0-0.5-0.2-0.5-0.5 0-0.2 0.2-0.4 0.5-0.4 0.3 0 0.5 0.2 0.5 0.4z"/>
					<path id="&lt;Path&gt;" class="s0" d="m685.7 151.3c0 0.4-0.3 0.8-0.8 0.8-0.4 0-0.7-0.4-0.7-0.8 0-0.4 0.3-0.7 0.7-0.7 0.5 0 0.8 0.3 0.8 0.7z"/>
					<path id="&lt;Path&gt;" class="s0" d="m730.1 216.2c0 0.4-0.3 0.7-0.7 0.7-0.4 0-0.8-0.3-0.8-0.7 0-0.4 0.4-0.7 0.8-0.7 0.4 0 0.7 0.3 0.7 0.7z"/>
					<path id="&lt;Path&gt;" class="s0" d="m622.2 221.6c0 0.4-0.4 0.7-0.8 0.7-0.4 0-0.7-0.3-0.7-0.7 0-0.5 0.3-0.8 0.7-0.8 0.4 0 0.8 0.3 0.8 0.8z"/>
					<path id="&lt;Path&gt;" class="s0" d="m232.7 253.9c0 0.2-0.2 0.4-0.5 0.4-0.2 0-0.4-0.2-0.4-0.4 0-0.3 0.2-0.5 0.4-0.5 0.3 0 0.5 0.2 0.5 0.5z"/>
					<path id="&lt;Path&gt;" class="s0" d="m336.4 280.2c0 0.2-0.2 0.4-0.5 0.4-0.2 0-0.4-0.2-0.4-0.4 0-0.3 0.2-0.5 0.4-0.5 0.3 0 0.5 0.2 0.5 0.5z"/>
					<path id="&lt;Path&gt;" class="s0" d="m190.3 280.6c0 0.3-0.2 0.5-0.5 0.5-0.2 0-0.5-0.2-0.5-0.5 0-0.2 0.3-0.4 0.5-0.4 0.3 0 0.5 0.2 0.5 0.4z"/>
					<path id="&lt;Path&gt;" class="s0" d="m389.3 237c0 0.2-0.2 0.5-0.5 0.5-0.2 0-0.4-0.3-0.4-0.5 0-0.3 0.2-0.5 0.4-0.5 0.3 0 0.5 0.2 0.5 0.5z"/>
					<path id="&lt;Path&gt;" class="s0" d="m377.9 302.1c0 0.2-0.2 0.4-0.5 0.4-0.2 0-0.4-0.2-0.4-0.4 0-0.3 0.2-0.5 0.4-0.5 0.3 0 0.5 0.2 0.5 0.5z"/>
					<path id="&lt;Path&gt;" class="s0" d="m355.5 222.1c0 0.2-0.2 0.4-0.5 0.4-0.2 0-0.4-0.2-0.4-0.4 0-0.3 0.2-0.5 0.4-0.5 0.3 0 0.5 0.2 0.5 0.5z"/>
					<path id="&lt;Path&gt;" class="s0" d="m274.9 254.8c0 0.2-0.2 0.4-0.4 0.4-0.3 0-0.5-0.2-0.5-0.4 0-0.3 0.2-0.5 0.5-0.5 0.2 0 0.4 0.2 0.4 0.5z"/>
					<path id="&lt;Path&gt;" class="s0" d="m320.1 279.1c0 0.2-0.2 0.4-0.4 0.4-0.3 0-0.5-0.2-0.5-0.4 0-0.3 0.2-0.5 0.5-0.5 0.2 0 0.4 0.2 0.4 0.5z"/>
					<path id="&lt;Path&gt;" class="s0" d="m446.5 244.8c0 0.3-0.2 0.5-0.5 0.5-0.2 0-0.4-0.2-0.4-0.5 0-0.2 0.2-0.4 0.4-0.4 0.3 0 0.5 0.2 0.5 0.4z"/>
					<path id="&lt;Path&gt;" class="s0" d="m430.2 243.7c0 0.3-0.2 0.5-0.4 0.5-0.3 0-0.5-0.2-0.5-0.5 0-0.2 0.2-0.4 0.5-0.4 0.2 0 0.4 0.2 0.4 0.4z"/>
					<path id="&lt;Path&gt;" class="s0" d="m289.5 137.8c0 0.5-0.3 0.8-0.7 0.8-0.5 0-0.8-0.3-0.8-0.8 0-0.4 0.3-0.7 0.8-0.7 0.4 0 0.7 0.3 0.7 0.7z"/>
					<path id="&lt;Path&gt;" class="s0" d="m247.1 184.5c0 0.4-0.3 0.7-0.7 0.7-0.4 0-0.8-0.3-0.8-0.7 0-0.4 0.4-0.8 0.8-0.8 0.4 0 0.7 0.4 0.7 0.8z"/>
					<path id="&lt;Path&gt;" class="s0" d="m431.3 208.2c0 0.4-0.3 0.8-0.7 0.8-0.4 0-0.8-0.4-0.8-0.8 0-0.4 0.4-0.7 0.8-0.7 0.4 0 0.7 0.3 0.7 0.7z"/>
					<path id="&lt;Path&gt;" class="s0" d="m459.6 175.2c0 0.3-0.3 0.5-0.5 0.5-0.3 0-0.5-0.2-0.5-0.5 0-0.2 0.2-0.4 0.5-0.4 0.2 0 0.5 0.2 0.5 0.4z"/>
					<path id="&lt;Path&gt;" class="s0" d="m450.7 191.3c0 0.5-0.4 0.8-0.8 0.8-0.4 0-0.7-0.3-0.7-0.8 0-0.4 0.3-0.7 0.7-0.7 0.4 0 0.8 0.3 0.8 0.7z"/>
					<path id="&lt;Path&gt;" class="s0" d="m284.1 56.8c0 0.2-0.2 0.4-0.5 0.4-0.2 0-0.4-0.2-0.4-0.4 0-0.3 0.2-0.5 0.4-0.5 0.3 0 0.5 0.2 0.5 0.5z"/>
					<path id="&lt;Path&gt;" class="s0" d="m272.7 121.8c0 0.3-0.2 0.5-0.4 0.5-0.3 0-0.5-0.2-0.5-0.5 0-0.2 0.2-0.4 0.5-0.4 0.2 0 0.4 0.2 0.4 0.4z"/>
					<path id="&lt;Path&gt;" class="s0" d="m250.3 41.9c0 0.2-0.2 0.4-0.4 0.4-0.3 0-0.5-0.2-0.5-0.4 0-0.3 0.2-0.5 0.5-0.5 0.2 0 0.4 0.2 0.4 0.5z"/>
					<path id="&lt;Path&gt;" class="s0" d="m341.3 64.6c0 0.2-0.2 0.4-0.5 0.4-0.2 0-0.4-0.2-0.4-0.4 0-0.3 0.2-0.5 0.4-0.5 0.3 0 0.5 0.2 0.5 0.5z"/>
					<path id="&lt;Path&gt;" class="s0" d="m382.8 86.5c0 0.2-0.2 0.4-0.5 0.4-0.2 0-0.4-0.2-0.4-0.4 0-0.3 0.2-0.5 0.4-0.5 0.3 0 0.5 0.2 0.5 0.5z"/>
					<path id="&lt;Path&gt;" class="s0" d="m325 63.5c0 0.2-0.2 0.5-0.4 0.5-0.3 0-0.5-0.3-0.5-0.5 0-0.3 0.2-0.5 0.5-0.5 0.2 0 0.4 0.2 0.4 0.5z"/>
					<path id="&lt;Path&gt;" class="s0" d="m326.1 28c0 0.4-0.3 0.7-0.7 0.7-0.4 0-0.8-0.3-0.8-0.7 0-0.4 0.4-0.8 0.8-0.8 0.4 0 0.7 0.4 0.7 0.8z"/>
					<path id="&lt;Path&gt;" class="s0" d="m354.4-5c0 0.2-0.2 0.4-0.5 0.4-0.3 0-0.5-0.2-0.5-0.4 0-0.3 0.2-0.5 0.5-0.5 0.3 0 0.5 0.2 0.5 0.5z"/>
					<path id="&lt;Path&gt;" class="s0" d="m409-59.1c0 0.4-0.3 0.7-0.8 0.7-0.4 0-0.7-0.3-0.7-0.7 0-0.4 0.3-0.8 0.7-0.8 0.5 0 0.8 0.4 0.8 0.8z"/>
					<path id="&lt;Path&gt;" class="s0" d="m453.4 5.8c0 0.4-0.3 0.7-0.7 0.7-0.4 0-0.8-0.3-0.8-0.7 0-0.5 0.4-0.8 0.8-0.8 0.4 0 0.7 0.3 0.7 0.8z"/>
					<path id="&lt;Path&gt;" class="s0" d="m345.5 11.1c0 0.4-0.4 0.8-0.8 0.8-0.4 0-0.7-0.4-0.7-0.8 0-0.4 0.3-0.7 0.7-0.7 0.4 0 0.8 0.3 0.8 0.7z"/>
					<path id="&lt;Path&gt;" class="s0" d="m254.3 92.3c0 0.3-0.2 0.5-0.4 0.5-0.3 0-0.5-0.2-0.5-0.5 0-0.3 0.2-0.5 0.5-0.5 0.2 0 0.4 0.2 0.4 0.5z"/>
					<path id="&lt;Path&gt;" class="s0" d="m245.4 108.4c0 0.4-0.3 0.8-0.7 0.8-0.4 0-0.8-0.4-0.8-0.8 0-0.4 0.4-0.7 0.8-0.7 0.4 0 0.7 0.3 0.7 0.7z"/>
					<path id="&lt;Path&gt;" class="s0" d="m138.2 89.3c0 0.3-0.2 0.5-0.4 0.5-0.3 0-0.5-0.2-0.5-0.5 0-0.2 0.2-0.5 0.5-0.5 0.2 0 0.4 0.3 0.4 0.5z"/>
					<path id="&lt;Path&gt;" class="s0" d="m44.5 49.7c0 0.3-0.2 0.5-0.5 0.5-0.2 0-0.4-0.2-0.4-0.5 0-0.2 0.2-0.4 0.4-0.4 0.3 0 0.5 0.2 0.5 0.4z"/>
					<path id="&lt;Path&gt;" class="s0" d="m-7.9 60.2c0 0.3-0.2 0.5-0.4 0.5-0.3 0-0.5-0.2-0.5-0.5 0-0.2 0.2-0.4 0.5-0.4 0.2 0 0.4 0.2 0.4 0.4z"/>
					<path id="&lt;Path&gt;" class="s0" d="m30.6 140.7c0 0.3-0.2 0.5-0.4 0.5-0.3 0-0.5-0.2-0.5-0.5 0-0.2 0.2-0.4 0.5-0.4 0.2 0 0.4 0.2 0.4 0.4z"/>
					<path id="&lt;Path&gt;" class="s0" d="m101.8 130.1c0 0.3-0.3 0.5-0.5 0.5-0.3 0-0.5-0.2-0.5-0.5 0-0.2 0.2-0.4 0.5-0.4 0.2 0 0.5 0.2 0.5 0.4z"/>
					<path id="&lt;Path&gt;" class="s0" d="m68 115.2c0 0.3-0.2 0.5-0.5 0.5-0.2 0-0.5-0.2-0.5-0.5 0-0.2 0.3-0.4 0.5-0.4 0.3 0 0.5 0.2 0.5 0.4z"/>
					<path id="&lt;Path&gt;" class="s0" d="m-12.6 147.9c0 0.3-0.2 0.5-0.5 0.5-0.2 0-0.4-0.2-0.4-0.5 0-0.3 0.2-0.5 0.4-0.5 0.3 0 0.5 0.2 0.5 0.5z"/>
					<path id="&lt;Path&gt;" class="s0" d="m2 31c0 0.4-0.4 0.7-0.8 0.7-0.4 0-0.7-0.3-0.7-0.7 0-0.4 0.3-0.8 0.7-0.8 0.4 0 0.8 0.4 0.8 0.8z"/>
					<path id="&lt;Path&gt;" class="s0" d="m129.4 105.4c0 0.4-0.4 0.8-0.8 0.8-0.4 0-0.7-0.4-0.7-0.8 0-0.4 0.3-0.7 0.7-0.7 0.4 0 0.8 0.3 0.8 0.7z"/>
					<path id="&lt;Path&gt;" class="s0" d="m80.2 75.9c0 0.2-0.2 0.5-0.5 0.5-0.3 0-0.5-0.3-0.5-0.5 0-0.3 0.2-0.5 0.5-0.5 0.3 0 0.5 0.2 0.5 0.5z"/>
					<path id="&lt;Path&gt;" class="s0" d="m134.8 21.8c0 0.4-0.3 0.7-0.8 0.7-0.4 0-0.7-0.3-0.7-0.7 0-0.4 0.3-0.8 0.7-0.8 0.5 0 0.8 0.4 0.8 0.8z"/>
					<path id="&lt;Path&gt;" class="s0" d="m71.3 92c0 0.4-0.4 0.8-0.8 0.8-0.4 0-0.7-0.4-0.7-0.8 0-0.4 0.3-0.7 0.7-0.7 0.4 0 0.8 0.3 0.8 0.7z"/>
					<path id="&lt;Path&gt;" class="s0" d="m179.7 150.7c0 0.4-0.4 0.8-0.8 0.8-0.4 0-0.7-0.4-0.7-0.8 0-0.4 0.3-0.7 0.7-0.7 0.4 0 0.8 0.3 0.8 0.7z"/>
					<path id="&lt;Path&gt;" class="s0" d="m174.3 69.7c0 0.2-0.2 0.4-0.5 0.4-0.2 0-0.5-0.2-0.5-0.4 0-0.3 0.3-0.5 0.5-0.5 0.3 0 0.5 0.2 0.5 0.5z"/>
					<path id="&lt;Path&gt;" class="s0" d="m162.9 134.7c0 0.3-0.2 0.5-0.5 0.5-0.2 0-0.4-0.2-0.4-0.5 0-0.2 0.2-0.4 0.4-0.4 0.3 0 0.5 0.2 0.5 0.4z"/>
					<path id="&lt;Path&gt;" class="s0" d="m140.5 54.7c0 0.3-0.2 0.5-0.5 0.5-0.2 0-0.4-0.2-0.4-0.5 0-0.2 0.2-0.4 0.4-0.4 0.3 0 0.5 0.2 0.5 0.4z"/>
					<path id="&lt;Path&gt;" class="s0" d="m144.5 105.2c0 0.2-0.2 0.5-0.5 0.5-0.2 0-0.4-0.3-0.4-0.5 0-0.3 0.2-0.5 0.4-0.5 0.3 0 0.5 0.2 0.5 0.5z"/>
					<path id="&lt;Path&gt;" class="s0" d="m135.6 121.3c0 0.4-0.3 0.8-0.7 0.8-0.5 0-0.8-0.4-0.8-0.8 0-0.4 0.3-0.7 0.8-0.7 0.4 0 0.7 0.3 0.7 0.7z"/>
					<path id="&lt;Path&gt;" class="s0" d="m658.9 12c0 0.2-0.2 0.4-0.5 0.4-0.2 0-0.4-0.2-0.4-0.4 0-0.3 0.2-0.5 0.4-0.5 0.3 0 0.5 0.2 0.5 0.5z"/>
					<path id="&lt;Path&gt;" class="s0" d="m606.5 22.5c0 0.2-0.2 0.5-0.4 0.5-0.3 0-0.5-0.3-0.5-0.5 0-0.3 0.2-0.5 0.5-0.5 0.2 0 0.4 0.2 0.4 0.5z"/>
					<path id="&lt;Path&gt;" class="s0" d="m645 103c0 0.2-0.2 0.4-0.4 0.4-0.3 0-0.5-0.2-0.5-0.4 0-0.3 0.2-0.5 0.5-0.5 0.2 0 0.4 0.2 0.4 0.5z"/>
					<path id="&lt;Path&gt;" class="s0" d="m716.2 92.4c0 0.3-0.2 0.5-0.5 0.5-0.3 0-0.5-0.2-0.5-0.5 0-0.3 0.2-0.5 0.5-0.5 0.3 0 0.5 0.2 0.5 0.5z"/>
					<path id="&lt;Path&gt;" class="s0" d="m682.4 77.5c0 0.2-0.2 0.5-0.5 0.5-0.2 0-0.4-0.3-0.4-0.5 0-0.3 0.2-0.5 0.4-0.5 0.3 0 0.5 0.2 0.5 0.5z"/>
					<path id="&lt;Path&gt;" class="s0" d="m601.8 110.2c0 0.2-0.2 0.4-0.5 0.4-0.2 0-0.4-0.2-0.4-0.4 0-0.3 0.2-0.5 0.4-0.5 0.3 0 0.5 0.2 0.5 0.5z"/>
					<path id="&lt;Path&gt;" class="s0" d="m616.4-6.8c0 0.5-0.4 0.8-0.8 0.8-0.4 0-0.7-0.3-0.7-0.8 0-0.4 0.3-0.7 0.7-0.7 0.4 0 0.8 0.3 0.8 0.7z"/>
					<path id="&lt;Path&gt;" class="s0" d="m694.6 38.2c0 0.2-0.2 0.4-0.5 0.4-0.2 0-0.5-0.2-0.5-0.4 0-0.3 0.3-0.5 0.5-0.5 0.3 0 0.5 0.2 0.5 0.5z"/>
					<path id="&lt;Path&gt;" class="s0" d="m600.8-1.4c0 0.2-0.2 0.4-0.4 0.4-0.3 0-0.5-0.2-0.5-0.4 0-0.3 0.2-0.5 0.5-0.5 0.2 0 0.4 0.2 0.4 0.5z"/>
					<path id="&lt;Path&gt;" class="s0" d="m685.7 54.3c0 0.4-0.3 0.7-0.8 0.7-0.4 0-0.7-0.3-0.7-0.7 0-0.4 0.3-0.8 0.7-0.8 0.5 0 0.8 0.4 0.8 0.8z"/>
					<path id="&lt;Path&gt;" class="s0" d="m642.8 64.5c0 0.2-0.2 0.4-0.5 0.4-0.2 0-0.4-0.2-0.4-0.4 0-0.3 0.2-0.5 0.4-0.5 0.3 0 0.5 0.2 0.5 0.5z"/>
					<path id="&lt;Path&gt;" class="s0" d="m606.3 105.3c0 0.2-0.2 0.5-0.4 0.5-0.3 0-0.5-0.3-0.5-0.5 0-0.3 0.2-0.5 0.5-0.5 0.2 0 0.4 0.2 0.4 0.5z"/>
					<path id="&lt;Path&gt;" class="s0" d="m633.9 80.6c0 0.4-0.3 0.7-0.7 0.7-0.4 0-0.8-0.3-0.8-0.7 0-0.4 0.4-0.8 0.8-0.8 0.4 0 0.7 0.4 0.7 0.8z"/>
					<path id="&lt;Path&gt;" class="s0" d="m639.4-3c0 0.4-0.4 0.7-0.8 0.7-0.4 0-0.7-0.3-0.7-0.7 0-0.5 0.3-0.8 0.7-0.8 0.4 0 0.8 0.3 0.8 0.8z"/>
					<path id="&lt;Path&gt;" class="s0" d="m678.8 44.8c0 0.3-0.2 0.5-0.4 0.5-0.3 0-0.5-0.2-0.5-0.5 0-0.2 0.2-0.4 0.5-0.4 0.2 0 0.4 0.2 0.4 0.4z"/>
					<path id="&lt;Path&gt;" class="s0" d="m667.4 109.9c0 0.2-0.2 0.4-0.4 0.4-0.3 0-0.5-0.2-0.5-0.4 0-0.3 0.2-0.5 0.5-0.5 0.2 0 0.4 0.2 0.4 0.5z"/>
					<path id="&lt;Path&gt;" class="s0" d="m645 29.9c0 0.3-0.2 0.5-0.4 0.5-0.3 0-0.5-0.2-0.5-0.5 0-0.3 0.2-0.5 0.5-0.5 0.2 0 0.4 0.2 0.4 0.5z"/>
					<path id="&lt;Path&gt;" class="s0" d="m649 80.3c0 0.3-0.2 0.5-0.4 0.5-0.3 0-0.5-0.2-0.5-0.5 0-0.2 0.2-0.4 0.5-0.4 0.2 0 0.4 0.2 0.4 0.4z"/>
					<path id="&lt;Path&gt;" class="s0" d="m640.2 96.5c0 0.4-0.4 0.7-0.8 0.7-0.4 0-0.7-0.3-0.7-0.7 0-0.4 0.3-0.8 0.7-0.8 0.4 0 0.8 0.4 0.8 0.8z"/>
					<path id="&lt;Path&gt;" class="s0" d="m308.6 114.9c0 0.2-0.2 0.5-0.5 0.5-0.2 0-0.4-0.3-0.4-0.5 0-0.3 0.2-0.5 0.4-0.5 0.3 0 0.5 0.2 0.5 0.5z"/>
					<path id="&lt;Path&gt;" class="s0" d="m384.4 101c0 0.5-0.3 0.8-0.7 0.8-0.4 0-0.8-0.3-0.8-0.8 0-0.4 0.4-0.7 0.8-0.7 0.4 0 0.7 0.3 0.7 0.7z"/>
					<path id="&lt;Path&gt;" class="s0" d="m412.6 68c0 0.3-0.2 0.5-0.4 0.5-0.3 0-0.5-0.2-0.5-0.5 0-0.2 0.2-0.4 0.5-0.4 0.2 0 0.4 0.2 0.4 0.4z"/>
					<path id="&lt;Path&gt;" class="s0" d="m467.3 13.9c0 0.5-0.4 0.8-0.8 0.8-0.4 0-0.7-0.3-0.7-0.8 0-0.4 0.3-0.7 0.7-0.7 0.4 0 0.8 0.3 0.8 0.7z"/>
					<path id="&lt;Path&gt;" class="s0" d="m403.8 84.2c0 0.4-0.4 0.7-0.8 0.7-0.4 0-0.7-0.3-0.7-0.7 0-0.5 0.3-0.8 0.7-0.8 0.4 0 0.8 0.3 0.8 0.8z"/>
					<path id="&lt;Path&gt;" class="s0" d="m306.5-4.1c0 0.4-0.3 0.7-0.8 0.7-0.4 0-0.7-0.3-0.7-0.7 0-0.4 0.3-0.8 0.7-0.8 0.5 0 0.8 0.4 0.8 0.8z"/>
					<path id="&lt;Path&gt;" class="s0" d="m459.6 12.6c0 0.3-0.2 0.5-0.5 0.5-0.2 0-0.4-0.2-0.4-0.5 0-0.2 0.2-0.4 0.4-0.4 0.3 0 0.5 0.2 0.5 0.4z"/>
					<path id="&lt;Path&gt;" class="s0" d="m498.1 93.1c0 0.3-0.2 0.5-0.5 0.5-0.2 0-0.4-0.2-0.4-0.5 0-0.2 0.2-0.5 0.4-0.5 0.3 0 0.5 0.3 0.5 0.5z"/>
					<path id="&lt;Path&gt;" class="s0" d="m454.8 100.3c0 0.2-0.2 0.4-0.4 0.4-0.3 0-0.5-0.2-0.5-0.4 0-0.3 0.2-0.5 0.5-0.5 0.2 0 0.4 0.2 0.4 0.5z"/>
					<path id="&lt;Path&gt;" class="s0" d="m469.4-16.6c0 0.4-0.3 0.7-0.7 0.7-0.4 0-0.8-0.3-0.8-0.7 0-0.4 0.4-0.8 0.8-0.8 0.4 0 0.7 0.4 0.7 0.8z"/>
					<path id="&lt;Path&gt;" class="s0" d="m453.9-11.3c0 0.2-0.2 0.5-0.5 0.5-0.2 0-0.4-0.3-0.4-0.5 0-0.3 0.2-0.5 0.4-0.5 0.3 0 0.5 0.2 0.5 0.5z"/>
					<path id="&lt;Path&gt;" class="s0" d="m495.9 54.6c0 0.2-0.2 0.4-0.5 0.4-0.2 0-0.5-0.2-0.5-0.4 0-0.3 0.3-0.5 0.5-0.5 0.3 0 0.5 0.2 0.5 0.5z"/>
					<path id="&lt;Path&gt;" class="s0" d="m459.4 95.4c0 0.3-0.2 0.5-0.5 0.5-0.2 0-0.4-0.2-0.4-0.5 0-0.2 0.2-0.4 0.4-0.4 0.3 0 0.5 0.2 0.5 0.4z"/>
					<path id="&lt;Path&gt;" class="s0" d="m487 70.7c0 0.4-0.3 0.8-0.8 0.8-0.4 0-0.7-0.4-0.7-0.8 0-0.4 0.3-0.7 0.7-0.7 0.5 0 0.8 0.3 0.8 0.7z"/>
					<path id="&lt;Path&gt;" class="s0" d="m492.4-12.9c0 0.4-0.3 0.7-0.7 0.7-0.4 0-0.8-0.3-0.8-0.7 0-0.4 0.4-0.8 0.8-0.8 0.4 0 0.7 0.4 0.7 0.8z"/>
					<path id="&lt;Path&gt;" class="s0" d="m498.1 20c0 0.3-0.2 0.5-0.5 0.5-0.2 0-0.4-0.2-0.4-0.5 0-0.2 0.2-0.4 0.4-0.4 0.3 0 0.5 0.2 0.5 0.4z"/>
					<path id="&lt;Path&gt;" class="s0" d="m493.2 86.6c0 0.4-0.3 0.7-0.7 0.7-0.4 0-0.8-0.3-0.8-0.7 0-0.4 0.4-0.8 0.8-0.8 0.4 0 0.7 0.4 0.7 0.8z"/>
					<path id="&lt;Path&gt;" class="s0" d="m539.3 15.1c0 0.2 0.3 0.4 0.5 0.4 0.3 0 0.5-0.2 0.5-0.4 0-0.3-0.2-0.5-0.5-0.5-0.2 0-0.5 0.2-0.5 0.5z"/>
					<path id="&lt;Path&gt;" class="s0" d="m657.7 169.7c0 0.2 0.2 0.4 0.4 0.4 0.3 0 0.5-0.2 0.5-0.4 0-0.3-0.2-0.5-0.5-0.5-0.2 0-0.4 0.2-0.4 0.5z"/>
					<path id="&lt;Path&gt;" class="s0" d="m710 180.2c0 0.2 0.3 0.4 0.5 0.4 0.3 0 0.5-0.2 0.5-0.4 0-0.3-0.2-0.5-0.5-0.5-0.2 0-0.5 0.2-0.5 0.5z"/>
					<path id="&lt;Path&gt;" class="s0" d="m454.7 95.2c0 0.3 0.2 0.5 0.5 0.5 0.2 0 0.4-0.2 0.4-0.5 0-0.2-0.2-0.4-0.4-0.4-0.3 0-0.5 0.2-0.5 0.4z"/>
					<path id="&lt;Path&gt;" class="s0" d="m351 121.5c0 0.3 0.2 0.5 0.4 0.5 0.3 0 0.5-0.2 0.5-0.5 0-0.2-0.2-0.4-0.5-0.4-0.2 0-0.4 0.2-0.4 0.4z"/>
					<path id="&lt;Path&gt;" class="s0" d="m497.1 122c0 0.2 0.2 0.4 0.5 0.4 0.2 0 0.4-0.2 0.4-0.4 0-0.3-0.2-0.5-0.4-0.5-0.3 0-0.5 0.2-0.5 0.5z"/>
					<path id="&lt;Path&gt;" class="s0" d="m298.1 78.4c0 0.2 0.2 0.4 0.4 0.4 0.3 0 0.5-0.2 0.5-0.4 0-0.3-0.2-0.5-0.5-0.5-0.2 0-0.4 0.2-0.4 0.5z"/>
					<path id="&lt;Path&gt;" class="s0" d="m309.5 143.4c0 0.3 0.2 0.5 0.4 0.5 0.3 0 0.5-0.2 0.5-0.5 0-0.2-0.2-0.4-0.5-0.4-0.2 0-0.4 0.2-0.4 0.4z"/>
					<path id="&lt;Path&gt;" class="s0" d="m331.9 63.4c0 0.3 0.2 0.5 0.4 0.5 0.3 0 0.5-0.2 0.5-0.5 0-0.2-0.2-0.4-0.5-0.4-0.2 0-0.4 0.2-0.4 0.4z"/>
					<path id="&lt;Path&gt;" class="s0" d="m661.9 195.1c0 0.3 0.2 0.5 0.5 0.5 0.3 0 0.5-0.2 0.5-0.5 0-0.2-0.2-0.4-0.5-0.4-0.3 0-0.5 0.2-0.5 0.4z"/>
					<path id="&lt;Path&gt;" class="s0" d="m616.3 153.9c0 0.2 0.2 0.4 0.4 0.4 0.3 0 0.5-0.2 0.5-0.4 0-0.3-0.2-0.5-0.5-0.5-0.2 0-0.4 0.2-0.4 0.5z"/>
					<path id="&lt;Path&gt;" class="s0" d="m620.4 217c0 0.3 0.2 0.5 0.5 0.5 0.2 0 0.5-0.2 0.5-0.5 0-0.2-0.3-0.4-0.5-0.4-0.3 0-0.5 0.2-0.5 0.4z"/>
					<path id="&lt;Path&gt;" class="s0" d="m642.8 137.1c0 0.2 0.2 0.4 0.5 0.4 0.2 0 0.5-0.2 0.5-0.4 0-0.3-0.3-0.5-0.5-0.5-0.3 0-0.5 0.2-0.5 0.5z"/>
					<path id="&lt;Path&gt;" class="s0" d="m647 66.5c0 0.3 0.2 0.5 0.4 0.5 0.3 0 0.5-0.2 0.5-0.5 0-0.3-0.2-0.5-0.5-0.5-0.2 0-0.4 0.2-0.4 0.5z"/>
					<path id="&lt;Path&gt;" class="s0" d="m412.5 96.1c0 0.3 0.2 0.5 0.4 0.5 0.3 0 0.5-0.2 0.5-0.5 0-0.2-0.2-0.4-0.5-0.4-0.2 0-0.4 0.2-0.4 0.4z"/>
					<path id="&lt;Path&gt;" class="s0" d="m367.2 120.4c0 0.3 0.2 0.5 0.5 0.5 0.3 0 0.5-0.2 0.5-0.5 0-0.2-0.2-0.4-0.5-0.4-0.3 0-0.5 0.2-0.5 0.4z"/>
					<path id="&lt;Path&gt;" class="s0" d="m240.9 86.2c0 0.2 0.2 0.4 0.5 0.4 0.2 0 0.4-0.2 0.4-0.4 0-0.3-0.2-0.5-0.4-0.5-0.3 0-0.5 0.2-0.5 0.5z"/>
					<path id="&lt;Path&gt;" class="s0" d="m199.4 108.1c0 0.2 0.2 0.4 0.5 0.4 0.2 0 0.4-0.2 0.4-0.4 0-0.3-0.2-0.5-0.4-0.5-0.3 0-0.5 0.2-0.5 0.5z"/>
					<path id="&lt;Path&gt;" class="s0" d="m257.2 85.1c0 0.2 0.2 0.4 0.4 0.4 0.3 0 0.5-0.2 0.5-0.4 0-0.3-0.2-0.5-0.5-0.5-0.2 0-0.4 0.2-0.4 0.5z"/>
					<path id="&lt;Path&gt;" class="s0" d="m422.5 173.4c0 0.4 0.3 0.7 0.7 0.7 0.4 0 0.8-0.3 0.8-0.7 0-0.4-0.4-0.8-0.8-0.8-0.4 0-0.7 0.4-0.7 0.8z"/>
					<path id="&lt;Path&gt;" class="s0" d="m509.3 155.2c0 0.4 0.3 0.7 0.8 0.7 0.4 0 0.7-0.3 0.7-0.7 0-0.5-0.3-0.8-0.7-0.8-0.5 0-0.8 0.3-0.8 0.8z"/>
					<path id="&lt;Path&gt;" class="s0" d="m440.3 25.9c0 0.4 0.3 0.7 0.7 0.7 0.4 0 0.8-0.3 0.8-0.7 0-0.5-0.4-0.8-0.8-0.8-0.4 0-0.7 0.3-0.7 0.8z"/>
					<path id="&lt;Path&gt;" class="s0" d="m256.1 49.6c0 0.4 0.3 0.7 0.7 0.7 0.4 0 0.8-0.3 0.8-0.7 0-0.4-0.4-0.8-0.8-0.8-0.4 0-0.7 0.4-0.7 0.8z"/>
					<path id="&lt;Path&gt;" class="s0" d="m548.2 31.2c0 0.4 0.4 0.8 0.8 0.8 0.4 0 0.7-0.4 0.7-0.8 0-0.4-0.3-0.7-0.7-0.7-0.4 0-0.8 0.3-0.8 0.7z"/>
					<path id="&lt;Path&gt;" class="s0" d="m494.7 197.2c0 0.3 0.2 0.5 0.4 0.5 0.3 0 0.5-0.2 0.5-0.5 0-0.2-0.2-0.4-0.5-0.4-0.2 0-0.4 0.2-0.4 0.4z"/>
					<path id="&lt;Path&gt;" class="s0" d="m391 223.5c0 0.3 0.2 0.5 0.4 0.5 0.3 0 0.5-0.2 0.5-0.5 0-0.2-0.2-0.4-0.5-0.4-0.2 0-0.4 0.2-0.4 0.4z"/>
					<path id="&lt;Path&gt;" class="s0" d="m537.1 224c0 0.3 0.2 0.5 0.5 0.5 0.2 0 0.4-0.2 0.4-0.5 0-0.3-0.2-0.5-0.4-0.5-0.3 0-0.5 0.2-0.5 0.5z"/>
					<path id="&lt;Path&gt;" class="s0" d="m338.1 180.4c0 0.2 0.2 0.4 0.4 0.4 0.3 0 0.5-0.2 0.5-0.4 0-0.3-0.2-0.5-0.5-0.5-0.2 0-0.4 0.2-0.4 0.5z"/>
					<path id="&lt;Path&gt;" class="s0" d="m349.5 245.4c0 0.3 0.2 0.5 0.4 0.5 0.3 0 0.5-0.2 0.5-0.5 0-0.2-0.2-0.4-0.5-0.4-0.2 0-0.4 0.2-0.4 0.4z"/>
					<path id="&lt;Path&gt;" class="s0" d="m371.9 165.5c0 0.2 0.2 0.4 0.4 0.4 0.3 0 0.5-0.2 0.5-0.4 0-0.3-0.2-0.5-0.5-0.5-0.2 0-0.4 0.2-0.4 0.5z"/>
					<path id="&lt;Path&gt;" class="s0" d="m452.5 198.1c0 0.3 0.2 0.5 0.4 0.5 0.3 0 0.5-0.2 0.5-0.5 0-0.2-0.2-0.4-0.5-0.4-0.2 0-0.4 0.2-0.4 0.4z"/>
					<path id="&lt;Path&gt;" class="s0" d="m407.2 222.5c0 0.2 0.2 0.4 0.5 0.4 0.2 0 0.4-0.2 0.4-0.4 0-0.3-0.2-0.5-0.4-0.5-0.3 0-0.5 0.2-0.5 0.5z"/>
					<path id="&lt;Path&gt;" class="s0" d="m560.7 32.6c0 0.2 0.2 0.4 0.4 0.4 0.3 0 0.5-0.2 0.5-0.4 0-0.3-0.2-0.5-0.5-0.5-0.2 0-0.4 0.2-0.4 0.5z"/>
					<path id="&lt;Path&gt;" class="s0" d="m603.1 59.3c0 0.3 0.2 0.5 0.5 0.5 0.2 0 0.4-0.2 0.4-0.5 0-0.2-0.2-0.4-0.4-0.4-0.3 0-0.5 0.2-0.5 0.4z"/>
					<path id="&lt;Path&gt;" class="s0" d="m518.5 33.5c0 0.2 0.2 0.4 0.4 0.4 0.3 0 0.5-0.2 0.5-0.4 0-0.3-0.2-0.5-0.5-0.5-0.2 0-0.4 0.2-0.4 0.5z"/>
					<path id="&lt;Path&gt;" class="s0" d="m528.5 110.7c0 0.4 0.3 0.7 0.7 0.7 0.4 0 0.8-0.3 0.8-0.7 0-0.4-0.4-0.7-0.8-0.7-0.4 0-0.7 0.3-0.7 0.7z"/>
					<path id="&lt;Path&gt;" class="s0" d="m615.3 92.5c0 0.4 0.3 0.7 0.7 0.7 0.5 0 0.8-0.3 0.8-0.7 0-0.4-0.3-0.8-0.8-0.8-0.4 0-0.7 0.4-0.7 0.8z"/>
					<path id="&lt;Path&gt;" class="s0" d="m600.7 134.6c0 0.2 0.2 0.4 0.4 0.4 0.3 0 0.5-0.2 0.5-0.4 0-0.3-0.2-0.5-0.5-0.5-0.2 0-0.4 0.2-0.4 0.5z"/>
					<path id="&lt;Path&gt;" class="s0" d="m497 160.9c0 0.2 0.2 0.4 0.4 0.4 0.3 0 0.5-0.2 0.5-0.4 0-0.3-0.2-0.5-0.5-0.5-0.2 0-0.4 0.2-0.4 0.5z"/>
					<path id="&lt;Path&gt;" class="s0" d="m643.1 161.3c0 0.3 0.2 0.5 0.5 0.5 0.2 0 0.4-0.2 0.4-0.5 0-0.2-0.2-0.4-0.4-0.4-0.3 0-0.5 0.2-0.5 0.4z"/>
					<path id="&lt;Path&gt;" class="s0" d="m558.4 135.5c0 0.2 0.3 0.4 0.5 0.4 0.3 0 0.5-0.2 0.5-0.4 0-0.3-0.2-0.5-0.5-0.5-0.2 0-0.5 0.2-0.5 0.5z"/>
					<path id="&lt;Path&gt;" class="s0" d="m513.2 159.8c0 0.2 0.2 0.4 0.5 0.4 0.2 0 0.4-0.2 0.4-0.4 0-0.3-0.2-0.5-0.4-0.5-0.3 0-0.5 0.2-0.5 0.5z"/>
					<path id="&lt;Path&gt;" class="s0" d="m305.2 143.4c0 0.2 0.2 0.4 0.4 0.4 0.3 0 0.5-0.2 0.5-0.4 0-0.3-0.2-0.5-0.5-0.5-0.2 0-0.4 0.2-0.4 0.5z"/>
					<path id="&lt;Path&gt;" class="s0" d="m347.6 170.1c0 0.3 0.2 0.5 0.4 0.5 0.3 0 0.5-0.2 0.5-0.5 0-0.2-0.2-0.4-0.5-0.4-0.2 0-0.4 0.2-0.4 0.4z"/>
					<path id="&lt;Path&gt;" class="s0" d="m262.9 144.3c0 0.2 0.2 0.4 0.5 0.4 0.2 0 0.4-0.2 0.4-0.4 0-0.3-0.2-0.5-0.4-0.5-0.3 0-0.5 0.2-0.5 0.5z"/>
					<path id="&lt;Path&gt;" class="s0" d="m272.9 221.5c0 0.4 0.4 0.8 0.8 0.8 0.4 0 0.7-0.4 0.7-0.8 0-0.4-0.3-0.7-0.7-0.7-0.4 0-0.8 0.3-0.8 0.7z"/>
					<path id="&lt;Path&gt;" class="s0" d="m359.8 203.3c0 0.4 0.3 0.8 0.7 0.8 0.4 0 0.8-0.4 0.8-0.8 0-0.4-0.4-0.7-0.8-0.7-0.4 0-0.7 0.3-0.7 0.7z"/>
					<path id="&lt;Path&gt;" class="s0" d="m345.1 245.4c0 0.2 0.3 0.4 0.5 0.4 0.3 0 0.5-0.2 0.5-0.4 0-0.3-0.2-0.5-0.5-0.5-0.2 0-0.5 0.2-0.5 0.5z"/>
					<path id="&lt;Path&gt;" class="s0" d="m302.9 246.3c0 0.2 0.2 0.4 0.5 0.4 0.2 0 0.4-0.2 0.4-0.4 0-0.3-0.2-0.5-0.4-0.5-0.3 0-0.5 0.2-0.5 0.5z"/>
					<path id="&lt;Path&gt;" class="s0" d="m347.4 209c0 0.3 0.2 0.5 0.5 0.5 0.2 0 0.4-0.2 0.4-0.5 0-0.2-0.2-0.4-0.4-0.4-0.3 0-0.5 0.2-0.5 0.4z"/>
					<path id="&lt;Path&gt;" class="s0" d="m363.7 207.9c0 0.3 0.2 0.5 0.4 0.5 0.3 0 0.5-0.2 0.5-0.5 0-0.2-0.2-0.4-0.5-0.4-0.2 0-0.4 0.2-0.4 0.4z"/>
					<path id="&lt;Path&gt;" class="s0" d="m280.9 188.2c0 0.2 0.2 0.4 0.5 0.4 0.2 0 0.4-0.2 0.4-0.4 0-0.3-0.2-0.5-0.4-0.5-0.3 0-0.5 0.2-0.5 0.5z"/>
					<path id="&lt;Path&gt;" class="s0" d="m297.2 187.1c0 0.3 0.2 0.5 0.4 0.5 0.3 0 0.5-0.2 0.5-0.5 0-0.3-0.2-0.5-0.5-0.5-0.2 0-0.4 0.2-0.4 0.5z"/>
					<path id="&lt;Path&gt;" class="s0" d="m462.5 275.4c0 0.4 0.3 0.7 0.7 0.7 0.4 0 0.8-0.3 0.8-0.7 0-0.4-0.4-0.8-0.8-0.8-0.4 0-0.7 0.4-0.7 0.8z"/>
					<path id="&lt;Path&gt;" class="s0" d="m549.3 257.2c0 0.4 0.3 0.7 0.7 0.7 0.5 0 0.8-0.3 0.8-0.7 0-0.5-0.3-0.8-0.8-0.8-0.4 0-0.7 0.3-0.7 0.8z"/>
					<path id="&lt;Path&gt;" class="s0" d="m296 151.6c0 0.4 0.4 0.8 0.8 0.8 0.4 0 0.7-0.4 0.7-0.8 0-0.4-0.3-0.7-0.7-0.7-0.4 0-0.8 0.3-0.8 0.7z"/>
					<path id="&lt;Path&gt;" class="s0" d="m588.2 133.2c0 0.4 0.3 0.8 0.8 0.8 0.4 0 0.7-0.4 0.7-0.8 0-0.4-0.3-0.7-0.7-0.7-0.5 0-0.8 0.3-0.8 0.7z"/>
					<path id="&lt;Path&gt;" class="s0" d="m549.2 256.2c0 0.3 0.2 0.5 0.4 0.5 0.3 0 0.5-0.2 0.5-0.5 0-0.2-0.2-0.4-0.5-0.4-0.2 0-0.4 0.2-0.4 0.4z"/>
					<path id="&lt;Path&gt;" class="s0" d="m507.8 240.5c0 0.2 0.2 0.4 0.4 0.4 0.3 0 0.5-0.2 0.5-0.4 0-0.3-0.2-0.5-0.5-0.5-0.2 0-0.4 0.2-0.4 0.5z"/>
					<path id="&lt;Path&gt;" class="s0" d="m534.3 223.6c0 0.3 0.2 0.5 0.5 0.5 0.3 0 0.5-0.2 0.5-0.5 0-0.2-0.2-0.4-0.5-0.4-0.3 0-0.5 0.2-0.5 0.4z"/>
					<path id="&lt;Path&gt;" class="s0" d="m538.5 153.1c0 0.2 0.2 0.4 0.4 0.4 0.3 0 0.5-0.2 0.5-0.4 0-0.3-0.2-0.5-0.5-0.5-0.2 0-0.4 0.2-0.4 0.5z"/>
					<path id="&lt;Path&gt;" class="s0" d="m400.8 241.7c0 0.4 0.3 0.8 0.8 0.8 0.4 0 0.7-0.4 0.7-0.8 0-0.4-0.3-0.7-0.7-0.7-0.5 0-0.8 0.3-0.8 0.7z"/>
					<path id="&lt;Path&gt;" class="s0" d="m494.6 145.9c0 0.3 0.2 0.5 0.5 0.5 0.2 0 0.4-0.2 0.4-0.5 0-0.3-0.2-0.5-0.4-0.5-0.3 0-0.5 0.2-0.5 0.5z"/>
					<path id="&lt;Path&gt;" class="s0" d="m420 197.3c0 0.4 0.3 0.7 0.7 0.7 0.4 0 0.8-0.3 0.8-0.7 0-0.4-0.4-0.8-0.8-0.8-0.4 0-0.7 0.4-0.7 0.8z"/>
					<path id="&lt;Path&gt;" class="s0" d="m506.8 179.1c0 0.4 0.3 0.7 0.7 0.7 0.5 0 0.8-0.3 0.8-0.7 0-0.4-0.3-0.8-0.8-0.8-0.4 0-0.7 0.4-0.7 0.8z"/>
					<path id="&lt;Path&gt;" class="s0" d="m492.2 221.1c0 0.3 0.2 0.5 0.4 0.5 0.3 0 0.5-0.2 0.5-0.5 0-0.2-0.2-0.4-0.5-0.4-0.2 0-0.4 0.2-0.4 0.4z"/>
					<path id="&lt;Path&gt;" class="s0" d="m534.6 247.9c0 0.3 0.2 0.5 0.5 0.5 0.2 0 0.4-0.2 0.4-0.5 0-0.2-0.2-0.4-0.4-0.4-0.3 0-0.5 0.2-0.5 0.4z"/>
					<path id="&lt;Path&gt;" class="s0" d="m450 222c0 0.3 0.2 0.5 0.4 0.5 0.3 0 0.5-0.2 0.5-0.5 0-0.2-0.2-0.4-0.5-0.4-0.2 0-0.4 0.2-0.4 0.4z"/>
					<path id="&lt;Path&gt;" class="s0" d="m404.7 246.4c0 0.2 0.2 0.4 0.5 0.4 0.2 0 0.4-0.2 0.4-0.4 0-0.3-0.2-0.5-0.4-0.5-0.3 0-0.5 0.2-0.5 0.5z"/>
					<path id="&lt;Path&gt;" class="s0" d="m479.7 219.8c0 0.4 0.3 0.8 0.8 0.8 0.4 0 0.7-0.4 0.7-0.8 0-0.4-0.3-0.7-0.7-0.7-0.5 0-0.8 0.3-0.8 0.7z"/>
					<path id="&lt;Path&gt;" class="s0" d="m345.8 10.3c0 0.2 0.2 0.5 0.4 0.5 0.3 0 0.5-0.3 0.5-0.5 0-0.3-0.2-0.5-0.5-0.5-0.2 0-0.4 0.2-0.4 0.5z"/>
					<path id="&lt;Path&gt;" class="s0" d="m464.9 42.2c0 0.2 0.2 0.4 0.5 0.4 0.2 0 0.4-0.2 0.4-0.4 0-0.3-0.2-0.5-0.4-0.5-0.3 0-0.5 0.2-0.5 0.5z"/>
					<path id="&lt;Path&gt;" class="s0" d="m271.1 61.7c0 0.4 0.4 0.7 0.8 0.7 0.4 0 0.7-0.3 0.7-0.7 0-0.4-0.3-0.8-0.7-0.8-0.4 0-0.8 0.4-0.8 0.8z"/>
					<path id="&lt;Path&gt;" class="s0" d="m358 43.5c0 0.4 0.3 0.7 0.7 0.7 0.4 0 0.8-0.3 0.8-0.7 0-0.5-0.4-0.8-0.8-0.8-0.4 0-0.7 0.3-0.7 0.8z"/>
					<path id="&lt;Path&gt;" class="s0" d="m343.3 85.5c0 0.3 0.2 0.5 0.5 0.5 0.2 0 0.5-0.2 0.5-0.5 0-0.2-0.3-0.4-0.5-0.4-0.3 0-0.5 0.2-0.5 0.4z"/>
					<path id="&lt;Path&gt;" class="s0" d="m385.8 112.3c0 0.3 0.2 0.5 0.4 0.5 0.3 0 0.5-0.2 0.5-0.5 0-0.3-0.2-0.5-0.5-0.5-0.2 0-0.4 0.2-0.4 0.5z"/>
					<path id="&lt;Path&gt;" class="s0" d="m301.1 86.4c0 0.3 0.2 0.5 0.5 0.5 0.2 0 0.4-0.2 0.4-0.5 0-0.2-0.2-0.4-0.4-0.4-0.3 0-0.5 0.2-0.5 0.4z"/>
					<path id="&lt;Path&gt;" class="s0" d="m449.3 22.9c0 0.2 0.2 0.4 0.5 0.4 0.2 0 0.4-0.2 0.4-0.4 0-0.3-0.2-0.5-0.4-0.5-0.3 0-0.5 0.2-0.5 0.5z"/>
					<path id="&lt;Path&gt;" class="s0" d="m345.6 49.2c0 0.2 0.2 0.4 0.5 0.4 0.2 0 0.4-0.2 0.4-0.4 0-0.3-0.2-0.5-0.4-0.5-0.3 0-0.5 0.2-0.5 0.5z"/>
					<path id="&lt;Path&gt;" class="s0" d="m407.1 23.8c0 0.2 0.2 0.4 0.5 0.4 0.2 0 0.4-0.2 0.4-0.4 0-0.3-0.2-0.5-0.4-0.5-0.3 0-0.5 0.2-0.5 0.5z"/>
					<path id="&lt;Path&gt;" class="s0" d="m361.9 48.1c0 0.2 0.2 0.5 0.4 0.5 0.3 0 0.5-0.3 0.5-0.5 0-0.3-0.2-0.5-0.5-0.5-0.2 0-0.4 0.2-0.4 0.5z"/>
					<path id="&lt;Path&gt;" class="s0" d="m436.9 21.5c0 0.4 0.3 0.8 0.7 0.8 0.4 0 0.8-0.4 0.8-0.8 0-0.4-0.4-0.7-0.8-0.7-0.4 0-0.7 0.3-0.7 0.7z"/>
					<path id="&lt;Path&gt;" class="s0" d="m227.8 16.6c0 0.2 0.2 0.4 0.5 0.4 0.2 0 0.5-0.2 0.5-0.4 0-0.3-0.3-0.5-0.5-0.5-0.3 0-0.5 0.2-0.5 0.5z"/>
					<path id="&lt;Path&gt;" class="s0" d="m111 174.9c0 0.4 0.3 0.7 0.7 0.7 0.4 0 0.8-0.3 0.8-0.7 0-0.4-0.4-0.8-0.8-0.8-0.4 0-0.7 0.4-0.7 0.8z"/>
					<path id="&lt;Path&gt;" class="s0" d="m197.8 156.7c0 0.4 0.3 0.7 0.7 0.7 0.5 0 0.8-0.3 0.8-0.7 0-0.5-0.3-0.8-0.8-0.8-0.4 0-0.7 0.3-0.7 0.8z"/>
					<path id="&lt;Path&gt;" class="s0" d="m273.8 47.7c0 0.2 0.2 0.4 0.4 0.4 0.3 0 0.5-0.2 0.5-0.4 0-0.3-0.2-0.5-0.5-0.5-0.2 0-0.4 0.2-0.4 0.5z"/>
					<path id="&lt;Path&gt;" class="s0" d="m220.9 4.5c0 0.3 0.2 0.5 0.4 0.5 0.3 0 0.5-0.2 0.5-0.5 0-0.2-0.2-0.4-0.5-0.4-0.2 0-0.4 0.2-0.4 0.4z"/>
					<path id="&lt;Path&gt;" class="s0" d="m232.3 69.6c0 0.2 0.2 0.4 0.4 0.4 0.3 0 0.5-0.2 0.5-0.4 0-0.3-0.2-0.5-0.5-0.5-0.2 0-0.4 0.2-0.4 0.5z"/>
					<path id="&lt;Path&gt;" class="s0" d="m290 46.6c0 0.3 0.2 0.5 0.5 0.5 0.2 0 0.5-0.2 0.5-0.5 0-0.3-0.3-0.5-0.5-0.5-0.3 0-0.5 0.2-0.5 0.5z"/>
					<path id="&lt;Path&gt;" class="s0" d="m163.7 12.3c0 0.3 0.2 0.5 0.5 0.5 0.2 0 0.4-0.2 0.4-0.5 0-0.2-0.2-0.4-0.4-0.4-0.3 0-0.5 0.2-0.5 0.4z"/>
					<path id="&lt;Path&gt;" class="s0" d="m122.2 34.2c0 0.3 0.2 0.5 0.5 0.5 0.2 0 0.4-0.2 0.4-0.5 0-0.2-0.2-0.4-0.4-0.4-0.3 0-0.5 0.2-0.5 0.4z"/>
					<path id="&lt;Path&gt;" class="s0" d="m180 11.2c0 0.3 0.2 0.5 0.4 0.5 0.3 0 0.5-0.2 0.5-0.5 0-0.2-0.2-0.4-0.5-0.4-0.2 0-0.4 0.2-0.4 0.4z"/>
					<path id="&lt;Path&gt;" class="s0" d="m260.9 106.5c0 0.3 0.2 0.5 0.4 0.5 0.3 0 0.5-0.2 0.5-0.5 0-0.2-0.2-0.4-0.5-0.4-0.2 0-0.4 0.2-0.4 0.4z"/>
					<path id="&lt;Path&gt;" class="s0" d="m294.7 91.6c0 0.3 0.2 0.5 0.4 0.5 0.3 0 0.5-0.2 0.5-0.5 0-0.2-0.2-0.4-0.5-0.4-0.2 0-0.4 0.2-0.4 0.4z"/>
					<path id="&lt;Path&gt;" class="s0" d="m203.7 114.3c0 0.3 0.2 0.5 0.5 0.5 0.2 0 0.4-0.2 0.4-0.5 0-0.2-0.2-0.4-0.4-0.4-0.3 0-0.5 0.2-0.5 0.4z"/>
					<path id="&lt;Path&gt;" class="s0" d="m220 113.3c0 0.2 0.2 0.4 0.4 0.4 0.3 0 0.5-0.2 0.5-0.4 0-0.3-0.2-0.5-0.5-0.5-0.2 0-0.4 0.2-0.4 0.5z"/>
					<path id="&lt;Path&gt;" class="s0" d="m218.8 77.8c0 0.4 0.4 0.7 0.8 0.7 0.4 0 0.7-0.3 0.7-0.7 0-0.5-0.3-0.8-0.7-0.8-0.4 0-0.8 0.3-0.8 0.8z"/>
					<path id="&lt;Path&gt;" class="s0" d="m120.6 82.8c0 0.4 0.3 0.8 0.7 0.8 0.5 0 0.8-0.4 0.8-0.8 0-0.4-0.3-0.7-0.8-0.7-0.4 0-0.7 0.3-0.7 0.7z"/>
					<path id="&lt;Path&gt;" class="s0" d="m128.8 27.4c0 0.4 0.3 0.7 0.7 0.7 0.4 0 0.8-0.3 0.8-0.7 0-0.5-0.4-0.8-0.8-0.8-0.4 0-0.7 0.3-0.7 0.8z"/>
					<path id="&lt;Path&gt;" class="s0" d="m236.7 32.7c0 0.4 0.3 0.8 0.8 0.8 0.4 0 0.7-0.4 0.7-0.8 0-0.4-0.3-0.7-0.7-0.7-0.5 0-0.8 0.3-0.8 0.7z"/>
					<path id="&lt;Path&gt;" class="s0" d="m222.5 84.9c0 0.3-0.2 0.5-0.5 0.5-0.3 0-0.6-0.2-0.6-0.5 0-0.3 0.3-0.6 0.6-0.6 0.3 0 0.5 0.3 0.5 0.6z"/>
					<path id="&lt;Path&gt;" class="s0" d="m114.3 39.2c0 0.3-0.2 0.5-0.5 0.5-0.3 0-0.5-0.2-0.5-0.5 0-0.3 0.2-0.6 0.5-0.6 0.3 0 0.5 0.3 0.5 0.6z"/>
					<path id="&lt;Path&gt;" class="s0" d="m53.9 51.3c0 0.3-0.3 0.5-0.6 0.5-0.2 0-0.5-0.2-0.5-0.5 0-0.3 0.3-0.5 0.5-0.5 0.3 0 0.6 0.2 0.6 0.5z"/>
					<path id="&lt;Path&gt;" class="s0" d="m320.2 177.3c0 0.3-0.3 0.6-0.6 0.6-0.2 0-0.5-0.3-0.5-0.6 0-0.3 0.3-0.5 0.5-0.5 0.3 0 0.6 0.2 0.6 0.5z"/>
					<path id="&lt;Path&gt;" class="s0" d="m439.9 207.7c0 0.3-0.3 0.5-0.6 0.5-0.2 0-0.5-0.2-0.5-0.5 0-0.3 0.3-0.5 0.5-0.5 0.3 0 0.6 0.2 0.6 0.5z"/>
					<path id="&lt;Path&gt;" class="s0" d="m271.2 208.2c0 0.3-0.2 0.6-0.5 0.6-0.3 0-0.5-0.3-0.5-0.6 0-0.3 0.2-0.5 0.5-0.5 0.3 0 0.5 0.2 0.5 0.5z"/>
					<path id="&lt;Path&gt;" class="s0" d="m500.9 157.9c0 0.3-0.2 0.5-0.5 0.5-0.3 0-0.5-0.2-0.5-0.5 0-0.3 0.2-0.5 0.5-0.5 0.3 0 0.5 0.2 0.5 0.5z"/>
					<path id="&lt;Path&gt;" class="s0" d="m487.8 233c0 0.3-0.3 0.5-0.6 0.5-0.3 0-0.5-0.2-0.5-0.5 0-0.3 0.2-0.6 0.5-0.6 0.3 0 0.6 0.3 0.6 0.6z"/>
					<path id="&lt;Path&gt;" class="s0" d="m461.9 140.7c0 0.3-0.2 0.5-0.5 0.5-0.3 0-0.5-0.2-0.5-0.5 0-0.3 0.2-0.6 0.5-0.6 0.3 0 0.5 0.3 0.5 0.6z"/>
					<path id="&lt;Path&gt;" class="s0" d="m81 292.7c0 0.2-0.2 0.5-0.5 0.5-0.3 0-0.5-0.3-0.5-0.5 0-0.3 0.2-0.6 0.5-0.6 0.3 0 0.5 0.3 0.5 0.6z"/>
					<path id="&lt;Path&gt;" class="s0" d="m133.7 245c0 0.3-0.2 0.6-0.5 0.6-0.3 0-0.5-0.3-0.5-0.6 0-0.3 0.2-0.5 0.5-0.5 0.3 0 0.5 0.2 0.5 0.5z"/>
					<path id="&lt;Path&gt;" class="s0" d="m128.9 317.9c0 0.3-0.2 0.5-0.5 0.5-0.3 0-0.5-0.2-0.5-0.5 0-0.3 0.2-0.5 0.5-0.5 0.3 0 0.5 0.2 0.5 0.5z"/>
					<path id="&lt;Path&gt;" class="s0" d="m103.1 225.6c0 0.3-0.3 0.6-0.6 0.6-0.3 0-0.5-0.3-0.5-0.6 0-0.3 0.2-0.5 0.5-0.5 0.3 0 0.6 0.2 0.6 0.5z"/>
					<path id="&lt;Path&gt;" class="s0" d="m98.3 144.2c0 0.3-0.3 0.5-0.5 0.5-0.3 0-0.6-0.2-0.6-0.5 0-0.3 0.3-0.5 0.6-0.5 0.2 0 0.5 0.2 0.5 0.5z"/>
					<path id="&lt;Path&gt;" class="s0" d="m368.9 178.4c0 0.3-0.2 0.5-0.5 0.5-0.3 0-0.5-0.2-0.5-0.5 0-0.3 0.2-0.6 0.5-0.6 0.3 0 0.5 0.3 0.5 0.6z"/>
					<path id="&lt;Path&gt;" class="s0" d="m421.1 206.4c0 0.3-0.2 0.6-0.5 0.6-0.3 0-0.5-0.3-0.5-0.6 0-0.2 0.2-0.5 0.5-0.5 0.3 0 0.5 0.3 0.5 0.5z"/>
					<path id="&lt;Path&gt;" class="s0" d="m566.9 166.9c0 0.3-0.2 0.5-0.5 0.5-0.3 0-0.6-0.2-0.6-0.5 0-0.3 0.3-0.5 0.6-0.5 0.3 0 0.5 0.2 0.5 0.5z"/>
					<path id="&lt;Path&gt;" class="s0" d="m614.8 192.2c0 0.3-0.2 0.5-0.5 0.5-0.3 0-0.6-0.2-0.6-0.5 0-0.3 0.3-0.6 0.6-0.6 0.3 0 0.5 0.3 0.5 0.6z"/>
					<path id="&lt;Path&gt;" class="s0" d="m548.1 165.6c0 0.3-0.2 0.6-0.5 0.6-0.3 0-0.5-0.3-0.5-0.6 0-0.2 0.2-0.5 0.5-0.5 0.3 0 0.5 0.3 0.5 0.5z"/>
					<path id="&lt;Path&gt;" class="s0" d="m385.7 43.4c0 0.5-0.3 0.9-0.8 0.9-0.5 0-0.9-0.4-0.9-0.9 0-0.4 0.4-0.8 0.9-0.8 0.5 0 0.8 0.4 0.8 0.8z"/>
					<path id="&lt;Path&gt;" class="s0" d="m285.5 22.4c0 0.5-0.3 0.9-0.8 0.9-0.5 0-0.9-0.4-0.9-0.9 0-0.4 0.4-0.8 0.9-0.8 0.5 0 0.8 0.4 0.8 0.8z"/>
					<path id="&lt;Path&gt;" class="s0" d="m336.8 97.3c0 0.5-0.3 0.9-0.8 0.9-0.5 0-0.9-0.4-0.9-0.9 0-0.5 0.4-0.9 0.9-0.9 0.5 0 0.8 0.4 0.8 0.9z"/>
					<path id="&lt;Path&gt;" class="s0" d="m549.4 124.7c0 0.5-0.4 0.8-0.8 0.8-0.5 0-0.9-0.3-0.9-0.8 0-0.5 0.4-0.9 0.9-0.9 0.4 0 0.8 0.4 0.8 0.9z"/>
					<path id="&lt;Path&gt;" class="s0" d="m212.2 103.5c0 0.5-0.3 0.8-0.8 0.8-0.5 0-0.9-0.3-0.9-0.8 0-0.5 0.4-0.9 0.9-0.9 0.5 0 0.8 0.4 0.8 0.9z"/>
					<path id="&lt;Path&gt;" class="s0" d="m582 86.6c0 0.3-0.2 0.5-0.5 0.5-0.3 0-0.6-0.2-0.6-0.5 0-0.3 0.3-0.5 0.6-0.5 0.3 0 0.5 0.2 0.5 0.5z"/>
					<path id="&lt;Path&gt;" class="s0" d="m745.2 45.2c0 0.5-0.3 0.8-0.8 0.8-0.5 0-0.9-0.3-0.9-0.8 0-0.5 0.4-0.9 0.9-0.9 0.5 0 0.8 0.4 0.8 0.9z"/>
					<path id="&lt;Path&gt;" class="s0" d="m645 24.2c0 0.4-0.3 0.8-0.8 0.8-0.5 0-0.9-0.4-0.9-0.8 0-0.5 0.4-0.9 0.9-0.9 0.5 0 0.8 0.4 0.8 0.9z"/>
					<path id="&lt;Path&gt;" class="s0" d="m696.3 99c0 0.5-0.4 0.9-0.8 0.9-0.5 0-0.9-0.4-0.9-0.9 0-0.5 0.4-0.8 0.9-0.8 0.4 0 0.8 0.3 0.8 0.8z"/>
					<path id="&lt;Path&gt;" class="s0" d="m571.7 105.2c0 0.5-0.3 0.9-0.8 0.9-0.5 0-0.9-0.4-0.9-0.9 0-0.5 0.4-0.9 0.9-0.9 0.5 0 0.8 0.4 0.8 0.9z"/>
					<path id="&lt;Path&gt;" class="s0" d="m517.7 224c0-0.3 0.2-0.5 0.4-0.5 0.3 0 0.5 0.2 0.5 0.5 0 0.2-0.2 0.4-0.5 0.4-0.2 0-0.4-0.2-0.4-0.4z"/>
					<path id="&lt;Path&gt;" class="s0" d="m611.4 263.6c0-0.3 0.2-0.5 0.5-0.5 0.2 0 0.4 0.2 0.4 0.5 0 0.2-0.2 0.4-0.4 0.4-0.3 0-0.5-0.2-0.5-0.4z"/>
					<path id="&lt;Path&gt;" class="s0" d="m663.8 253c0-0.2 0.2-0.4 0.4-0.4 0.3 0 0.5 0.2 0.5 0.4 0 0.3-0.2 0.5-0.5 0.5-0.2 0-0.4-0.2-0.4-0.5z"/>
					<path id="&lt;Path&gt;" class="s0" d="m433 143.8c0-0.2 0.2-0.4 0.5-0.4 0.2 0 0.5 0.2 0.5 0.4 0 0.3-0.3 0.5-0.5 0.5-0.3 0-0.5-0.2-0.5-0.5z"/>
					<path id="&lt;Path&gt;" class="s0" d="m329.3 117.5c0-0.2 0.2-0.4 0.5-0.4 0.2 0 0.4 0.2 0.4 0.4 0 0.3-0.2 0.5-0.4 0.5-0.3 0-0.5-0.2-0.5-0.5z"/>
					<path id="&lt;Path&gt;" class="s0" d="m475.5 117.1c0-0.3 0.2-0.5 0.4-0.5 0.3 0 0.5 0.2 0.5 0.5 0 0.2-0.2 0.4-0.5 0.4-0.2 0-0.4-0.2-0.4-0.4z"/>
					<path id="&lt;Path&gt;" class="s0" d="m276.4 160.7c0-0.3 0.2-0.5 0.5-0.5 0.2 0 0.4 0.2 0.4 0.5 0 0.3-0.2 0.5-0.4 0.5-0.3 0-0.5-0.2-0.5-0.5z"/>
					<path id="&lt;Path&gt;" class="s0" d="m287.8 95.6c0-0.2 0.2-0.4 0.5-0.4 0.2 0 0.4 0.2 0.4 0.4 0 0.3-0.2 0.5-0.4 0.5-0.3 0-0.5-0.2-0.5-0.5z"/>
					<path id="&lt;Path&gt;" class="s0" d="m310.2 175.6c0-0.2 0.2-0.4 0.5-0.4 0.2 0 0.4 0.2 0.4 0.4 0 0.3-0.2 0.5-0.4 0.5-0.3 0-0.5-0.2-0.5-0.5z"/>
					<path id="&lt;Path&gt;" class="s0" d="m640.3 43.9c0-0.2 0.2-0.4 0.4-0.4 0.3 0 0.5 0.2 0.5 0.4 0 0.3-0.2 0.5-0.5 0.5-0.2 0-0.4-0.2-0.4-0.5z"/>
					<path id="&lt;Path&gt;" class="s0" d="m594.6 85.2c0-0.3 0.2-0.5 0.5-0.5 0.2 0 0.4 0.2 0.4 0.5 0 0.2-0.2 0.4-0.4 0.4-0.3 0-0.5-0.2-0.5-0.4z"/>
					<path id="&lt;Path&gt;" class="s0" d="m598.8 22c0-0.2 0.2-0.4 0.4-0.4 0.3 0 0.5 0.2 0.5 0.4 0 0.3-0.2 0.5-0.5 0.5-0.2 0-0.4-0.2-0.4-0.5z"/>
					<path id="&lt;Path&gt;" class="s0" d="m621.2 102c0-0.3 0.2-0.5 0.4-0.5 0.3 0 0.5 0.2 0.5 0.5 0 0.3-0.2 0.5-0.5 0.5-0.2 0-0.4-0.2-0.4-0.5z"/>
					<path id="&lt;Path&gt;" class="s0" d="m625.3 172.6c0-0.3 0.2-0.5 0.5-0.5 0.2 0 0.4 0.2 0.4 0.5 0 0.2-0.2 0.4-0.4 0.4-0.3 0-0.5-0.2-0.5-0.4z"/>
					<path id="&lt;Path&gt;" class="s0" d="m390.8 142.9c0-0.2 0.2-0.4 0.5-0.4 0.2 0 0.4 0.2 0.4 0.4 0 0.3-0.2 0.5-0.4 0.5-0.3 0-0.5-0.2-0.5-0.5z"/>
					<path id="&lt;Path&gt;" class="s0" d="m345.6 118.6c0-0.2 0.2-0.4 0.4-0.4 0.3 0 0.5 0.2 0.5 0.4 0 0.3-0.2 0.5-0.5 0.5-0.2 0-0.4-0.2-0.4-0.5z"/>
					<path id="&lt;Path&gt;" class="s0" d="m219.2 152.9c0-0.3 0.3-0.5 0.5-0.5 0.3 0 0.5 0.2 0.5 0.5 0 0.2-0.2 0.4-0.5 0.4-0.2 0-0.5-0.2-0.5-0.4z"/>
					<path id="&lt;Path&gt;" class="s0" d="m177.7 131c0-0.3 0.3-0.5 0.5-0.5 0.3 0 0.5 0.2 0.5 0.5 0 0.2-0.2 0.5-0.5 0.5-0.2 0-0.5-0.3-0.5-0.5z"/>
					<path id="&lt;Path&gt;" class="s0" d="m235.5 154c0-0.3 0.2-0.5 0.5-0.5 0.2 0 0.4 0.2 0.4 0.5 0 0.2-0.2 0.4-0.4 0.4-0.3 0-0.5-0.2-0.5-0.4z"/>
					<path id="&lt;Path&gt;" class="s0" d="m376.2 259.9c0-0.5 0.4-0.8 0.8-0.8 0.4 0 0.7 0.3 0.7 0.8 0 0.4-0.3 0.7-0.7 0.7-0.4 0-0.8-0.3-0.8-0.7z"/>
					<path id="&lt;Path&gt;" class="s0" d="m463 278.1c0-0.4 0.4-0.8 0.8-0.8 0.4 0 0.7 0.4 0.7 0.8 0 0.4-0.3 0.7-0.7 0.7-0.4 0-0.8-0.3-0.8-0.7z"/>
					<path id="&lt;Path&gt;" class="s0" d="m418.6 213.2c0-0.4 0.3-0.7 0.7-0.7 0.5 0 0.8 0.3 0.8 0.7 0 0.4-0.3 0.7-0.8 0.7-0.4 0-0.7-0.3-0.7-0.7z"/>
					<path id="&lt;Path&gt;" class="s0" d="m234.4 189.5c0-0.4 0.3-0.8 0.7-0.8 0.4 0 0.8 0.4 0.8 0.8 0 0.4-0.4 0.7-0.8 0.7-0.4 0-0.7-0.3-0.7-0.7z"/>
					<path id="&lt;Path&gt;" class="s0" d="m526.6 207.8c0-0.4 0.3-0.7 0.7-0.7 0.4 0 0.8 0.3 0.8 0.7 0 0.5-0.4 0.8-0.8 0.8-0.4 0-0.7-0.3-0.7-0.8z"/>
					<path id="&lt;Path&gt;" class="s0" d="m206.2 222.5c0-0.3 0.2-0.5 0.4-0.5 0.3 0 0.5 0.2 0.5 0.5 0 0.2-0.2 0.4-0.5 0.4-0.2 0-0.4-0.2-0.4-0.4z"/>
					<path id="&lt;Path&gt;" class="s0" d="m64.7 258.4c0-0.5 0.3-0.8 0.8-0.8 0.4 0 0.7 0.3 0.7 0.8 0 0.4-0.3 0.7-0.7 0.7-0.5 0-0.8-0.3-0.8-0.7z"/>
					<path id="&lt;Path&gt;" class="s0" d="m151.5 276.6c0-0.4 0.4-0.8 0.8-0.8 0.4 0 0.7 0.4 0.7 0.8 0 0.4-0.3 0.7-0.7 0.7-0.4 0-0.8-0.3-0.8-0.7z"/>
					<path id="&lt;Path&gt;" class="s0" d="m107.1 211.7c0-0.4 0.3-0.7 0.7-0.7 0.4 0 0.8 0.3 0.8 0.7 0 0.4-0.4 0.8-0.8 0.8-0.4 0-0.7-0.4-0.7-0.8z"/>
					<path id="&lt;Path&gt;" class="s0" d="m-4.5 99c0 0.2-0.2 0.4-0.4 0.4-0.3 0-0.5-0.2-0.5-0.4 0-0.3 0.2-0.5 0.5-0.5 0.2 0 0.4 0.2 0.4 0.5z"/>
					<path id="&lt;Path&gt;" class="s0" d="m-9.2 186.6c0 0.3-0.2 0.5-0.5 0.5-0.2 0-0.4-0.2-0.4-0.5 0-0.2 0.2-0.4 0.4-0.4 0.3 0 0.5 0.2 0.5 0.4z"/>
					<path id="&lt;Path&gt;" class="s0" d="m5.4 69.7c0 0.4-0.4 0.8-0.8 0.8-0.4 0-0.7-0.4-0.7-0.8 0-0.4 0.3-0.7 0.7-0.7 0.4 0 0.8 0.3 0.8 0.7z"/>
					<path id="&lt;Path&gt;" class="s0" d="m-37 116.4c0 0.4-0.4 0.7-0.8 0.7-0.4 0-0.7-0.3-0.7-0.7 0-0.4 0.3-0.8 0.7-0.8 0.4 0 0.8 0.4 0.8 0.8z"/>
					<path id="&lt;Path&gt;" class="s0" d="m-10.2 75c0 0.3-0.2 0.5-0.4 0.5-0.3 0-0.5-0.2-0.5-0.5 0-0.2 0.2-0.4 0.5-0.4 0.2 0 0.4 0.2 0.4 0.4z"/>
					<path id="&lt;Path&gt;" class="s0" d="m-62.5 85.5c0 0.3-0.2 0.5-0.5 0.5-0.3 0-0.5-0.2-0.5-0.5 0-0.2 0.2-0.4 0.5-0.4 0.3 0 0.5 0.2 0.5 0.4z"/>
					<path id="&lt;Path&gt;" class="s0" d="m6.6 253.4c0 0.3-0.2 0.5-0.4 0.5-0.3 0-0.5-0.2-0.5-0.5 0-0.2 0.2-0.4 0.5-0.4 0.2 0 0.4 0.2 0.4 0.4z"/>
					<path id="&lt;Path&gt;" class="s0" d="m-19.9 236.6c0 0.2-0.2 0.5-0.5 0.5-0.2 0-0.4-0.3-0.4-0.5 0-0.3 0.2-0.5 0.4-0.5 0.3 0 0.5 0.2 0.5 0.5z"/>
					<path id="&lt;Path&gt;" class="s0" d="m-24.1 166c0 0.3-0.2 0.5-0.4 0.5-0.3 0-0.5-0.2-0.5-0.5 0-0.2 0.2-0.4 0.5-0.4 0.2 0 0.4 0.2 0.4 0.4z"/>
					<path id="&lt;Path&gt;" class="s0" d="m-61.9 101.3c0 0.3-0.2 0.5-0.5 0.5-0.2 0-0.4-0.2-0.4-0.5 0-0.2 0.2-0.4 0.4-0.4 0.3 0 0.5 0.2 0.5 0.4z"/>
					<path id="&lt;Path&gt;" class="s0" d="m-114.3 111.9c0 0.2-0.2 0.4-0.5 0.4-0.2 0-0.4-0.2-0.4-0.4 0-0.3 0.2-0.5 0.4-0.5 0.3 0 0.5 0.2 0.5 0.5z"/>
					<path id="&lt;Path&gt;" class="s0" d="m-75.8 192.3c0 0.3-0.2 0.5-0.5 0.5-0.2 0-0.4-0.2-0.4-0.5 0-0.2 0.2-0.4 0.4-0.4 0.3 0 0.5 0.2 0.5 0.4z"/>
					<path id="&lt;Path&gt;" class="s0" d="m-4.7 181.8c0 0.2-0.2 0.4-0.4 0.4-0.3 0-0.5-0.2-0.5-0.4 0-0.3 0.2-0.5 0.5-0.5 0.2 0 0.4 0.2 0.4 0.5z"/>
					<path id="&lt;Path&gt;" class="s0" d="m-38.5 166.8c0 0.3-0.2 0.5-0.4 0.5-0.3 0-0.5-0.2-0.5-0.5 0-0.2 0.2-0.4 0.5-0.4 0.2 0 0.4 0.2 0.4 0.4z"/>
					<path id="&lt;Path&gt;" class="s0" d="m-119.1 199.5c0 0.3-0.2 0.5-0.4 0.5-0.3 0-0.5-0.2-0.5-0.5 0-0.2 0.2-0.4 0.5-0.4 0.2 0 0.4 0.2 0.4 0.4z"/>
					<path id="&lt;Path&gt;" class="s0" d="m-104.5 82.6c0 0.4-0.3 0.8-0.7 0.8-0.4 0-0.8-0.4-0.8-0.8 0-0.4 0.4-0.7 0.8-0.7 0.4 0 0.7 0.3 0.7 0.7z"/>
					<path id="&lt;Path&gt;" class="s0" d="m22.9 157.1c0 0.4-0.3 0.7-0.7 0.7-0.4 0-0.8-0.3-0.8-0.7 0-0.5 0.4-0.8 0.8-0.8 0.4 0 0.7 0.3 0.7 0.8z"/>
					<path id="&lt;Path&gt;" class="s0" d="m-26.3 127.5c0 0.3-0.2 0.5-0.4 0.5-0.3 0-0.5-0.2-0.5-0.5 0-0.2 0.2-0.4 0.5-0.4 0.2 0 0.4 0.2 0.4 0.4z"/>
					<path id="&lt;Path&gt;" class="s0" d="m28.4 73.4c0 0.4-0.4 0.8-0.8 0.8-0.4 0-0.7-0.4-0.7-0.8 0-0.4 0.3-0.7 0.7-0.7 0.4 0 0.8 0.3 0.8 0.7z"/>
					<path id="&lt;Path&gt;" class="s0" d="m-35.2 143.6c0 0.5-0.3 0.8-0.7 0.8-0.4 0-0.7-0.3-0.7-0.8 0-0.4 0.3-0.7 0.7-0.7 0.4 0 0.7 0.3 0.7 0.7z"/>
					<path id="&lt;Path&gt;" class="s0" d="m4.5 226.5c0 0.4 0.4 0.7 0.8 0.7 0.4 0 0.7-0.3 0.7-0.7 0-0.4-0.3-0.8-0.7-0.8-0.4 0-0.8 0.4-0.8 0.8z"/>
					<path id="&lt;Path&gt;" class="s0" d="m15.8 85.8c0 0.3 0.2 0.5 0.4 0.5 0.3 0 0.5-0.2 0.5-0.5 0-0.2-0.2-0.4-0.5-0.4-0.2 0-0.4 0.2-0.4 0.4z"/>
					<path id="&lt;Path&gt;" class="s0" d="m14.2 134.4c0 0.4 0.3 0.8 0.7 0.8 0.4 0 0.8-0.4 0.8-0.8 0-0.4-0.4-0.7-0.8-0.7-0.4 0-0.7 0.3-0.7 0.7z"/>
					<path id="&lt;Path&gt;" class="s0" d="m22.3 79c0 0.4 0.4 0.7 0.8 0.7 0.4 0 0.7-0.3 0.7-0.7 0-0.4-0.3-0.8-0.7-0.8-0.4 0-0.8 0.4-0.8 0.8z"/>
					<path id="&lt;Path&gt;" class="s0" d="m7.9 90.8c0 0.3-0.3 0.5-0.5 0.5-0.3 0-0.6-0.2-0.6-0.5 0-0.3 0.3-0.5 0.6-0.5 0.2 0 0.5 0.2 0.5 0.5z"/>
					<path id="&lt;Path&gt;" class="s0" d="m-52.6 102.9c0 0.3-0.2 0.6-0.5 0.6-0.3 0-0.5-0.3-0.5-0.6 0-0.3 0.2-0.5 0.5-0.5 0.3 0 0.5 0.2 0.5 0.5z"/>
					<path id="&lt;Path&gt;" class="s0" d="m-3.4 277.2c0 0.3-0.2 0.6-0.5 0.6-0.3 0-0.5-0.3-0.5-0.6 0-0.2 0.2-0.5 0.5-0.5 0.3 0 0.5 0.3 0.5 0.5z"/>
					<path id="&lt;Path&gt;" class="s0" d="m-8.1 195.8c0 0.3-0.3 0.5-0.6 0.5-0.3 0-0.5-0.2-0.5-0.5 0-0.3 0.2-0.5 0.5-0.5 0.3 0 0.6 0.2 0.6 0.5z"/>
					<path id="&lt;Path&gt;" class="s0" d="m0.7 263.3c0-0.4 0.3-0.7 0.7-0.7 0.4 0 0.8 0.3 0.8 0.7 0 0.4-0.4 0.8-0.8 0.8-0.4 0-0.7-0.4-0.7-0.8z"/>
					<path id="&lt;Path&gt;" class="s0" d="m810.5 74.2c0 0.3-0.2 0.5-0.4 0.5-0.3 0-0.5-0.2-0.5-0.5 0-0.2 0.2-0.4 0.5-0.4 0.2 0 0.4 0.2 0.4 0.4z"/>
					<path id="&lt;Path&gt;" class="s0" d="m805.8 161.9c0 0.2-0.2 0.4-0.5 0.4-0.2 0-0.4-0.2-0.4-0.4 0-0.3 0.2-0.5 0.4-0.5 0.3 0 0.5 0.2 0.5 0.5z"/>
					<path id="&lt;Path&gt;" class="s0" d="m820.4 45c0 0.4-0.4 0.7-0.8 0.7-0.4 0-0.7-0.3-0.7-0.7 0-0.4 0.3-0.8 0.7-0.8 0.4 0 0.8 0.4 0.8 0.8z"/>
					<path id="&lt;Path&gt;" class="s0" d="m778 91.6c0 0.4-0.3 0.8-0.8 0.8-0.4 0-0.7-0.4-0.7-0.8 0-0.4 0.3-0.7 0.7-0.7 0.5 0 0.8 0.3 0.8 0.7z"/>
					<path id="&lt;Path&gt;" class="s0" d="m804.8 50.3c0 0.2-0.2 0.5-0.4 0.5-0.3 0-0.5-0.3-0.5-0.5 0-0.3 0.2-0.5 0.5-0.5 0.2 0 0.4 0.2 0.4 0.5z"/>
					<path id="&lt;Path&gt;" class="s0" d="m752.5 60.8c0 0.3-0.2 0.5-0.5 0.5-0.2 0-0.5-0.2-0.5-0.5 0-0.2 0.3-0.4 0.5-0.4 0.3 0 0.5 0.2 0.5 0.4z"/>
					<path id="&lt;Path&gt;" class="s0" d="m821.7 228.7c0 0.2-0.2 0.4-0.5 0.4-0.3 0-0.5-0.2-0.5-0.4 0-0.3 0.2-0.5 0.5-0.5 0.3 0 0.5 0.2 0.5 0.5z"/>
					<path id="&lt;Path&gt;" class="s0" d="m795.1 211.9c0 0.2-0.2 0.4-0.5 0.4-0.2 0-0.4-0.2-0.4-0.4 0-0.3 0.2-0.5 0.4-0.5 0.3 0 0.5 0.2 0.5 0.5z"/>
					<path id="&lt;Path&gt;" class="s0" d="m790.9 141.3c0 0.3-0.2 0.5-0.4 0.5-0.3 0-0.5-0.2-0.5-0.5 0-0.3 0.2-0.5 0.5-0.5 0.2 0 0.4 0.2 0.4 0.5z"/>
					<path id="&lt;Path&gt;" class="s0" d="m753.1 76.6c0 0.3-0.2 0.5-0.5 0.5-0.2 0-0.4-0.2-0.4-0.5 0-0.3 0.2-0.5 0.4-0.5 0.3 0 0.5 0.2 0.5 0.5z"/>
					<path id="&lt;Path&gt;" class="s0" d="m700.7 87.1c0 0.3-0.2 0.5-0.4 0.5-0.3 0-0.5-0.2-0.5-0.5 0-0.2 0.2-0.4 0.5-0.4 0.2 0 0.4 0.2 0.4 0.4z"/>
					<path id="&lt;Path&gt;" class="s0" d="m739.2 167.6c0 0.3-0.2 0.5-0.5 0.5-0.2 0-0.4-0.2-0.4-0.5 0-0.3 0.2-0.5 0.4-0.5 0.3 0 0.5 0.2 0.5 0.5z"/>
					<path id="&lt;Path&gt;" class="s0" d="m810.3 157c0 0.3-0.2 0.5-0.4 0.5-0.3 0-0.5-0.2-0.5-0.5 0-0.2 0.2-0.4 0.5-0.4 0.2 0 0.4 0.2 0.4 0.4z"/>
					<path id="&lt;Path&gt;" class="s0" d="m776.5 142.1c0 0.3-0.2 0.5-0.4 0.5-0.3 0-0.5-0.2-0.5-0.5 0-0.2 0.2-0.5 0.5-0.5 0.2 0 0.4 0.3 0.4 0.5z"/>
					<path id="&lt;Path&gt;" class="s0" d="m695.9 174.8c0 0.2-0.2 0.4-0.4 0.4-0.3 0-0.5-0.2-0.5-0.4 0-0.3 0.2-0.5 0.5-0.5 0.2 0 0.4 0.2 0.4 0.5z"/>
					<path id="&lt;Path&gt;" class="s0" d="m710.5 57.9c0 0.4-0.3 0.7-0.7 0.7-0.4 0-0.8-0.3-0.8-0.7 0-0.5 0.4-0.8 0.8-0.8 0.4 0 0.7 0.3 0.7 0.8z"/>
					<path id="&lt;Path&gt;" class="s0" d="m837.9 132.3c0 0.4-0.3 0.8-0.7 0.8-0.4 0-0.8-0.4-0.8-0.8 0-0.4 0.4-0.7 0.8-0.7 0.4 0 0.7 0.3 0.7 0.7z"/>
					<path id="&lt;Path&gt;" class="s0" d="m788.7 102.8c0 0.2-0.2 0.4-0.4 0.4-0.3 0-0.5-0.2-0.5-0.4 0-0.3 0.2-0.5 0.5-0.5 0.2 0 0.4 0.2 0.4 0.5z"/>
					<path id="&lt;Path&gt;" class="s0" d="m843.4 48.7c0 0.4-0.4 0.7-0.8 0.7-0.4 0-0.7-0.3-0.7-0.7 0-0.4 0.3-0.8 0.7-0.8 0.4 0 0.8 0.4 0.8 0.8z"/>
					<path id="&lt;Path&gt;" class="s0" d="m779.9 118.9c0 0.4-0.4 0.8-0.8 0.8-0.4 0-0.7-0.4-0.7-0.8 0-0.4 0.3-0.7 0.7-0.7 0.4 0 0.8 0.3 0.8 0.7z"/>
					<path id="&lt;Path&gt;" class="s0" d="m819.5 201.7c0 0.5 0.4 0.8 0.8 0.8 0.4 0 0.7-0.3 0.7-0.8 0-0.4-0.3-0.7-0.7-0.7-0.4 0-0.8 0.3-0.8 0.7z"/>
					<path id="&lt;Path&gt;" class="s0" d="m830.8 61.1c0 0.3 0.2 0.5 0.4 0.5 0.3 0 0.5-0.2 0.5-0.5 0-0.2-0.2-0.5-0.5-0.5-0.2 0-0.4 0.3-0.4 0.5z"/>
					<path id="&lt;Path&gt;" class="s0" d="m829.2 109.7c0 0.4 0.3 0.7 0.7 0.7 0.4 0 0.8-0.3 0.8-0.7 0-0.4-0.4-0.8-0.8-0.8-0.4 0-0.7 0.4-0.7 0.8z"/>
					<path id="&lt;Path&gt;" class="s0" d="m837.3 54.2c0 0.5 0.4 0.8 0.8 0.8 0.4 0 0.7-0.3 0.7-0.8 0-0.4-0.3-0.7-0.7-0.7-0.4 0-0.8 0.3-0.8 0.7z"/>
					<path id="&lt;Path&gt;" class="s0" d="m822.9 66.1c0 0.3-0.2 0.5-0.5 0.5-0.3 0-0.6-0.2-0.6-0.5 0-0.3 0.3-0.6 0.6-0.6 0.3 0 0.5 0.3 0.5 0.6z"/>
					<path id="&lt;Path&gt;" class="s0" d="m762.5 78.2c0 0.3-0.3 0.5-0.6 0.5-0.3 0-0.5-0.2-0.5-0.5 0-0.3 0.2-0.5 0.5-0.5 0.3 0 0.6 0.2 0.6 0.5z"/>
					<path id="&lt;Path&gt;" class="s0" d="m617.3 131.5c0 0.4-0.4 0.8-0.9 0.8-0.5 0-0.8-0.4-0.8-0.8 0-0.5 0.3-0.9 0.8-0.9 0.5 0 0.9 0.4 0.9 0.9z"/>
					<path id="&lt;Path&gt;" class="s0" d="m682.6 160.5c0 0.2-0.2 0.5-0.5 0.5-0.2 0-0.4-0.3-0.4-0.5 0-0.3 0.2-0.5 0.4-0.5 0.3 0 0.5 0.2 0.5 0.5z"/>
					<path id="&lt;Path&gt;" class="s0" d="m692.4 131.2c0 0.5-0.3 0.8-0.7 0.8-0.4 0-0.8-0.3-0.8-0.8 0-0.4 0.4-0.7 0.8-0.7 0.4 0 0.7 0.3 0.7 0.7z"/>
					<path id="&lt;Path&gt;" class="s0" d="m650 177.9c0 0.4-0.3 0.8-0.7 0.8-0.4 0-0.8-0.4-0.8-0.8 0-0.4 0.4-0.7 0.8-0.7 0.4 0 0.7 0.3 0.7 0.7z"/>
					<path id="&lt;Path&gt;" class="s0" d="m676.9 136.6c0 0.2-0.2 0.4-0.5 0.4-0.2 0-0.4-0.2-0.4-0.4 0-0.3 0.2-0.5 0.4-0.5 0.3 0 0.5 0.2 0.5 0.5z"/>
					<path id="&lt;Path&gt;" class="s0" d="m624.5 147.1c0 0.2-0.2 0.4-0.4 0.4-0.3 0-0.5-0.2-0.5-0.4 0-0.3 0.2-0.5 0.5-0.5 0.2 0 0.4 0.2 0.4 0.5z"/>
					<path id="&lt;Path&gt;" class="s0" d="m625.1 162.9c0 0.2-0.2 0.4-0.4 0.4-0.3 0-0.5-0.2-0.5-0.4 0-0.3 0.2-0.5 0.5-0.5 0.2 0 0.4 0.2 0.4 0.5z"/>
					<path id="&lt;Path&gt;" class="s0" d="m660.8 189c0 0.3-0.2 0.5-0.5 0.5-0.2 0-0.4-0.2-0.4-0.5 0-0.2 0.2-0.4 0.4-0.4 0.3 0 0.5 0.2 0.5 0.4z"/>
					<path id="&lt;Path&gt;" class="s0" d="m715.4 135c0 0.4-0.3 0.7-0.7 0.7-0.5 0-0.8-0.3-0.8-0.7 0-0.5 0.3-0.8 0.8-0.8 0.4 0 0.7 0.3 0.7 0.8z"/>
					<path id="&lt;Path&gt;" class="s0" d="m702.8 147.4c0 0.2 0.2 0.4 0.5 0.4 0.2 0 0.4-0.2 0.4-0.4 0-0.3-0.2-0.5-0.4-0.5-0.3 0-0.5 0.2-0.5 0.5z"/>
					<path id="&lt;Path&gt;" class="s0" d="m701.2 196c0 0.4 0.3 0.7 0.8 0.7 0.4 0 0.7-0.3 0.7-0.7 0-0.4-0.3-0.8-0.7-0.8-0.5 0-0.8 0.4-0.8 0.8z"/>
					<path id="&lt;Path&gt;" class="s0" d="m709.4 140.5c0 0.4 0.3 0.8 0.7 0.8 0.4 0 0.8-0.4 0.8-0.8 0-0.4-0.4-0.7-0.8-0.7-0.4 0-0.7 0.3-0.7 0.7z"/>
					<path id="&lt;Path&gt;" class="s0" d="m694.9 152.3c0 0.3-0.2 0.6-0.5 0.6-0.3 0-0.5-0.3-0.5-0.6 0-0.3 0.2-0.5 0.5-0.5 0.3 0 0.5 0.2 0.5 0.5z"/>
					<path id="&lt;Path&gt;" class="s0" d="m634.5 164.5c0 0.3-0.2 0.5-0.5 0.5-0.3 0-0.6-0.2-0.6-0.5 0-0.3 0.3-0.6 0.6-0.6 0.3 0 0.5 0.3 0.5 0.6z"/>
					<path id="&lt;Path&gt;" class="s0" d="m811.6 252.5c0 0.3-0.2 0.5-0.5 0.5-0.3 0-0.5-0.2-0.5-0.5 0-0.3 0.2-0.5 0.5-0.5 0.3 0 0.5 0.2 0.5 0.5z"/>
					<path id="&lt;Path&gt;" class="s0" d="m806.9 171.1c0 0.3-0.3 0.5-0.6 0.5-0.3 0-0.5-0.2-0.5-0.5 0-0.3 0.2-0.6 0.5-0.6 0.3 0 0.6 0.3 0.6 0.6z"/>
					<path id="&lt;Path&gt;" class="s0" d="m815.7 238.6c0-0.4 0.3-0.8 0.7-0.8 0.4 0 0.8 0.4 0.8 0.8 0 0.4-0.4 0.7-0.8 0.7-0.4 0-0.7-0.3-0.7-0.7z"/>
					<path id="&lt;Path&gt;" class="s0" d="m215 206.3c0-0.4 0.4-0.7 0.8-0.7 0.4 0 0.7 0.3 0.7 0.7 0 0.5-0.3 0.8-0.7 0.8-0.4 0-0.8-0.3-0.8-0.8z"/>
				</g>
			</g>
		</g>
	</g>
</svg>