<svg version="1.2" xmlns="http://www.w3.org/2000/svg" viewBox="0 0 800 400" width="800" height="400">
	<title>final</title>
	<defs>
		<clipPath clipPathUnits="userSpaceOnUse" id="cp1">
			<path d="m800 400h-800v-400h800z"/>
		</clipPath>
		<linearGradient id="g1" x2="1" gradientUnits="userSpaceOnUse" gradientTransform="matrix(0,-86.73,803.495,0,394.913,400)">
			<stop offset="0" stop-color="#0e1747"/>
			<stop offset="1" stop-color="#001060"/>
		</linearGradient>
		<linearGradient id="g2" x2="1" gradientUnits="userSpaceOnUse" gradientTransform="matrix(0,-70.592,512.652,0,249.312,376.57)">
			<stop offset="0" stop-color="#003b86"/>
			<stop offset="1" stop-color="#1459a5"/>
		</linearGradient>
		<linearGradient id="g3" x2="1" gradientUnits="userSpaceOnUse" gradientTransform="matrix(0,-19.035,127.593,0,76.534,376.532)">
			<stop offset="0" stop-color="#0e1747"/>
			<stop offset="1" stop-color="#001060"/>
		</linearGradient>
		<linearGradient id="g4" x2="1" gradientUnits="userSpaceOnUse" gradientTransform="matrix(61.663,0,0,18.169,235.125,355.114)">
			<stop offset="0" stop-color="#0e1747"/>
			<stop offset="1" stop-color="#001060"/>
		</linearGradient>
		<linearGradient id="g5" x2="1" gradientUnits="userSpaceOnUse" gradientTransform="matrix(0,-212.118,207.131,0,589.163,400.934)">
			<stop offset=".513" stop-color="#0c164a"/>
			<stop offset=".537" stop-color="#0c164a"/>
			<stop offset="1" stop-color="#001060"/>
		</linearGradient>
		<radialGradient id="g6" cx="0" cy="0" r="1" gradientUnits="userSpaceOnUse" gradientTransform="matrix(26.343,0,0,26.343,700.522,368.125)">
			<stop offset="0" stop-color="#ffae00"/>
			<stop offset="1" stop-color="#000000"/>
		</radialGradient>
		<radialGradient id="g7" cx="0" cy="0" r="1" gradientUnits="userSpaceOnUse" gradientTransform="matrix(4.035,0,0,4.035,768.374,296.451)">
			<stop offset="0" stop-color="#ffae00"/>
			<stop offset="1" stop-color="#000000"/>
		</radialGradient>
		<linearGradient id="g8" x2="1" gradientUnits="userSpaceOnUse" gradientTransform="matrix(0,-66.096,11.912,0,15.8,384.189)">
			<stop offset="0" stop-color="#1550ff"/>
			<stop offset="1" stop-color="#00c8f6"/>
		</linearGradient>
		<linearGradient id="g9" x2="1" gradientUnits="userSpaceOnUse" gradientTransform="matrix(0,-85.342,35.969,0,114.405,387.007)">
			<stop offset="0" stop-color="#1572ff"/>
			<stop offset="1" stop-color="#00e5f6"/>
		</linearGradient>
		<linearGradient id="g10" x2="1" gradientUnits="userSpaceOnUse" gradientTransform="matrix(0,-51.447,18.497,0,163.663,388.878)">
			<stop offset="0" stop-color="#1572ff"/>
			<stop offset="1" stop-color="#00e5f6"/>
		</linearGradient>
		<linearGradient id="g11" x2="1" gradientUnits="userSpaceOnUse" gradientTransform="matrix(0,-34.08,18.504,0,192.616,388.487)">
			<stop offset="0" stop-color="#1572ff"/>
			<stop offset="1" stop-color="#00e5f6"/>
		</linearGradient>
		<radialGradient id="g12" cx="0" cy="0" r="1" gradientUnits="userSpaceOnUse" gradientTransform="matrix(10.934,0,0,10.934,207.178,338.379)">
			<stop offset="0" stop-color="#005eff"/>
			<stop offset="1" stop-color="#000000"/>
		</radialGradient>
		<radialGradient id="g13" cx="0" cy="0" r="1" gradientUnits="userSpaceOnUse" gradientTransform="matrix(9.664,0,0,9.664,237.331,363.427)">
			<stop offset="0" stop-color="#005eff"/>
			<stop offset="1" stop-color="#000000"/>
		</radialGradient>
		<radialGradient id="g14" cx="0" cy="0" r="1" gradientUnits="userSpaceOnUse" gradientTransform="matrix(3.337,14.274,-14.274,3.337,224.621,366.526)">
			<stop offset="0" stop-color="#005eff"/>
			<stop offset="1" stop-color="#000000"/>
		</radialGradient>
		<radialGradient id="g15" cx="0" cy="0" r="1" gradientUnits="userSpaceOnUse" gradientTransform="matrix(4.69,20.062,-20.062,4.69,245.374,378.046)">
			<stop offset="0" stop-color="#005eff"/>
			<stop offset="1" stop-color="#000000"/>
		</radialGradient>
	</defs>
	<style>
		.s0 { fill: #062c70 } 
		.s1 { fill: #062569 } 
		.s2 { fill: url(#g1) } 
		.s3 { fill: url(#g2) } 
		.s4 { fill: #060a35 } 
		.s5 { fill: #083175 } 
		.s6 { fill: url(#g3) } 
		.s7 { fill: #001d66 } 
		.s8 { fill: #060d4a } 
		.s9 { fill: #060d3f } 
		.s10 { fill: #083165 } 
		.s11 { fill: #085aa1 } 
		.s12 { fill: #084c8d } 
		.s13 { fill: #005695 } 
		.s14 { fill: #085495 } 
		.s15 { fill: #0072a4 } 
		.s16 { fill: #085498 } 
		.s17 { fill: url(#g4) } 
		.s18 { fill: #083b82 } 
		.s19 { fill: url(#g5) } 
		.s20 { fill: #082264 } 
		.s21 { fill: #ff8337 } 
		.s22 { fill: #ffcc00 } 
		.s23 { opacity: .5;mix-blend-mode: multiply;fill: #082264 } 
		.s24 { fill: #081a64 } 
		.s25 { fill: #222264 } 
		.s26 { fill: #08227d } 
		.s27 { fill: #fff200 } 
		.s28 { fill: #152264 } 
		.s29 { opacity: .61;mix-blend-mode: screen;fill: url(#g6) } 
		.s30 { opacity: .61;mix-blend-mode: screen;fill: url(#g7) } 
		.s31 { fill: url(#g8) } 
		.s32 { fill: url(#g9) } 
		.s33 { fill: #5bebf3 } 
		.s34 { opacity: .3;mix-blend-mode: multiply;fill: #833bc7 } 
		.s35 { fill: url(#g10) } 
		.s36 { fill: url(#g11) } 
		.s37 { fill: #24d2f3 } 
		.s38 { fill: #02fffc } 
		.s39 { mix-blend-mode: color-dodge;fill: url(#g12) } 
		.s40 { mix-blend-mode: color-dodge;fill: url(#g13) } 
		.s41 { mix-blend-mode: color-dodge;fill: url(#g14) } 
		.s42 { mix-blend-mode: color-dodge;fill: url(#g15) } 
	</style>
	<g id="_Artboards_">
	</g>
	<g id="space">
		<g id="&lt;Clip Group&gt;" clip-path="url(#cp1)">
			<g id="-e-surface">
				<g id="&lt;Group&gt;">
					<path id="&lt;Path&gt;" class="s0" d="m177.3 308.5l25 10.8 4.8 7.5 7.9 10.8-81.3-11.5-8.2-11.7-0.9-10.6 14.9 4.7z"/>
					<path id="&lt;Path&gt;" class="s1" d="m31.3 306.8l2.4 18.5 69.4 11.1c0 0 40.1 1.4 38.6 0.3-1.4-1-3.6-23.4-3.6-23.4h-40.6l-6.4 2.5z"/>
					<path id="&lt;Path&gt;" class="s2" d="m-2.2 313.3l214.4 22.7c0 0 216.4 35.7 262 38 45.5 2.4 327.1 26 327.1 26h-802.3z"/>
					<path id="&lt;Path&gt;" class="s3" d="m-2.2 367.1l109.3 7.6 26.1 1.9 39.1-4.6 11.6-2.3 60 0.3 41.5 0.5 11.4-3.9h43.3l92.9 8.1 77.5 1.8c0 0-146.7-14-215.8-27.6-69.2-13.7-125.2-19.8-125.2-19.8l-62.4-9.1-2.3 4.6-75.1-8.6-8.3-5.5-22.4-4.5z"/>
					<path id="&lt;Path&gt;" class="s4" d="m354 388.1l-68.6-17.6-4.5-5.2-45-10.2 60.9 11.5 6.1 5z"/>
					<path id="&lt;Path&gt;" class="s5" d="m464.5 380.9c0 0-34.4 3.8-37.8 3.5-3.4-0.4-50.4-2.9-53-2.8-2.7 0.1-58.4 1.1-58.4 1.1l-42.5 3.1-97.5 4.8 71.8 4.1c0 0 39.4-5.4 44.9-4.9 5.5 0.5 57.7 0.8 57.7 0.8l27.3-3.7 25.3 3.7 44.4-2.5 20.9-4.8 46.6-1.9z"/>
					<path id="&lt;Path&gt;" class="s6" d="m52.4 370.9l-12.1 5.6-26.1-1.5 5.5-8 20-9.3 40.3 1.3 17.5-1.5 18.5 2 25.7 1-40 1.8-34.2 3.1z"/>
					<path id="&lt;Path&gt;" class="s0" d="m107.1 320l13.9 4.1 6.9 3.9 28.6 5.6-30.9-2.8-20.8-6.2z"/>
					<path id="&lt;Path&gt;" class="s7" d="m141.7 360.5l31-5.4h8.6 14.4 32.8l-35.8 5.4-11.7-0.8z"/>
					<path id="&lt;Path&gt;" class="s8" d="m340.1 366.6l9.9 15.4h34.3l15.3 0.4-2.2-10.8-43.4-4z"/>
					<path id="&lt;Path&gt;" class="s9" d="m183.9 369.7v11.9l1.2 1.7-5.1 7.3h-4.7v9.4l-4-10.2-38.6 0.8 0.5-14 42.1-5z"/>
					<path id="&lt;Path&gt;" class="s10" d="m104.8 390.6h27.9l38.6-0.8-26.3 4.9-17.1 2.3z"/>
					<path id="&lt;Path&gt;" class="s11" d="m31.3 306.8l59.8 9 6.4-2.5h15.6 25l-53.4-11.4-18.5-0.8-10.9 1.2-2.3 3z"/>
					<path id="&lt;Path&gt;" class="s11" d="m124.6 303.8l14.9 4.7h15.4l12.1 1.9 35.3 8.9-41.2-17.8z"/>
					<path id="&lt;Path&gt;" class="s11" d="m202.3 319.3l-14.8 2.7-20.5 1.5-14-2.1 15.6 3.8 21.7-0.7 16.8 2.3z"/>
					<path id="&lt;Path&gt;" class="s9" d="m74.2 372.4l8.2 3.1 9.1 1h13.3l14.2 2.3 13.9 4.5 0.3-6.7-44.9-2.8z"/>
					<path id="&lt;Path&gt;" class="s9" d="m215 369.7l27.8 2.7 10-1.3 10.7 1.3h24.5l9.5 1.3-12.1-3.2z"/>
					<path id="&lt;Path&gt;" class="s9" d="m247.1 394.7l9.2 2.3 25.7-2.3 7.9-4.9 9.6 0.8 31.2 2.8 19-2.8-61.6-1.6z"/>
					<path id="&lt;Path&gt;" class="s12" d="m121.7 375.2l14.9-1.5 18.3-4 4-2.7 20.1 0.6 4.9 2.1-8.6 1.9-42.1 5z"/>
					<path id="&lt;Path&gt;" class="s13" d="m39.7 357.7l20.5-4.7 37.3-4.9 20-2.1 35.3 2.1 15.2 1.2 60.5 5.8h-55.8l-31 5.4-3.6-0.1-40.6-2.9-17.5 1.5z"/>
					<path id="&lt;Path&gt;" class="s12" d="m373.7 381.6v5.7l28.6 3.3 24.4-1.6 20-0.9-20-3.7-23.5-2.8z"/>
					<path id="&lt;Path&gt;" class="s14" d="m291.2 365.5l9.6-2.2 13.5 1.1 21.4 2.2h-27.9l-4.9 5-4.5-3.7-1.6-1.3z"/>
					<path id="&lt;Path&gt;" class="s14" d="m241.5 366.6h5.6l2.9 0.9z"/>
					<path id="&lt;Path&gt;" class="s14" d="m227.6 367l-6.4 0.6 2 0.5 5.3-0.5h1.9z"/>
					<path id="&lt;Path&gt;" class="s14" d="m232.7 364.1l6-2.1-0.8 1.1z"/>
					<path id="&lt;Path&gt;" class="s14" d="m150.8 341.3v-4.2l8.1 0.5-4 1.6z"/>
					<g id="&lt;Group&gt;">
						<path id="&lt;Path&gt;" class="s15" d="m175.9 338.3c-0.3-0.4-0.9-0.8-1.7-1.1q-0.2-0.1-0.4-0.2c-0.4 0-0.7 0-1 0-0.7 0.1-1 0.4-0.8 0.7 0.2 0.3 1 0.6 1.8 0.8 0.5 0.1 1 0.2 1.4 0.1 0.4 0 0.7-0.2 0.5-0.3-0.1-0.1-0.3 0-0.2 0z"/>
						<path id="&lt;Path&gt;" class="s15" d="m173.7 339.7c-0.3-0.2-0.8-0.4-1.5-0.5-0.4 0.1-0.6 0.3-0.5 0.6 0.2 0.2 1 0.4 1.6 0.4 0.6 0 0.7-0.4 0.1-0.5z"/>
						<path id="&lt;Path&gt;" class="s15" d="m179 337.6q-0.2-0.1-0.6-0.1 0 0 0 0-0.1 0-0.1 0c-0.1 0 0.1 0.1-0.1 0.2q-0.1 0-0.1 0c-0.1 0 0 0 0.1 0.1 0.3 0 0.7-0.1 0.7-0.2q0.1 0 0.1 0.1z"/>
						<path id="&lt;Path&gt;" class="s15" d="m182 335.6q-0.5-0.2-1.1-0.3 0 0-0.1 0-0.1 0-0.1 0c-0.2 0.1 0.1 0.3-0.3 0.4 0 0-0.1 0-0.2 0 0 0.1 0.1 0.1 0.3 0.1 0.6 0.2 1.4 0 1.3-0.2q0.1 0 0.2 0.1z"/>
						<path id="&lt;Path&gt;" class="s15" d="m168 336.5c-0.1-0.1-0.4-0.2-0.7-0.2q-0.1 0-0.1 0.1 0.1 0.1 0.3 0.1c0.1 0.1 0.3 0 0.5 0q0 0 0 0z"/>
						<path id="&lt;Path&gt;" class="s15" d="m171 330.9q-0.1-0.1-0.2-0.1-0.1 0-0.2 0-0.3 0.1-0.6 0.1 0.5 0.1 1 0.2 0.1 0 0.1 0c0.1 0.1 0 0.1 0.1 0.1 0 0.1 0.2 0.1 0.4 0.1 1 0.1-0.2-0.3-0.6-0.4z"/>
						<path id="&lt;Path&gt;" class="s15" d="m179.5 331.3c0.1 0.1-0.1 0.3-0.4 0.2-0.3 0-0.6-0.1-0.4-0.2 0.1-0.1 0.6-0.1 0.8 0z"/>
						<path id="&lt;Path&gt;" class="s15" d="m175.8 335.3c0.3 0 0.6 0.1 0.6 0.2 0 0.1-0.3 0.1-0.5 0.1-0.1 0-0.2 0-0.3 0-0.2-0.1 0.2-0.2 0.1-0.3 0 0 0.1 0 0.1 0.1z"/>
						<path id="&lt;Path&gt;" class="s15" d="m170.1 337.8q0.2 0 0.3 0c-0.2 0-0.5 0-0.7 0-0.1-0.1-0.3-0.1-0.3-0.2 0 0 0.1 0 0.1 0 0.1-0.1 0-0.2 0.2-0.2 0.1 0 0.2 0 0.2 0.1q0.1 0 0.1 0.1 0.1 0.1 0.1 0.2z"/>
						<path id="&lt;Path&gt;" class="s15" d="m169.3 338.9c-0.1-0.1-0.4-0.1-0.4 0 0 0.1 0.1 0.1 0.3 0.2 0.2 0 0.3-0.1 0.2-0.2z"/>
						<path id="&lt;Path&gt;" class="s15" d="m183.8 344.8q-0.1-0.1-0.2-0.1c-0.1 0-0.2 0-0.3 0-0.1 0 0 0.1 0 0.2-0.1 0-0.3 0-0.2 0.1 0 0 0.2 0.1 0.3 0.1q0.2 0 0.3-0.1 0.2-0.1 0.2-0.1c0-0.1-0.1-0.1-0.3-0.1z"/>
						<path id="&lt;Path&gt;" class="s15" d="m156.8 339.8c0 0 0 0.1-0.1 0.1q-0.1 0-0.3-0.1 0 0-0.1 0c0-0.1 0-0.1 0.1-0.1 0.1 0 0.3 0 0.3 0q0.1 0.1-0.1 0.2z"/>
						<path id="&lt;Path&gt;" class="s15" d="m167.1 337.4c0.1-0.1 0.1-0.2-0.1-0.2q-0.2 0-0.2 0.1 0 0 0.1 0.1c0.1 0 0.3 0 0.2-0.1z"/>
						<path id="&lt;Path&gt;" class="s15" d="m168.7 333.1c0.2 0 0.1-0.1-0.1-0.1q-0.1 0-0.2 0 0 0.1 0.2 0.1c0 0 0.2 0 0.2 0z"/>
						<path id="&lt;Path&gt;" class="s15" d="m170 336.5q0-0.1-0.3-0.2-0.2 0.1-0.3 0.2-0.1 0-0.1 0c0 0.1 0.2 0.2 0.4 0.2q0.3 0 0.3-0.1z"/>
						<path id="&lt;Path&gt;" class="s15" d="m206.2 337.1q0.5 0.2 0.9 0.3c0 0-0.2 0-0.4 0-0.2 0-0.4-0.1-0.5-0.1-0.1-0.1-0.1-0.2 0-0.2z"/>
						<path id="&lt;Path&gt;" class="s15" d="m199.5 336.6c0.1-0.1-0.2-0.2-0.5-0.2-0.2 0-0.3 0.1-0.3 0.2q0 0 0.2 0.1c0.1 0 0.3 0 0.4 0q0.2-0.1 0.3-0.1z"/>
						<path id="&lt;Path&gt;" class="s15" d="m174.4 335.1c0-0.1-0.1-0.2-0.2-0.3q-0.3 0.1-0.3 0.2c-0.1 0 0 0.1 0.2 0.2 0.2 0 0.5-0.1 0.4-0.1z"/>
						<path id="&lt;Path&gt;" class="s15" d="m175 335.9q0.2 0.1 0 0.2-0.3-0.1-0.5-0.2c0 0 0.3-0.1 0.5 0z"/>
						<path id="&lt;Path&gt;" class="s15" d="m178.3 337.6q0.1 0 0.2 0.1-0.1 0-0.3 0.1c-0.1 0-0.3 0-0.5-0.1-0.1 0 0-0.1 0.1-0.1q0.3 0 0.5 0z"/>
						<path id="&lt;Path&gt;" class="s15" d="m166.9 338.6q0.1 0.1 0 0.1c-0.1 0-0.3 0-0.4 0-0.1 0-0.2-0.1-0.1-0.1q0 0 0.1 0 0.2 0 0.4 0 0 0 0 0z"/>
						<path id="&lt;Path&gt;" class="s15" d="m163.8 338.3c-0.1 0 0 0.1 0.1 0.1 0.2 0.1 0.3 0.1 0.3 0.2q0 0-0.1 0c-0.1 0-0.2 0-0.3-0.1q-0.1 0-0.2 0c-0.2-0.1-0.4-0.2-0.3-0.2 0-0.1 0.2-0.1 0.3-0.1q0.2 0.1 0.2 0.1z"/>
						<path id="&lt;Path&gt;" class="s15" d="m162.1 338.3q0 0-0.1 0 0 0 0.1 0.1c0.1 0 0.2 0 0.3-0.1 0 0-0.1-0.1-0.2 0z"/>
						<path id="&lt;Path&gt;" class="s15" d="m161.6 339.7q-0.1 0-0.2 0 0 0.1 0.2 0.1c0.1 0 0.2 0 0.2 0 0 0-0.1-0.1-0.2-0.1z"/>
						<path id="&lt;Path&gt;" class="s15" d="m167.8 337c0.1 0.1 0.3 0.1 0.3 0.1 0.1-0.1 0.1-0.1 0.2-0.1q0.1-0.1 0.3-0.1 0.2 0 0.2 0.1 0.1 0 0.1 0c0 0.1 0 0.2-0.2 0.3-0.1 0-0.3 0.1-0.6 0-0.1 0-0.3-0.1-0.4-0.1q0-0.1 0.1-0.2z"/>
						<path id="&lt;Path&gt;" class="s15" d="m162.9 331c0 0.1 0.2 0.1 0.3 0.1 0.1 0 0.1-0.1 0.2-0.1q0.1-0.1 0.3-0.1 0.1 0.1 0.2 0.1 0 0 0 0c0.1 0.1 0 0.2-0.1 0.3-0.1 0-0.4 0.1-0.6 0-0.2 0-0.3 0-0.4-0.1q-0.1-0.1 0.1-0.2z"/>
						<path id="&lt;Path&gt;" class="s15" d="m167.3 335.9c0-0.1-0.2-0.1-0.4-0.1q-0.2 0-0.3 0 0 0.1 0.1 0.1 0 0 0.1 0 0.3 0 0.5 0z"/>
						<path id="&lt;Path&gt;" class="s15" d="m178.1 333.5c0.2 0 0.2-0.1 0-0.2q-0.1-0.1-0.3-0.1c-0.2 0-0.3 0-0.4 0.1q-0.1 0-0.2 0.1c-0.1 0-0.1 0.1-0.1 0.1q0.1 0 0.2 0 0.5 0.1 1.1 0.2z"/>
						<path id="&lt;Path&gt;" class="s15" d="m179.8 336.3c2.1 0 1.1-0.9-0.7-1-2-0.2-1.1 1 0.7 1z"/>
						<path id="&lt;Path&gt;" class="s15" d="m171.8 338.8c0 0.1-0.4 0.1-0.6 0.1 0-0.1 0-0.2 0.2-0.3 0.1 0 0.5 0 0.6 0.1q0 0.1 0 0.1z"/>
						<path id="&lt;Path&gt;" class="s15" d="m164.1 339q0.1 0.1 0.1 0.1 0 0-0.1 0.1 0 0-0.1 0c-0.1 0-0.3-0.1-0.3-0.1q-0.1-0.1 0-0.1 0.1 0 0.2 0 0.1 0 0.1 0z"/>
						<path id="&lt;Path&gt;" class="s15" d="m165.4 337.1q-0.1 0-0.2-0.1c-0.1 0.1-0.1 0.1-0.1 0.1 0 0.1 0.1 0.1 0.2 0.1q0 0 0 0 0.1-0.1 0.1-0.1z"/>
						<path id="&lt;Path&gt;" class="s15" d="m157.7 333.3q-0.1 0-0.3-0.1c-0.1 0-0.3-0.1-0.4-0.1q-0.1 0.1-0.2 0.1c0 0.1 0.2 0.2 0.4 0.2 0.2 0.1 0.5 0 0.5-0.1z"/>
						<path id="&lt;Path&gt;" class="s15" d="m170.3 332.5c0.2 0.1 0.3 0.2 0.1 0.2q-0.2 0-0.4 0 0.1-0.1 0.2-0.1z"/>
						<path id="&lt;Path&gt;" class="s15" d="m175 340.1q-0.1 0-0.3 0 0 0-0.1 0c0.2 0.1 0.4 0.1 0.5 0.1z"/>
					</g>
					<g id="&lt;Group&gt;">
						<path id="&lt;Path&gt;" class="s15" d="m132.3 355.5c-0.4-0.4-0.9-0.8-1.7-1.2q-0.2 0-0.5-0.1c-0.3-0.1-0.7-0.1-1 0-0.7 0.1-1 0.4-0.7 0.7 0.2 0.3 0.9 0.6 1.8 0.8 0.4 0.1 0.9 0.1 1.4 0.1 0.4-0.1 0.7-0.2 0.5-0.4-0.1 0-0.3 0-0.3 0.1z"/>
						<path id="&lt;Path&gt;" class="s15" d="m120.2 370.2c-0.3-0.4-0.9-0.8-1.7-1.1q-0.2-0.1-0.5-0.2c-0.3-0.1-0.7-0.1-1 0-0.7 0.1-1 0.4-0.7 0.7 0.2 0.3 0.9 0.6 1.8 0.8 0.4 0.1 0.9 0.1 1.4 0.1 0.4 0 0.7-0.2 0.5-0.4-0.1 0-0.3 0-0.3 0.1z"/>
						<path id="&lt;Path&gt;" class="s15" d="m130 356.9c-0.2-0.3-0.8-0.5-1.4-0.6-0.4 0.2-0.7 0.4-0.5 0.6 0.2 0.2 0.9 0.5 1.5 0.4 0.7 0 0.8-0.3 0.2-0.5z"/>
						<path id="&lt;Path&gt;" class="s15" d="m135.4 354.8q-0.3-0.1-0.6-0.2 0 0-0.1 0 0 0 0 0c-0.1 0.1 0 0.2-0.2 0.2q0 0-0.1 0.1c0 0 0.1 0 0.2 0 0.3 0.1 0.7 0 0.7-0.1q0 0 0.1 0z"/>
						<path id="&lt;Path&gt;" class="s15" d="m178.6 349.8q-0.5-0.2-1-0.4-0.1 0-0.2 0-0.1 0-0.1 0c-0.2 0.1 0.1 0.4-0.2 0.4-0.1 0-0.2 0-0.2 0.1-0.1 0 0.1 0 0.2 0.1 0.7 0.1 1.4 0 1.4-0.3q0 0 0.1 0.1z"/>
						<path id="&lt;Path&gt;" class="s15" d="m124.4 353.7c-0.2-0.1-0.4-0.2-0.7-0.3q-0.1 0.1-0.1 0.2 0 0 0.2 0.1c0.2 0 0.4 0 0.5 0q0 0 0 0z"/>
						<path id="&lt;Path&gt;" class="s15" d="m127.4 348.1q-0.1-0.1-0.2-0.1-0.1 0-0.3 0-0.2 0-0.6 0 0.6 0.2 1.1 0.3 0.1 0 0.1 0c0.1 0 0 0.1 0 0.1 0.1 0.1 0.3 0.1 0.4 0.1 1.1 0.1-0.2-0.3-0.5-0.4z"/>
						<path id="&lt;Path&gt;" class="s15" d="m135.8 348.5c0.2 0.1 0 0.2-0.3 0.2-0.4 0-0.6-0.2-0.5-0.3 0.2 0 0.6 0 0.8 0.1z"/>
						<path id="&lt;Path&gt;" class="s15" d="m132.2 352.5c0.2 0 0.5 0.1 0.5 0.2 0 0-0.2 0.1-0.5 0.1-0.1 0-0.2-0.1-0.3-0.1-0.1-0.1 0.3-0.1 0.1-0.2 0.1 0 0.2 0 0.2 0z"/>
						<path id="&lt;Path&gt;" class="s15" d="m126.5 354.9q0.1 0 0.2 0.1c-0.2 0-0.4 0-0.7-0.1-0.1 0-0.2 0-0.2-0.1 0 0 0 0 0.1-0.1 0 0 0-0.1 0.1-0.1 0.1 0 0.2 0 0.3 0q0.1 0.1 0.1 0.1 0 0.2 0.1 0.3z"/>
						<path id="&lt;Path&gt;" class="s15" d="m125.7 356c-0.1 0-0.4 0-0.4 0.1 0 0 0.1 0.1 0.2 0.2 0.2-0.1 0.3-0.2 0.3-0.3z"/>
						<path id="&lt;Path&gt;" class="s15" d="m140.1 362q-0.1-0.1-0.2-0.1c-0.1 0-0.2 0-0.2 0-0.1 0 0 0.1-0.1 0.1 0 0.1-0.2 0.1-0.2 0.1 0 0.1 0.2 0.1 0.4 0.1q0.2 0 0.3 0 0.1-0.1 0.1-0.2c0 0-0.1-0.1-0.2-0.1z"/>
						<path id="&lt;Path&gt;" class="s15" d="m113.2 357c0 0 0 0-0.1 0q-0.2 0-0.3 0-0.1 0-0.1-0.1c-0.1 0 0 0 0.1-0.1 0.1 0 0.2 0.1 0.3 0.1q0.1 0.1-0.1 0.1z"/>
						<path id="&lt;Path&gt;" class="s15" d="m123.4 354.5c0.2 0 0.1-0.1-0.1-0.1q-0.1 0-0.1 0 0 0.1 0.1 0.1c0.1 0.1 0.2 0 0.2 0z"/>
						<path id="&lt;Path&gt;" class="s15" d="m125.1 350.3c0.1-0.1 0-0.2-0.2-0.2q-0.1 0-0.1 0.1 0 0 0.1 0.1c0.1 0 0.2 0 0.2 0z"/>
						<path id="&lt;Path&gt;" class="s15" d="m41.2 348q-0.1-0.1-0.4-0.2-0.1 0.1-0.2 0.2-0.1 0-0.1 0c0 0.1 0.2 0.2 0.4 0.2q0.2-0.1 0.3-0.1z"/>
						<path id="&lt;Path&gt;" class="s15" d="m162.5 354.3q0.5 0.1 1 0.2c0 0.1-0.3 0.1-0.4 0-0.2 0-0.4 0-0.5-0.1-0.1 0-0.2-0.1 0-0.1z"/>
						<path id="&lt;Path&gt;" class="s15" d="m155.9 353.7c0 0-0.3-0.2-0.5-0.1-0.2 0-0.4 0-0.3 0.1q0 0.1 0.1 0.1c0.2 0.1 0.4 0.1 0.5 0q0.2 0 0.2-0.1z"/>
						<path id="&lt;Path&gt;" class="s15" d="m130.7 352.2c0.1 0 0-0.1-0.2-0.2q-0.2 0-0.3 0.1c0 0.1 0.1 0.2 0.3 0.2 0.2 0.1 0.5 0 0.3-0.1z"/>
						<path id="&lt;Path&gt;" class="s15" d="m103.9 366.1c0-0.1-0.1-0.2-0.2-0.2q-0.3 0-0.3 0.1c-0.1 0.1 0 0.2 0.2 0.2 0.2 0.1 0.5 0 0.4-0.1z"/>
						<path id="&lt;Path&gt;" class="s15" d="m131.4 353.1q0.1 0.1-0.1 0.1-0.2 0-0.4-0.1c0-0.1 0.2-0.1 0.5-0.1z"/>
						<path id="&lt;Path&gt;" class="s15" d="m134.7 354.8q0.1 0 0.2 0-0.1 0.1-0.3 0.1c-0.2 0-0.4 0-0.5 0-0.1-0.1-0.1-0.2 0.1-0.2q0.2 0 0.5 0.1z"/>
						<path id="&lt;Path&gt;" class="s15" d="m123.3 355.8q0.1 0-0.1 0.1c-0.1 0-0.2 0-0.4 0 0-0.1-0.1-0.1-0.1-0.1q0.1 0 0.1 0 0.2-0.1 0.5-0.1 0 0 0 0.1z"/>
						<path id="&lt;Path&gt;" class="s15" d="m120.1 355.4c0 0.1 0.1 0.1 0.2 0.2 0.1 0 0.3 0.1 0.2 0.2q0 0 0 0c-0.1 0-0.2-0.1-0.3-0.1q-0.1 0-0.3-0.1c-0.2 0-0.3-0.1-0.3-0.2 0.1 0 0.2 0 0.3 0q0.2 0 0.3 0.1z"/>
						<path id="&lt;Path&gt;" class="s15" d="m118.5 355.4q-0.1 0-0.2 0 0 0.1 0.2 0.1c0.1 0 0.2 0 0.2 0 0 0-0.1-0.1-0.2-0.1z"/>
						<path id="&lt;Path&gt;" class="s15" d="m118 356.9q-0.1 0-0.2 0 0 0.1 0.2 0.1c0.1 0 0.2 0 0.2 0 0-0.1-0.1-0.1-0.2-0.1z"/>
						<path id="&lt;Path&gt;" class="s15" d="m124.2 354.2c0 0 0.2 0 0.3 0 0.1 0 0.1 0 0.2-0.1q0.1 0 0.3 0 0.1 0 0.2 0 0 0.1 0 0.1c0 0.1 0 0.2-0.1 0.2-0.1 0.1-0.4 0.1-0.6 0.1-0.2 0-0.3-0.1-0.4-0.2q-0.1-0.1 0.1-0.1z"/>
						<path id="&lt;Path&gt;" class="s15" d="m119.3 348.2c0 0.1 0.2 0.1 0.3 0 0 0 0.1 0 0.1-0.1q0.2 0 0.4 0 0.1 0 0.2 0.1 0 0 0 0c0 0.1 0 0.2-0.1 0.2-0.2 0.1-0.4 0.1-0.6 0.1-0.2 0-0.4-0.1-0.4-0.1q-0.1-0.1 0.1-0.2z"/>
						<path id="&lt;Path&gt;" class="s15" d="m123.6 353c0 0-0.1-0.1-0.3-0.1q-0.2 0-0.3 0.1-0.1 0 0 0.1 0.1 0 0.2 0 0.2 0 0.5-0.1z"/>
						<path id="&lt;Path&gt;" class="s15" d="m134.5 350.7c0.2 0 0.1-0.1 0-0.2q-0.1-0.1-0.3-0.2c-0.2 0-0.4 0.1-0.4 0.1q-0.2 0.1-0.3 0.2c0 0 0 0 0 0.1q0.1 0 0.2 0 0.5 0.1 1 0.1z"/>
						<path id="&lt;Path&gt;" class="s15" d="m164.6 367.1c2.1 0 1.1-0.9-0.8-1-1.9-0.2-1 1 0.8 1z"/>
						<path id="&lt;Path&gt;" class="s15" d="m128.2 355.9c0 0.1-0.4 0.2-0.7 0.1 0-0.1 0.1-0.1 0.2-0.2 0.2 0 0.5 0 0.7 0q0 0.1 0 0.2z"/>
						<path id="&lt;Path&gt;" class="s15" d="m120.5 356.2q0.1 0 0.1 0.1 0 0-0.1 0-0.1 0-0.2 0c-0.1 0-0.2 0-0.2 0q-0.1-0.1 0-0.1 0.1-0.1 0.1-0.1 0.1 0.1 0.2 0.1z"/>
						<path id="&lt;Path&gt;" class="s15" d="m121.7 354.3q-0.1-0.1-0.1-0.1c-0.1 0-0.2 0.1-0.2 0.1 0 0 0.2 0.1 0.2 0.1q0.1-0.1 0.1-0.1 0 0 0.1-0.1z"/>
						<path id="&lt;Path&gt;" class="s15" d="m114.1 350.5q-0.1-0.1-0.3-0.1c-0.2-0.1-0.4-0.1-0.5-0.1q-0.1 0-0.1 0.1c-0.1 0 0.1 0.2 0.4 0.2 0.2 0 0.5 0 0.5-0.1z"/>
						<path id="&lt;Path&gt;" class="s15" d="m126.7 349.7c0.2 0.1 0.3 0.2 0.1 0.2q-0.2 0-0.4 0 0-0.1 0.2-0.2z"/>
						<path id="&lt;Path&gt;" class="s15" d="m131.4 357.3q-0.1 0-0.3-0.1-0.1 0.1-0.1 0.1c0.1 0 0.3 0.1 0.4 0z"/>
					</g>
					<path id="&lt;Path&gt;" class="s16" d="m354 367.6l-99.8-18.2 4.8-1.4 2.4-2 11.3 0.9-34-3.9-31.6-3.2-37.6-10.7 96 12.2 73.7 15 165.7 19.6-47.3-1.4-24.6 0.2z"/>
					<path id="&lt;Path&gt;" class="s16" d="m248.5 348.7l-24.5-2.7-12.7 2.5 15.5-0.2z"/>
					<path id="&lt;Path&gt;" class="s17" d="m296.1 373.3l0.7-6.7-61.7-11.5 47.3 9.9 2.3 4.7z"/>
					<path id="&lt;Path&gt;" class="s4" d="m-2.2 367.1l2.2 3.4 16.8-0.8 1.9 3.6-1.7 10 6.7-10 12.6-5.2 14.8 8.5 1.3-5.7 13.8-5.8-26.5-7.4-20 9.3z"/>
					<path id="&lt;Path&gt;" class="s18" d="m-4.1 328.4l55.8 16.3-4 0.4 12.5 7.9-20.5 4.7-20 9.3-21.9 0.1z"/>
				</g>
				<g id="&lt;Group&gt;">
					<path id="&lt;Path&gt;" class="s19" d="m594.2 400.9l43.1-28.3 6.3-17.3c5.4-8.6 11.8-13.8 20.8-19.9l12.9-1.6 6.9 2 13.6 0.5 13.7-7.1 16-18.1 14.5-3.7 12.4 11.9v-39.1l4.3-7.9v-25.8l2.2-12.1 2.1-31.3 3.2-14.3 3.4 21.2 0.5 19.6 12.3 66.9 17.4 14.5 1.5 88.9-23.9 0.7z"/>
					<path id="&lt;Path&gt;" class="s20" d="m643.6 355.3l-2.7 7.3 15.2 2.5 16.5-1.1 13.3-10.1 1.5-14.6-3.2-3.5-6.9-2-12.9 1.6-16.8 14.3z"/>
					<path id="&lt;Path&gt;" class="s21" d="m644.5 358.4l13.2 3.8 14.9-1.3 8.1-4c3-6.2 4.6-11.1 4.1-18.1l-9.7-1.5-9.4 1.2c-9.1 3.9-13.4 7.4-21.2 19.9z"/>
					<path id="&lt;Path&gt;" class="s22" d="m648.3 359.2c0 0 16.3-11.4 36.1-12.5l-3.7 10.2-8.1 4-14.9 1.3z"/>
					<path id="&lt;Path&gt;" class="s23" d="m688.3 332.8l3.1 3.4-1.4 13.9-12.7 9.7 4 12-24.9 8.1-21.4 8.7 32.4 6.2 19.5-0.5 22.9 0.5-7.6-24.2-1.4-2.6c7.6-8.6 16.2-13.7 25.9-17.4l7.9-1.4 2.9 7.2 5.3 18.7 0.6 2.3 2.7 17.3 11-14.5 15.5-4.2 17-1.1-8.6 19.4 19-0.3-1.5-84.8-16.6-13.7-11.6-63.8-0.5-18.7-1.8 5.9v14.5l-1.7 2.1v53.3l-3.8 1.7-2.8 26-4.4 0.7-11.9-11.4 3.6 8.3-1.2 5.1-4.2 14.6-19.3 0.5-7.9-7.7-13.1 6.8z"/>
					<path id="&lt;Path&gt;" class="s24" d="m697.2 372.7c-1.1 3.1 18.8 14.9 25.1 16.7 6.3 1.7 18.7-6 19-9.3 0.4-3.3-6.3-25.3-8.6-27.2-2.3-1.9-30.3 5.6-35.5 19.8z"/>
					<path id="&lt;Path&gt;" class="s20" d="m727.5 311.1l7.1 5h9.2 1.9l-3.7-8.7z"/>
					<path id="&lt;Path&gt;" class="s25" d="m754.4 280.2h5.9l5.6 3.6-1.7-7.2-5.5-4.3z"/>
					<path id="&lt;Path&gt;" class="s26" d="m758.7 246.5l5.4-7.2 1.8 15.8v-21.5l-3.6-8.2 1.9-18.1 4-6-2-12.5-3.2 14.3-2.6 33.8z"/>
					<path id="&lt;Path&gt;" class="s21" d="m736.6 380.1c-0.3 3.5-8.9 5.2-14.2 5.3-3.7 0.1-10.8-4.5-15.2-8.9q0 0 0 0c-1.9-1.8-3.3-3.7-3.7-5.1-1.3-4.8 9.6-11.4 14.8-12.8 5.3-1.5 12.1-0.1 14.4 3.6 1.1 1.8 2.2 5.2 2.9 8.7 0.8 3.7 1.2 7.4 1 9.2z"/>
					<path id="&lt;Path&gt;" class="s22" d="m736.6 380.1c-0.3 3.5-8.9 5.2-14.2 5.3-3.7 0.1-10.8-4.5-15.2-8.9 0.3-0.3 14.2-12.1 28.3-5.8l0.1 0.2c0.8 3.7 1.2 7.4 1 9.2z"/>
					<g id="&lt;Group&gt;">
						<path id="&lt;Path&gt;" class="s27" d="m674 347.9c-1.3-1.2-2.9-2.1-4.6-2.5-0.3-0.1-0.6-0.2-0.9-0.1-0.5 0.1-1 0.6-1.2 1.1-0.5 1.2 0 2.8 1 3.7 1 0.9 2.5 1.2 3.8 0.9 0.7-0.2 1.4-0.6 1.8-1.2 0.4-0.7 0.3-1.6-0.2-2.1-0.3 0.1-0.4 0.4-0.2 0.6z"/>
						<path id="&lt;Path&gt;" class="s27" d="m674.9 355.8c-0.8-0.6-2-0.8-2.9-0.4-0.2 1 0.1 2.1 0.9 2.8 0.7 0.7 2.1 0.7 2.7-0.1 0.6-0.8-0.1-2.3-1.1-2.2z"/>
						<path id="&lt;Path&gt;" class="s27" d="m690.1 349.3q-0.6-0.1-1.1 0 0 0-0.1 0 0 0.1 0 0.1c0 0.4 0.5 0.7 0.3 1 0 0.1-0.1 0.1 0 0.2 0 0.1 0.1 0.1 0.2 0.1 0.6-0.2 0.8-0.9 0.5-1.4q0.1 0 0.2 0z"/>
						<path id="&lt;Path&gt;" class="s27" d="m674.2 330.3q-1-0.2-2-0.1-0.1 0-0.2 0.1-0.1 0.1 0 0.2c0 0.7 0.9 1.2 0.6 1.9 0 0.1-0.1 0.2-0.1 0.3 0 0.2 0.3 0.2 0.5 0.2 1-0.4 1.5-1.8 0.9-2.6q0.2 0 0.3 0.1z"/>
						<path id="&lt;Path&gt;" class="s27" d="m660.9 350.1c-0.4-0.3-0.9-0.4-1.4-0.3 0.1 0.3 0.1 0.5 0.3 0.6 0.1 0.2 0.3 0.3 0.5 0.3 0.3-0.1 0.4-0.4 0.5-0.7q0 0.1 0.1 0.2z"/>
						<path id="&lt;Path&gt;" class="s27" d="m658.3 352.3c-0.1 0-0.3-0.1-0.4 0-0.1 0.1-0.2 0.2-0.2 0.3q-0.3 0.5-0.6 0.9 0.9-0.2 1.7-0.4 0.1 0 0.2 0c0.1 0 0.2 0.2 0.3 0.4 0.1 0.1 0.4 0 0.6-0.1 1.4-1-0.9-1-1.6-1.1z"/>
						<path id="&lt;Path&gt;" class="s27" d="m650.6 324.6c-0.1 0-0.3 0-0.4 0.1-0.1 0-0.2 0.1-0.2 0.3q-0.2 0.4-0.6 0.9 0.9-0.2 1.8-0.4 0-0.1 0.1-0.1c0.1 0.1 0.2 0.3 0.3 0.4 0.2 0.2 0.5 0.1 0.7-0.1 1.3-0.9-1-1-1.7-1.1z"/>
						<path id="&lt;Path&gt;" class="s27" d="m651.2 343.4q-0.3 0-0.5 0.1c0.1 0.3 0.3 0.6 0.7 0.6 0.3 0 0.6-0.4 0.4-0.7-0.1-0.1-0.3-0.4-0.2-0.5z"/>
						<path id="&lt;Path&gt;" class="s27" d="m661 316.5c0.5 0.2 0.5 0.9 0.1 1.2-0.4 0.3-1.1 0-1.1-0.5 0-0.5 0.5-0.9 1-0.7z"/>
						<path id="&lt;Path&gt;" class="s27" d="m666.6 336.2c0.4-0.1 0.9-0.2 1.1 0.1 0.2 0.3-0.1 0.7-0.4 0.9-0.1 0.1-0.2 0.3-0.4 0.2-0.3-0.1-0.1-0.8-0.4-1 0-0.1 0.2-0.1 0.2 0z"/>
						<path id="&lt;Path&gt;" class="s27" d="m666.2 352.3q0.2 0 0.5 0c-0.2 0.4-0.6 0.5-1 0.6-0.2 0-0.4 0-0.5-0.2-0.1-0.1-0.1-0.2-0.1-0.4-0.1-0.3-0.4-0.5-0.2-0.8 0.1-0.1 0.3-0.1 0.4-0.1 0.2 0.1 0.3 0.2 0.4 0.4q0.3 0.4 0.6 0.8z"/>
						<path id="&lt;Path&gt;" class="s27" d="m668 357.7c-0.2-0.2-0.5 0.3-0.3 0.5 0.1 0.3 0.4 0.4 0.7 0.5 0.2-0.4 0-0.9-0.3-1.2z"/>
						<path id="&lt;Path&gt;" class="s27" d="m698.4 363.7q-0.3 0-0.5 0c-0.1 0-0.3 0.1-0.3 0.3 0 0.2 0.3 0.4 0.3 0.6 0.1 0.2 0 0.5 0.1 0.7 0.2 0.2 0.5 0.1 0.6-0.1 0.2-0.2 0.2-0.4 0.2-0.6 0-0.3-0.1-0.5-0.2-0.7-0.1-0.1-0.3-0.2-0.5-0.1z"/>
						<path id="&lt;Path&gt;" class="s27" d="m661.8 356.3c0.1 0.1 0.1 0.3 0 0.4 0 0.1-0.2 0.1-0.3 0.2q-0.2 0-0.3-0.1c-0.1-0.1-0.2-0.3-0.1-0.5 0.1-0.1 0.3-0.2 0.5-0.1 0.1 0.1 0.2 0.3 0.1 0.5z"/>
						<path id="&lt;Path&gt;" class="s27" d="m656.5 375.8c0.1 0.1 0.1 0.3 0 0.4-0.1 0.1-0.2 0.1-0.4 0.2q-0.1 0-0.2-0.1c-0.2 0-0.3-0.3-0.2-0.5 0.1-0.1 0.4-0.2 0.5-0.1 0.2 0.1 0.3 0.3 0.2 0.5z"/>
						<path id="&lt;Path&gt;" class="s27" d="m661.9 354.4c0.1-0.3-0.2-0.6-0.5-0.5q-0.1 0.3 0 0.5c0.1 0.1 0.2 0.2 0.4 0.2 0.1 0 0.2-0.2 0.1-0.3z"/>
						<path id="&lt;Path&gt;" class="s27" d="m653.4 336c0.1-0.3-0.2-0.6-0.5-0.5q-0.1 0.2 0 0.5c0.1 0.1 0.2 0.2 0.4 0.2 0.1 0 0.2-0.3 0.1-0.4z"/>
						<path id="&lt;Path&gt;" class="s27" d="m663.2 347.8c-0.2-0.3-0.6-0.5-0.9-0.5q0 0.5 0 0.9c0 0.1 0 0.3 0.1 0.4 0.2 0.2 0.5 0.2 0.7 0 0.2-0.2 0.2-0.5 0.1-0.7z"/>
						<path id="&lt;Path&gt;" class="s27" d="m669.5 341.8q0.8-0.1 1.6-0.2c0.1 0.2-0.2 0.5-0.4 0.6-0.3 0.1-0.6 0.2-0.8 0.1-0.3 0-0.5-0.3-0.4-0.6z"/>
						<path id="&lt;Path&gt;" class="s27" d="m677.6 341.2c-0.1-0.4-0.6-0.5-0.9-0.2-0.3 0.3-0.2 0.8 0.1 1.1 0.1 0.1 0.3 0.2 0.4 0.2 0.3 0 0.5-0.2 0.5-0.5 0.1-0.2 0.1-0.5 0-0.7z"/>
						<path id="&lt;Path&gt;" class="s27" d="m664.4 337c-0.1-0.4-0.4-0.7-0.8-0.7-0.1 0.3-0.1 0.5 0 0.8 0.1 0.3 0.5 0.6 0.8 0.5 0.3-0.1 0.5-0.6 0.1-0.8z"/>
						<path id="&lt;Path&gt;" class="s27" d="m667.2 339.5c0.2 0.1 0.3 0.3 0.3 0.6q-0.4 0-0.8 0.1c-0.2-0.3 0-0.8 0.3-0.9z"/>
						<path id="&lt;Path&gt;" class="s27" d="m675 342.3q0.1-0.1 0.3-0.1c0 0.2 0 0.5-0.2 0.7-0.1 0.2-0.3 0.4-0.6 0.4-0.2-0.1-0.4-0.4-0.2-0.6q0.3-0.3 0.7-0.4z"/>
						<path id="&lt;Path&gt;" class="s27" d="m664.7 359.3c0.2 0.1 0.3 0.4 0.2 0.6 0 0.2-0.2 0.3-0.4 0.4-0.1 0-0.3-0.1-0.3-0.2q0-0.1 0-0.2 0.2-0.3 0.4-0.7 0.1 0.1 0.1 0.1z"/>
						<path id="&lt;Path&gt;" class="s27" d="m664 363.4c-0.2 0.1-0.1 0.4 0 0.7 0.1 0.2 0.2 0.5 0.1 0.7q-0.1 0.1-0.2 0.1c-0.2 0-0.2-0.2-0.3-0.4-0.1-0.1-0.2-0.2-0.3-0.3-0.2-0.3-0.2-0.7-0.1-1 0.2-0.1 0.4-0.1 0.6 0 0.1 0.1 0.2 0.3 0.2 0.5z"/>
						<path id="&lt;Path&gt;" class="s27" d="m661.5 362.9q-0.2 0-0.3 0c-0.1 0.1-0.1 0.3 0.1 0.4 0.1 0.1 0.3 0.1 0.4-0.1 0.1-0.1 0-0.3-0.2-0.3z"/>
						<path id="&lt;Path&gt;" class="s27" d="m657.9 368.9q-0.2-0.1-0.3-0.1c-0.1 0.2-0.1 0.4 0.1 0.5 0.1 0.1 0.3 0.1 0.4-0.1 0.1-0.1 0-0.3-0.2-0.4z"/>
						<path id="&lt;Path&gt;" class="s27" d="m661.9 352.2c0.2 0.1 0.4 0 0.5-0.2 0-0.2-0.1-0.4-0.1-0.6 0-0.2 0.1-0.4 0.3-0.5 0.1-0.1 0.2-0.1 0.3-0.1q0.1 0.1 0.2 0.2c0.2 0.3 0.4 0.7 0.4 1 0 0.4-0.2 0.8-0.5 1-0.3 0.1-0.6 0-0.8-0.1-0.2-0.2-0.3-0.5-0.3-0.7z"/>
						<path id="&lt;Path&gt;" class="s27" d="m642 334.8c0.2 0.1 0.4-0.1 0.4-0.3 0-0.2 0-0.4 0-0.6 0-0.2 0.1-0.4 0.3-0.5 0.1-0.1 0.2-0.1 0.3-0.1q0.1 0.1 0.1 0.2c0.3 0.3 0.4 0.7 0.5 1.1 0 0.3-0.2 0.7-0.6 0.9-0.2 0.1-0.5 0.1-0.7-0.1-0.2-0.2-0.4-0.4-0.3-0.7z"/>
						<path id="&lt;Path&gt;" class="s27" d="m658.5 348.3c-0.1-0.2-0.4-0.1-0.6 0-0.2 0.2-0.3 0.5-0.2 0.7 0 0.1 0.1 0.2 0.2 0.2q0.1 0 0.2-0.1 0.2-0.4 0.5-0.8z"/>
						<path id="&lt;Path&gt;" class="s27" d="m699.3 349.9c0.1-0.6 0-1.3-0.4-1.8 0-0.1-0.1-0.2-0.2-0.2-0.3-0.1-0.4 0.3-0.5 0.5-0.2 0.3-0.6 0.5-0.8 0.8-0.2 0.3-0.1 0.7-0.1 1 0.1 0.5 0.4 1.1 0.9 1 0.2 0 0.4-0.2 0.5-0.4q0.5-0.7 0.7-1.5z"/>
						<path id="&lt;Path&gt;" class="s27" d="m664.8 326.6c0.2-0.3-0.1-0.7-0.5-0.9-0.2-0.1-0.4-0.2-0.6-0.1-0.3 0.1-0.3 0.5-0.3 0.8q0.1 0.5 0.1 0.9c0 0.1 0.1 0.2 0.2 0.3 0.1 0.1 0.2 0 0.3 0q0.8-0.2 1.4-0.7z"/>
						<path id="&lt;Path&gt;" class="s27" d="m673.4 335.5c2.2-2.6-1-4.9-3.3-3.3-2.5 1.8 1.4 5.5 3.3 3.3z"/>
						<path id="&lt;Path&gt;" class="s27" d="m670.5 354.3c0.3 0.4 0 1-0.5 1.1-0.1-0.3-0.3-0.7-0.2-1.1 0-0.4 0.4-0.7 0.8-0.6q0.1 0.3 0.3 0.6z"/>
						<path id="&lt;Path&gt;" class="s27" d="m660.5 273.7c-0.1-0.3-0.3-0.1-0.4 0.1 0 0.3 0 0.6 0.1 0.9q0.1 1 0.3 2c0.1 0.3 0.1 0.8 0.3 0.9 0.2 0.1 0.3 0 0.4-0.3 0-0.3 0-0.6 0-0.9-0.1-1.1-0.3-2.4-0.8-2.9q-0.1 0.3-0.2 0.5z"/>
						<path id="&lt;Path&gt;" class="s27" d="m663.1 366.7c0.1 0.1 0.2 0.2 0.1 0.3q-0.1 0.1-0.3 0.2-0.1 0-0.2 0c-0.2 0-0.3-0.2-0.4-0.4 0-0.2 0.2-0.3 0.3-0.4q0.1-0.1 0.3 0c0.1 0 0.1 0.1 0.1 0.2z"/>
						<path id="&lt;Path&gt;" class="s27" d="m659.4 355.4q-0.2 0-0.3 0c0 0.1-0.1 0.3 0 0.4 0.1 0.2 0.4 0.2 0.4 0q0-0.1 0-0.2-0.1-0.2-0.2-0.5z"/>
						<path id="&lt;Path&gt;" class="s27" d="m658.6 344.1c-0.3-0.1-0.5-0.2-0.8-0.2-0.2 0-0.5 0.2-0.6 0.4q0 0.2 0 0.4c0.1 0.3 0.6 0.5 0.9 0.4 0.4-0.1 0.6-0.6 0.4-1z"/>
						<path id="&lt;Path&gt;" class="s27" d="m653.8 331.9c0.4-0.1 0.7 0.3 0.6 0.7q-0.2 0.1-0.5 0.2-0.2-0.3-0.1-0.7z"/>
						<path id="&lt;Path&gt;" class="s27" d="m677.4 355.8q-0.2 0.1-0.5 0.1 0 0.2 0.1 0.4c0.2 0.1 0.5-0.1 0.5-0.4z"/>
						<path id="&lt;Path&gt;" class="s27" d="m710.1 282.2c0.6-0.2 1.3-0.1 1.8 0.2q0.1 0.1 0.1 0.2c0.1 0.1 0 0.2-0.1 0.3-0.4 0.5-1 1.1-1.6 0.9-0.6-0.1-0.8-1-0.3-1.4q0.2 0.1 0.5 0.1z"/>
					</g>
					<g id="&lt;Group&gt;">
						<path id="&lt;Path&gt;" class="s22" d="m728.4 370c-1.2-0.4-2.5-0.5-3.7-0.2-0.2 0-0.4 0-0.6 0.1-0.3 0.3-0.4 0.7-0.4 1.1 0 0.9 0.8 1.8 1.7 2.1 0.9 0.2 1.9 0 2.6-0.6 0.4-0.3 0.8-0.8 0.8-1.3 0.1-0.5-0.2-1.1-0.7-1.2-0.2 0.1-0.1 0.3 0 0.4z"/>
						<path id="&lt;Path&gt;" class="s22" d="m731.2 374.7c-0.7-0.1-1.5 0.1-2 0.6 0.3 0.7 0.7 1.3 1.4 1.5 0.7 0.2 1.6-0.2 1.7-0.9 0.1-0.7-0.7-1.4-1.3-1z"/>
						<path id="&lt;Path&gt;" class="s22" d="m738.8 366.2q-0.3 0.1-0.6 0.3-0.1 0-0.1 0 0 0.1 0 0.1c0.2 0.2 0.5 0.3 0.5 0.5q0 0.1 0.1 0.1c0 0.1 0.1 0.1 0.2 0 0.2-0.2 0.2-0.8-0.1-1q0 0 0.1 0z"/>
						<path id="&lt;Path&gt;" class="s22" d="m723.3 358.8q-0.7 0.2-1.3 0.6 0 0-0.1 0.1 0 0.1 0.1 0.1c0.2 0.5 0.9 0.5 0.9 1 0 0.1 0 0.2 0 0.2 0.1 0.2 0.3 0.1 0.4 0 0.6-0.5 0.5-1.5-0.2-1.9q0.1 0 0.2 0z"/>
						<path id="&lt;Path&gt;" class="s22" d="m720.7 375.2c-0.3-0.1-0.7 0-0.9 0.2q0.1 0.2 0.3 0.4c0.1 0 0.3 0 0.4-0.1 0.2-0.1 0.2-0.3 0.1-0.5q0.1 0 0.2 0.1z"/>
						<path id="&lt;Path&gt;" class="s22" d="m719.7 377.4q-0.1 0-0.2 0.1-0.1 0.1-0.1 0.2 0 0.4-0.1 0.8 0.5-0.4 1-0.8 0 0 0.1 0c0.1-0.1 0.2 0.1 0.3 0.1 0.1 0.1 0.3-0.1 0.4-0.2 0.6-1.1-0.9-0.4-1.4-0.2z"/>
						<path id="&lt;Path&gt;" class="s22" d="m706.8 362.2q-0.2 0-0.2 0.1-0.1 0.1-0.1 0.3 0 0.3-0.1 0.7 0.5-0.4 1-0.8 0 0 0.1 0c0.1 0 0.2 0.1 0.3 0.1 0.1 0.1 0.3-0.1 0.4-0.2 0.5-1-0.9-0.4-1.4-0.2z"/>
						<path id="&lt;Path&gt;" class="s22" d="m712.6 373.8q-0.1 0.1-0.3 0.2c0.2 0.2 0.5 0.3 0.7 0.2 0.2-0.1 0.3-0.4 0.1-0.5-0.2-0.1-0.4-0.2-0.3-0.3z"/>
						<path id="&lt;Path&gt;" class="s22" d="m711 354c0.3 0 0.5 0.5 0.4 0.8-0.2 0.2-0.7 0.2-0.9-0.1-0.1-0.3 0.1-0.7 0.4-0.7z"/>
						<path id="&lt;Path&gt;" class="s22" d="m720.3 364.8c0.1-0.2 0.4-0.4 0.6-0.3 0.3 0.2 0.2 0.5 0.1 0.7 0 0.1-0.1 0.2-0.2 0.3-0.3 0-0.3-0.5-0.6-0.5 0-0.1 0.1-0.2 0.2-0.1z"/>
						<path id="&lt;Path&gt;" class="s22" d="m724.7 375.1q0.1-0.1 0.3-0.2c0 0.3-0.2 0.5-0.4 0.6-0.1 0.1-0.3 0.2-0.4 0.1-0.1 0-0.1-0.1-0.2-0.2-0.1-0.2-0.4-0.3-0.4-0.5 0.1-0.1 0.2-0.1 0.3-0.1q0.2 0 0.3 0.1 0.3 0.1 0.7 0.3z"/>
						<path id="&lt;Path&gt;" class="s22" d="m727.4 377.9c-0.2 0-0.2 0.3 0 0.5 0.1 0.1 0.4 0 0.6 0-0.1-0.3-0.3-0.6-0.5-0.6z"/>
						<path id="&lt;Path&gt;" class="s22" d="m748.3 372.8q-0.2 0.1-0.3 0.1c-0.1 0.1-0.1 0.2-0.1 0.3 0 0.2 0.3 0.2 0.4 0.3 0.1 0.1 0.1 0.4 0.3 0.4 0.1 0.1 0.3 0 0.3-0.2 0.1-0.2 0-0.3-0.1-0.5-0.1-0.1-0.1-0.2-0.3-0.3-0.1-0.1-0.3-0.1-0.4 0z"/>
						<path id="&lt;Path&gt;" class="s22" d="m723.1 378.9c0.1 0 0.2 0.1 0.1 0.2q0 0.1-0.1 0.2-0.1 0-0.2 0c-0.1 0.1-0.3-0.1-0.2-0.2 0-0.1 0.1-0.3 0.2-0.2 0.2 0 0.3 0.1 0.3 0.2z"/>
						<path id="&lt;Path&gt;" class="s22" d="m725.4 392.7c0.1 0 0.2 0.1 0.2 0.2q-0.1 0.2-0.2 0.2-0.1 0.1-0.2 0.1c-0.1 0-0.2-0.1-0.2-0.3 0-0.1 0.2-0.2 0.3-0.2 0.1 0 0.2 0.1 0.2 0.3z"/>
						<path id="&lt;Path&gt;" class="s22" d="m722.6 377.6c0-0.2-0.3-0.3-0.4-0.1q0 0.1 0.1 0.2c0.1 0.1 0.2 0.1 0.3 0.1 0.1-0.1 0.1-0.2 0-0.3z"/>
						<path id="&lt;Path&gt;" class="s22" d="m711.9 368.5c0-0.2-0.3-0.3-0.5-0.2q0 0.2 0.2 0.3c0 0.1 0.2 0.1 0.2 0.1 0.1-0.1 0.1-0.2 0-0.3z"/>
						<path id="&lt;Path&gt;" class="s22" d="m721.5 373.1c-0.2-0.1-0.5-0.1-0.7 0q0.1 0.2 0.3 0.5 0 0.1 0.1 0.2c0.2 0.1 0.4 0 0.5-0.2 0-0.1-0.1-0.4-0.2-0.5z"/>
						<path id="&lt;Path&gt;" class="s22" d="m723.7 367.5q0.5-0.3 0.9-0.6c0.2 0.1 0.1 0.3-0.1 0.5-0.1 0.1-0.2 0.3-0.4 0.3-0.2 0-0.4-0.1-0.4-0.3z"/>
						<path id="&lt;Path&gt;" class="s22" d="m728.7 364.7c-0.2-0.2-0.6-0.1-0.7 0.2-0.1 0.2 0.1 0.5 0.4 0.6q0.2 0.1 0.3 0c0.2 0 0.2-0.3 0.2-0.4 0-0.2-0.1-0.4-0.2-0.5z"/>
						<path id="&lt;Path&gt;" class="s22" d="m719.1 365.9c-0.2-0.2-0.5-0.3-0.7-0.2q0 0.3 0.2 0.5c0.2 0.2 0.5 0.3 0.7 0.1 0.2-0.1 0.1-0.5-0.2-0.5z"/>
						<path id="&lt;Path&gt;" class="s22" d="m721.6 366.7c0.1 0 0.3 0.1 0.3 0.3q-0.2 0.1-0.4 0.3c-0.3-0.2-0.3-0.5-0.1-0.7z"/>
						<path id="&lt;Path&gt;" class="s22" d="m727.3 366.2q0.1-0.1 0.2-0.2c0 0.2 0.1 0.3 0.1 0.5 0 0.2-0.1 0.4-0.3 0.4-0.2 0.1-0.4-0.1-0.3-0.3q0.1-0.2 0.3-0.4z"/>
						<path id="&lt;Path&gt;" class="s22" d="m725.8 379.9c0.2 0 0.3 0.1 0.3 0.3 0 0.1 0 0.3-0.1 0.4-0.1 0-0.2 0-0.3-0.1q0 0 0-0.1 0-0.3 0.1-0.5 0 0 0 0z"/>
						<path id="&lt;Path&gt;" class="s22" d="m726.6 382.6c-0.1 0.2 0 0.4 0.2 0.5 0.1 0.1 0.3 0.3 0.2 0.4q0 0.1 0 0.2c-0.2 0-0.3-0.1-0.4-0.2 0-0.1-0.1-0.1-0.2-0.1-0.3-0.1-0.4-0.4-0.4-0.6 0.1-0.1 0.2-0.2 0.4-0.2 0.1 0.1 0.2 0.2 0.2 0.3z"/>
						<path id="&lt;Path&gt;" class="s22" d="m724.8 383.1q-0.1 0-0.2 0.1c0 0.1 0.1 0.2 0.2 0.2 0.1 0 0.2 0 0.3-0.1 0-0.2-0.2-0.3-0.3-0.2z"/>
						<path id="&lt;Path&gt;" class="s22" d="m724.3 387.9q-0.1 0-0.2 0.1c0 0.1 0.1 0.2 0.2 0.2 0.1 0.1 0.2 0 0.2-0.1 0.1-0.1-0.1-0.2-0.2-0.2z"/>
						<path id="&lt;Path&gt;" class="s22" d="m722 376.3c0.1 0 0.2-0.2 0.2-0.3-0.1-0.2-0.2-0.3-0.2-0.4q-0.1-0.2 0-0.4 0.1-0.1 0.2-0.1 0.1 0 0.2 0c0.2 0.2 0.4 0.3 0.5 0.6 0.1 0.2 0.1 0.5 0 0.7-0.2 0.2-0.4 0.2-0.5 0.2-0.2-0.1-0.4-0.2-0.4-0.4z"/>
						<path id="&lt;Path&gt;" class="s22" d="m704.3 371.1c0.2 0 0.3-0.2 0.2-0.3 0-0.1-0.1-0.2-0.2-0.4q-0.1-0.2 0-0.4 0.1-0.1 0.2-0.1 0.1 0 0.2 0c0.2 0.2 0.4 0.4 0.5 0.6 0.2 0.2 0.2 0.5 0 0.7-0.1 0.2-0.3 0.2-0.5 0.2-0.2 0-0.3-0.2-0.4-0.4z"/>
						<path id="&lt;Path&gt;" class="s22" d="m718.7 374.8c-0.1-0.1-0.3 0-0.4 0.2-0.1 0.1 0 0.3 0.1 0.4 0 0.1 0.1 0.2 0.2 0.1q0 0 0-0.1 0.1-0.3 0.2-0.6z"/>
						<path id="&lt;Path&gt;" class="s22" d="m744.8 363.8c-0.1-0.4-0.4-0.8-0.7-1q-0.1-0.1-0.2 0c-0.2 0-0.2 0.2-0.2 0.4 0 0.3-0.2 0.5-0.3 0.8 0 0.2 0.2 0.4 0.3 0.6 0.2 0.3 0.5 0.6 0.8 0.4 0.2-0.1 0.2-0.3 0.3-0.4q0-0.6-0.1-1.1z"/>
						<path id="&lt;Path&gt;" class="s22" d="m716.3 359.3c0.1-0.3-0.3-0.4-0.5-0.4-0.2-0.1-0.4-0.1-0.5 0.1-0.1 0.1 0 0.4 0.1 0.6q0.1 0.2 0.3 0.5c0 0 0.1 0.1 0.2 0.1q0.1 0 0.2-0.1 0.4-0.3 0.7-0.8z"/>
						<path id="&lt;Path&gt;" class="s22" d="m724.3 362.3c0.7-2.2-2-2.8-3-1-1.1 1.8 2.4 3 3 1z"/>
						<path id="&lt;Path&gt;" class="s22" d="m728 375c0.3 0.2 0.3 0.7 0 0.9-0.2-0.2-0.4-0.4-0.5-0.6 0-0.3 0.1-0.6 0.4-0.6q0.2 0.1 0.4 0.2z"/>
						<path id="&lt;Path&gt;" class="s22" d="m698.1 327.2c-0.1-0.1-0.2 0-0.2 0.2 0.1 0.2 0.2 0.3 0.3 0.5q0.4 0.6 0.8 1.2c0.1 0.2 0.3 0.4 0.5 0.5 0.1 0 0.1-0.1 0.1-0.3 0-0.2-0.2-0.4-0.3-0.6-0.3-0.7-0.9-1.4-1.3-1.6q0 0.2 0.1 0.4z"/>
						<path id="&lt;Path&gt;" class="s22" d="m727 385c0.1 0 0.1 0.1 0.1 0.2q0 0.1-0.1 0.2-0.1 0-0.2 0.1c-0.1 0-0.2-0.1-0.3-0.2 0-0.1 0-0.2 0.1-0.3q0-0.1 0.1-0.1c0.1 0 0.1 0 0.2 0.1z"/>
						<path id="&lt;Path&gt;" class="s22" d="m721.3 379q-0.1 0-0.2 0.1c0 0.1 0.1 0.2 0.2 0.2 0.1 0.1 0.2 0 0.2-0.1q0 0 0-0.1-0.2-0.1-0.3-0.3z"/>
						<path id="&lt;Path&gt;" class="s22" d="m717.5 372.1c-0.2 0-0.4 0-0.5 0.1-0.2 0.1-0.3 0.3-0.3 0.4q0 0.2 0.1 0.3c0.2 0.2 0.5 0.2 0.7 0 0.2-0.2 0.2-0.6 0-0.8z"/>
						<path id="&lt;Path&gt;" class="s22" d="m710.9 365.8c0.2-0.1 0.6 0 0.6 0.3q-0.1 0.1-0.3 0.3-0.2-0.2-0.2-0.4z"/>
						<path id="&lt;Path&gt;" class="s22" d="m732.8 374q-0.1 0.1-0.3 0.2 0.1 0.1 0.2 0.2c0.1 0 0.2-0.2 0.2-0.4z"/>
						<path id="&lt;Path&gt;" class="s22" d="m731.9 318.1c0.3-0.4 0.7-0.5 1.1-0.4q0.1 0 0.2 0c0 0.1 0 0.2 0 0.3-0.1 0.4-0.3 1-0.8 1-0.4 0.1-0.7-0.4-0.6-0.8q0.2 0 0.4-0.1z"/>
					</g>
					<path id="&lt;Path&gt;" class="s25" d="m637.3 372.6l5.1 8.5 10.3 3.4-24.5 9.7h-9.1l-21 3.9z"/>
					<path id="&lt;Path&gt;" class="s21" d="m758.7 272.3l5.5 4.3 1.7 7.2 1.9 5.3 0.4 12.7 2.3 5.6 7.5 10.6-6.9-10.6-2.1-6.2v-12.1l-2-5.3-1.7-7.2-6.6-6z"/>
					<path id="&lt;Path&gt;" class="s21" d="m768.2 301.8l-2.3 9.9 1.7 1.5-1.7 11.4 2.5-11.4-1.4-2.3 1.9-7.4z"/>
					<path id="&lt;Path&gt;" class="s21" d="m769.2 343.9l3.7 1.4 3-0.7-2 1.7h-1.8l-3.2-1.2z"/>
					<path id="&lt;Path&gt;" class="s28" d="m756.4 385.5l19.5 2.4 6.4-1.2 6-2.2 2.1-4.6-17.8 1.2z"/>
					<path id="&lt;Path&gt;" class="s20" d="m751.9 354.6l20.5-3.8 11.6-1.6 8.2 2.5-9.3 1.5-12.3 2z"/>
					<path id="&lt;Path&gt;" class="s29" d="m726.9 368.1c0 14.6-11.8 26.4-26.4 26.4-14.5 0-26.3-11.8-26.3-26.4 0-14.5 11.8-26.3 26.3-26.3 14.6 0 26.4 11.8 26.4 26.3z"/>
					<path id="&lt;Path&gt;" class="s30" d="m772.4 296.5c0 4.5-1.8 8.1-4 8.1-2.3 0-4.1-3.6-4.1-8.1 0-4.6 1.8-8.2 4.1-8.2 2.2 0 4 3.6 4 8.2z"/>
				</g>
				<g id="&lt;Group&gt;">
					<path id="&lt;Path&gt;" class="s31" d="m197.8 381.8l-3.7-41.5-0.9-15.5 1.6-6.7h1.8l6.5 10.3 2 22.1v33.7l-4.9-0.6z"/>
					<path id="&lt;Path&gt;" class="s32" d="m200.2 383.6l-2.5-39.1 6.7-25.8 2.8-0.6 2.5-12.7 3.9-3.7 7.2 23 0.9 17.8 6.7 4 5.2 38.3-5 2.2z"/>
					<path id="&lt;Path&gt;" class="s33" d="m204.4 318.7l3.1 5.7 4.5 6.1 1.4 4.7v-6l-1.7-2.2-4.5-8.9z"/>
					<path id="&lt;Path&gt;" class="s33" d="m209.7 305.4l3.7 8.2 1.3 7.2 3 2.3 3.1 1.6-7.2-23z"/>
					<path id="&lt;Path&gt;" class="s33" d="m194.8 318.1l-1.2 5 2.3 2.8 5 1.2 1.1-0.4-5.4-8.6z"/>
					<path id="&lt;Path&gt;" class="s34" d="m197.7 344.5l5.3 6.6 3.4 8.5 3.3 15.2 4.1 3.4-1.4-23.8 4-3.3 1.9 9.7-2 25.3-16.1-2.5z"/>
					<path id="&lt;Path&gt;" class="s35" d="m228.6 387l-2.6-30.3 7.6-19.3 2 1 4.4 18.1 4.5 32.4-9.3-0.4z"/>
					<path id="&lt;Path&gt;" class="s36" d="m216.5 387.7l-1.8-19 0.8-3 5.5-9.7 0.7-1.6 4.3 0.5 5.3 17.1 2 16.5-4.7-1.5-5.7 1.5z"/>
					<path id="&lt;Path&gt;" class="s33" d="m221 356l-5.5 9.7 7 5.5 1.5-0.7 8.1 1.9-6.1-17.5-4.3-0.5z"/>
					<path id="&lt;Path&gt;" class="s33" d="m233.6 337.4l-2.5 6.3 1.1 5.9 0.2 1.2 5.2 6.5 2.4-0.8-4.4-18.1z"/>
					<path id="&lt;Path&gt;" class="s33" d="m221.7 342.5l-2.3 4.7-3.9 3.3-3.1 3.9 4-3.3 7.4-1.6 4.6-3z"/>
					<path id="&lt;Path&gt;" class="s34" d="m207.2 318.1l2.5-12.7 3.7 8.2-3 10.8z"/>
					<path id="&lt;Path&gt;" class="s34" d="m232.4 350.8l3.2 18.7 2-3-2.4 22-2.1-1-1-15.1-5.8-16.6 4.8-12.1z"/>
					<path id="&lt;Path&gt;" class="s34" d="m222.5 371.2v15.4l-2.9-7.2-3.1 8.3-1.8-19 0.8-3z"/>
					<path id="&lt;Path&gt;" class="s34" d="m214.7 320.8l-0.2 9.7-0.3 14-0.8-9.3v-6l-3-4.8 3-10.8z"/>
					<g id="&lt;Group&gt;">
						<path id="&lt;Path&gt;" class="s37" d="m207.5 346.2c-1.7 0-3.4-0.4-4.9-1.7-2.4-1.9-3.7-3.9-3.6-6q0 0 0 0c-0.5-0.4-3.4-2-5.3-3.1l0.2-0.3c5.4 3 5.5 3.1 5.5 3.2q0 0.1 0 0.2c-0.1 2.4 1.8 4.5 3.4 5.7 3.5 2.7 8.1 1.3 10.5 0.1 0.6-0.3 1.6-1.3 2.4-2.2 1-1.1 2-2.2 2.8-2.6 1.4-0.6 2.9-1.1 3-1.1l0.1 0.4c0 0-1.5 0.5-2.9 1.1-0.7 0.3-1.7 1.4-2.7 2.4-0.9 1.1-1.8 2.1-2.5 2.4-1.5 0.7-3.7 1.5-6 1.5z"/>
					</g>
					<g id="&lt;Group&gt;">
						<path id="&lt;Path&gt;" class="s37" d="m214.9 343.6l-0.4-0.2c0.1-0.2 2-4.9 4-7 1.8-2 2.5-4.3 2.5-4.4l0.4 0.2c0 0.1-0.7 2.4-2.6 4.5-1.9 2-3.9 6.8-3.9 6.9z"/>
					</g>
					<g id="&lt;Group&gt;">
						<path id="&lt;Path&gt;" class="s37" d="m218.1 361c-1.8-1.4-4.8-3.6-5.5-3.6q0 0 0 0c-0.2 0-0.8 0.1-1.4 0.2-2.2 0.5-5.8 1.3-8.1 0.6-3-0.9-4.1-0.9-4.5-0.8-0.6 0.3-2.6 0.6-2.7 0.6l-0.1-0.4c0.6-0.1 2.2-0.4 2.6-0.5 0.7-0.3 2.3-0.1 4.8 0.7 2.2 0.7 5.7-0.1 7.9-0.6 0.7-0.1 1.2-0.2 1.5-0.3q0 0 0 0c1 0 5 3.2 5.8 3.8z"/>
					</g>
					<g id="&lt;Group&gt;">
						<path id="&lt;Path&gt;" class="s37" d="m243 381.3c-1.4 0-4.8-0.7-6.9-1.2l-3.4-1.3h-10.2c-0.6 0-6.1-2.7-7.2-3.3l0.1-0.3c2.5 1.2 6.6 3.2 7.1 3.2h10.4l3.3 1.3c3.2 0.7 6.7 1.3 7.1 1.1l0.2 0.4q-0.1 0.1-0.5 0.1z"/>
					</g>
					<g id="&lt;Group&gt;">
						<path id="&lt;Path&gt;" class="s37" d="m240.9 362.7c0 0-2.4-0.9-3.2-1.2-0.8-0.2-4.2-3.8-4.6-4.2l0.3-0.3c1.4 1.5 3.9 4 4.4 4.1 0.9 0.3 3.2 1.2 3.2 1.2z"/>
					</g>
					<g id="&lt;Group&gt;">
						<path id="&lt;Path&gt;" class="s38" d="m222.5 321.1q-0.8-0.3-1.7-0.1-0.1 0-0.3 0.1c-0.1 0.1-0.2 0.3-0.2 0.4 0.1 0.5 0.4 0.9 0.8 1 0.4 0.1 0.9 0 1.3-0.3 0.1-0.1 0.3-0.3 0.3-0.6 0.1-0.2-0.1-0.5-0.3-0.5-0.1 0-0.1 0.1 0 0.2z"/>
						<path id="&lt;Path&gt;" class="s38" d="m236.6 332.8q-0.9-0.2-1.7-0.1-0.2 0-0.3 0.1c-0.1 0.1-0.2 0.3-0.2 0.5 0 0.4 0.4 0.8 0.8 1 0.4 0.1 0.9 0 1.2-0.3 0.2-0.2 0.4-0.4 0.4-0.6 0-0.3-0.1-0.5-0.3-0.6-0.1 0.1-0.1 0.2 0 0.2z"/>
						<path id="&lt;Path&gt;" class="s38" d="m223.8 323.3c-0.3-0.1-0.7 0-0.9 0.3 0.1 0.3 0.3 0.6 0.7 0.7 0.3 0.1 0.7-0.1 0.7-0.4 0.1-0.4-0.3-0.7-0.6-0.5z"/>
						<path id="&lt;Path&gt;" class="s38" d="m220.8 324.2q-0.1 0-0.3 0.1 0 0 0 0 0 0.1 0 0.1c0.1 0.1 0.2 0.1 0.2 0.2q0 0.1 0 0.1 0.1 0 0.1 0c0.2-0.1 0.1-0.4 0-0.5q0 0 0 0z"/>
						<path id="&lt;Path&gt;" class="s38" d="m220.2 315.9q-0.4 0.1-0.6 0.2-0.1 0.1-0.1 0.1 0 0 0 0.1c0.1 0.2 0.5 0.2 0.5 0.4q0 0.1 0 0.1c0 0.1 0.1 0.1 0.2 0 0.2-0.2 0.2-0.7-0.1-0.9q0 0 0.1 0z"/>
						<path id="&lt;Path&gt;" class="s38" d="m200.4 311.1q-0.3 0.1-0.6 0.3-0.1 0-0.1 0 0 0.1 0 0.1c0.1 0.2 0.5 0.2 0.5 0.5q0 0 0 0.1c0 0 0.1 0 0.2 0 0.2-0.3 0.2-0.7-0.1-0.9q0 0 0.1 0z"/>
						<path id="&lt;Path&gt;" class="s38" d="m219 323.5c-0.2 0-0.4 0-0.5 0.1q0.1 0.1 0.2 0.2 0.1 0 0.2 0c0-0.1 0-0.2 0-0.3q0 0 0.1 0z"/>
						<path id="&lt;Path&gt;" class="s38" d="m218.5 324.5q-0.1 0-0.1 0.1 0 0 0 0.1-0.1 0.2-0.1 0.3 0.2-0.1 0.5-0.3 0 0 0 0c0.1-0.1 0.1 0 0.1 0 0.1 0 0.2 0 0.2-0.1 0.3-0.5-0.4-0.2-0.6-0.1z"/>
						<path id="&lt;Path&gt;" class="s38" d="m212.5 317.5q-0.1 0-0.1 0-0.1 0.1 0 0.1-0.1 0.2-0.1 0.4 0.2-0.2 0.5-0.4 0 0 0 0c0 0 0.1 0.1 0.1 0.1 0.1 0 0.2-0.1 0.2-0.1 0.3-0.5-0.4-0.2-0.6-0.1z"/>
						<path id="&lt;Path&gt;" class="s38" d="m215.2 322.9q-0.1 0-0.1 0.1c0 0 0.2 0.1 0.3 0.1 0.1-0.1 0.1-0.2 0-0.3-0.1 0-0.2-0.1-0.1-0.1z"/>
						<path id="&lt;Path&gt;" class="s38" d="m217.1 320.6c0.1 0 0.2 0.2 0.1 0.4 0 0.1-0.3 0.1-0.4 0 0-0.2 0.1-0.4 0.2-0.4z"/>
						<path id="&lt;Path&gt;" class="s38" d="m218.7 318.7c0.1-0.1 0.3-0.2 0.4-0.2 0.1 0.1 0 0.3 0 0.4q0 0.1-0.1 0.1c-0.1 0-0.1-0.2-0.3-0.2 0-0.1 0.1-0.1 0.1-0.1z"/>
						<path id="&lt;Path&gt;" class="s38" d="m251.3 339.6c-0.1 0-0.3 0.1-0.4 0.3-0.1 0.2 0 0.4 0.2 0.4q0.1 0 0.1 0 0.1-0.1 0.1-0.1 0.1-0.1 0.1-0.3c0-0.2-0.1-0.3-0.2-0.3z"/>
						<path id="&lt;Path&gt;" class="s38" d="m237.8 339.7q0 0.1 0.1 0.2 0.1 0 0.1 0.1c0.2 0 0.2 0.1 0.3 0.2 0.2 0.2 0.4 0.1 0.6 0.1q0.1-0.1 0.1-0.1 0.1-0.1 0-0.1c-0.1-0.3 0.2-0.4 0.2-0.7-0.1-0.2-0.3-0.4-0.4-0.5-0.5-0.1-1.1 0.4-1 0.8z"/>
						<path id="&lt;Path&gt;" class="s38" d="m214.6 302.8q0 0 0.1 0.1 0 0 0.1 0.1c0.1 0 0.2 0.2 0.3 0.2 0.1 0.2 0.4 0.1 0.6 0.1q0.1 0 0.1-0.1 0-0.1 0-0.1c-0.1-0.3 0.1-0.4 0.1-0.7 0-0.1-0.2-0.4-0.4-0.4-0.5-0.2-1 0.3-0.9 0.8z"/>
						<path id="&lt;Path&gt;" class="s38" d="m220.8 323.4q0.1 0 0.1 0c0 0.1-0.1 0.2-0.1 0.3-0.1 0-0.2 0-0.2 0q-0.1 0-0.1-0.1c-0.1-0.1-0.2-0.1-0.2-0.2q0-0.1 0.1-0.1 0.1 0 0.2 0.1 0.1 0 0.3 0.1z"/>
						<path id="&lt;Path&gt;" class="s38" d="m222.1 324.8c-0.1 0-0.1 0.1-0.1 0.2 0.1 0 0.2 0 0.3 0 0-0.1-0.1-0.3-0.2-0.3z"/>
						<path id="&lt;Path&gt;" class="s38" d="m220.7 325q-0.1 0-0.2 0.1 0 0 0 0.1c0 0.1 0.1 0.1 0.2 0.1 0 0.1 0 0.2 0.1 0.2 0.1 0.1 0.1 0 0.2-0.1q0-0.1-0.1-0.2 0-0.1-0.1-0.2c-0.1 0-0.2 0-0.2 0.1z"/>
						<path id="&lt;Path&gt;" class="s38" d="m220.1 325.2q0 0 0 0.1 0 0.1-0.1 0.1 0 0 0 0c-0.1 0-0.1 0-0.1-0.1 0 0 0-0.1 0.1-0.1q0.1 0 0.1 0.1z"/>
						<path id="&lt;Path&gt;" class="s38" d="m221.2 331.6q0 0.1 0 0.1 0 0.1-0.1 0.1 0 0.1 0 0.1c-0.1 0-0.2-0.1-0.1-0.2 0 0 0-0.1 0.1-0.1q0.1 0.1 0.1 0.2z"/>
						<path id="&lt;Path&gt;" class="s38" d="m219.9 324.6c-0.1-0.1-0.2-0.1-0.3 0q0 0 0.1 0.1 0.1 0.1 0.1 0c0.1 0 0.1-0.1 0-0.1z"/>
						<path id="&lt;Path&gt;" class="s38" d="m214.9 320.4c-0.1-0.1-0.2-0.1-0.3-0.1q0 0.1 0.1 0.2 0.1 0 0.1 0c0.1-0.1 0.1-0.1 0-0.1z"/>
						<path id="&lt;Path&gt;" class="s38" d="m219.3 322.5q-0.2-0.1-0.3 0 0 0.1 0.1 0.3 0 0 0.1 0.1c0.1 0 0.2 0 0.2-0.1 0-0.1 0-0.2-0.1-0.2z"/>
						<path id="&lt;Path&gt;" class="s38" d="m220.3 319.9q0.3-0.1 0.5-0.3c0.1 0.1 0 0.2-0.1 0.3q0 0.1-0.2 0.1c-0.1 0-0.2 0-0.2-0.1z"/>
						<path id="&lt;Path&gt;" class="s38" d="m222.6 318.6c0-0.1-0.2 0-0.3 0.1 0 0.1 0.1 0.3 0.2 0.3q0.1 0 0.2 0c0.1 0 0.1-0.1 0.1-0.2q-0.1-0.1-0.2-0.2z"/>
						<path id="&lt;Path&gt;" class="s38" d="m218.2 319.2c-0.1-0.1-0.2-0.1-0.3-0.1q0 0.1 0.1 0.2c0.1 0.1 0.2 0.2 0.3 0.1 0.1-0.1 0-0.3-0.1-0.3z"/>
						<path id="&lt;Path&gt;" class="s38" d="m219.4 319.5c0 0 0.1 0.1 0.1 0.2q-0.1 0.1-0.2 0.1c-0.1 0-0.1-0.2 0-0.3z"/>
						<path id="&lt;Path&gt;" class="s38" d="m240.2 336.4q0.1 0.1 0.3 0.2 0.1 0.1 0.1 0.1 0.1 0 0.1-0.1c0.2 0 0.3-0.1 0.3-0.2 0-0.2-0.2-0.3-0.3-0.3-0.3-0.2-0.7-0.9-1.1-0.6-0.3 0.2 0.4 0.7 0.6 0.9z"/>
						<path id="&lt;Path&gt;" class="s38" d="m222 319.3q0.1 0 0.1-0.1 0 0.2 0.1 0.3c-0.1 0.1-0.1 0.1-0.2 0.2-0.1 0-0.1-0.1-0.1-0.2q0-0.1 0.1-0.2z"/>
						<path id="&lt;Path&gt;" class="s38" d="m221.3 325.7q0.1 0 0.2 0.1 0 0.1-0.1 0.2c0 0-0.1 0-0.1 0q0 0 0-0.1 0-0.1 0-0.2 0 0 0 0z"/>
						<path id="&lt;Path&gt;" class="s38" d="m221.7 327c-0.1 0 0 0.1 0.1 0.2 0 0 0.1 0.1 0.1 0.2q0 0 0 0c-0.1 0.1-0.1 0-0.2 0q0-0.1-0.1-0.1c-0.1 0-0.2-0.2-0.2-0.3q0.1 0 0.2 0 0.1 0 0.1 0.1z"/>
						<path id="&lt;Path&gt;" class="s38" d="m220.9 327.2q-0.1 0-0.1 0 0 0.1 0.1 0.1c0 0 0.1 0 0.1 0 0-0.1-0.1-0.2-0.1-0.1z"/>
						<path id="&lt;Path&gt;" class="s38" d="m220.6 329.4q0 0-0.1 0 0 0.1 0.1 0.2c0.1 0 0.1-0.1 0.1-0.1 0-0.1 0-0.1-0.1-0.1z"/>
						<path id="&lt;Path&gt;" class="s38" d="m219.6 324c0 0 0.1-0.1 0-0.1q0-0.1 0-0.2-0.1-0.1 0-0.2 0 0 0-0.1 0.1 0 0.1 0.1 0.2 0.1 0.3 0.2c0 0.1 0 0.3 0 0.4q-0.1 0.1-0.3 0.1-0.1-0.1-0.2-0.2z"/>
						<path id="&lt;Path&gt;" class="s38" d="m211.3 321.6c0.1 0 0.1-0.1 0.1-0.1q0-0.1-0.1-0.2 0-0.1 0.1-0.2 0-0.1 0-0.1 0.1 0 0.1 0.1 0.2 0.1 0.3 0.2c0 0.1 0 0.3-0.1 0.4q-0.1 0.1-0.2 0-0.1 0-0.2-0.1z"/>
						<path id="&lt;Path&gt;" class="s38" d="m218 323.3c0 0-0.1 0-0.2 0.1q0 0.1 0.1 0.2 0 0.1 0.1 0.1 0-0.1 0-0.1 0-0.1 0.1-0.3z"/>
						<path id="&lt;Path&gt;" class="s38" d="m214.5 321.7q0-0.3-0.3-0.4-0.1-0.1-0.1-0.1c-0.1 0-0.1 0.2-0.1 0.2 0 0.2-0.1 0.3-0.1 0.4 0 0.1 0.1 0.2 0.1 0.3 0.1 0.1 0.3 0.3 0.4 0.2q0.1-0.1 0.1-0.2 0-0.3 0-0.5z"/>
						<path id="&lt;Path&gt;" class="s38" d="m216.9 316.1c0-0.1-0.1-0.2-0.2-0.2-0.1 0-0.2 0-0.3 0.1 0 0 0 0.2 0.1 0.3q0.1 0.1 0.1 0.2 0.1 0 0.1 0.1 0.1 0 0.1-0.1 0.2-0.2 0.3-0.4z"/>
						<path id="&lt;Path&gt;" class="s38" d="m200.5 319.5c0.3-1.1-1-1.3-1.4-0.5-0.5 0.9 1.1 1.4 1.4 0.5z"/>
						<path id="&lt;Path&gt;" class="s38" d="m222.3 323.4c0.2 0.1 0.2 0.3 0.1 0.4-0.1-0.1-0.2-0.1-0.3-0.3 0-0.1 0.1-0.2 0.2-0.2q0.1 0 0.2 0.1z"/>
						<path id="&lt;Path&gt;" class="s38" d="m237.6 343.9q-0.1 0.1-0.2 0.1 0.2 0.3 0.3 0.6 0 0.1 0.1 0.3c0 0.1 0.1 0.1 0.2 0.2 0.2 0 0.3-0.3 0.3-0.5 0-0.2-0.1-0.5-0.3-0.6-0.2-0.2-0.5-0.2-0.7 0q0.1 0.1 0.2 0.2z"/>
						<path id="&lt;Path&gt;" class="s38" d="m187.5 331.2c0 0-0.1 0-0.1 0.1q0.1 0.1 0.2 0.2 0.2 0.3 0.3 0.6c0.1 0.1 0.2 0.2 0.3 0.2 0 0 0 0 0-0.1q0-0.2-0.1-0.3c-0.2-0.3-0.4-0.6-0.6-0.7q0 0.1 0 0.2z"/>
						<path id="&lt;Path&gt;" class="s38" d="m221.9 328.1q0 0 0 0 0 0.1 0 0.1-0.1 0.1-0.1 0.1-0.1 0-0.1-0.1-0.1-0.1 0-0.2 0 0 0 0 0.1 0 0.1 0z"/>
						<path id="&lt;Path&gt;" class="s38" d="m212.9 310.2q-0.2-0.2-0.4-0.3 0 0 0 0.1c-0.1 0.2 0.2 0.5 0.4 0.5q0 0 0.1-0.1 0 0 0-0.1 0-0.1-0.1-0.1z"/>
						<path id="&lt;Path&gt;" class="s38" d="m219.2 325.3q0 0-0.1 0 0.1 0.1 0.1 0.1c0.1 0.1 0.1 0 0.1 0q0-0.1 0-0.1-0.1 0-0.1-0.1z"/>
						<path id="&lt;Path&gt;" class="s38" d="m217.5 322.1q-0.2 0-0.3 0c-0.1 0.1-0.1 0.1-0.1 0.2q0 0.1 0 0.1c0.1 0.1 0.3 0.1 0.4 0 0.1-0.1 0.1-0.2 0-0.3z"/>
						<path id="&lt;Path&gt;" class="s38" d="m214.4 319.2c0.1-0.1 0.3-0.1 0.3 0.1q-0.1 0-0.2 0.1 0-0.1-0.1-0.2z"/>
						<path id="&lt;Path&gt;" class="s38" d="m228.4 305.7c0 0-0.1 0.1 0 0.2 0 0 0.1 0 0.2-0.1q-0.1-0.1-0.2-0.1z"/>
						<path id="&lt;Path&gt;" class="s38" d="m224.6 322.9q-0.1 0.1-0.2 0.1 0.1 0.1 0.1 0.1c0.1 0 0.1-0.1 0.1-0.1z"/>
						<path id="&lt;Path&gt;" class="s38" d="m223.8 308.7q-0.1 0-0.1 0.1 0 0.1 0 0.1c0.1 0 0.2-0.1 0.1-0.2z"/>
						<path id="&lt;Path&gt;" class="s38" d="m222.5 315.9c0.1-0.1 0.3-0.2 0.5-0.2q0 0 0.1 0.1 0 0 0 0.1c-0.1 0.2-0.2 0.4-0.4 0.5-0.2 0-0.3-0.2-0.3-0.4q0.1 0 0.2-0.1z"/>
						<path id="&lt;Path&gt;" class="s38" d="m242.8 345.3c0.2-0.1 0.4-0.2 0.6-0.2q0 0 0 0 0.1 0.1 0 0.1c0 0.3-0.1 0.5-0.3 0.5-0.2 0.1-0.4-0.2-0.3-0.3q0.1 0 0.2-0.1z"/>
					</g>
					<path id="&lt;Path&gt;" class="s39" d="m218.1 338.4c0 7.9-4.9 14.4-10.9 14.4-6.1 0-11-6.5-11-14.4 0-8 4.9-14.4 11-14.4 6 0 10.9 6.4 10.9 14.4z"/>
					<path id="&lt;Path&gt;" class="s40" d="m247 363.4c0 7.1-4.3 12.8-9.7 12.8-5.3 0-9.6-5.7-9.6-12.8 0-7 4.3-12.7 9.6-12.7 5.4 0 9.7 5.7 9.7 12.7z"/>
					<path id="&lt;Path&gt;" class="s41" d="m228 380.8c-6.9 1.6-13.9-3.5-15.8-11.4-1.8-7.9 2.2-15.5 9.1-17.1 6.8-1.6 13.9 3.4 15.7 11.3 1.9 7.9-2.2 15.6-9 17.2z"/>
					<path id="&lt;Path&gt;" class="s42" d="m250.1 398.1c-21.1 4.9-40.2-0.1-42.8-11.2-2.6-11 12.4-24 33.4-28.9 21-4.9 40.2 0.1 42.8 11.1 2.5 11.1-12.4 24.1-33.4 29z"/>
					<path id="&lt;Path&gt;" class="s9" d="m191.7 390.3l4.3-6.1 2-3.7 2.3 1.8 16.2 2.5 12.2 0.9 15.9 1.9 3.2 2.7-7 2.1-26.9-3.3-9 1.2z"/>
				</g>
			</g>
		</g>
	</g>
</svg>