<svg version="1.2" xmlns="http://www.w3.org/2000/svg" viewBox="0 0 800 400" width="800" height="400">
	<title>1881(2)</title>
	<defs>
		<clipPath clipPathUnits="userSpaceOnUse" id="cp1">
			<path d="m800 400h-800v-400h800z"/>
		</clipPath>
		<linearGradient id="g1" x2="1" gradientUnits="userSpaceOnUse" gradientTransform="matrix(0,-14.811,802.313,0,400.048,335.195)">
			<stop offset="0" stop-color="#006da9"/>
			<stop offset="1" stop-color="#0087bc"/>
		</linearGradient>
		<linearGradient id="g2" x2="1" gradientUnits="userSpaceOnUse" gradientTransform="matrix(0,-64.805,802.313,0,397.568,400)">
			<stop offset="0" stop-color="#0e3d77"/>
			<stop offset="1" stop-color="#128ec7"/>
		</linearGradient>
		<linearGradient id="g3" x2="1" gradientUnits="userSpaceOnUse" gradientTransform="matrix(0,-20.795,198.497,0,701.004,368.857)">
			<stop offset="0" stop-color="#003b86"/>
			<stop offset="1" stop-color="#0b4887"/>
		</linearGradient>
		<linearGradient id="g4" x2="1" gradientUnits="userSpaceOnUse" gradientTransform="matrix(0,-8.337,106.517,0,571.529,375.935)">
			<stop offset="0" stop-color="#00297f"/>
			<stop offset="1" stop-color="#0b3c75"/>
		</linearGradient>
		<linearGradient id="g5" x2="1" gradientUnits="userSpaceOnUse" gradientTransform="matrix(0,-11.587,58.685,0,674.006,358.46)">
			<stop offset="0" stop-color="#003b86"/>
			<stop offset="1" stop-color="#0b4887"/>
		</linearGradient>
		<linearGradient id="g6" x2="1" gradientUnits="userSpaceOnUse" gradientTransform="matrix(0,-5.578,69.48,0,540.328,353.651)">
			<stop offset="0" stop-color="#003b86"/>
			<stop offset="1" stop-color="#0b4887"/>
		</linearGradient>
		<linearGradient id="g7" x2="1" gradientUnits="userSpaceOnUse" gradientTransform="matrix(0,-42.544,239.438,0,677.843,335.195)">
			<stop offset="0" stop-color="#006da9"/>
			<stop offset="1" stop-color="#0074b0"/>
		</linearGradient>
		<linearGradient id="g8" x2="1" gradientUnits="userSpaceOnUse" gradientTransform="matrix(0,-244.21,84.51,0,269.233,348.166)">
			<stop offset="0" stop-color="#002c92"/>
			<stop offset="1" stop-color="#1d0f6d"/>
		</linearGradient>
		<linearGradient id="g9" x2="1" gradientUnits="userSpaceOnUse" gradientTransform="matrix(0,-88.2,99.079,0,556.089,356.985)">
			<stop offset="0" stop-color="#003d9f"/>
			<stop offset="1" stop-color="#1d2486"/>
		</linearGradient>
		<linearGradient id="g10" x2="1" gradientUnits="userSpaceOnUse" gradientTransform="matrix(0,-290.36,194.84,0,468.432,362.336)">
			<stop offset="0" stop-color="#003d9f"/>
			<stop offset="1" stop-color="#1d0f6d"/>
		</linearGradient>
	</defs>
	<style>
		.s0 { fill: url(#g1) } 
		.s1 { opacity: .5;mix-blend-mode: soft-light;fill: #ffffbb } 
		.s2 { fill: url(#g2) } 
		.s3 { fill: url(#g3) } 
		.s4 { fill: url(#g4) } 
		.s5 { fill: #062765 } 
		.s6 { fill: #004d98 } 
		.s7 { fill: #ffffbb } 
		.s8 { fill: url(#g5) } 
		.s9 { fill: url(#g6) } 
		.s10 { fill: url(#g7) } 
		.s11 { fill: url(#g8) } 
		.s12 { opacity: .5;mix-blend-mode: multiply;fill: #610051 } 
		.s13 { fill: url(#g9) } 
		.s14 { fill: url(#g10) } 
		.s15 { fill: #0856a4 } 
		.s16 { fill: #083e98 } 
	</style>
	<g id="_Artboards_">
	</g>
	<g id="space">
		<g id="&lt;Clip Group&gt;" clip-path="url(#cp1)">
			<g id="-e-surface2">
				<g id="&lt;Group&gt;">
					<path id="&lt;Path&gt;" class="s0" d="m-1 335.2h713.2 89.1l-39.2-2.4-18.9-2.2-2.6-3.8-28.4-4.9-27.3 8.3-10.7 2.9h-24.7-15l-13.6-4-31.6 1.1-7 2.9-15.1-2.9-11.8-4.1-19.3 3v4h-13.9-34.9l-9.1-12.7-9.5 1.5-2.4 2.5-3.3 0.3-1.8 2-5.6 2.4-7.1 4h-40.1-11.6-10.3l-8.2-1.8-33.8-3.5-12.3 2.4-42.2 2.9-14.6-1.8h-10.1-17.3l-10.8 1.8h-15.8l-23.3-5.7-4.1 1-24.5 0.7-56.4 4.3-16.2-9.3-23.3 0.3-3.5 2.3-38.6 3-22.1-6-10.4-2z"/>
					<path id="&lt;Path&gt;" class="s1" d="m539.6 330.7l15.8 1.4 5.8-3-5.8-3-19.3 3z"/>
					<path id="&lt;Path&gt;" class="s1" d="m589.3 330.2l15 1.9 13.3-1.4 3.3-1.6z"/>
					<path id="&lt;Path&gt;" class="s1" d="m468.7 321.9l6.8 1.7 4.3-0.9-1.6-2.3z"/>
					<path id="&lt;Path&gt;" class="s1" d="m463 324.7l3.7 2.3 3.3-1.2 2.1-0.2-5.8-1.2z"/>
					<path id="&lt;Path&gt;" class="s1" d="m344.5 327.8l1 4.9 15.9 0.9 3-1.8 13.9-0.5z"/>
				</g>
				<g id="&lt;Group&gt;">
					<path id="&lt;Path&gt;" class="s2" d="m801.3 400h-802.3v-64.8h802.3z"/>
					<path id="&lt;Path&gt;" class="s3" d="m801.3 348.1l-63 2.4-9.7 5.5-25.9 5.9-84.7 6.2-15.2 0.8 78.8-2.3 29.7-2.4 27.4-5.7 61.3-1.8z"/>
					<path id="&lt;Path&gt;" class="s4" d="m625.1 367.6h-15.1l-39.5 2.1-19.7 1.9-32.2 1.7 49.9 2.6c0 0 51.5-5.5 56.6-8.3z"/>
					<path id="&lt;Path&gt;" class="s1" d="m801.3 335.2l-1.3 6.1-115.8 6.8h-39.5l-28.4-6.5-11.2-0.3h-38.2l-87.2 3-97.4-4.6h-71.2l-49.3-4.2z"/>
					<path id="&lt;Path&gt;" class="s1" d="m612.3 367.5l-48.3-4.2h-15.5l-9.5 3.3-39 1-6.6 2.5-12.4 0.9 37.6 2.3 51.9-3.6z"/>
					<path id="&lt;Path&gt;" class="s5" d="m705.2 384.3l34.5-1.9 24.3-0.8 33.5 2.8-42.5 1.7z"/>
					<path id="&lt;Path&gt;" class="s6" d="m369.8 351.8l25.2 0.2 17.9-2.2 33.5 2.8-42.5 1.7z"/>
					<path id="&lt;Path&gt;" class="s1" d="m412.9 349.8h-25.6l-16 2 23.7 0.2z"/>
					<g id="&lt;Group&gt;" style="opacity: .5;mix-blend-mode: soft-light">
						<path id="&lt;Path&gt;" class="s7" d="m493.3 356.2c-1.3-0.4-3.6-0.7-6.7-1-0.5 0-1-0.1-1.7-0.1-1.3-0.1-2.9-0.1-4 0-2.8 0.1-4 0.3-3 0.6 0.9 0.2 3.8 0.5 7.1 0.6 1.8 0.1 3.8 0.1 5.5 0.1 1.7 0 2.8-0.2 2.2-0.3-0.6 0-1.3 0-1.1 0.1z"/>
						<path id="&lt;Path&gt;" class="s7" d="m484.5 357.3c-0.9-0.2-3.2-0.4-5.8-0.5-1.6 0.2-2.6 0.3-1.8 0.5 0.7 0.2 3.6 0.4 6 0.4 2.4-0.1 2.9-0.3 0.6-0.4z"/>
						<path id="&lt;Path&gt;" class="s7" d="m505.5 355.6q-1-0.1-2.2-0.1-0.2-0.1-0.3-0.1-0.2 0-0.3 0.1c-0.4 0 0.3 0.1-0.5 0.1-0.1 0-0.3 0-0.4 0-0.1 0.1 0.2 0.1 0.5 0.1 1.4 0 2.9 0 2.9-0.1q0.1 0 0.2 0z"/>
						<path id="&lt;Path&gt;" class="s7" d="m517.2 354q-1.8-0.2-4.1-0.3-0.3 0-0.6 0-0.3 0-0.4 0c-0.9 0.1 0.4 0.3-1 0.3-0.3 0-0.6 0-0.7 0-0.2 0.1 0.3 0.1 0.8 0.1 2.6 0.1 5.6 0 5.5-0.2q0.2 0.1 0.5 0.1z"/>
						<path id="&lt;Path&gt;" class="s7" d="m462.1 354.7c-0.4-0.1-1.4-0.2-2.6-0.2-0.2 0-0.4 0-0.3 0.1 0 0 0.3 0.1 0.8 0.1 0.8 0 1.4 0 2 0q0 0 0 0z"/>
						<path id="&lt;Path&gt;" class="s7" d="m474.1 350.1q-0.4 0-0.9-0.1-0.5 0-0.9 0-1.1 0.1-2.4 0.1 2.1 0.1 4.2 0.2 0.2 0 0.3 0c0.3 0 0.1 0 0.2 0.1 0.2 0 0.9 0 1.5 0 4.3 0.1-0.6-0.2-2-0.3z"/>
						<path id="&lt;Path&gt;" class="s7" d="m507.4 350.5c0.6 0-0.3 0.1-1.6 0.1-1.2 0-2.1-0.1-1.6-0.2 0.6-0.1 2.4 0 3.1 0z"/>
						<path id="&lt;Path&gt;" class="s7" d="m492.9 353.7c1 0 2.2 0.1 2.2 0.1 0.1 0.1-1.1 0.1-2 0.1-0.4 0-0.8 0-1.1 0-0.7-0.1 0.9-0.1 0.4-0.2 0.1 0 0.6 0 0.5 0z"/>
						<path id="&lt;Path&gt;" class="s7" d="m470.5 355.7q0.6 0 1 0c-0.8 0.1-1.9 0-2.7 0-0.5 0-1.1-0.1-1.1-0.1 0 0 0.3 0 0.4-0.1 0.2 0-0.1-0.1 0.6-0.1 0.4 0 0.8 0 1.1 0.1 0.2 0 0.2 0 0.3 0q0.2 0.1 0.3 0.2z"/>
						<path id="&lt;Path&gt;" class="s7" d="m467.3 356.6c-0.4 0-1.6 0-1.6 0-0.1 0.1 0.5 0.1 1 0.2 0.9 0 1.3-0.1 1-0.2z"/>
						<path id="&lt;Path&gt;" class="s7" d="m524.3 361.4q-0.4 0-0.9 0c-0.3 0-0.8 0-1 0-0.4 0 0 0.1-0.2 0.1-0.1 0-0.8 0.1-0.7 0.1 0 0 0.8 0.1 1.4 0.1 0.6 0 0.9-0.1 1.2-0.1 0.3 0 0.5-0.1 0.5-0.1 0 0-0.4-0.1-1-0.1z"/>
						<path id="&lt;Path&gt;" class="s7" d="m418.1 357.4c0.1 0-0.1 0-0.4 0-0.4 0-0.7 0-1.1 0q-0.3 0-0.5-0.1c-0.2 0-0.1 0 0.4 0 0.4 0 1 0 1.2 0 0.2 0.1 0.1 0.1-0.3 0.1z"/>
						<path id="&lt;Path&gt;" class="s7" d="m458.5 355.4c0.6 0 0.3-0.1-0.4-0.2-0.3 0.1-0.6 0.1-0.6 0.1q-0.1 0.1 0.4 0.1c0.4 0 0.9 0 0.8 0z"/>
						<path id="&lt;Path&gt;" class="s7" d="m464.9 351.9c0.6 0 0.3-0.1-0.5-0.1-0.2 0-0.5 0-0.6 0q0 0.1 0.5 0.1c0.4 0 0.9 0 0.8 0z"/>
						<path id="&lt;Path&gt;" class="s7" d="m470 354.7c0-0.1-0.5-0.1-1.3-0.2q-0.5 0.1-1.1 0.1c-0.1 0.1-0.3 0.1-0.3 0.1 0 0.1 0.8 0.1 1.5 0.1 0.7 0 1.1 0 1.1-0.1z"/>
						<path id="&lt;Path&gt;" class="s7" d="m612.5 355.2q1.9 0.1 3.7 0.2c0 0-1 0-1.6 0-0.7 0-1.4-0.1-1.9-0.1-0.5 0-0.6-0.1-0.1-0.1z"/>
						<path id="&lt;Path&gt;" class="s7" d="m586.2 354.7c0.3 0-0.9-0.1-1.9-0.1-0.9 0-1.4 0.1-1.2 0.1q0.1 0.1 0.6 0.1c0.6 0 1.4 0 1.8 0 0.5 0 0.7 0 0.9-0.1z"/>
						<path id="&lt;Path&gt;" class="s7" d="m487.3 353.5c0.2-0.1-0.1-0.1-0.9-0.2-0.5 0-0.9 0.1-1.1 0.1-0.2 0.1 0.2 0.1 1 0.2 0.8 0 1.8 0 1.4-0.1z"/>
						<path id="&lt;Path&gt;" class="s7" d="m489.9 354.2c0.3 0 0.2 0.1-0.3 0.1q-0.9 0-1.9-0.1c0-0.1 1.1-0.1 2-0.1z"/>
						<path id="&lt;Path&gt;" class="s7" d="m502.7 355.6q0.4 0 0.9 0c-0.4 0-0.8 0.1-1.3 0.1-0.6 0-1.3 0-1.8 0-0.4-0.1-0.3-0.1 0.3-0.1 0.6 0 1.3 0 1.9 0z"/>
						<path id="&lt;Path&gt;" class="s7" d="m457.9 356.4c0.2 0 0.1 0.1-0.3 0.1-0.3 0-0.9 0-1.4 0-0.4 0-0.7-0.1-0.5-0.1 0.1 0 0.2 0 0.4 0q0.9 0 1.7 0 0.1 0 0.1 0z"/>
						<path id="&lt;Path&gt;" class="s7" d="m445.4 356.1c-0.2 0 0.3 0.1 0.8 0.1 0.4 0.1 1 0.1 0.9 0.2q-0.1 0-0.3 0c-0.4 0-0.8 0-1.1-0.1-0.3 0-0.7 0-1 0-0.8-0.1-1.3-0.1-1.2-0.2 0.2 0 0.7 0 1.2 0 0.5 0 0.9 0 1 0.1z"/>
						<path id="&lt;Path&gt;" class="s7" d="m439.1 356.1q-0.4 0-0.7 0c-0.1 0 0.2 0.1 0.6 0.1 0.4 0 0.9 0 0.9 0 0.1-0.1-0.4-0.1-0.8-0.1z"/>
						<path id="&lt;Path&gt;" class="s7" d="m437 357.3q-0.4 0-0.7 0c-0.1 0 0.2 0.1 0.6 0.1 0.4 0 0.9 0 0.9 0 0.1-0.1-0.4-0.1-0.8-0.1z"/>
						<path id="&lt;Path&gt;" class="s7" d="m461.4 355.1c0.2 0 1 0 1.3 0 0.3 0 0.4 0 0.7-0.1 0.3 0 0.8 0 1.3 0 0.3 0 0.6 0 0.8 0.1 0.1 0 0.1 0 0.1 0 0 0.1-0.1 0.1-0.6 0.2-0.4 0-1.4 0.1-2.4 0-0.6 0-1.2 0-1.5-0.1-0.2 0-0.1-0.1 0.4-0.1z"/>
						<path id="&lt;Path&gt;" class="s7" d="m442 350.2c0.2 0.1 0.9 0.1 1.3 0 0.3 0 0.4 0 0.7 0 0.3-0.1 0.7-0.1 1.2-0.1 0.3 0 0.7 0 0.8 0.1 0.2 0 0.2 0 0.2 0 0 0.1-0.1 0.1-0.6 0.2-0.5 0-1.4 0.1-2.4 0-0.7 0-1.3 0-1.5-0.1-0.2 0-0.1-0.1 0.4-0.1z"/>
						<path id="&lt;Path&gt;" class="s7" d="m459.3 354.2c-0.1-0.1-0.8-0.1-1.4-0.1-0.6 0-1 0-1.2 0-0.1 0-0.1 0.1 0.1 0.1q0.3 0 0.6 0 1 0 2.1 0z"/>
						<path id="&lt;Path&gt;" class="s7" d="m502 352.2c0.9 0 0.6-0.1 0.1-0.1-0.3-0.1-0.7-0.1-1.3-0.1-0.8-0.1-1.3 0-1.6 0q-0.5 0.1-0.9 0.2c-0.2 0-0.3 0-0.2 0 0.2 0 0.4 0 0.7 0.1 1.3 0 2.7 0 4.1 0.1z"/>
						<path id="&lt;Path&gt;" class="s7" d="m508.6 354.5c8.2 0 4.4-0.7-2.9-0.8-7.7-0.2-4.3 0.8 2.9 0.8z"/>
						<path id="&lt;Path&gt;" class="s7" d="m477.2 356.5c0 0.1-1.5 0.1-2.6 0.1 0.1-0.1 0.2-0.1 0.9-0.2 0.6 0 1.9 0 2.5 0q0 0.1-0.1 0.2z"/>
						<path id="&lt;Path&gt;" class="s7" d="m446.9 356.7c0.3 0.1 0.5 0.1 0.4 0.1 0 0-0.2 0-0.4 0q-0.3 0.1-0.6 0.1c-0.4 0-0.9-0.1-1.1-0.1-0.2 0-0.1-0.1 0.2-0.1q0.2 0 0.5 0c0.2 0 0.5 0 0.5 0z"/>
						<path id="&lt;Path&gt;" class="s7" d="m451.8 355.2q-0.4-0.1-0.7-0.1c-0.3 0-0.5 0.1-0.5 0.1 0 0 0.5 0 0.8 0q0.2 0 0.2 0 0.2 0 0.5-0.1z"/>
						<path id="&lt;Path&gt;" class="s7" d="m421.8 352.1c-0.4-0.1-0.8-0.1-1.4-0.1-0.5-0.1-1.3-0.1-1.8-0.1q-0.3 0-0.5 0.1c-0.2 0 0.5 0.1 1.5 0.2 0.9 0 1.9 0 2.1-0.1z"/>
						<path id="&lt;Path&gt;" class="s7" d="m471.2 351.4c0.9 0.1 1.2 0.2 0.4 0.2q-0.8 0-1.5 0c0.1-0.1 0.4-0.1 0.8-0.1z"/>
						<path id="&lt;Path&gt;" class="s7" d="m489.9 357.6q-0.6 0-1.2 0-0.3 0-0.4 0c0.4 0.1 1.3 0.1 1.7 0.1z"/>
					</g>
					<g id="&lt;Group&gt;" style="opacity: .5;mix-blend-mode: soft-light">
						<path id="&lt;Path&gt;" class="s7" d="m634.9 376.4c-1.3-0.3-3.6-0.6-6.7-0.9-0.5-0.1-1.1-0.1-1.7-0.1-1.3-0.1-2.9-0.1-4 0-2.8 0-4 0.3-3 0.5 0.9 0.3 3.8 0.5 7 0.7 1.9 0 3.9 0.1 5.6 0.1 1.7-0.1 2.8-0.2 2.1-0.3-0.5-0.1-1.2 0-1.1 0z"/>
						<path id="&lt;Path&gt;" class="s7" d="m626.1 377.6c-1-0.2-3.2-0.4-5.8-0.5-1.6 0.1-2.6 0.3-1.8 0.5 0.7 0.2 3.6 0.4 6 0.3 2.4 0 2.9-0.3 0.6-0.4z"/>
						<path id="&lt;Path&gt;" class="s7" d="m689.1 378.3q-0.9-0.1-2.1-0.2-0.2 0-0.3 0-0.2 0-0.3 0c-0.4 0.1 0.2 0.2-0.5 0.2-0.2 0-0.3 0-0.4 0-0.1 0 0.2 0.1 0.5 0.1 1.3 0 2.9 0 2.8-0.1q0.2 0 0.3 0z"/>
						<path id="&lt;Path&gt;" class="s7" d="m700.9 376.6q-1.8-0.1-4.1-0.2-0.3 0-0.6 0-0.3 0-0.5 0c-0.8 0.1 0.5 0.3-1 0.3-0.2 0-0.6 0-0.7 0-0.2 0.1 0.4 0.1 0.9 0.1 2.6 0.1 5.5 0 5.4-0.2q0.3 0 0.5 0.1z"/>
						<path id="&lt;Path&gt;" class="s7" d="m645.8 377.4c-0.5-0.1-1.5-0.2-2.6-0.2-0.2 0-0.4 0-0.3 0.1 0 0 0.3 0.1 0.8 0.1 0.7 0 1.4 0 1.9-0.1q0 0.1 0 0.1z"/>
						<path id="&lt;Path&gt;" class="s7" d="m615.7 370.4q-0.4-0.1-0.9-0.1-0.5 0-0.9 0-1.1 0-2.4 0.1 2.1 0 4.2 0.1 0.2 0 0.3 0c0.3 0.1 0.1 0.1 0.2 0.1 0.2 0.1 0.9 0.1 1.5 0.1 4.3 0.1-0.6-0.2-2-0.3z"/>
						<path id="&lt;Path&gt;" class="s7" d="m691 373.1c0.6 0.1-0.3 0.2-1.5 0.2-1.2 0-2.2-0.2-1.6-0.2 0.6-0.1 2.4-0.1 3.1 0z"/>
						<path id="&lt;Path&gt;" class="s7" d="m634.5 374c1 0 2.2 0 2.2 0.1 0.1 0.1-1.1 0.1-2 0.1-0.4 0-0.8 0-1.1 0-0.7-0.1 0.9-0.2 0.4-0.2 0.1 0 0.6 0 0.5 0z"/>
						<path id="&lt;Path&gt;" class="s7" d="m612.1 376q0.6 0 0.9 0c-0.7 0-1.8 0-2.7 0-0.5-0.1-1-0.1-1-0.1 0-0.1 0.2-0.1 0.4-0.1 0.2 0-0.1-0.1 0.6-0.1 0.4 0 0.8 0 1.1 0 0.2 0.1 0.2 0.1 0.3 0.1q0.1 0.1 0.3 0.2z"/>
						<path id="&lt;Path&gt;" class="s7" d="m650.9 379.3c-0.4-0.1-1.5 0-1.5 0-0.1 0.1 0.5 0.1 1 0.2 0.9-0.1 1.2-0.1 1-0.2z"/>
						<path id="&lt;Path&gt;" class="s7" d="m708 384.1q-0.4 0-0.9 0c-0.4-0.1-0.8-0.1-1 0-0.4 0-0.1 0-0.2 0.1-0.2 0-0.8 0-0.7 0.1 0 0 0.8 0.1 1.4 0.1 0.5-0.1 0.9-0.1 1.2-0.1 0.3 0 0.5-0.1 0.5-0.1-0.1-0.1-0.4-0.1-1-0.1z"/>
						<path id="&lt;Path&gt;" class="s7" d="m601.7 380c0.2 0.1 0 0.1-0.4 0.1-0.3 0-0.7 0-1 0q-0.3 0-0.5-0.1c-0.3 0-0.1 0 0.3 0 0.5-0.1 1.1 0 1.3 0 0.2 0 0.1 0.1-0.3 0.1z"/>
						<path id="&lt;Path&gt;" class="s7" d="m642.2 378.1c0.6-0.1 0.3-0.1-0.5-0.2-0.3 0-0.5 0.1-0.6 0.1q-0.1 0 0.5 0.1c0.4 0 0.9 0 0.8-0.1z"/>
						<path id="&lt;Path&gt;" class="s7" d="m648.6 374.6c0.6 0 0.3-0.1-0.5-0.1-0.3 0-0.5 0-0.6 0q-0.1 0.1 0.5 0.1c0.4 0 0.8 0 0.8 0z"/>
						<path id="&lt;Path&gt;" class="s7" d="m611.6 375c-0.1-0.1-0.6-0.2-1.3-0.2q-0.6 0.1-1.1 0.1c-0.2 0-0.3 0-0.3 0.1 0 0 0.8 0.1 1.5 0.1 0.6 0 1.1-0.1 1.1-0.1z"/>
						<path id="&lt;Path&gt;" class="s7" d="m796.2 377.9q1.8 0.1 3.7 0.2c0 0-1 0-1.7 0-0.6 0-1.4-0.1-1.9-0.1-0.5-0.1-0.6-0.1 0-0.1z"/>
						<path id="&lt;Path&gt;" class="s7" d="m769.8 377.4c0.3-0.1-0.8-0.1-1.8-0.1-0.9 0-1.4 0-1.2 0.1q0.1 0.1 0.6 0.1c0.6 0 1.3 0 1.8 0 0.5 0 0.7-0.1 0.9-0.1z"/>
						<path id="&lt;Path&gt;" class="s7" d="m628.9 373.8c0.2-0.1-0.2-0.2-0.9-0.2-0.6 0-1 0-1.1 0.1-0.2 0 0.1 0.1 1 0.1 0.8 0.1 1.8 0 1.3 0z"/>
						<path id="&lt;Path&gt;" class="s7" d="m631.4 374.5c0.4 0 0.3 0-0.2 0.1q-0.9-0.1-1.9-0.1c0-0.1 1.1-0.1 2-0.1z"/>
						<path id="&lt;Path&gt;" class="s7" d="m686.4 378.3q0.4 0 0.8 0c-0.3 0-0.7 0.1-1.2 0.1-0.6 0-1.3 0-1.8-0.1-0.5 0-0.3-0.1 0.3-0.1 0.6 0 1.3 0.1 1.9 0.1z"/>
						<path id="&lt;Path&gt;" class="s7" d="m641.6 379.1c0.2 0 0.1 0-0.3 0.1-0.4 0-1 0-1.5-0.1-0.3 0-0.6 0-0.4 0 0.1 0 0.2 0 0.3 0q0.9 0 1.8-0.1 0.1 0 0.1 0.1z"/>
						<path id="&lt;Path&gt;" class="s7" d="m629.1 378.8c-0.2 0 0.2 0.1 0.7 0.1 0.5 0.1 1.1 0.1 1 0.2q-0.1 0-0.3 0c-0.4 0-0.8-0.1-1.2-0.1-0.2 0-0.6 0-0.9 0-0.8-0.1-1.3-0.1-1.2-0.2 0.2 0 0.7 0 1.2 0 0.4 0 0.8 0 0.9 0.1z"/>
						<path id="&lt;Path&gt;" class="s7" d="m622.7 378.8q-0.3 0-0.7 0c0 0 0.3 0.1 0.7 0.1 0.4 0 0.8 0 0.9-0.1 0 0-0.4 0-0.8 0z"/>
						<path id="&lt;Path&gt;" class="s7" d="m620.6 380q-0.3 0-0.7 0c0 0 0.3 0.1 0.7 0.1 0.4 0 0.8 0 0.9-0.1 0 0-0.4 0-0.8 0z"/>
						<path id="&lt;Path&gt;" class="s7" d="m645.1 377.8c0.2 0 0.9 0 1.2 0 0.4 0 0.5 0 0.8-0.1 0.3 0 0.7 0 1.2 0 0.3 0 0.7 0 0.8 0 0.1 0.1 0.2 0.1 0.2 0.1 0 0-0.1 0.1-0.6 0.2-0.5 0-1.4 0-2.4 0-0.7 0-1.3 0-1.5-0.1-0.2 0-0.1-0.1 0.3-0.1z"/>
						<path id="&lt;Path&gt;" class="s7" d="m625.7 372.9c0.2 0 0.9 0 1.2 0 0.3 0 0.5 0 0.7-0.1 0.3 0 0.8 0 1.3 0 0.3 0 0.6 0 0.8 0.1 0.1 0 0.1 0 0.1 0 0.1 0.1 0 0.1-0.5 0.2-0.5 0-1.5 0.1-2.4 0-0.7 0-1.3 0-1.5-0.1-0.3 0-0.1-0.1 0.3-0.1z"/>
						<path id="&lt;Path&gt;" class="s7" d="m643 376.8c-0.1 0-0.8-0.1-1.4-0.1-0.6 0-1.1 0.1-1.3 0.1 0 0 0 0 0.2 0.1q0.3 0 0.6 0 1 0 2.1-0.1z"/>
						<path id="&lt;Path&gt;" class="s7" d="m685.7 374.9c0.8 0 0.5-0.1 0.1-0.2-0.3 0-0.7 0-1.3-0.1-0.8 0-1.3 0.1-1.7 0.1q-0.4 0.1-0.9 0.1c-0.1 0.1-0.2 0.1-0.1 0.1 0.1 0 0.4 0 0.7 0 1.3 0.1 2.7 0.1 4.1 0.1z"/>
						<path id="&lt;Path&gt;" class="s7" d="m692.2 377.2c8.3 0 4.5-0.8-2.8-0.9-7.7-0.1-4.3 0.9 2.8 0.9z"/>
						<path id="&lt;Path&gt;" class="s7" d="m618.8 376.8c0 0.1-1.5 0.1-2.7 0.1 0.2-0.1 0.3-0.2 0.9-0.2 0.7-0.1 2 0 2.6 0q0 0.1-0.1 0.1z"/>
						<path id="&lt;Path&gt;" class="s7" d="m630.6 379.4c0.2 0 0.4 0.1 0.4 0.1 0 0-0.2 0-0.4 0q-0.3 0-0.6 0c-0.5 0-1 0-1.1 0-0.2-0.1-0.1-0.1 0.1-0.1q0.2 0 0.6 0c0.2 0 0.4 0 0.5 0z"/>
						<path id="&lt;Path&gt;" class="s7" d="m635.4 377.8q-0.3 0-0.6 0c-0.3 0-0.6 0-0.6 0.1 0.1 0 0.6 0 0.9 0q0.1 0 0.2 0 0.2-0.1 0.4-0.1z"/>
						<path id="&lt;Path&gt;" class="s7" d="m605.4 374.8c-0.3-0.1-0.7-0.1-1.3-0.2-0.5 0-1.3 0-1.8 0q-0.4 0-0.5 0.1c-0.2 0 0.5 0.1 1.4 0.1 1 0.1 2 0 2.1 0z"/>
						<path id="&lt;Path&gt;" class="s7" d="m612.8 371.7c0.9 0 1.1 0.1 0.4 0.2q-0.8 0-1.5-0.1c0.1 0 0.4 0 0.8-0.1z"/>
						<path id="&lt;Path&gt;" class="s7" d="m631.5 377.9q-0.6 0-1.2-0.1-0.3 0.1-0.4 0.1c0.4 0 1.3 0.1 1.7 0z"/>
						<path id="&lt;Path&gt;" class="s7" d="m713 390c-1.3-0.4-3.6-0.7-6.7-1-0.5 0-1-0.1-1.7-0.1-1.3-0.1-2.8-0.1-4 0-2.8 0.1-3.9 0.3-3 0.6 1 0.2 3.8 0.4 7.1 0.6 1.8 0.1 3.8 0.1 5.5 0.1 1.7-0.1 2.8-0.2 2.2-0.3-0.6 0-1.3 0-1.1 0z"/>
						<path id="&lt;Path&gt;" class="s7" d="m748 374.8c-1-0.2-3.2-0.4-5.8-0.5-1.6 0.1-2.6 0.3-1.8 0.5 0.7 0.2 3.6 0.4 6 0.3 2.4 0 2.9-0.3 0.6-0.4z"/>
						<path id="&lt;Path&gt;" class="s7" d="m661.3 356.1c-0.9-0.2-3.1-0.3-5.7-0.4-1.6 0.1-2.6 0.3-1.9 0.4 0.8 0.2 3.7 0.4 6.1 0.4 2.4 0 2.9-0.3 0.5-0.4z"/>
						<path id="&lt;Path&gt;" class="s7" d="m710.4 373.5c-0.9-0.2-3.2-0.4-5.8-0.5-1.6 0.2-2.6 0.3-1.8 0.5 0.7 0.2 3.6 0.4 6 0.4 2.4-0.1 2.9-0.3 0.6-0.5z"/>
						<path id="&lt;Path&gt;" class="s7" d="m693.1 386.1c-0.9-0.2-3.1-0.4-5.7-0.5-1.6 0.2-2.6 0.3-1.8 0.5 0.7 0.2 3.6 0.4 6 0.4 2.4-0.1 2.9-0.3 0.5-0.5z"/>
						<path id="&lt;Path&gt;" class="s7" d="m672.4 376c-0.9-0.2-3.2-0.3-5.7-0.4-1.7 0.1-2.7 0.3-1.9 0.5 0.7 0.1 3.6 0.3 6 0.3 2.4 0 2.9-0.3 0.6-0.4z"/>
						<path id="&lt;Path&gt;" class="s7" d="m731.9 370q-0.4-0.1-0.9-0.1-0.5 0-0.9 0-1.2 0-2.4 0 2.1 0.1 4.2 0.2 0.2 0 0.3 0c0.3 0.1 0.1 0.1 0.2 0.1 0.2 0.1 0.9 0.1 1.5 0.1 4.3 0.1-0.6-0.2-2-0.3z"/>
						<path id="&lt;Path&gt;" class="s7" d="m750.7 373.6c1 0 2.2 0 2.2 0.1 0 0.1-1.1 0.1-2 0.1-0.4 0-0.8 0-1.1 0-0.7-0.1 0.9-0.2 0.4-0.2 0.1 0 0.6 0 0.5 0z"/>
						<path id="&lt;Path&gt;" class="s7" d="m728.3 375.6q0.6 0 0.9 0c-0.7 0-1.8 0-2.7 0-0.5-0.1-1-0.1-1-0.1 0-0.1 0.2-0.1 0.4-0.1 0.2 0-0.1-0.1 0.6-0.1 0.4 0 0.8 0 1 0 0.3 0 0.3 0.1 0.4 0.1q0.1 0.1 0.3 0.2z"/>
						<path id="&lt;Path&gt;" class="s7" d="m727.8 374.6c-0.1-0.1-0.6-0.2-1.3-0.2q-0.6 0-1.1 0.1c-0.2 0-0.3 0-0.3 0.1 0 0 0.8 0.1 1.5 0.1 0.6 0 1.1-0.1 1.1-0.1z"/>
						<path id="&lt;Path&gt;" class="s7" d="m745.1 373.4c0.2-0.1-0.2-0.2-0.9-0.2-0.6 0-1 0-1.1 0.1-0.2 0 0.1 0.1 1 0.1 0.8 0.1 1.8 0 1.3 0z"/>
						<path id="&lt;Path&gt;" class="s7" d="m747.6 374.1c0.4 0 0.3 0-0.2 0.1q-0.9-0.1-1.9-0.1c0-0.1 1.1-0.1 2-0.1z"/>
						<path id="&lt;Path&gt;" class="s7" d="m738.4 373.7c0 0.1-1.5 0.2-2.6 0.1 0.1-0.1 0.3-0.1 0.9-0.2 0.6 0 1.9 0 2.5 0.1q0 0 0 0.1z"/>
						<path id="&lt;Path&gt;" class="s7" d="m729 371.3c0.9 0 1.1 0.1 0.4 0.2q-0.8 0-1.5-0.1c0.1 0 0.4 0 0.8-0.1z"/>
						<path id="&lt;Path&gt;" class="s7" d="m747.7 377.5q-0.6 0-1.2-0.1-0.3 0.1-0.4 0.1c0.4 0 1.3 0.1 1.7 0z"/>
					</g>
					<path id="&lt;Path&gt;" class="s8" d="m704.5 346.9l-26 9.5-20.8 2.1h-11.9l1.7-10.4 34.1 0.6z"/>
					<path id="&lt;Path&gt;" class="s6" d="m616.3 341.6l3.3 8.4 26.2 8.5 1.7-10.4-14.1-2.6-2.9-3.9z"/>
					<path id="&lt;Path&gt;" class="s6" d="m619.6 350l-36.6-3.1-11.4 1.2-14.6-3.7-25.4-0.6-0.6-1.3 15.8-0.5 20.1-0.7 24.1 0.3h25.3z"/>
					<path id="&lt;Path&gt;" class="s1" d="m571.6 348.1l-27.3 2.5-37-0.2 14.4-3.1 15.9-3.3 19.4 0.4z"/>
					<path id="&lt;Path&gt;" class="s9" d="m507.3 350.4l-1.5 1.8 18.8 1.5 14.9-0.2h14l21.8-1.5-3.7-3.9-27 3.3-13.6-1.3z"/>
					<path id="&lt;Path&gt;" class="s1" d="m766.7 381.4l-34.4-4.9-31.9 1.8-29.6 0.6-10.9 3.5 48.4 1.8z"/>
				</g>
				<path id="&lt;Path&gt;" class="s10" d="m800 292.7l-45 20.6v3.4h-4.3l-22.1 5.3-73.4 10.1-93.3 3.1h239.4z"/>
				<g id="&lt;Group&gt;">
					<g id="&lt;Group&gt;">
						<path id="&lt;Path&gt;" class="s11" d="m664.3 345.9l-84.5 2.3 24.2-11.4 1.3-14.5 11.6-27.3 0.2-1.1v-0.1l3.2-27.6-3.4-67.8 1.7-19.9-1.7-31.5 2.7-43 2 0.5 0.4 45.3 2.9 4.4 5.9 53.8 2.9 7.1 9 59.6 2.4 16.1 9.4 49.7z"/>
						<path id="&lt;Path&gt;" class="s12" d="m642.7 274.7l-30.9 61-6.7-7.3 0.2-6.1 11.8-28.4v-0.1l9.3-8.8-1.8-13.6 1.1-6 0.7-45.6-1.5 1.2v-29.4h1.5l-1.5-37.4 5.9 53.8 2.9 7.1z"/>
						<path id="&lt;Path&gt;" class="s13" d="m644.9 351.2l-26.2-7.9-13.6-14.9-14.3-17.3-2.9-1.9-8.5-30.2h-4.3l-5.7-10.2h-2.3l-0.1 23-3.7 6.8v8.4l-1.5 10.3h-1.5l-4.5 11.1-2 12.3-6.4 10.5-1.6 1.8 27.8 0.8-1.7 2.9 49 0.3 3.1-0.3 10.2-0.8z"/>
						<path id="&lt;Path&gt;" class="s14" d="m782.2 349.9l-21.4 0.1h-0.8l-2.8 0.1-11.8 5.1 4.7 3.2-23.7 2.3-37.1 1.6-29.2-1 2.5-3 2.1-2.3-37.4 1.2-39.9-1.2 11.9-5.3 11.5-10.4 1.2-4.6 6.6-27.4 9-17.3 4.1-7.9 1.5-2.9 1.2-3.6 2.8-9-4.5-37 9.8-8.7v-111.5l6.8-5.4 4.7-11.9 2.3-6.7 11.8-14.4 12.8 67.6v0.2l8.4 44.3 9.2 37.8 0.9-50.2 3.4-2.7v-27.3l4.6 2.1 9.1 74 6.6 4.1 19.9 107.3 7.1 2.6 7 3.9z"/>
						<path id="&lt;Compound Path&gt;" fill-rule="evenodd" class="s12" d="m760.8 350h-0.8l-2.8 0.1-40 0.4-40.7 3.2-1 4.9-12.9-0.3-76.6-1.8 2.3-5.5 0.2-11.6-4.7-4.4-4.6 5.7-5.6 13.1-11.7-0.5 7.2-15.5 1.4-5.3-2.5-16 1.3-23v21.7l6 23.6 4.5-6.5-0.6-9.1 2.3 3.8 2.9-16.1v-14.3l3.5 12.6 2.9 1.9 21 24.6h0.2l10.9-0.7 32-15.5 3.9-24.4-19.3-16.4-11.9 12.3 4.1-7.9 1.5-2.9 4-12.6-4.5-37 12.5 32.6 6.2 6.3 7.2-7.2 5.7-16.8v13.4l11.6-15.7 2.4-20.4-3.4-26.9-12.8-45.9-2.4 3.3-1.1-25.7 4.2-5.9 1.5-7.2v-35.6l3.8-6.9 12.8 67.6v0.2l8.4 44.3 9.2 37.8 4.4 38.3 5.2-7.4v-37.1l-1.6 1.6 0.8-35.3 2.3 1.4-2.2-39.6 9.1 74 6.6 4.1 19.9 107.3 7.1 2.6 7 3.9zm-47-87.7l-5 0.5-11.6 9.4-9.1 8.9-1.1 20.3 7.8-13.9 7.8-4.4 10.2-6.1z"/>
						<path id="&lt;Path&gt;" class="s12" d="m658.1 157.7l-5.2 32.2-2 5.8-2.6 18.8-1.4-22.3 1.8-17.6z"/>
						<path id="&lt;Path&gt;" class="s15" d="m583.8 335l-4.6 5.7-7.3 16 14.1-0.2 2.3-5.5 0.2-11.6z"/>
						<path id="&lt;Path&gt;" class="s15" d="m575.1 279l-1.3 6-4.5 8.5 6.2-4.1 3.9-10.4z"/>
						<path id="&lt;Path&gt;" class="s15" d="m560.3 317.3l0.5 11.8-1.8 8.5-5.2 3.1 2-12.3z"/>
						<path id="&lt;Path&gt;" class="s16" d="m642.5 110.4l14.6 10.1 1.5 7.1 4.2-5.9 1.5-7.2-9.5-10.5-5.5 1z"/>
						<path id="&lt;Path&gt;" class="s16" d="m656.3 86.4l7.8-1.7 5.6-5.7-1.6-7z"/>
						<path id="&lt;Path&gt;" class="s16" d="m622 149.8l-2.3 8.3 2.3 7.6 0.1-8 2.8-3.5z"/>
						<path id="&lt;Path&gt;" class="s16" d="m699.4 171.7l7.9 10.3 2.3 1.4v-9.9l-6.8-4.5z"/>
						<path id="&lt;Path&gt;" class="s16" d="m688.1 281.1l6.7 6.4 18-10.5 1-14.7-5 0.4z"/>
						<path id="&lt;Path&gt;" class="s16" d="m639.5 278.7l-12.7 13.8 16.9 8.8-8.7 2 19.9 16.2 3.9-24.4z"/>
					</g>
				</g>
				<path id="&lt;Path&gt;" class="s6" d="m392.9 340.2l36.4 5.8 30.3 2.7h20.9l41.2-1.4 25.1-5.3-59 2.1-23.3-0.5z"/>
				<path id="&lt;Path&gt;" class="s1" d="m738.3 350.5l-33.8-3.6 95.5-5.6 1.3 6.8z"/>
			</g>
		</g>
	</g>
</svg>